<svg width="84" height="26" viewBox="0 0 84 26" fill="none" xmlns="http://www.w3.org/2000/svg">
<g opacity="0.4" clip-path="url(#clip0_75_3572)">
<path fill-rule="evenodd" clip-rule="evenodd" d="M51.8007 19.6599C46.9677 23.2329 39.9387 25.1369 33.8757 25.1369C25.7884 25.1771 17.9766 22.2006 11.9667 16.7889C11.5277 16.3789 11.9077 15.8219 12.4667 16.1449C18.2866 19.4942 24.8027 21.4511 31.5049 21.8626C38.2072 22.2741 44.9137 21.129 51.0997 18.5169C51.9177 18.1959 52.5917 19.0779 51.8007 19.6599Z" fill="white"/>
<path fill-rule="evenodd" clip-rule="evenodd" d="M53.8204 17.3461C53.2054 16.5551 49.7204 16.9651 48.1674 17.1701C47.6984 17.2291 47.6104 16.819 48.0504 16.526C50.8334 14.564 55.3724 15.1491 55.9004 15.7941C56.4284 16.4391 55.7544 21.0081 53.1474 23.1751C52.7374 23.4971 52.3563 23.321 52.5323 22.882C53.1173 21.418 54.4354 18.1661 53.8204 17.3461Z" fill="white"/>
<path fill-rule="evenodd" clip-rule="evenodd" d="M48.2559 2.75982V0.859822C48.2525 0.79736 48.2624 0.734906 48.2848 0.676503C48.3072 0.6181 48.3416 0.565062 48.3859 0.520833C48.4301 0.476603 48.4831 0.442156 48.5415 0.419759C48.5999 0.397361 48.6624 0.387514 48.7249 0.390828H57.2159C57.3441 0.387577 57.4685 0.434948 57.5621 0.522725C57.6557 0.610501 57.7109 0.731615 57.7159 0.859822V2.47081C57.7159 2.73481 57.4819 3.08583 57.0719 3.67083L52.6788 9.93883C54.353 9.84865 56.0213 10.2011 57.5159 10.9608C57.6456 11.035 57.7541 11.1414 57.8309 11.2695C57.9078 11.3977 57.9505 11.5434 57.9548 11.6928V13.7138C57.9548 14.0068 57.6619 14.3288 57.3399 14.1528C55.954 13.4355 54.4153 13.0635 52.8548 13.0686C51.2943 13.0736 49.7581 13.4555 48.3768 14.1818C48.3069 14.2068 48.232 14.2146 48.1585 14.2044C48.085 14.1941 48.015 14.1663 47.9546 14.1231C47.8941 14.08 47.8451 14.0229 47.8115 13.9567C47.7779 13.8904 47.7609 13.8171 47.7619 13.7428V11.8068C47.7331 11.3542 47.8456 10.9037 48.0838 10.5178L53.1839 3.22481H48.7608C48.6326 3.22806 48.5082 3.18069 48.4146 3.09292C48.321 3.00514 48.2658 2.88403 48.2608 2.75582L48.2559 2.75982ZM17.2969 14.5598H14.7159C14.6003 14.5483 14.4918 14.499 14.4071 14.4197C14.3223 14.3403 14.266 14.2353 14.2469 14.1208V0.885823C14.2518 0.757616 14.3071 0.636502 14.4006 0.548726C14.4942 0.460949 14.6186 0.413578 14.7469 0.416829H17.1469C17.2657 0.418445 17.3796 0.464324 17.4663 0.545522C17.5531 0.626719 17.6064 0.737383 17.6159 0.855824V2.58382H17.6749C17.9029 1.86951 18.3521 1.24618 18.9576 0.803883C19.5631 0.361588 20.2935 0.123219 21.0434 0.123219C21.7932 0.123219 22.5236 0.361588 23.1291 0.803883C23.7346 1.24618 24.1838 1.86951 24.4119 2.58382C24.6688 1.84738 25.1537 1.21193 25.7961 0.769612C26.4386 0.327293 27.2052 0.101105 27.9848 0.12383C28.5636 0.112153 29.1368 0.239013 29.6566 0.493855C30.1763 0.748697 30.6277 1.12413 30.9729 1.58883C31.7929 2.70183 31.6169 4.31282 31.6169 5.74782V14.1248C31.6119 14.253 31.5567 14.3741 31.4631 14.4619C31.3695 14.5497 31.2451 14.5971 31.1169 14.5938H28.5688C28.4469 14.5865 28.3318 14.5347 28.2454 14.4483C28.159 14.3619 28.1072 14.2468 28.0999 14.1248V7.09581C28.1391 6.26546 28.1194 5.43338 28.0408 4.60582C27.9871 4.25354 27.7972 3.93643 27.512 3.72283C27.2267 3.50923 26.869 3.41623 26.5159 3.46383C26.1796 3.47353 25.8536 3.58129 25.5779 3.77388C25.3021 3.96648 25.0887 4.23549 24.9639 4.54781C24.7516 5.37943 24.6726 6.23945 24.7299 7.09581V14.1248C24.7249 14.253 24.6697 14.3741 24.5761 14.4619C24.4825 14.5497 24.3581 14.5971 24.2299 14.5938H21.6528C21.5309 14.5865 21.4158 14.5347 21.3294 14.4483C21.243 14.3619 21.1912 14.2468 21.1839 14.1248V7.09581C21.1839 5.63081 21.4179 3.43483 19.6019 3.43483C17.7569 3.43483 17.8149 5.54381 17.8149 7.09581V14.1248C17.7965 14.25 17.7325 14.3641 17.6353 14.4451C17.538 14.5261 17.4143 14.5684 17.2879 14.5638L17.2969 14.5598ZM65.0388 0.119832C68.8758 0.119832 70.9559 3.39983 70.9559 7.58883C70.9559 11.6308 68.6709 14.8528 65.0388 14.8528C61.2898 14.8528 59.2389 11.5728 59.2389 7.47182C59.2099 3.34182 61.2888 0.119832 65.0388 0.119832ZM65.0388 2.84383C63.1388 2.84383 63.0179 5.45082 63.0179 7.06182C63.0179 8.67282 62.9889 12.1288 65.0099 12.1288C67.0019 12.1288 67.1189 9.34582 67.1189 7.64782C67.1548 6.46418 67.0266 5.28127 66.7379 4.13283C66.6578 3.74928 66.4414 3.4077 66.1289 3.17144C65.8163 2.93517 65.4287 2.82021 65.0379 2.84783L65.0388 2.84383ZM75.9049 14.5598H73.3279C73.2059 14.5525 73.0908 14.5007 73.0044 14.4143C72.918 14.3279 72.8662 14.2128 72.8589 14.0908V0.826833C72.8751 0.705581 72.9346 0.59428 73.0266 0.51357C73.1185 0.43286 73.2365 0.38818 73.3589 0.387807H75.7589C75.8679 0.391451 75.9727 0.430682 76.0574 0.499471C76.1421 0.568259 76.202 0.662842 76.2279 0.768819V2.78981H76.2868C77.0189 0.973815 78.0148 0.124806 79.8018 0.124806C80.3964 0.0977921 80.9877 0.226839 81.517 0.499104C82.0463 0.77137 82.4951 1.17738 82.8188 1.67681C83.4929 2.73181 83.4929 4.51781 83.4929 5.80681V14.1548C83.4752 14.273 83.4142 14.3803 83.3218 14.4561C83.2294 14.5319 83.1122 14.5706 82.9929 14.5648H80.4158C80.3046 14.5543 80.1994 14.5091 80.1152 14.4355C80.0311 14.3619 79.9722 14.2637 79.9469 14.1548V6.94982C79.9469 5.48582 80.1229 3.37682 78.3359 3.37682C78.0123 3.39192 77.6998 3.49914 77.4351 3.68587C77.1704 3.8726 76.9646 4.13104 76.8419 4.43081C76.5285 5.23202 76.3888 6.0906 76.4319 6.94982V14.0968C76.4156 14.2255 76.3533 14.344 76.2564 14.4303C76.1595 14.5165 76.0346 14.5647 75.9049 14.5658V14.5598ZM41.4899 8.23281C41.5856 9.17601 41.4235 10.1275 41.0209 10.9858C40.8575 11.325 40.6049 11.6134 40.29 11.8198C39.9752 12.0263 39.6101 12.1432 39.2339 12.1578C38.2339 12.1578 37.6519 11.3958 37.6519 10.2828C37.6519 8.08283 39.6139 7.67583 41.4889 7.67583L41.4899 8.23281ZM44.0968 14.5328C44.0134 14.6057 43.9092 14.6506 43.7988 14.6612C43.6885 14.6718 43.5777 14.6475 43.4819 14.5918C42.8853 14.109 42.3794 13.5239 41.9879 12.8638C41.4772 13.4882 40.8265 13.9834 40.0885 14.3091C39.3506 14.6349 38.5463 14.7821 37.7409 14.7388C37.2123 14.7698 36.6834 14.6861 36.1903 14.4933C35.6972 14.3005 35.2517 14.0032 34.8844 13.6219C34.5171 13.2407 34.2367 12.7844 34.0624 12.2845C33.8881 11.7845 33.8241 11.2528 33.8748 10.7258C33.8445 9.82502 34.0925 8.93677 34.5851 8.182C35.0778 7.42723 35.791 6.84264 36.6279 6.50783C38.1999 5.98641 39.8355 5.68093 41.4899 5.59981V5.27782C41.5774 4.63459 41.465 3.97999 41.1678 3.40282C40.9995 3.18448 40.7815 3.00942 40.5319 2.8922C40.2823 2.77498 40.0084 2.71897 39.7328 2.72881C39.2561 2.68721 38.7807 2.82239 38.3972 3.10857C38.0136 3.39476 37.7487 3.81196 37.6528 4.28081C37.5938 4.51481 37.4529 4.74981 37.2139 4.74981L34.7238 4.48583C34.6637 4.47738 34.6059 4.45687 34.5539 4.42553C34.5019 4.39419 34.4567 4.35267 34.4211 4.30346C34.3856 4.25424 34.3603 4.19834 34.3468 4.13912C34.3334 4.0799 34.332 4.01858 34.3428 3.95882C34.9288 0.912821 37.6529 0.00481113 40.1129 0.00481113C41.5266 -0.0556416 42.9136 0.402797 44.0128 1.29381C45.2718 2.46581 45.1549 4.04681 45.1549 5.74581V9.75881C45.1713 10.6505 45.5155 11.5049 46.1219 12.1588C46.2979 12.3928 46.3269 12.6858 46.1219 12.8328C45.5609 13.2748 44.6218 14.0948 44.0968 14.5328ZM7.66086 8.23281C7.75659 9.17601 7.59449 10.1275 7.19185 10.9858C7.0285 11.325 6.77585 11.6134 6.46102 11.8198C6.14619 12.0263 5.78108 12.1432 5.40486 12.1578C4.40486 12.1578 3.82286 11.3958 3.82286 10.2828C3.82286 8.08283 5.78485 7.67583 7.65985 7.67583L7.66086 8.23281ZM10.2389 14.5328C10.1554 14.6057 10.0512 14.6506 9.94084 14.6612C9.83053 14.6718 9.71967 14.6475 9.62386 14.5918C9.02728 14.109 8.52139 13.5239 8.12985 12.8638C7.61916 13.4882 6.96845 13.9834 6.23055 14.3091C5.49264 14.6349 4.68832 14.7821 3.88286 14.7388C3.35434 14.7698 2.82537 14.6861 2.33229 14.4933C1.83921 14.3005 1.39371 14.0032 1.0264 13.6219C0.659085 13.2407 0.378659 12.7844 0.204393 12.2845C0.0301277 11.7845 -0.0338427 11.2528 0.0168627 10.7258C-0.0135014 9.82502 0.234506 8.93677 0.727129 8.182C1.21975 7.42723 1.93304 6.84264 2.76985 6.50783C4.34193 5.98641 5.97755 5.68093 7.63185 5.59981V5.27782C7.71941 4.63459 7.607 3.97999 7.30986 3.40282C7.14149 3.18448 6.92346 3.00942 6.67389 2.8922C6.42432 2.77498 6.1504 2.71897 5.87485 2.72881C5.39811 2.68721 4.92273 2.82239 4.53919 3.10857C4.15564 3.39476 3.89072 3.81196 3.79486 4.28081C3.73586 4.51481 3.58985 4.74981 3.35585 4.74981L0.865862 4.48583C0.805725 4.47738 0.747911 4.45687 0.695894 4.42553C0.643877 4.39419 0.598722 4.35267 0.563143 4.30346C0.527563 4.25424 0.502285 4.19834 0.488832 4.13912C0.475379 4.0799 0.474025 4.01858 0.48485 3.95882C1.07085 0.912821 3.79485 0.00481113 6.25485 0.00481113C7.66857 -0.0556416 9.05562 0.402797 10.1549 1.29381C11.4139 2.46581 11.2969 4.04681 11.2969 5.74581V9.75881C11.3134 10.6504 11.6576 11.5048 12.2639 12.1588C12.4399 12.3928 12.4689 12.6858 12.2639 12.8328C11.7069 13.2718 10.7699 14.0918 10.2429 14.5328H10.2389Z" fill="white"/>
</g>
<defs>
<clipPath id="clip0_75_3572">
<rect width="83.493" height="25.138" fill="white"/>
</clipPath>
</defs>
</svg>
