<svg width="74" height="42" viewBox="0 0 74 42" fill="none" xmlns="http://www.w3.org/2000/svg">
<g opacity="0.4">
<path d="M23.8996 37.4411H20.8906V25.5171H23.8996V37.4411Z" fill="white"/>
<path d="M48.1621 28.9341C47.3853 28.5126 46.515 28.293 45.6312 28.2959C45.2018 28.2723 44.7722 28.3377 44.3692 28.4878C43.9662 28.6378 43.5985 28.8693 43.2892 29.168C42.9798 29.4666 42.7355 29.8261 42.5715 30.2236C42.4075 30.6211 42.3274 31.0481 42.3361 31.478C42.3271 31.908 42.407 32.3352 42.5708 32.7329C42.7346 33.1306 42.9789 33.4902 43.2882 33.7891C43.5976 34.0879 43.9654 34.3197 44.3686 34.4697C44.7718 34.6198 45.2017 34.685 45.6312 34.6611C46.5143 34.6631 47.3839 34.4453 48.1621 34.0278V37.228C47.2733 37.5005 46.3498 37.6431 45.4202 37.6518C44.5907 37.6902 43.7621 37.5581 42.9857 37.2637C42.2093 36.9692 41.5016 36.5187 40.9062 35.9399C40.3106 35.3613 39.84 34.667 39.5233 33.8994C39.2067 33.1318 39.0508 32.3073 39.0651 31.477C39.0516 30.6472 39.2081 29.8232 39.5251 29.0561C39.8421 28.2891 40.3128 27.5953 40.9082 27.0171C41.5036 26.439 42.2112 25.9891 42.9871 25.6948C43.7631 25.4006 44.5912 25.2682 45.4202 25.3061C46.3507 25.3087 47.2753 25.453 48.1621 25.7349V28.9341ZM16.7552 28.9341C15.9797 28.5118 15.1101 28.2924 14.2271 28.2969C13.7974 28.2725 13.3673 28.3376 12.9638 28.4873C12.5602 28.637 12.192 28.8683 11.8822 29.167C11.5721 29.4657 11.3273 29.8253 11.1629 30.2231C10.9986 30.621 10.9183 31.0486 10.9271 31.479C10.9182 31.9095 10.9984 32.3373 11.1626 32.7353C11.3267 33.1334 11.5714 33.493 11.8812 33.792C12.1912 34.0908 12.5596 34.3224 12.9633 34.4722C13.367 34.6219 13.7973 34.6866 14.2271 34.6621C15.1094 34.6651 15.9784 34.4472 16.7552 34.0288V37.229C15.8656 37.5029 14.9409 37.6455 14.0102 37.6528C13.181 37.6912 12.3527 37.5591 11.5766 37.2646C10.8005 36.9702 10.0932 36.5197 9.49819 35.9409C8.90324 35.362 8.43323 34.6675 8.11727 33.8999C7.80132 33.1323 7.64608 32.308 7.66116 31.478C7.64741 30.6486 7.80364 29.8253 8.12026 29.0586C8.43689 28.2919 8.90719 27.598 9.50216 27.02C10.0971 26.442 10.8041 25.9922 11.5796 25.6977C12.355 25.4033 13.1825 25.2706 14.0111 25.3081C14.9423 25.3092 15.8677 25.453 16.7552 25.7349V28.9341ZM57.6281 28.3418C57.2163 28.3379 56.8078 28.4166 56.4268 28.5732C56.0459 28.7299 55.7002 28.9614 55.4102 29.2539C55.1202 29.5463 54.8918 29.8937 54.7384 30.2759C54.585 30.658 54.5098 31.0673 54.5172 31.479C54.5094 31.891 54.5844 32.3001 54.7376 32.6826C54.8908 33.0651 55.1191 33.4133 55.4091 33.706C55.6992 33.9988 56.045 34.2304 56.4262 34.3872C56.8073 34.544 57.216 34.623 57.6281 34.6191C58.0403 34.6229 58.449 34.544 58.8301 34.3872C59.2112 34.2304 59.5571 33.9988 59.8472 33.706C60.1374 33.4134 60.366 33.0656 60.5196 32.6831C60.6731 32.3006 60.7485 31.8911 60.7412 31.479C60.7475 31.0668 60.6711 30.6575 60.5165 30.2754C60.3619 29.8932 60.1323 29.5458 59.8412 29.2539C59.551 28.9615 59.2054 28.7304 58.8244 28.5737C58.4435 28.4171 58.0351 28.338 57.6232 28.3418H57.6281ZM63.9232 31.478C63.9308 32.3016 63.772 33.1185 63.4566 33.8794C63.1411 34.6402 62.6754 35.3296 62.0872 35.9062C61.499 36.4829 60.8005 36.935 60.0334 37.2353C59.2664 37.5357 58.4466 37.6778 57.6232 37.6538C56.7999 37.6779 55.9801 37.536 55.213 37.2358C54.446 36.9356 53.7474 36.4837 53.1591 35.9072C52.5708 35.3305 52.1049 34.6409 51.7895 33.8799C51.474 33.1188 51.3154 32.3018 51.3231 31.478C51.3161 30.6546 51.4752 29.8381 51.791 29.0776C52.1069 28.3171 52.5729 27.6284 53.1612 27.0522C53.7494 26.476 54.4478 26.0241 55.2147 25.7241C55.9815 25.4241 56.8011 25.282 57.6242 25.3061C58.4472 25.2824 59.2664 25.4249 60.0331 25.7251C60.7998 26.0253 61.498 26.477 62.0861 27.0532C62.6742 27.6294 63.14 28.3178 63.4558 29.0781C63.7716 29.8384 63.9309 30.6548 63.9242 31.478H63.9232ZM35.3062 28.228C34.5388 28.0166 33.7496 27.895 32.9542 27.8652C31.7482 27.8652 31.0932 28.2648 31.0932 28.8418C31.0932 29.5688 31.9772 29.822 32.4722 29.978L33.3021 30.2422C34.0904 30.4088 34.7997 30.8361 35.3155 31.4551C35.8312 32.0741 36.1235 32.8484 36.1452 33.6538C36.1452 36.6538 33.5112 37.6538 31.2082 37.6538C30.1182 37.6437 29.0314 37.5349 27.9611 37.3281V34.582C28.8853 34.8508 29.8401 34.9998 30.8021 35.0259C32.3021 35.0259 32.9871 34.5881 32.9871 33.9131C32.9871 33.3131 32.3872 32.9601 31.6452 32.7261C31.4642 32.6651 31.1891 32.5801 31.0031 32.5181C29.3271 31.9881 27.9301 31.0028 27.9301 29.0298C27.9301 26.7998 29.6002 25.3022 32.3732 25.3022C33.3622 25.3156 34.3463 25.4427 35.3062 25.6811V28.2261V28.228Z" fill="white"/>
<path d="M4.46844 12.7031C4.46739 12.3078 4.30942 11.9289 4.0293 11.6499C3.74917 11.3709 3.36978 11.2148 2.97443 11.2153C2.57932 11.2151 2.20026 11.3712 1.92023 11.6499C1.64019 11.9286 1.48206 12.307 1.48047 12.7021V15.833C1.49138 16.2225 1.65335 16.5926 1.93219 16.8647C2.21103 17.1369 2.58481 17.2896 2.97443 17.291C3.3645 17.2911 3.73914 17.1387 4.01831 16.8662C4.29748 16.5938 4.45905 16.223 4.46844 15.833V12.7031ZM12.6735 8.59522C12.6735 8.19898 12.516 7.81875 12.2358 7.53857C11.9557 7.2584 11.5757 7.10107 11.1794 7.10107C10.7832 7.10107 10.4032 7.2584 10.123 7.53857C9.84287 7.81875 9.68542 8.19898 9.68542 8.59522V15.833C9.68542 16.2292 9.84287 16.6095 10.123 16.8896C10.4032 17.1698 10.7832 17.3271 11.1794 17.3271C11.5757 17.3271 11.9557 17.1698 12.2358 16.8896C12.516 16.6095 12.6735 16.2292 12.6735 15.833V8.59424V8.59522ZM20.8795 2.97314C20.8784 2.57787 20.7206 2.19905 20.4407 1.91992C20.1609 1.64079 19.7817 1.48437 19.3864 1.48438C18.9908 1.48411 18.6112 1.64055 18.3311 1.91992C18.051 2.19929 17.8933 2.5785 17.8925 2.97412V18.8071C17.9021 19.1969 18.0638 19.5676 18.3429 19.8398C18.622 20.1121 18.9965 20.2643 19.3864 20.2642C19.7763 20.2643 20.1509 20.1121 20.43 19.8398C20.7091 19.5676 20.8708 19.1969 20.8804 18.8071L20.8795 2.97314ZM29.0845 8.59522C29.0845 8.19898 28.927 7.81875 28.6469 7.53857C28.3667 7.2584 27.9867 7.10107 27.5905 7.10107C27.1942 7.10107 26.8142 7.2584 26.534 7.53857C26.2538 7.81875 26.0964 8.19898 26.0964 8.59522V15.833C26.0964 16.2292 26.2538 16.6095 26.534 16.8896C26.8142 17.1698 27.1942 17.3271 27.5905 17.3271C27.9867 17.3271 28.3667 17.1698 28.6469 16.8896C28.927 16.6095 29.0845 16.2292 29.0845 15.833V8.59424V8.59522ZM37.2844 12.7031C37.2847 12.3089 37.1284 11.9309 36.85 11.6519C36.5715 11.3728 36.1936 11.2159 35.7994 11.2153C35.4042 11.2145 35.0248 11.3706 34.7446 11.6494C34.4645 11.9283 34.3065 12.3069 34.3054 12.7021V15.833C34.3054 16.2279 34.4623 16.607 34.7416 16.8862C35.0208 17.1655 35.3995 17.3223 35.7944 17.3223C36.1885 17.3209 36.566 17.1634 36.8441 16.8843C37.1223 16.6052 37.2784 16.2271 37.2784 15.833L37.2844 12.7031ZM45.4935 8.59522C45.4838 8.20666 45.3227 7.83737 45.0445 7.56592C44.7663 7.29447 44.3931 7.14223 44.0045 7.14209C43.6158 7.14223 43.2425 7.29447 42.9644 7.56592C42.6862 7.83737 42.5251 8.20666 42.5154 8.59522V15.833C42.5154 16.2279 42.6723 16.607 42.9515 16.8862C43.2308 17.1655 43.6095 17.3223 44.0045 17.3223C44.3994 17.3223 44.7781 17.1655 45.0573 16.8862C45.3366 16.607 45.4935 16.2279 45.4935 15.833V8.59424V8.59522ZM53.7045 2.97314C53.7042 2.57841 53.5472 2.19992 53.2679 1.9209C52.9887 1.64187 52.6102 1.48535 52.2155 1.48535C51.8207 1.48535 51.4421 1.64187 51.1629 1.9209C50.8837 2.19992 50.7267 2.57841 50.7264 2.97314V18.8071C50.7146 19.0759 50.7758 19.3428 50.9034 19.5796C51.0311 19.8164 51.2204 20.0145 51.4514 20.1523C51.6825 20.29 51.9465 20.3623 52.2155 20.3623C52.4844 20.3623 52.7484 20.29 52.9794 20.1523C53.2106 20.0144 53.4001 19.8161 53.5277 19.5791C53.6554 19.3421 53.7165 19.0751 53.7045 18.8062V2.97314ZM61.9135 8.59522C61.9128 8.39802 61.8732 8.20288 61.797 8.021C61.7208 7.83911 61.6095 7.67398 61.4694 7.53516C61.3291 7.3968 61.163 7.2875 60.9804 7.21338C60.7978 7.13926 60.6025 7.10162 60.4055 7.10303C60.0105 7.10329 59.6317 7.26064 59.3525 7.54004C59.0733 7.81944 58.9164 8.19826 58.9164 8.59326V15.832C58.9159 16.028 58.9541 16.2221 59.0287 16.4033C59.1034 16.5845 59.213 16.7494 59.3514 16.8882C59.6308 17.1681 60.01 17.3256 60.4055 17.3262C60.6028 17.3279 60.7985 17.2906 60.9813 17.2163C61.1641 17.142 61.3303 17.032 61.4705 16.8931C61.6108 16.7543 61.7221 16.5893 61.7982 16.4072C61.8742 16.2251 61.9134 16.0294 61.9135 15.832V8.59326V8.59522ZM70.1074 12.7031C70.1074 12.3077 69.9503 11.9285 69.6707 11.6489C69.3911 11.3693 69.0119 11.2119 68.6165 11.2119C68.221 11.2119 67.8418 11.3693 67.5621 11.6489C67.2825 11.9285 67.1254 12.3077 67.1254 12.7031V15.833C67.125 16.0291 67.1633 16.2235 67.238 16.4048C67.3128 16.5861 67.4226 16.7508 67.561 16.8896C67.6995 17.0285 67.864 17.1386 68.0451 17.2139C68.2262 17.2891 68.4204 17.328 68.6165 17.3281C68.8124 17.3279 69.0063 17.2891 69.1873 17.2139C69.3682 17.1386 69.5325 17.0284 69.6708 16.8896C69.8092 16.7509 69.9189 16.5864 69.9937 16.4053C70.0684 16.2242 70.1067 16.0299 70.1064 15.834V12.7041L70.1074 12.7031Z" fill="white"/>
<path d="M68.3826 35.8711V36.0581H67.8506V37.4414H67.6316V36.0591H67.0977V35.8711H68.3826ZM68.4937 35.8711H68.8356L69.3055 37.1592H69.3136L69.7686 35.8721H70.1046V37.4414H69.8806V36.1543H69.8726L69.3966 37.4414H69.1896L68.7246 36.1543H68.7146V37.4414H68.4956L68.4937 35.8711Z" fill="white"/>
</g>
</svg>
