<svg width="122" height="24" viewBox="0 0 122 24" fill="none" xmlns="http://www.w3.org/2000/svg">
<g opacity="0.4" clip-path="url(#clip0_75_3587)">
<path fill-rule="evenodd" clip-rule="evenodd" d="M3.70064 2.23493C4.60891 1.44576 5.6644 0.844175 6.80627 0.464868C7.94814 0.0855613 9.15379 -0.0639673 10.3537 0.0249028C11.5537 0.113773 12.7241 0.439284 13.7977 0.982669C14.8712 1.52605 15.8265 2.27656 16.6086 3.19093C18.2905 4.89166 19.2728 7.16163 19.3613 9.55185C19.4498 11.9421 18.6381 14.2785 17.0866 16.0989L9.91564 23.2699C8.48164 22.3139 6.09164 20.4019 7.04764 18.4889C8.95964 16.0989 11.3476 14.1889 13.2626 11.7959C14.6966 9.88393 13.7406 6.05893 10.8726 5.58093C10.2291 5.35597 9.53851 5.30002 8.8671 5.41843C8.1957 5.53684 7.56595 5.82565 7.03816 6.2572C6.51036 6.68875 6.10221 7.24858 5.85278 7.88308C5.60336 8.51758 5.52102 9.20549 5.61364 9.88093C5.61364 12.2709 7.52564 13.7049 8.95964 15.1399C7.52564 16.5739 5.61364 17.5299 5.61364 19.4399C4.17964 17.5279 1.78964 16.0939 0.832643 13.7029C-0.0413826 11.7461 -0.233812 9.55272 0.286142 7.47363C0.806096 5.39454 2.00838 3.54993 3.70064 2.23493Z" fill="white"/>
<path fill-rule="evenodd" clip-rule="evenodd" d="M34.297 2.23512C34.775 0.801117 36.209 1.27912 37.165 1.27912V18.9621H34.297V17.5321C33.146 18.4601 31.712 18.9662 30.2335 18.9662C28.755 18.9662 27.321 18.4601 26.17 17.5321C24.8461 16.3233 24.0531 14.6405 23.9636 12.85C23.8741 11.0594 24.4953 9.30597 25.692 7.97112C26.7682 6.79981 28.232 6.0577 29.8129 5.88196C31.3938 5.70622 32.9849 6.10874 34.292 7.01512L34.297 2.23512ZM29.997 8.45012C27.607 8.92812 25.697 12.2741 27.607 14.6651C27.9641 15.1861 28.452 15.6039 29.0217 15.8766C29.5913 16.1494 30.2227 16.2675 30.8524 16.2191C31.4822 16.1706 32.0881 15.9574 32.6093 15.6007C33.1306 15.2441 33.5488 14.7565 33.822 14.1871C35.253 11.7961 32.862 8.44912 29.994 8.44912L29.997 8.45012Z" fill="white"/>
<path fill-rule="evenodd" clip-rule="evenodd" d="M39.5547 6.05883H42.4227V7.01483C43.3787 5.58083 45.2907 5.58083 47.2037 6.05883C46.7257 7.01483 46.2477 7.49283 46.2477 8.44883C44.3357 7.97083 42.4237 8.92683 42.4237 10.3608V17.5318C41.9447 18.9708 40.5107 18.9708 39.5547 18.9708V6.05883Z" fill="white"/>
<path fill-rule="evenodd" clip-rule="evenodd" d="M51.5063 6.06009C56.2873 4.14809 61.0673 8.92809 60.1063 13.7091C59.1453 18.4901 52.4573 20.8801 49.1063 17.5331C45.2823 14.1871 46.7163 7.01609 51.4963 6.06009H51.5063ZM52.9403 8.45009C52.1375 8.66424 51.4055 9.08635 50.818 9.67383C50.2305 10.2613 49.8084 10.9933 49.5943 11.7961C49.4962 12.3415 49.5232 12.9021 49.6734 13.4355C49.8236 13.969 50.093 14.4613 50.4613 14.8754C50.8295 15.2895 51.2871 15.6146 51.7993 15.826C52.3115 16.0375 52.8651 16.1298 53.4183 16.0961C55.3303 16.0961 57.2423 14.6621 57.2423 12.7501C57.2423 10.3621 54.8533 7.97209 52.9423 8.45009H52.9403Z" fill="white"/>
<path fill-rule="evenodd" clip-rule="evenodd" d="M62.0234 6.05879H64.8914V7.01479C66.1986 6.10841 67.7896 5.70589 69.3705 5.88163C70.9514 6.05737 72.4153 6.79948 73.4914 7.97078C74.0824 8.58506 74.5411 9.31401 74.8393 10.1126C75.1374 10.9112 75.2686 11.7624 75.2247 12.6136C75.1808 13.4649 74.9629 14.2982 74.5842 15.0619C74.2056 15.8256 73.6744 16.5035 73.0234 17.0538C71.1114 19.4438 67.2864 19.4438 64.8964 18.0098V22.3098C64.4184 23.7438 62.9844 23.7438 62.0284 23.7438V6.05879H62.0234ZM68.2384 8.44879C65.3704 8.92679 63.9384 12.2728 65.3704 14.1858C66.8044 16.5758 70.6294 16.5758 71.5854 14.1858C73.4964 11.7948 71.1064 8.44879 68.2384 8.44879Z" fill="white"/>
<path fill-rule="evenodd" clip-rule="evenodd" d="M80.1893 6.53782C81.3992 5.85935 82.7946 5.58612 84.171 5.75815C85.5474 5.93018 86.8326 6.53844 87.8383 7.49382C87.3603 7.97182 86.8823 8.92782 85.9263 9.40582C85.4807 9.04481 84.9573 8.79233 84.3973 8.66831C83.8374 8.54429 83.2563 8.55212 82.7 8.69119C82.1436 8.83026 81.6271 9.09676 81.1914 9.46965C80.7557 9.84254 80.4126 10.3116 80.1893 10.8398C79.9815 11.4059 79.9071 12.0122 79.9717 12.6118C80.0364 13.2113 80.2384 13.7878 80.5621 14.2966C80.8858 14.8053 81.3224 15.2326 81.8381 15.5452C82.3537 15.8577 82.9345 16.0472 83.5353 16.0988C84.4913 16.0988 85.4473 15.6208 86.4033 15.6208C87.2572 15.9968 87.9393 16.6789 88.3153 17.5328C84.9693 20.4008 79.2323 19.4448 77.7983 15.1428C75.8863 12.2738 77.3203 8.44782 80.1893 6.53782Z" fill="white"/>
<path fill-rule="evenodd" clip-rule="evenodd" d="M88.3167 14.6641C86.8847 10.3621 90.2287 5.58105 94.5317 5.58105C96.2528 5.65618 97.8979 6.3111 99.1998 7.4394C100.502 8.5677 101.384 10.1031 101.703 11.7961V18.9671C100.269 18.9671 99.3127 18.9671 98.3567 18.0111C95.0107 20.4011 89.7567 18.4891 88.3177 14.6651L88.3167 14.6641ZM94.5317 8.44905C93.8733 8.57292 93.2541 8.85246 92.7258 9.26436C92.1975 9.67626 91.7754 10.2086 91.4947 10.8168C91.214 11.4251 91.0829 12.0917 91.1123 12.761C91.1417 13.4302 91.3307 14.0827 91.6637 14.6641C93.5757 17.0541 97.4007 16.5761 98.3567 14.1861C98.6015 13.5557 98.691 12.8756 98.6175 12.2034C98.5441 11.5311 98.3099 10.8864 97.9348 10.3237C97.5596 9.76105 97.0546 9.29696 96.4622 8.97067C95.8699 8.64437 95.2077 8.46546 94.5317 8.44905Z" fill="white"/>
<path fill-rule="evenodd" clip-rule="evenodd" d="M103.615 6.06009H106.483V7.01609C107.917 5.10409 111.264 5.58209 113.176 7.49409C115.566 4.62609 120.347 5.58209 121.303 8.92809C121.781 11.7961 121.303 15.1431 121.303 18.0111C121.303 18.9671 119.869 18.9671 118.435 18.9671C118.435 16.0991 118.913 13.2301 118.435 10.3671C118.342 9.86519 118.076 9.41183 117.683 9.08556C117.29 8.75929 116.796 8.58068 116.285 8.58068C115.775 8.58068 115.28 8.75929 114.888 9.08556C114.495 9.41183 114.229 9.86519 114.135 10.3671V18.9671H111.267C111.346 15.9316 111.187 12.8945 110.789 9.88409C110.311 7.97209 106.965 8.45009 106.965 10.3621C106.568 13.2106 106.408 16.0871 106.487 18.9621H103.615V6.06009Z" fill="white"/>
</g>
<defs>
<clipPath id="clip0_75_3587">
<rect width="121.516" height="23.743" fill="white"/>
</clipPath>
</defs>
</svg>
