<svg width="99" height="30" viewBox="0 0 99 30" fill="none" xmlns="http://www.w3.org/2000/svg">
<g opacity="0.4" clip-path="url(#clip0_75_3603)">
<path d="M14.757 3.38876e-08C11.8385 0.000197812 8.98572 0.86579 6.55924 2.48732C4.13276 4.10885 2.2416 6.41349 1.12491 9.10982C0.00821292 11.8061 -0.283862 14.773 0.285614 17.6354C0.85509 20.4977 2.26054 23.1269 4.32425 25.1904C6.38795 27.254 9.01722 28.6593 11.8796 29.2285C14.7419 29.7978 17.7088 29.5055 20.4051 28.3887C23.1013 27.2718 25.4058 25.3805 27.0272 22.9539C28.6486 20.5273 29.514 17.6744 29.514 14.756C29.514 12.8181 29.1323 10.8992 28.3906 9.10889C27.649 7.31855 26.562 5.69181 25.1917 4.32158C23.8213 2.95134 22.1945 1.86445 20.4041 1.12295C18.6137 0.381447 16.6948 -0.000131294 14.757 3.38876e-08ZM21.524 21.282C21.4606 21.3848 21.3777 21.4741 21.2798 21.5448C21.1819 21.6155 21.0711 21.6663 20.9536 21.6941C20.8361 21.722 20.7143 21.7264 20.5951 21.7072C20.4759 21.6879 20.3617 21.6454 20.259 21.582C16.794 19.466 12.433 18.982 7.29596 20.16C7.05806 20.2142 6.80836 20.1717 6.60179 20.0419C6.39522 19.912 6.2487 19.7054 6.19446 19.4675C6.14022 19.2296 6.18271 18.9799 6.31258 18.7733C6.44245 18.5668 6.64906 18.4202 6.88696 18.366C12.508 17.082 17.33 17.635 21.219 20.012C21.3227 20.075 21.413 20.158 21.4846 20.2561C21.5561 20.3541 21.6076 20.4654 21.6359 20.5835C21.6643 20.7015 21.669 20.824 21.6498 20.9439C21.6306 21.0638 21.5878 21.1787 21.524 21.282ZM23.33 17.264C23.1705 17.5241 22.9142 17.7102 22.6176 17.7814C22.321 17.8527 22.0082 17.8032 21.748 17.644C17.269 15.1469 11.9826 14.528 7.04796 15.923C6.75622 16.0122 6.44098 15.9819 6.17158 15.8388C5.90219 15.6956 5.70071 15.4512 5.61146 15.1595C5.52221 14.8678 5.55252 14.5525 5.6957 14.2831C5.83888 14.0137 6.08322 13.8122 6.37496 13.723C9.12881 12.9302 12.0132 12.6952 14.8591 13.0318C17.705 13.3683 20.455 14.2697 22.948 15.683C23.0767 15.762 23.1887 15.8655 23.2775 15.9878C23.3662 16.11 23.43 16.2486 23.4652 16.3955C23.5004 16.5424 23.5063 16.6948 23.4826 16.844C23.4589 16.9932 23.406 17.1362 23.327 17.265L23.33 17.264ZM23.485 13.08C18.729 10.255 10.885 9.995 6.34196 11.374C6.16745 11.4305 5.98344 11.4516 5.80067 11.4361C5.61791 11.4207 5.44006 11.3689 5.27752 11.2839C5.11499 11.199 4.97102 11.0824 4.85405 10.9411C4.73708 10.7999 4.64945 10.6367 4.59627 10.4611C4.5431 10.2856 4.52545 10.1012 4.54436 9.91877C4.56327 9.73633 4.61837 9.55949 4.70642 9.39858C4.79447 9.23768 4.91371 9.09595 5.05717 8.98167C5.20064 8.86738 5.36545 8.78285 5.54196 8.733C10.754 7.151 19.419 7.456 24.895 10.707C25.0508 10.7994 25.187 10.9217 25.2956 11.0668C25.4043 11.2118 25.4832 11.3769 25.5281 11.5525C25.5729 11.7281 25.5828 11.9108 25.557 12.0902C25.5313 12.2696 25.4704 12.4421 25.378 12.598C25.2855 12.7539 25.1633 12.89 25.0182 12.9987C24.8731 13.1073 24.7081 13.1863 24.5325 13.2311C24.3569 13.276 24.1742 13.2858 23.9948 13.2601C23.8154 13.2343 23.6428 13.1734 23.487 13.081L23.485 13.08ZM40.148 13.623C37.6 13.015 37.148 12.589 37.148 11.693C37.148 10.846 37.948 10.277 39.13 10.277C40.4047 10.3225 41.6287 10.7876 42.612 11.6C42.6298 11.6132 42.6502 11.6227 42.6717 11.628C42.6933 11.6333 42.7157 11.6342 42.7377 11.6308C42.7596 11.6273 42.7807 11.6196 42.7996 11.6079C42.8185 11.5963 42.835 11.581 42.848 11.563L44.092 9.809C44.1166 9.77422 44.127 9.73134 44.1211 9.68914C44.1151 9.64694 44.0933 9.60861 44.06 9.582C42.6814 8.45437 40.9477 7.85203 39.167 7.882C36.416 7.882 34.494 9.533 34.494 11.895C34.494 14.428 36.152 15.325 39.017 16.017C41.454 16.579 41.866 17.049 41.866 17.89C41.866 18.822 41.034 19.402 39.695 19.402C38.1762 19.3903 36.7213 18.7894 35.637 17.726C35.6031 17.6972 35.5594 17.6825 35.515 17.685C35.4929 17.6865 35.4713 17.6924 35.4516 17.7023C35.4318 17.7123 35.4143 17.7261 35.4 17.743L34 19.403C33.9719 19.4363 33.9579 19.4793 33.9608 19.5227C33.9638 19.5662 33.9836 19.6068 34.016 19.636C35.5542 21.0298 37.5582 21.7977 39.634 21.789C42.598 21.789 44.513 20.17 44.513 17.662C44.518 15.546 43.251 14.374 40.148 13.62H40.143L40.148 13.623ZM51.224 11.11C50.6062 11.1019 49.9951 11.237 49.4383 11.5047C48.8815 11.7724 48.3944 12.1655 48.015 12.653V11.485C48.0151 11.4631 48.0109 11.4414 48.0026 11.4212C47.9943 11.4009 47.9821 11.3825 47.9667 11.367C47.9513 11.3515 47.9329 11.3391 47.9127 11.3307C47.8925 11.3223 47.8708 11.318 47.849 11.318H45.568C45.5461 11.318 45.5244 11.3223 45.5042 11.3307C45.484 11.3391 45.4657 11.3515 45.4502 11.367C45.4348 11.3825 45.4226 11.4009 45.4143 11.4212C45.406 11.4414 45.4018 11.4631 45.402 11.485V24.454C45.402 24.4981 45.4194 24.5404 45.4505 24.5717C45.4816 24.603 45.5238 24.6207 45.568 24.621H47.848C47.8921 24.6207 47.9343 24.603 47.9654 24.5717C47.9965 24.5404 48.014 24.4981 48.014 24.454V20.361C48.4074 20.8263 48.8995 21.198 49.4546 21.4492C50.0097 21.7003 50.6138 21.8246 51.223 21.813C53.611 21.813 56.028 19.975 56.028 16.462C56.028 12.949 53.614 11.109 51.228 11.109L51.224 11.11ZM53.376 16.462C53.4159 16.8408 53.3768 17.2237 53.261 17.5865C53.1452 17.9493 52.9553 18.2842 52.7034 18.5698C52.4514 18.8554 52.1429 19.0855 51.7974 19.2457C51.4518 19.4058 51.0767 19.4924 50.696 19.5C50.3143 19.4878 49.939 19.3986 49.5926 19.2378C49.2462 19.0769 48.9359 18.8478 48.6803 18.564C48.4247 18.2803 48.229 17.9479 48.1051 17.5866C47.9811 17.2254 47.9314 16.8429 47.959 16.462C47.9313 16.081 47.9809 15.6984 48.1048 15.337C48.2287 14.9757 48.4243 14.6431 48.6799 14.3593C48.9356 14.0755 49.2459 13.8462 49.5923 13.6853C49.9388 13.5244 50.3142 13.4352 50.696 13.423C51.0752 13.435 51.448 13.5245 51.7914 13.686C52.1347 13.8476 52.4414 14.0777 52.6924 14.3622C52.9435 14.6467 53.1337 14.9796 53.2512 15.3404C53.3688 15.7012 53.4112 16.0822 53.376 16.46V16.462ZM62.223 11.11C61.1663 11.1299 60.1391 11.4616 59.2703 12.0633C58.4015 12.665 57.7299 13.5101 57.3398 14.4922C56.9496 15.4744 56.8584 16.55 57.0775 17.5839C57.2966 18.6177 57.8162 19.5638 58.5712 20.3033C59.3262 21.0428 60.2829 21.5428 61.321 21.7404C62.3592 21.9381 63.4327 21.8246 64.4066 21.4142C65.3805 21.0038 66.2114 20.3148 66.795 19.4337C67.3786 18.5527 67.6889 17.5188 67.687 16.462C67.6833 15.7507 67.5387 15.0472 67.2615 14.3922C66.9842 13.7372 66.5798 13.1436 66.0717 12.6459C65.5635 12.1482 64.9617 11.7562 64.3011 11.4925C63.6405 11.2289 62.9342 11.0989 62.223 11.11ZM62.223 19.518C61.8312 19.5144 61.4443 19.4314 61.0856 19.2742C60.7268 19.1169 60.4036 18.8886 60.1355 18.603C59.8674 18.3174 59.6599 17.9805 59.5256 17.6125C59.3912 17.2445 59.3329 16.8532 59.354 16.462C59.3286 16.0747 59.3831 15.6864 59.514 15.3211C59.6449 14.9557 59.8495 14.6211 60.115 14.3381C60.3805 14.055 60.7013 13.8295 61.0576 13.6756C61.4138 13.5216 61.7979 13.4424 62.186 13.443C62.5788 13.4457 62.967 13.528 63.3271 13.6848C63.6873 13.8416 64.012 14.0696 64.2817 14.3553C64.5514 14.6409 64.7604 14.9782 64.8962 15.3468C65.032 15.7154 65.0918 16.1077 65.072 16.5C65.0964 16.8884 65.0407 17.2777 64.9083 17.6437C64.776 18.0097 64.5699 18.3446 64.3027 18.6276C64.0356 18.9106 63.7131 19.1356 63.3553 19.2888C62.9976 19.442 62.6121 19.52 62.223 19.518ZM74.253 11.318H71.742V8.751C71.7421 8.72912 71.7379 8.70742 71.7296 8.68717C71.7213 8.66691 71.7091 8.64849 71.6937 8.63297C71.6783 8.61745 71.6599 8.60513 71.6397 8.59673C71.6195 8.58833 71.5978 8.584 71.576 8.584H69.295C69.2507 8.58426 69.2084 8.60194 69.1772 8.6332C69.1459 8.66446 69.1282 8.70679 69.128 8.751V11.318H68.028C68.0061 11.318 67.9844 11.3223 67.9642 11.3307C67.944 11.3391 67.9257 11.3515 67.9102 11.367C67.8948 11.3825 67.8826 11.4009 67.8743 11.4212C67.866 11.4414 67.8618 11.4631 67.862 11.485V13.446C67.862 13.4901 67.8794 13.5324 67.9105 13.5637C67.9416 13.595 67.9838 13.6127 68.028 13.613H69.128V18.687C69.128 20.736 70.148 21.776 72.162 21.776C72.9088 21.7939 73.6467 21.6101 74.298 21.244C74.3238 21.2299 74.3454 21.2091 74.3603 21.1837C74.3753 21.1584 74.3831 21.1294 74.383 21.1V19.231C74.3829 19.2027 74.3756 19.1749 74.3618 19.1502C74.348 19.1256 74.3281 19.1048 74.304 19.09C74.28 19.0747 74.2523 19.066 74.2239 19.0648C74.1955 19.0635 74.1672 19.0698 74.142 19.083C73.7282 19.297 73.2688 19.4075 72.803 19.405C72.072 19.405 71.744 19.072 71.744 18.328V13.614H74.255C74.2768 13.614 74.2985 13.6097 74.3187 13.6013C74.3389 13.5929 74.3573 13.5805 74.3727 13.565C74.3881 13.5495 74.4003 13.5311 74.4086 13.5108C74.4169 13.4906 74.4211 13.4689 74.421 13.447V11.487C74.4216 11.4651 74.4179 11.4434 74.4099 11.423C74.402 11.4026 74.39 11.3841 74.3746 11.3685C74.3593 11.3529 74.341 11.3405 74.3208 11.3322C74.3005 11.3239 74.2788 11.3197 74.257 11.32L74.253 11.318ZM83 11.328V11.013C83 10.086 83.356 9.672 84.152 9.672C84.591 9.67719 85.0259 9.75734 85.438 9.909C85.4631 9.91746 85.4898 9.91979 85.516 9.91579C85.5422 9.91179 85.5671 9.90158 85.5885 9.88602C85.6099 9.87046 85.6273 9.84999 85.6393 9.82632C85.6512 9.80266 85.6572 9.77649 85.657 9.75V7.823C85.6574 7.78713 85.6461 7.7521 85.6248 7.72323C85.6035 7.69436 85.5733 7.67322 85.539 7.663C84.9234 7.47505 84.2825 7.3833 83.639 7.391C81.533 7.391 80.418 8.578 80.418 10.821V11.304H79.318C79.2738 11.3043 79.2314 11.3219 79.2002 11.3532C79.1689 11.3845 79.1512 11.4268 79.151 11.471V13.442C79.1512 13.4862 79.1689 13.5285 79.2002 13.5598C79.2314 13.5911 79.2738 13.6087 79.318 13.609H80.418V21.434C80.418 21.4783 80.4356 21.5208 80.4669 21.5521C80.4982 21.5834 80.5407 21.601 80.585 21.601H82.865C82.8869 21.6011 82.9087 21.5969 82.929 21.5886C82.9494 21.5802 82.9678 21.5679 82.9833 21.5524C82.9989 21.5368 83.0112 21.5184 83.0195 21.4981C83.0279 21.4777 83.0321 21.456 83.032 21.434V13.614H85.162L88.425 21.438C88.055 22.259 87.69 22.423 87.193 22.423C86.7501 22.412 86.3173 22.2888 85.935 22.065C85.894 22.0445 85.8469 22.0403 85.803 22.053C85.7809 22.0602 85.7607 22.0719 85.7434 22.0874C85.7262 22.1029 85.7124 22.1218 85.703 22.143L84.929 23.843C84.9111 23.8815 84.9086 23.9254 84.922 23.9658C84.9354 24.0061 84.9636 24.0398 85.001 24.06C85.7428 24.4806 86.5833 24.696 87.436 24.684C89.121 24.684 90.053 23.898 90.872 21.784L94.838 11.556C94.8478 11.5309 94.8514 11.5037 94.8485 11.4769C94.8456 11.4501 94.8362 11.4243 94.8212 11.4019C94.8061 11.3795 94.7859 11.3611 94.7622 11.3482C94.7384 11.3353 94.712 11.3284 94.685 11.328H92.309C92.2741 11.3277 92.24 11.3384 92.2115 11.3585C92.183 11.3786 92.1615 11.4071 92.15 11.44L89.717 18.389L87.048 11.436C87.036 11.4046 87.0148 11.3775 86.9871 11.3584C86.9594 11.3393 86.9266 11.329 86.893 11.329H82.993L83 11.328ZM77.929 11.318H75.648C75.6038 11.3183 75.5614 11.3359 75.5302 11.3672C75.4989 11.3985 75.4812 11.4408 75.481 11.485V21.437C75.481 21.4589 75.4853 21.4806 75.4937 21.5009C75.5021 21.5212 75.5144 21.5396 75.5299 21.5551C75.5454 21.5706 75.5638 21.5829 75.5841 21.5913C75.6043 21.5997 75.626 21.604 75.648 21.604H77.93C77.9519 21.604 77.9736 21.5997 77.9939 21.5913C78.0141 21.5829 78.0325 21.5706 78.048 21.5551C78.0636 21.5396 78.0759 21.5212 78.0843 21.5009C78.0926 21.4806 78.097 21.4589 78.097 21.437V11.486C78.097 11.4417 78.0794 11.3992 78.048 11.3679C78.0167 11.3366 77.9743 11.319 77.93 11.319L77.929 11.318ZM76.801 6.786C76.4774 6.7858 76.161 6.88156 75.8919 7.06116C75.6227 7.24076 75.4129 7.49614 75.2889 7.79501C75.1649 8.09387 75.1323 8.4228 75.1952 8.74019C75.2581 9.05758 75.4138 9.34918 75.6424 9.57812C75.8711 9.80706 76.1625 9.96305 76.4798 10.0264C76.7971 10.0897 77.1261 10.0575 77.4251 9.93385C77.7241 9.81021 77.9798 9.60067 78.1597 9.33174C78.3396 9.06281 78.4358 8.74657 78.436 8.423C78.4361 8.20816 78.3939 7.99539 78.3118 7.79685C78.2297 7.59831 78.1093 7.41789 77.9575 7.26588C77.8057 7.11387 77.6254 6.99325 77.427 6.91092C77.2285 6.82858 77.0158 6.78613 76.801 6.786ZM96.787 14.523C96.4689 14.5222 96.1582 14.4272 95.8941 14.2501C95.63 14.0729 95.4242 13.8215 95.3029 13.5275C95.1815 13.2335 95.1499 12.9102 95.212 12.5983C95.2742 12.2864 95.4274 11.9999 95.6522 11.7749C95.877 11.55 96.1634 11.3966 96.4753 11.3343C96.7871 11.2719 97.1105 11.3033 97.4045 11.4245C97.6986 11.5457 97.9501 11.7513 98.1275 12.0153C98.3048 12.2793 98.4 12.59 98.401 12.908C98.403 13.1206 98.3626 13.3314 98.2822 13.5282C98.2018 13.7249 98.083 13.9037 97.9328 14.0541C97.7825 14.2044 97.6038 14.3233 97.4071 14.4039C97.2103 14.4844 96.9995 14.5249 96.787 14.523ZM96.796 11.463C96.5084 11.4602 96.2265 11.543 95.9861 11.7009C95.7457 11.8587 95.5577 12.0845 95.4459 12.3495C95.3342 12.6145 95.3037 12.9067 95.3585 13.189C95.4133 13.4714 95.5508 13.731 95.7535 13.935C95.9562 14.139 96.215 14.2781 96.497 14.3346C96.779 14.3912 97.0714 14.3626 97.3371 14.2525C97.6027 14.1424 97.8297 13.9558 97.989 13.7164C98.1484 13.477 98.2329 13.1956 98.232 12.908C98.2332 12.7187 98.1969 12.531 98.1253 12.3557C98.0536 12.1804 97.948 12.0211 97.8146 11.8868C97.6811 11.7525 97.5224 11.6459 97.3476 11.5732C97.1728 11.5004 96.9853 11.463 96.796 11.463ZM97.152 13.073L97.607 13.709H97.223L96.814 13.126H96.463V13.709H96.142V12.023H96.893C97.286 12.023 97.543 12.223 97.543 12.561C97.5487 12.6785 97.5128 12.7942 97.4417 12.8878C97.3705 12.9815 97.2687 13.047 97.154 13.073H97.152ZM96.881 12.313H96.463V12.846H96.881C97.089 12.846 97.214 12.746 97.214 12.579C97.214 12.412 97.088 12.308 96.88 12.308L96.881 12.313Z" fill="white"/>
</g>
<defs>
<clipPath id="clip0_75_3603">
<rect width="98.4" height="29.512" fill="white"/>
</clipPath>
</defs>
</svg>
