<svg width="50" height="50" viewBox="0 0 50 50" fill="none" xmlns="http://www.w3.org/2000/svg">
<path fill-rule="evenodd" clip-rule="evenodd" d="M23.6791 46.01C23.9647 46.4647 24.4647 46.7419 25.0024 46.7419C25.5401 46.7419 26.0401 46.4647 26.3257 46.01C30.5549 39.2669 43.6333 18.4133 46.6351 13.6269C47.0014 13.0423 46.9412 12.2865 46.4861 11.7668C44.7648 9.80222 40.6356 5.08713 39.2439 3.498C38.947 3.16053 38.5185 2.96565 38.0685 2.96565C34.2128 2.96565 15.792 2.96565 11.9363 2.96565C11.4863 2.96565 11.0578 3.16053 10.7609 3.498C9.36917 5.08713 5.23997 9.80222 3.5187 11.7668C3.06364 12.2865 3.00344 13.0423 3.36974 13.6269C6.37149 18.4133 19.4499 39.2669 23.6791 46.01Z" fill="#FDF0EA"/>
<path fill-rule="evenodd" clip-rule="evenodd" d="M3.19855 12.6562H46.8266C46.763 12.4478 46.6557 12.2508 46.5056 12.0789C44.7839 10.1144 40.6516 5.39843 39.2593 3.80909C38.9633 3.47038 38.5339 3.27655 38.0837 3.27655C34.2276 3.27655 15.7976 3.27655 11.9415 3.27655C11.4912 3.27655 11.0619 3.47038 10.7659 3.80909C9.37351 5.39843 5.24123 10.1144 3.51954 12.0789C3.36947 12.2508 3.26212 12.4478 3.19855 12.6562Z" fill="white"/>
<path fill-rule="evenodd" clip-rule="evenodd" d="M18.7594 12.6562L25.0126 3.27655H11.9414C11.7924 3.27655 11.6455 3.29739 11.5048 3.33908L18.7594 12.6562ZM25.0126 3.27655L31.2657 12.6562L38.5203 3.33908C38.3797 3.29739 38.2327 3.27655 38.0837 3.27655H25.0126Z" fill="#FDF0EA"/>
<path fill-rule="evenodd" clip-rule="evenodd" d="M31.2657 12.6562H18.7595L25.0126 3.27655L31.2657 12.6562Z" fill="white"/>
<path fill-rule="evenodd" clip-rule="evenodd" d="M25.0126 47.0609L18.7595 12.6562H31.2657L25.0126 47.0609Z" fill="white"/>
<path fill-rule="evenodd" clip-rule="evenodd" d="M12.5041 40.8265L13.7381 42.7198L15.6313 43.9537L13.7381 45.1866L12.5041 47.0798L11.2713 45.1866L9.37805 43.9537L11.2713 42.7198L12.5041 40.8265Z" fill="#FDF0EA"/>
<path fill-rule="evenodd" clip-rule="evenodd" d="M6.25415 28.3265L7.48813 30.2198L9.38134 31.4537L7.48813 32.6866L6.25415 34.5798L5.02126 32.6866L3.12805 31.4537L5.02126 30.2198L6.25415 28.3265Z" fill="#FDF0EA"/>
<path fill-rule="evenodd" clip-rule="evenodd" d="M42.7119 33.5344L43.9459 35.4276L45.8391 36.6616L43.9459 37.8945L42.7119 39.7877L41.479 37.8945L39.5858 36.6616L41.479 35.4276L42.7119 33.5344Z" fill="#FDF0EA"/>
<path d="M19.2782 40.1203C19.8538 40.1203 20.3204 39.6537 20.3204 39.0781C20.3204 38.5025 19.8538 38.0359 19.2782 38.0359C18.7026 38.0359 18.236 38.5025 18.236 39.0781C18.236 39.6537 18.7026 40.1203 19.2782 40.1203Z" fill="#EB662B"/>
<path fill-rule="evenodd" clip-rule="evenodd" d="M4.44917 13.6984H17.8965L23.7609 44.4836L21.9308 41.5665C21.6255 41.0788 20.9814 40.9319 20.4947 41.2372C20.0069 41.5426 19.86 42.1866 20.1654 42.6733C20.1654 42.6733 22.1268 45.8009 22.8052 46.8827C23.2815 47.6425 24.1152 48.1031 25.0126 48.1031C25.9099 48.1031 26.7436 47.6425 27.2199 46.8827L47.5374 14.4936C48.1491 13.5192 48.048 12.2581 47.2893 11.3921C45.5676 9.42754 41.4364 4.71164 40.044 3.12231C39.549 2.55848 38.8351 2.23438 38.0837 2.23438H11.9415C11.19 2.23438 10.4761 2.55848 9.9811 3.12231C8.58874 4.71164 4.45751 9.42754 2.73581 11.3921C1.9771 12.2581 1.87601 13.5192 2.48777 14.4936L16.7188 37.18C17.0252 37.6677 17.6683 37.8146 18.156 37.5093C18.6427 37.2039 18.7907 36.5599 18.4853 36.0732L4.44917 13.6984ZM44.713 11.6141L38.7215 4.77627L33.398 11.6141H40.6454C41.2207 11.6141 41.6876 12.081 41.6876 12.6563C41.6876 13.2315 41.2207 13.6984 40.6454 13.6984H32.1286L26.2642 44.4836L45.576 13.6984H43.7719C43.1967 13.6984 42.7298 13.2315 42.7298 12.6563C42.7298 12.081 43.1967 11.6141 43.7719 11.6141H44.713ZM30.0067 13.6984H20.0184L25.0126 39.9157L30.0067 13.6984ZM5.3121 11.6141H16.6271L11.3036 4.77627L5.3121 11.6141ZM20.7073 11.6141H29.3178L25.0126 5.15564L20.7073 11.6141ZM36.436 4.31875H26.9604L31.3314 10.8751L36.436 4.31875ZM23.0647 4.31875H13.5892L18.6938 10.8751L23.0647 4.31875Z" fill="#EB662B"/>
<path fill-rule="evenodd" clip-rule="evenodd" d="M13.3772 40.2573C13.1853 39.9622 12.8573 39.7845 12.5041 39.7845C12.152 39.7845 11.8241 39.9622 11.631 40.2573L10.5177 41.9662L8.80875 43.0807C8.51369 43.2726 8.3349 43.6006 8.3349 43.9538C8.3349 44.3059 8.51369 44.6338 8.80875 44.8269L10.5177 45.9402L11.631 47.6492C11.8241 47.9442 12.152 48.123 12.5041 48.123C12.8573 48.123 13.1853 47.9442 13.3772 47.6492L14.4917 45.9402L16.2006 44.8269C16.4957 44.6338 16.6733 44.3059 16.6733 43.9538C16.6733 43.6006 16.4957 43.2726 16.2006 43.0807L14.4917 41.9662L13.3772 40.2573ZM12.5041 42.7351L12.865 43.2891C12.944 43.4097 13.0482 43.5139 13.1688 43.5929L13.7228 43.9538L13.1688 44.3135C13.0482 44.3925 12.944 44.4967 12.865 44.6185L12.5041 45.1713L12.1443 44.6185C12.0654 44.4967 11.9612 44.3925 11.8394 44.3135L11.2866 43.9538L11.8394 43.5929C11.9612 43.5139 12.0654 43.4097 12.1443 43.2891L12.5041 42.7351Z" fill="#EB662B"/>
<path fill-rule="evenodd" clip-rule="evenodd" d="M7.12723 27.7573C6.93528 27.4622 6.60732 27.2845 6.25412 27.2845C5.90203 27.2845 5.57406 27.4622 5.38101 27.7573L4.26768 29.4662L2.55875 30.5807C2.26369 30.7726 2.0849 31.1006 2.0849 31.4538C2.0849 31.8059 2.26369 32.1338 2.55875 32.3269L4.26768 33.4402L5.38101 35.1492C5.57406 35.4442 5.90203 35.623 6.25412 35.623C6.60732 35.623 6.93528 35.4442 7.12723 35.1492L8.24166 33.4402L9.95059 32.3269C10.2457 32.1338 10.4233 31.8059 10.4233 31.4538C10.4233 31.1006 10.2457 30.7726 9.95059 30.5807L8.24166 29.4662L7.12723 27.7573ZM6.25412 30.2351L6.61499 30.7891C6.69397 30.9097 6.79817 31.0139 6.91883 31.0929L7.47275 31.4538L6.91883 31.8135C6.79817 31.8925 6.69397 31.9967 6.61499 32.1185L6.25412 32.6713L5.89435 32.1185C5.81537 31.9967 5.71117 31.8925 5.58942 31.8135L5.03659 31.4538L5.58942 31.0929C5.71117 31.0139 5.81537 30.9097 5.89435 30.7891L6.25412 30.2351Z" fill="#EB662B"/>
<path fill-rule="evenodd" clip-rule="evenodd" d="M43.5851 32.9651C43.3931 32.67 43.0651 32.4923 42.7119 32.4923C42.3598 32.4923 42.0319 32.67 41.8388 32.9651L40.7255 34.674L39.0166 35.7884C38.7215 35.9804 38.5427 36.3084 38.5427 36.6616C38.5427 37.0137 38.7215 37.3416 39.0166 37.5347L40.7255 38.648L41.8388 40.3569C42.0319 40.652 42.3598 40.8308 42.7119 40.8308C43.0651 40.8308 43.3931 40.652 43.5851 40.3569L44.6995 38.648L46.4084 37.5347C46.7035 37.3416 46.8812 37.0137 46.8812 36.6616C46.8812 36.3084 46.7035 35.9804 46.4084 35.7884L44.6995 34.674L43.5851 32.9651ZM42.7119 35.4429L43.0728 35.9968C43.1518 36.1175 43.256 36.2217 43.3767 36.3007L43.9306 36.6616L43.3767 37.0213C43.256 37.1003 43.1518 37.2045 43.0728 37.3263L42.7119 37.8791L42.3522 37.3263C42.2732 37.2045 42.169 37.1003 42.0472 37.0213L41.4944 36.6616L42.0472 36.3007C42.169 36.2217 42.2732 36.1175 42.3522 35.9968L42.7119 35.4429Z" fill="#EB662B"/>
</svg>
