<svg width="60" height="60" viewBox="0 0 60 60" fill="none" xmlns="http://www.w3.org/2000/svg">
<path d="M38.7675 31.7463V55.0716C38.7675 56.0691 37.6453 56.6926 36.7725 56.0691L30.0394 51.2063L23.3063 56.0691C22.4335 56.6926 21.3113 56.0691 21.3113 55.0716V31.7463H38.7675Z" fill="white"/>
<path d="M30.0394 38.7375C39.6802 38.7375 47.4956 30.9221 47.4956 21.2813C47.4956 11.6404 39.6802 3.82501 30.0394 3.82501C20.3986 3.82501 12.5831 11.6404 12.5831 21.2813C12.5831 30.9221 20.3986 38.7375 30.0394 38.7375Z" fill="#FDF0EA"/>
<path d="M31.2863 12.8025L32.5332 16.6678C32.6579 17.1665 33.1566 17.5406 33.7801 17.5406H37.7701C39.017 17.5406 39.5157 19.0369 38.5182 19.785L35.2763 22.1541C34.7776 22.5281 34.6529 23.0269 34.7776 23.5256L36.0244 27.3909C36.3985 28.5131 35.0269 29.5106 34.1541 28.7625L30.9123 26.3934C30.4135 26.0194 29.9148 26.0194 29.416 26.3934L26.1741 28.7625C25.1766 29.5106 23.9297 28.5131 24.3038 27.3909L25.5507 23.5256C25.6754 23.0269 25.5507 22.4035 25.0519 22.1541L21.8101 19.785C20.8126 19.0369 21.3113 17.5406 22.5582 17.5406H26.5482C27.047 17.5406 27.5457 17.1665 27.7951 16.6678L29.042 12.8025C29.1666 11.6803 30.9123 11.6803 31.2863 12.8025Z" fill="white"/>
<path d="M13.293 27.5104C13.9832 27.5104 14.5428 26.9508 14.5428 26.2605C14.5428 25.5703 13.9832 25.0107 13.293 25.0107C12.6027 25.0107 12.0431 25.5703 12.0431 26.2605C12.0431 26.9508 12.6027 27.5104 13.293 27.5104Z" fill="#EB662B"/>
<path fill-rule="evenodd" clip-rule="evenodd" d="M20.2562 37.3073C17.5349 35.5864 15.2875 33.1852 13.7542 30.3413C13.4266 29.7347 13.6542 28.9756 14.262 28.6479C14.8698 28.3203 15.6289 28.5466 15.9566 29.1544C18.6967 34.2357 24.0669 37.6912 30.24 37.6912C39.1907 37.6912 46.4568 30.4251 46.4568 21.4756C46.4568 17.3823 44.9373 13.6417 42.431 10.7865C41.9758 10.2688 42.0284 9.47712 42.5461 9.02189C43.0651 8.56666 43.8568 8.61795 44.312 9.13696C47.2035 12.4324 48.9581 16.7508 48.9581 21.4756C48.9581 28.1365 45.4701 33.9894 40.2237 37.3073V50.25C40.2237 50.9403 39.6634 51.5006 38.9731 51.5006C38.2827 51.5006 37.7225 50.9403 37.7225 50.25V38.6355C35.4313 39.6372 32.9 40.1925 30.24 40.1925C27.5799 40.1925 25.0486 39.6372 22.7575 38.6355V55.2863C22.7575 55.2788 22.77 55.2687 22.7763 55.2662L29.5084 50.4051C29.9448 50.0887 30.5351 50.0887 30.9716 50.4051C30.9716 50.4051 37.7099 55.2713 37.7037 55.2675C37.7149 55.275 37.7225 55.2988 37.7225 55.2863V54.0019C37.7225 53.3115 38.2827 52.7513 38.9731 52.7513C39.6634 52.7513 40.2237 53.3115 40.2237 54.0019V55.2863C40.2237 57.2798 37.9938 58.5479 36.2505 57.3023L36.2455 57.2985L30.24 52.9614L24.2345 57.2985L24.2295 57.3023C22.4861 58.5479 20.2562 57.2798 20.2562 55.2863V37.3073ZM14.0656 22.6474C14.1144 23.3353 13.5954 23.9344 12.9075 23.9831C12.2185 24.0332 11.6194 23.5142 11.5706 22.8251C11.5381 22.3798 11.5219 21.9296 11.5219 21.4756C11.5219 11.1442 19.9098 2.75751 30.24 2.75751C34.227 2.75751 37.9251 4.00691 40.9628 6.13547C41.5281 6.53067 41.6657 7.31106 41.2692 7.87634C40.8728 8.44162 40.0924 8.57919 39.5271 8.18399C36.8958 6.34057 33.6929 5.25876 30.24 5.25876C21.2892 5.25876 14.0231 12.5249 14.0231 21.4756C14.0231 21.8696 14.0381 22.2597 14.0656 22.6474ZM26.7069 16.4819C26.7282 16.4644 26.7983 16.4056 26.8458 16.3456C26.8458 16.3456 28.0189 12.7075 28.0189 12.7125C28.1789 11.7557 28.8555 11.1642 29.6884 10.9666C30.8127 10.699 32.2285 11.2568 32.6762 12.6012L33.9243 16.4719C33.9418 16.4769 33.9656 16.4819 33.9831 16.4819H37.9751C39.2157 16.4819 40.0686 17.2485 40.3788 18.179C40.6889 19.1094 40.4663 20.2337 39.4683 20.9829C39.4683 20.9829 36.228 23.3503 36.2205 23.3566C36.2055 23.3703 36.1942 23.3853 36.193 23.4041C36.193 23.4041 37.4186 27.2047 37.4148 27.1935C37.7912 28.3203 37.3122 29.3921 36.4981 29.9861C35.6564 30.6014 34.4971 30.6965 33.5866 29.9473L30.3688 27.5962L30.365 27.5924C30.3638 27.5937 30.3613 27.5949 30.36 27.5962L27.1121 29.9686C25.0886 31.4731 22.5561 29.4671 23.3103 27.2047C23.3103 27.2047 24.5384 23.3991 24.5384 23.3941C24.5396 23.3891 24.5396 23.3841 24.5396 23.3791L21.2617 20.9829L21.2555 20.9791C20.2625 20.2338 20.0411 19.1094 20.3513 18.179C20.6614 17.2485 21.5131 16.4819 22.7537 16.4819H26.7069ZM22.7637 18.9831C22.9488 19.1194 25.9216 21.2905 25.9166 21.288C26.8683 21.8346 27.2109 23.0276 26.9621 24.0244L26.9521 24.0644L25.7177 27.8913C26.2392 27.5099 28.8755 25.5827 28.8755 25.5827C29.3683 25.2162 29.871 25.0587 30.365 25.0587C30.8578 25.0587 31.3605 25.2162 31.8545 25.5827L35.0124 27.8901L33.778 24.0644L33.768 24.0244C33.5254 23.0527 33.758 22.0772 34.736 21.343C34.736 21.343 37.6887 19.1857 37.9651 18.9831H33.9831C32.7475 18.9831 31.8008 18.189 31.5344 17.211L30.365 13.5842L29.1557 17.3335L29.1132 17.4186C28.6479 18.3478 27.6762 18.9831 26.747 18.9831H22.7637Z" fill="#EB662B"/>
</svg>
