<svg width="60" height="60" viewBox="0 0 60 60" fill="none" xmlns="http://www.w3.org/2000/svg">
<path fill-rule="evenodd" clip-rule="evenodd" d="M56.3682 31.1817C56.3682 31.9959 55.8417 32.7175 55.0663 32.9664C53.2817 33.4979 51.991 35.1587 51.991 37.1185C51.991 39.0782 53.2817 40.739 55.0575 41.2955C55.8217 41.5419 56.3407 42.2523 56.3407 43.0552C56.3682 43.9094 56.3682 44.9736 56.3682 45.8728C56.3682 46.9083 55.5278 47.7488 54.4923 47.7488C46.3219 47.7488 13.8882 47.7488 5.71789 47.7488C4.68237 47.7488 3.84195 46.9083 3.84195 45.8728C3.84195 44.9736 3.84195 43.9094 3.84195 43.0552C3.84195 42.241 4.36846 41.5194 5.14385 41.2705C6.92849 40.739 8.21914 39.0782 8.21914 37.1185C8.21914 35.1587 6.9285 33.4979 5.15261 32.9414C4.38848 32.695 3.86947 31.9846 3.86947 31.1817C3.84195 30.5814 3.84195 29.8986 3.84195 29.2983C3.84195 28.4841 4.36846 27.7625 5.14385 27.5137C6.92849 26.9821 8.21914 25.3213 8.21914 23.3616C8.21914 21.4018 6.9285 19.741 5.15261 19.1845C4.38848 18.9381 3.86947 18.2277 3.86947 17.4248C3.84195 16.5707 3.84195 15.5064 3.84195 14.6072C3.84195 13.5717 4.68237 12.7313 5.71789 12.7313H54.4923C55.5278 12.7313 56.3682 13.5717 56.3682 14.6072V17.4248C56.3682 18.239 55.8417 18.9606 55.0663 19.2095C53.2817 19.741 51.991 21.4018 51.991 23.3616C51.991 25.3213 53.2817 26.9821 55.0575 27.5387C55.8217 27.785 56.3407 28.4954 56.3407 29.2983C56.3682 29.8986 56.3682 30.5814 56.3682 31.1817Z" fill="#FDF0EA"/>
<path fill-rule="evenodd" clip-rule="evenodd" d="M32.1639 23.6149C32.5091 23.0843 33.1001 22.7647 33.7332 22.7647C34.3664 22.7647 34.9573 23.0843 35.3025 23.6149C35.6357 24.123 35.9568 24.6159 36.195 24.9807C36.4467 25.3651 36.8311 25.644 37.2743 25.7646C37.6949 25.8777 38.2617 26.0315 38.8482 26.1913C39.4602 26.3556 39.9456 26.8184 40.1416 27.4214C40.3376 28.0229 40.2155 28.6831 39.819 29.1761C39.4376 29.6494 39.0683 30.1078 38.7954 30.4469C38.5075 30.8042 38.3612 31.2564 38.3839 31.7162C38.405 32.1504 38.4336 32.7383 38.4637 33.3444C38.4954 33.9775 38.206 34.582 37.6934 34.9544C37.1824 35.3267 36.516 35.4157 35.9251 35.1895C35.3568 34.974 34.8065 34.7644 34.401 34.6091C33.9699 34.4463 33.4965 34.4463 33.0654 34.6091C32.6599 34.7644 32.1096 34.974 31.5413 35.1895C30.9504 35.4157 30.2841 35.3267 29.773 34.9544C29.2605 34.582 28.971 33.9775 29.0027 33.3444C29.0328 32.7383 29.0615 32.1504 29.0826 31.7162C29.1052 31.2564 28.959 30.8042 28.671 30.4469C28.3982 30.1078 28.0288 29.6494 27.6474 29.1761C27.251 28.6831 27.1288 28.0229 27.3248 27.4214C27.5208 26.8184 28.0062 26.3556 28.6183 26.1913C29.2047 26.0315 29.7715 25.8777 30.1921 25.7646C30.6353 25.644 31.0197 25.3651 31.2715 24.9807C31.5097 24.6159 31.8307 24.123 32.1639 23.6149Z" fill="white"/>
<path fill-rule="evenodd" clip-rule="evenodd" d="M22.6013 46.4982C23.2917 46.4982 23.8519 47.0584 23.8519 47.7488C23.8519 48.4391 23.2917 48.9994 22.6013 48.9994C21.911 48.9994 21.3507 48.4391 21.3507 47.7488C21.3507 47.0584 21.911 46.4982 22.6013 46.4982ZM52.6163 13.9819H54.4922C54.8374 13.9819 55.1176 14.262 55.1176 14.6072V17.4249C55.1176 17.6875 54.9525 17.9214 54.7074 18.0114C52.4049 18.7017 50.7404 20.8378 50.7404 23.3616C50.7404 25.8803 52.4 28.0152 54.6836 28.7318C54.9225 28.8093 55.09 29.0394 55.09 29.2983C55.09 29.3183 55.09 29.3371 55.0913 29.3558C55.1176 29.9374 55.1176 30.6002 55.1176 31.1817C55.1176 31.4444 54.9525 31.6782 54.7074 31.7683C52.4049 32.4586 50.7404 34.5947 50.7404 37.1185C50.7404 39.6372 52.4 41.772 54.6836 42.4887C54.9225 42.5662 55.09 42.7963 55.09 43.0552V43.0965C55.1176 43.9381 55.1176 44.9861 55.1176 45.8728C55.1176 46.218 54.8374 46.4982 54.4922 46.4982H26.3532C25.6628 46.4982 25.1026 47.0584 25.1026 47.7488C25.1026 48.4391 25.6628 48.9994 26.3532 48.9994H54.4922C56.2194 48.9994 57.6188 47.6 57.6188 45.8728C57.6188 44.9649 57.6188 43.8906 57.5913 43.0252C57.5813 41.6957 56.7146 40.5152 55.4402 40.105C55.4377 40.105 55.4352 40.1037 55.4327 40.1024C54.1633 39.7047 53.2416 38.5179 53.2416 37.1185C53.2416 35.7265 54.1546 34.5434 55.4227 34.1657C55.4315 34.1632 55.4402 34.1607 55.449 34.157C56.7421 33.7418 57.6188 32.5399 57.6188 31.1817C57.6188 30.5727 57.6188 29.8798 57.5913 29.2683C57.5775 27.9351 56.7121 26.757 55.4402 26.3481C55.4377 26.3481 55.4352 26.3468 55.4327 26.3456C54.1633 25.9479 53.2416 24.761 53.2416 23.3616C53.2416 21.9696 54.1546 20.7866 55.4227 20.4089C55.4315 20.4064 55.4402 20.4038 55.449 20.4001C56.7421 19.9849 57.6188 18.783 57.6188 17.4249V14.6072C57.6188 12.8801 56.2194 11.4807 54.4922 11.4807H52.6163C51.926 11.4807 51.3657 12.0409 51.3657 12.7313C51.3657 13.4216 51.926 13.9819 52.6163 13.9819ZM17.5988 46.4982V43.3616C17.5988 42.6712 17.0385 42.111 16.3482 42.111C15.6578 42.111 15.0976 42.6712 15.0976 43.3616V46.4982H5.71787C5.3727 46.4982 5.09256 46.218 5.09256 45.8728V43.0552C5.09256 42.7926 5.25764 42.5587 5.50277 42.4687C7.80517 41.7783 9.46975 39.6422 9.46975 37.1185C9.46975 34.5997 7.81017 32.4649 5.52653 31.7483C5.28766 31.6707 5.12008 31.4406 5.12008 31.1817C5.12008 31.1617 5.12007 31.143 5.11882 31.1242C5.09255 30.5427 5.09256 29.8799 5.09256 29.2983C5.09256 29.0357 5.25764 28.8018 5.50277 28.7118C7.80517 28.0214 9.46975 25.8854 9.46975 23.3616C9.46975 20.8428 7.81017 18.708 5.52653 17.9914C5.28766 17.9139 5.12008 17.6837 5.12008 17.4249C5.12008 17.4111 5.12008 17.3974 5.12008 17.3836C5.09256 16.5419 5.09256 15.4939 5.09256 14.6072C5.09256 14.262 5.3727 13.9819 5.71787 13.9819H15.0976V18.3491C15.0976 19.0394 15.6578 19.5997 16.3482 19.5997C17.0385 19.5997 17.5988 19.0394 17.5988 18.3491V13.9819H48.8644C49.5548 13.9819 50.1151 13.4216 50.1151 12.7313C50.1151 12.0409 49.5548 11.4807 48.8644 11.4807C48.8644 11.4807 12.5463 11.4807 5.71787 11.4807C3.99076 11.4807 2.59131 12.8801 2.59131 14.6072C2.59131 15.5152 2.59131 16.5895 2.61883 17.4549C2.62883 18.7843 3.49552 19.9649 4.7699 20.3751C4.7724 20.3751 4.7749 20.3764 4.7774 20.3776C6.04679 20.7753 6.9685 21.9621 6.9685 23.3616C6.9685 24.7535 6.05554 25.9366 4.7874 26.3143C4.77865 26.3168 4.7699 26.3193 4.76114 26.3231C3.468 26.7383 2.59131 27.9401 2.59131 29.2983C2.59131 29.9074 2.59131 30.6002 2.61883 31.2118C2.63258 32.5449 3.49802 33.723 4.7699 34.132C4.7724 34.132 4.7749 34.1332 4.7774 34.1345C6.04679 34.5322 6.9685 35.719 6.9685 37.1185C6.9685 38.5104 6.05554 39.6935 4.7874 40.0712C4.77865 40.0737 4.7699 40.0762 4.76114 40.08C3.468 40.4952 2.59131 41.697 2.59131 43.0552V45.8728C2.59131 47.6 3.99076 48.9994 5.71787 48.9994H18.8494C19.5398 48.9994 20.1001 48.4391 20.1001 47.7488C20.1001 47.0584 19.5398 46.4982 18.8494 46.4982H17.5988ZM15.0976 33.3566V38.3591C15.0976 39.0494 15.6578 39.6097 16.3482 39.6097C17.0385 39.6097 17.5988 39.0494 17.5988 38.3591V33.3566C17.5988 32.6662 17.0385 32.106 16.3482 32.106C15.6578 32.106 15.0976 32.6662 15.0976 33.3566ZM15.0976 23.3516V28.3541C15.0976 29.0444 15.6578 29.6047 16.3482 29.6047C17.0385 29.6047 17.5988 29.0444 17.5988 28.3541V23.3516C17.5988 22.6612 17.0385 22.101 16.3482 22.101C15.6578 22.101 15.0976 22.6612 15.0976 23.3516Z" fill="#EB662B"/>
<path fill-rule="evenodd" clip-rule="evenodd" d="M31.2226 23.1676L30.3297 24.5341C30.2452 24.6623 30.117 24.7558 29.9692 24.795L28.3946 25.2219C27.375 25.4979 26.5651 26.2701 26.2378 27.2746C25.912 28.2776 26.1141 29.3786 26.7762 30.2006L27.8004 31.4721C27.8969 31.5912 27.9452 31.742 27.9376 31.8944L27.8562 33.5248C27.8049 34.579 28.2875 35.5896 29.1412 36.2095C29.9964 36.8294 31.1049 36.9772 32.0913 36.6016L33.6162 36.0209C33.761 35.9666 33.9178 35.9666 34.0611 36.0209L35.5875 36.6016C36.5739 36.9772 37.6824 36.8294 38.5376 36.2095C39.3913 35.5896 39.8739 34.579 39.8226 33.5248L39.7412 31.8944C39.7336 31.742 39.7819 31.5912 39.8784 31.4721L40.9025 30.2006C41.5647 29.3786 41.7668 28.2776 41.441 27.2746C41.1137 26.2701 40.3038 25.4979 39.2842 25.2219L37.7096 24.795C37.5618 24.7558 37.4336 24.6623 37.3491 24.5341L36.4562 23.1676C35.8801 22.2838 34.8952 21.7513 33.8394 21.7513C32.7836 21.7513 31.7987 22.2838 31.2226 23.1676ZM33.316 24.5356C33.4322 24.3591 33.6282 24.2521 33.8394 24.2521C34.0506 24.2521 34.2466 24.3591 34.3628 24.5356L35.2556 25.9021C35.6749 26.5446 36.316 27.0091 37.055 27.2097L38.6311 27.6366C38.8347 27.6924 38.9961 27.8462 39.061 28.0468C39.1273 28.2474 39.0866 28.4676 38.9539 28.632L37.9298 29.9035C37.4502 30.5007 37.2043 31.2534 37.2435 32.0196L37.3235 33.6485C37.334 33.8596 37.2375 34.0617 37.0671 34.1854C36.8966 34.3106 36.6749 34.3393 36.4773 34.2638L34.9525 33.6832C34.2346 33.4117 33.4442 33.4117 32.7263 33.6832L31.2015 34.2638C31.0039 34.3393 30.7822 34.3106 30.6117 34.1854C30.4413 34.0617 30.3448 33.8596 30.3553 33.6485L30.4353 32.0196C30.4745 31.2534 30.2286 30.5007 29.749 29.9035L28.7249 28.632C28.5922 28.4676 28.5515 28.2474 28.6178 28.0468C28.6827 27.8462 28.8441 27.6924 29.0477 27.6366L30.6238 27.2097C31.3628 27.0091 32.0039 26.5446 32.4232 25.9021L33.316 24.5356Z" fill="#EB662B"/>
</svg>
