<svg width="437" height="177" viewBox="0 0 437 177" fill="none" xmlns="http://www.w3.org/2000/svg">
<path d="M137.423 131H136.619C130.322 130.76 124.641 127.242 121.777 121.858C118.913 116.474 119.079 110.984 119.055 105.307C119.008 100.243 118.984 95.4453 117.256 91.2342C112.901 80.6797 99.8112 78.7341 89.704 82.3056C84.8752 83.9847 80.2359 86.6499 75.7385 89.2086C70.8387 92.0071 65.7733 94.9123 60.3527 96.6447C55.5713 98.1906 41.5348 98.1372 28.7291 97.9507H24.2318C24.0661 97.9508 23.902 97.9133 23.7495 97.8403C23.597 97.7674 23.4592 97.6605 23.3442 97.5261C23.2293 97.3917 23.1397 97.2325 23.0807 97.0582C23.0217 96.8838 22.9945 96.6979 23.0009 96.5114C23.0009 96.3294 23.0327 96.1492 23.0946 95.9811C23.1565 95.8129 23.2471 95.6601 23.3614 95.5314C23.4757 95.4027 23.6114 95.3006 23.7607 95.231C23.9101 95.1613 24.0701 95.1255 24.2318 95.1255H28.7528C37.8896 95.2588 54.8375 95.472 59.6663 93.9261C64.8738 92.247 69.8446 89.4218 74.626 86.6766C79.4074 83.9314 83.9521 81.3727 88.9702 79.587C100.072 75.6957 114.534 78.0145 119.481 90.0082C121.446 94.779 121.47 100.083 121.517 105.227C121.564 110.371 121.564 116.021 123.884 120.392C126.204 124.763 131.245 127.962 136.69 128.175C141.376 128.361 146.371 126.709 151.531 123.217C153.306 122.018 155.247 120.526 156.123 118.34C157.449 115.062 156.147 111.41 154.75 107.572C153.78 104.854 152.786 102.055 152.572 99.1501C152.075 91.5807 157.307 85.264 162.419 82.5987C167.935 79.6936 174.113 79.5337 179.935 79.6136C194.422 79.8535 213.027 81.4527 228.625 91.9805C231.466 93.8728 234.188 96.085 236.839 98.2439C241.881 102.322 246.662 106.186 252.272 108.319C259.116 110.889 266.553 110.596 273.22 107.492C279.943 104.321 285.6 98.3238 291.044 92.5402C297.956 85.2107 305.104 77.6413 314.596 75.5891C326.455 73.0038 337.13 79.4004 347.451 85.5838C350.954 87.6627 354.244 89.635 357.582 91.2609C367.854 96.2982 390.318 95.6852 405.206 95.2854C408.923 95.1788 412.118 95.0988 414.769 95.0988C415.096 95.0988 415.409 95.2449 415.639 95.5048C415.87 95.7647 416 96.1172 416 96.4848C416 96.6668 415.968 96.847 415.906 97.0152C415.844 97.1833 415.754 97.3361 415.639 97.4648C415.525 97.5935 415.389 97.6956 415.24 97.7652C415.091 97.8349 414.931 97.8707 414.769 97.8707C412.142 97.8707 408.946 97.9507 405.254 98.0573C389.276 98.4837 367.357 99.0701 356.587 93.8195C353.179 92.1404 349.676 90.0348 346.291 88.0092C336.349 82.0657 326.053 75.9089 315.046 78.3077C306.264 80.2266 299.707 87.183 292.725 94.5658C287.115 100.509 281.316 106.666 274.167 110.051C266.95 113.409 258.901 113.73 251.491 110.957C245.526 108.692 240.366 104.507 235.395 100.483C232.791 98.3771 230.117 96.1916 227.371 94.3526C212.269 84.1712 194.067 82.6254 179.912 82.4122C174.349 82.3322 168.503 82.4921 163.461 85.1307C159.106 87.4229 154.608 92.7001 155.034 98.9635C155.2 101.442 156.147 104.054 157.046 106.559C158.561 110.771 160.123 115.142 158.372 119.513C157.212 122.391 154.892 124.204 152.809 125.616C147.507 129.188 142.347 131 137.423 131Z" fill="white"/>
<path d="M1.11195 19V8.5H4.33695C6.18695 8.5 7.54695 8.97 8.41695 9.91C9.29695 10.85 9.73695 12.14 9.73695 13.78C9.73695 15.39 9.29695 16.665 8.41695 17.605C7.54695 18.535 6.18695 19 4.33695 19H1.11195ZM2.37195 17.95H4.30695C5.32695 17.95 6.13695 17.785 6.73695 17.455C7.34695 17.115 7.78195 16.635 8.04195 16.015C8.30195 15.385 8.43195 14.64 8.43195 13.78C8.43195 12.9 8.30195 12.145 8.04195 11.515C7.78195 10.885 7.34695 10.4 6.73695 10.06C6.13695 9.72 5.32695 9.55 4.30695 9.55H2.37195V17.95ZM13.9563 19.18C13.3363 19.18 12.8213 19.075 12.4113 18.865C12.0013 18.655 11.6963 18.375 11.4963 18.025C11.2963 17.675 11.1963 17.295 11.1963 16.885C11.1963 16.125 11.4863 15.54 12.0663 15.13C12.6463 14.72 13.4363 14.515 14.4363 14.515H16.4463V14.425C16.4463 13.775 16.2763 13.285 15.9363 12.955C15.5963 12.615 15.1413 12.445 14.5713 12.445C14.0813 12.445 13.6563 12.57 13.2963 12.82C12.9463 13.06 12.7263 13.415 12.6363 13.885H11.3463C11.3963 13.345 11.5763 12.89 11.8863 12.52C12.2063 12.15 12.6013 11.87 13.0713 11.68C13.5413 11.48 14.0413 11.38 14.5713 11.38C15.6113 11.38 16.3913 11.66 16.9113 12.22C17.4413 12.77 17.7063 13.505 17.7063 14.425V19H16.5813L16.5063 17.665C16.2963 18.085 15.9863 18.445 15.5763 18.745C15.1763 19.035 14.6363 19.18 13.9563 19.18ZM14.1513 18.115C14.6313 18.115 15.0413 17.99 15.3813 17.74C15.7313 17.49 15.9963 17.165 16.1763 16.765C16.3563 16.365 16.4463 15.945 16.4463 15.505V15.49H14.5413C13.8013 15.49 13.2763 15.62 12.9663 15.88C12.6663 16.13 12.5163 16.445 12.5163 16.825C12.5163 17.215 12.6563 17.53 12.9363 17.77C13.2263 18 13.6313 18.115 14.1513 18.115ZM20.1868 22.3L22.0318 18.28H21.5968L18.6418 11.56H20.0068L22.4668 17.35L25.0768 11.56H26.3818L21.5068 22.3H20.1868ZM32.7915 19V9.91L31.0965 10.285V9.415L33.2115 8.5H34.0665V19H32.7915Z" fill="white"/>
<path d="M398.11 138V127.5H401.335C403.185 127.5 404.545 127.97 405.415 128.91C406.295 129.85 406.735 131.14 406.735 132.78C406.735 134.39 406.295 135.665 405.415 136.605C404.545 137.535 403.185 138 401.335 138H398.11ZM399.37 136.95H401.305C402.325 136.95 403.135 136.785 403.735 136.455C404.345 136.115 404.78 135.635 405.04 135.015C405.3 134.385 405.43 133.64 405.43 132.78C405.43 131.9 405.3 131.145 405.04 130.515C404.78 129.885 404.345 129.4 403.735 129.06C403.135 128.72 402.325 128.55 401.305 128.55H399.37V136.95ZM410.954 138.18C410.334 138.18 409.819 138.075 409.409 137.865C408.999 137.655 408.694 137.375 408.494 137.025C408.294 136.675 408.194 136.295 408.194 135.885C408.194 135.125 408.484 134.54 409.064 134.13C409.644 133.72 410.434 133.515 411.434 133.515H413.444V133.425C413.444 132.775 413.274 132.285 412.934 131.955C412.594 131.615 412.139 131.445 411.569 131.445C411.079 131.445 410.654 131.57 410.294 131.82C409.944 132.06 409.724 132.415 409.634 132.885H408.344C408.394 132.345 408.574 131.89 408.884 131.52C409.204 131.15 409.599 130.87 410.069 130.68C410.539 130.48 411.039 130.38 411.569 130.38C412.609 130.38 413.389 130.66 413.909 131.22C414.439 131.77 414.704 132.505 414.704 133.425V138H413.579L413.504 136.665C413.294 137.085 412.984 137.445 412.574 137.745C412.174 138.035 411.634 138.18 410.954 138.18ZM411.149 137.115C411.629 137.115 412.039 136.99 412.379 136.74C412.729 136.49 412.994 136.165 413.174 135.765C413.354 135.365 413.444 134.945 413.444 134.505V134.49H411.539C410.799 134.49 410.274 134.62 409.964 134.88C409.664 135.13 409.514 135.445 409.514 135.825C409.514 136.215 409.654 136.53 409.934 136.77C410.224 137 410.629 137.115 411.149 137.115ZM417.185 141.3L419.03 137.28H418.595L415.64 130.56H417.005L419.465 136.35L422.075 130.56H423.38L418.505 141.3H417.185ZM433.51 138V135.75H428.185V134.775L433.285 127.5H434.755V134.64H436.315V135.75H434.755V138H433.51ZM429.58 134.64H433.57V128.895L429.58 134.64Z" fill="white"/>
<path d="M4.832 48.192C4.01067 48.192 3.29067 48.048 2.672 47.76C2.05333 47.472 1.568 47.0613 1.216 46.528C0.874667 45.9947 0.698667 45.36 0.688 44.624H2.48C2.49067 45.2213 2.69867 45.728 3.104 46.144C3.50933 46.56 4.08 46.768 4.816 46.768C5.46667 46.768 5.97333 46.6133 6.336 46.304C6.70933 45.984 6.896 45.5787 6.896 45.088C6.896 44.6933 6.80533 44.3733 6.624 44.128C6.45333 43.8827 6.21333 43.68 5.904 43.52C5.60533 43.36 5.25867 43.216 4.864 43.088C4.46933 42.96 4.05333 42.8213 3.616 42.672C2.752 42.384 2.10133 42.0107 1.664 41.552C1.23733 41.0933 1.024 40.4907 1.024 39.744C1.01333 39.1147 1.15733 38.5653 1.456 38.096C1.76533 37.6267 2.192 37.264 2.736 37.008C3.29067 36.7413 3.936 36.608 4.672 36.608C5.39733 36.608 6.032 36.7413 6.576 37.008C7.13067 37.2747 7.56267 37.648 7.872 38.128C8.18133 38.5973 8.34133 39.1467 8.352 39.776H6.56C6.56 39.488 6.48533 39.216 6.336 38.96C6.18667 38.6933 5.968 38.4747 5.68 38.304C5.392 38.1333 5.04 38.048 4.624 38.048C4.09067 38.0373 3.648 38.1707 3.296 38.448C2.95467 38.7253 2.784 39.1093 2.784 39.6C2.784 40.0373 2.912 40.3733 3.168 40.608C3.424 40.8427 3.776 41.04 4.224 41.2C4.672 41.3493 5.184 41.5253 5.76 41.728C6.31467 41.9093 6.81067 42.128 7.248 42.384C7.68533 42.64 8.032 42.976 8.288 43.392C8.55467 43.808 8.688 44.336 8.688 44.976C8.688 45.5413 8.544 46.0693 8.256 46.56C7.968 47.04 7.536 47.4347 6.96 47.744C6.384 48.0427 5.67467 48.192 4.832 48.192ZM14.1903 48.192C13.4116 48.192 12.7183 48.0213 12.1103 47.68C11.5129 47.328 11.0436 46.8427 10.7023 46.224C10.3609 45.6053 10.1903 44.8853 10.1903 44.064C10.1903 43.232 10.3556 42.5013 10.6863 41.872C11.0276 41.2427 11.4969 40.752 12.0943 40.4C12.7023 40.048 13.4063 39.872 14.2063 39.872C14.9849 39.872 15.6623 40.048 16.2383 40.4C16.8143 40.7413 17.2623 41.2 17.5823 41.776C17.9023 42.352 18.0623 42.9867 18.0623 43.68C18.0623 43.7867 18.0569 43.904 18.0463 44.032C18.0463 44.1493 18.0409 44.2827 18.0303 44.432H11.8543C11.9076 45.2 12.1583 45.7867 12.6063 46.192C13.0649 46.5867 13.5929 46.784 14.1903 46.784C14.6703 46.784 15.0703 46.6773 15.3903 46.464C15.7209 46.24 15.9663 45.9413 16.1263 45.568H17.8223C17.6089 46.3147 17.1823 46.9387 16.5423 47.44C15.9129 47.9413 15.1289 48.192 14.1903 48.192ZM14.1903 41.264C13.6249 41.264 13.1236 41.4347 12.6863 41.776C12.2489 42.1067 11.9823 42.608 11.8863 43.28H16.3663C16.3343 42.6613 16.1156 42.1707 15.7103 41.808C15.3049 41.4453 14.7983 41.264 14.1903 41.264ZM23.582 48.192C22.8033 48.192 22.1047 48.016 21.486 47.664C20.878 47.312 20.398 46.8267 20.046 46.208C19.7047 45.5787 19.534 44.8533 19.534 44.032C19.534 43.2107 19.7047 42.4907 20.046 41.872C20.398 41.2427 20.878 40.752 21.486 40.4C22.1047 40.048 22.8033 39.872 23.582 39.872C24.5633 39.872 25.3847 40.128 26.046 40.64C26.718 41.152 27.15 41.8453 27.342 42.72H25.566C25.4593 42.2827 25.2247 41.9413 24.862 41.696C24.4993 41.4507 24.0727 41.328 23.582 41.328C23.166 41.328 22.782 41.4347 22.43 41.648C22.078 41.8507 21.7953 42.1547 21.582 42.56C21.3687 42.9547 21.262 43.4453 21.262 44.032C21.262 44.6187 21.3687 45.1147 21.582 45.52C21.7953 45.9147 22.078 46.2187 22.43 46.432C22.782 46.6453 23.166 46.752 23.582 46.752C24.0727 46.752 24.4993 46.6293 24.862 46.384C25.2247 46.1387 25.4593 45.792 25.566 45.344H27.342C27.1607 46.1973 26.734 46.8853 26.062 47.408C25.39 47.9307 24.5633 48.192 23.582 48.192ZM29.1814 48V40.064H30.7014L30.8454 41.568C31.1227 41.0453 31.5067 40.6347 31.9974 40.336C32.4987 40.0267 33.1014 39.872 33.8054 39.872V41.648H33.3414C32.872 41.648 32.4507 41.728 32.0774 41.888C31.7147 42.0373 31.4214 42.2987 31.1974 42.672C30.984 43.0347 30.8774 43.5413 30.8774 44.192V48H29.1814ZM38.7528 48.192C37.9741 48.192 37.2808 48.0213 36.6728 47.68C36.0754 47.328 35.6061 46.8427 35.2648 46.224C34.9234 45.6053 34.7528 44.8853 34.7528 44.064C34.7528 43.232 34.9181 42.5013 35.2488 41.872C35.5901 41.2427 36.0594 40.752 36.6568 40.4C37.2648 40.048 37.9688 39.872 38.7688 39.872C39.5474 39.872 40.2248 40.048 40.8008 40.4C41.3768 40.7413 41.8248 41.2 42.1448 41.776C42.4648 42.352 42.6248 42.9867 42.6248 43.68C42.6248 43.7867 42.6194 43.904 42.6088 44.032C42.6088 44.1493 42.6034 44.2827 42.5928 44.432H36.4168C36.4701 45.2 36.7208 45.7867 37.1688 46.192C37.6274 46.5867 38.1554 46.784 38.7528 46.784C39.2328 46.784 39.6328 46.6773 39.9528 46.464C40.2834 46.24 40.5288 45.9413 40.6888 45.568H42.3848C42.1714 46.3147 41.7448 46.9387 41.1048 47.44C40.4754 47.9413 39.6914 48.192 38.7528 48.192ZM38.7528 41.264C38.1874 41.264 37.6861 41.4347 37.2488 41.776C36.8114 42.1067 36.5448 42.608 36.4488 43.28H40.9288C40.8968 42.6613 40.6781 42.1707 40.2728 41.808C39.8674 41.4453 39.3608 41.264 38.7528 41.264ZM47.5094 48C46.7307 48 46.112 47.8133 45.6534 47.44C45.1947 47.056 44.9654 46.3787 44.9654 45.408V41.488H43.6054V40.064H44.9654L45.1734 38.048H46.6614V40.064H48.9014V41.488H46.6614V45.408C46.6614 45.8453 46.752 46.1493 46.9334 46.32C47.1254 46.48 47.4507 46.56 47.9094 46.56H48.8214V48H47.5094ZM54.7454 48V36.8H56.4414V46.656H61.5294V48H54.7454ZM65.9788 48.192C65.3068 48.192 64.7521 48.08 64.3148 47.856C63.8774 47.632 63.5521 47.3387 63.3388 46.976C63.1254 46.6027 63.0188 46.1973 63.0188 45.76C63.0188 44.992 63.3174 44.384 63.9148 43.936C64.5121 43.488 65.3654 43.264 66.4748 43.264H68.5548V43.12C68.5548 42.5013 68.3841 42.0373 68.0428 41.728C67.7121 41.4187 67.2801 41.264 66.7468 41.264C66.2774 41.264 65.8668 41.3813 65.5148 41.616C65.1734 41.84 64.9654 42.176 64.8908 42.624H63.1948C63.2481 42.048 63.4401 41.5573 63.7708 41.152C64.1121 40.736 64.5388 40.4213 65.0508 40.208C65.5734 39.984 66.1441 39.872 66.7628 39.872C67.8721 39.872 68.7308 40.1653 69.3388 40.752C69.9468 41.328 70.2508 42.1173 70.2508 43.12V48H68.7788L68.6348 46.64C68.4108 47.0773 68.0854 47.4453 67.6588 47.744C67.2321 48.0427 66.6721 48.192 65.9788 48.192ZM66.3148 46.816C66.7734 46.816 67.1574 46.7093 67.4668 46.496C67.7868 46.272 68.0321 45.9787 68.2028 45.616C68.3841 45.2533 68.4961 44.8533 68.5388 44.416H66.6508C65.9788 44.416 65.4988 44.5333 65.2108 44.768C64.9334 45.0027 64.7948 45.296 64.7948 45.648C64.7948 46.0107 64.9281 46.2987 65.1948 46.512C65.4721 46.7147 65.8454 46.816 66.3148 46.816ZM75.4763 45.568C75.0603 45.568 74.6763 45.52 74.3243 45.424L73.6363 46.096C73.7536 46.1707 73.8976 46.2347 74.0683 46.288C74.2389 46.3413 74.4789 46.3893 74.7883 46.432C75.0976 46.4747 75.5189 46.5173 76.0523 46.56C77.1083 46.656 77.8709 46.912 78.3403 47.328C78.8096 47.7333 79.0443 48.2773 79.0443 48.96C79.0443 49.4293 78.9163 49.872 78.6603 50.288C78.4149 50.7147 78.0256 51.056 77.4923 51.312C76.9696 51.5787 76.2976 51.712 75.4763 51.712C74.3669 51.712 73.4656 51.4987 72.7723 51.072C72.0896 50.656 71.7483 50.0213 71.7483 49.168C71.7483 48.8373 71.8336 48.5067 72.0043 48.176C72.1856 47.856 72.4683 47.552 72.8523 47.264C72.6283 47.168 72.4309 47.0667 72.2603 46.96C72.1003 46.8427 71.9563 46.7253 71.8283 46.608V46.224L73.2043 44.816C72.5856 44.2827 72.2763 43.584 72.2763 42.72C72.2763 42.1973 72.3989 41.7227 72.6443 41.296C72.9003 40.8587 73.2683 40.512 73.7483 40.256C74.2283 40 74.8043 39.872 75.4763 39.872C75.9243 39.872 76.3403 39.936 76.7243 40.064H79.6843V41.184L78.2763 41.264C78.5323 41.7013 78.6603 42.1867 78.6603 42.72C78.6603 43.2533 78.5323 43.7333 78.2763 44.16C78.0309 44.5867 77.6683 44.928 77.1883 45.184C76.7189 45.44 76.1483 45.568 75.4763 45.568ZM75.4763 44.24C75.9669 44.24 76.3616 44.112 76.6603 43.856C76.9696 43.5893 77.1243 43.216 77.1243 42.736C77.1243 42.2453 76.9696 41.872 76.6603 41.616C76.3616 41.36 75.9669 41.232 75.4763 41.232C74.9749 41.232 74.5696 41.36 74.2603 41.616C73.9616 41.872 73.8123 42.2453 73.8123 42.736C73.8123 43.216 73.9616 43.5893 74.2603 43.856C74.5696 44.112 74.9749 44.24 75.4763 44.24ZM73.3483 49.008C73.3483 49.4667 73.5509 49.808 73.9563 50.032C74.3616 50.2667 74.8683 50.384 75.4763 50.384C76.0629 50.384 76.5376 50.256 76.9003 50C77.2629 49.7547 77.4443 49.424 77.4443 49.008C77.4443 48.6987 77.3216 48.432 77.0763 48.208C76.8309 47.9947 76.3669 47.8613 75.6843 47.808C75.1723 47.776 74.7189 47.728 74.3243 47.664C73.9509 47.8667 73.6949 48.0853 73.5563 48.32C73.4176 48.5547 73.3483 48.784 73.3483 49.008ZM84.5965 48.192C83.8392 48.192 83.1565 48.0213 82.5485 47.68C81.9512 47.328 81.4765 46.8427 81.1245 46.224C80.7725 45.5947 80.5965 44.864 80.5965 44.032C80.5965 43.2 80.7725 42.4747 81.1245 41.856C81.4872 41.2267 81.9725 40.7413 82.5805 40.4C83.1885 40.048 83.8658 39.872 84.6125 39.872C85.3698 39.872 86.0472 40.048 86.6445 40.4C87.2525 40.7413 87.7325 41.2267 88.0845 41.856C88.4472 42.4747 88.6285 43.2 88.6285 44.032C88.6285 44.864 88.4472 45.5947 88.0845 46.224C87.7325 46.8427 87.2525 47.328 86.6445 47.68C86.0365 48.0213 85.3538 48.192 84.5965 48.192ZM84.5965 46.736C85.0018 46.736 85.3752 46.6347 85.7165 46.432C86.0685 46.2293 86.3512 45.9307 86.5645 45.536C86.7778 45.1307 86.8845 44.6293 86.8845 44.032C86.8845 43.4347 86.7778 42.9387 86.5645 42.544C86.3618 42.1387 86.0845 41.8347 85.7325 41.632C85.3912 41.4293 85.0178 41.328 84.6125 41.328C84.2072 41.328 83.8285 41.4293 83.4765 41.632C83.1352 41.8347 82.8578 42.1387 82.6445 42.544C82.4312 42.9387 82.3245 43.4347 82.3245 44.032C82.3245 44.6293 82.4312 45.1307 82.6445 45.536C82.8578 45.9307 83.1352 46.2293 83.4765 46.432C83.8178 46.6347 84.1912 46.736 84.5965 46.736ZM94.1746 48.192C93.4173 48.192 92.7346 48.0213 92.1266 47.68C91.5293 47.328 91.0546 46.8427 90.7026 46.224C90.3506 45.5947 90.1746 44.864 90.1746 44.032C90.1746 43.2 90.3506 42.4747 90.7026 41.856C91.0653 41.2267 91.5506 40.7413 92.1586 40.4C92.7666 40.048 93.444 39.872 94.1906 39.872C94.948 39.872 95.6253 40.048 96.2226 40.4C96.8306 40.7413 97.3106 41.2267 97.6626 41.856C98.0253 42.4747 98.2066 43.2 98.2066 44.032C98.2066 44.864 98.0253 45.5947 97.6626 46.224C97.3106 46.8427 96.8306 47.328 96.2226 47.68C95.6146 48.0213 94.932 48.192 94.1746 48.192ZM94.1746 46.736C94.58 46.736 94.9533 46.6347 95.2946 46.432C95.6466 46.2293 95.9293 45.9307 96.1426 45.536C96.356 45.1307 96.4626 44.6293 96.4626 44.032C96.4626 43.4347 96.356 42.9387 96.1426 42.544C95.94 42.1387 95.6626 41.8347 95.3106 41.632C94.9693 41.4293 94.596 41.328 94.1906 41.328C93.7853 41.328 93.4066 41.4293 93.0546 41.632C92.7133 41.8347 92.436 42.1387 92.2226 42.544C92.0093 42.9387 91.9026 43.4347 91.9026 44.032C91.9026 44.6293 92.0093 45.1307 92.2226 45.536C92.436 45.9307 92.7133 46.2293 93.0546 46.432C93.396 46.6347 93.7693 46.736 94.1746 46.736ZM100.041 48V40.064H101.545L101.673 41.456C101.918 40.9653 102.275 40.5813 102.745 40.304C103.225 40.016 103.774 39.872 104.393 39.872C105.353 39.872 106.105 40.1707 106.649 40.768C107.203 41.3653 107.481 42.256 107.481 43.44V48H105.801V43.616C105.801 42.08 105.171 41.312 103.913 41.312C103.283 41.312 102.761 41.536 102.345 41.984C101.939 42.432 101.737 43.072 101.737 43.904V48H100.041Z" fill="white"/>
<path d="M311 167.192C309.944 167.192 309.021 166.952 308.232 166.472C307.443 165.992 306.829 165.32 306.392 164.456C305.955 163.592 305.736 162.584 305.736 161.432C305.736 160.291 305.96 159.283 306.408 158.408C306.856 157.533 307.491 156.851 308.312 156.36C309.144 155.859 310.125 155.608 311.256 155.608C312.536 155.608 313.603 155.917 314.456 156.536C315.309 157.155 315.864 158.008 316.12 159.096H314.2C314.029 158.499 313.693 158.029 313.192 157.688C312.691 157.347 312.045 157.176 311.256 157.176C310.083 157.176 309.16 157.555 308.488 158.312C307.816 159.069 307.48 160.115 307.48 161.448C307.48 162.781 307.811 163.821 308.472 164.568C309.133 165.315 310.013 165.688 311.112 165.688C312.221 165.688 313.053 165.373 313.608 164.744C314.173 164.115 314.504 163.277 314.6 162.232H311.56V160.92H316.312V167H314.76L314.616 165.352C314.243 165.939 313.773 166.392 313.208 166.712C312.643 167.032 311.907 167.192 311 167.192ZM321.234 167.192C320.274 167.192 319.517 166.893 318.962 166.296C318.418 165.699 318.146 164.808 318.146 163.624V159.064H319.842V163.448C319.842 164.984 320.472 165.752 321.73 165.752C322.36 165.752 322.877 165.528 323.282 165.08C323.688 164.632 323.89 163.992 323.89 163.16V159.064H325.586V167H324.082L323.954 165.608C323.709 166.099 323.346 166.488 322.866 166.776C322.397 167.053 321.853 167.192 321.234 167.192ZM327.744 167V155.48H329.44V167H327.744ZM331.588 167V155.48H333.284V167H331.588ZM335.831 167V160.488H334.695V159.064H335.831V157.912C335.831 157.048 336.045 156.429 336.471 156.056C336.909 155.672 337.522 155.48 338.311 155.48H339.143V156.92H338.567C338.194 156.92 337.927 157 337.767 157.16C337.607 157.309 337.527 157.565 337.527 157.928V159.064H339.351V160.488H337.527V167H335.831ZM344.362 167.192C343.605 167.192 342.922 167.021 342.314 166.68C341.717 166.328 341.242 165.843 340.89 165.224C340.538 164.595 340.362 163.864 340.362 163.032C340.362 162.2 340.538 161.475 340.89 160.856C341.253 160.227 341.738 159.741 342.346 159.4C342.954 159.048 343.631 158.872 344.378 158.872C345.135 158.872 345.813 159.048 346.41 159.4C347.018 159.741 347.498 160.227 347.85 160.856C348.213 161.475 348.394 162.2 348.394 163.032C348.394 163.864 348.213 164.595 347.85 165.224C347.498 165.843 347.018 166.328 346.41 166.68C345.802 167.021 345.119 167.192 344.362 167.192ZM344.362 165.736C344.767 165.736 345.141 165.635 345.482 165.432C345.834 165.229 346.117 164.931 346.33 164.536C346.543 164.131 346.65 163.629 346.65 163.032C346.65 162.435 346.543 161.939 346.33 161.544C346.127 161.139 345.85 160.835 345.498 160.632C345.157 160.429 344.783 160.328 344.378 160.328C343.973 160.328 343.594 160.429 343.242 160.632C342.901 160.835 342.623 161.139 342.41 161.544C342.197 161.939 342.09 162.435 342.09 163.032C342.09 163.629 342.197 164.131 342.41 164.536C342.623 164.931 342.901 165.229 343.242 165.432C343.583 165.635 343.957 165.736 344.362 165.736ZM353.396 167.192C352.394 167.192 351.567 166.947 350.916 166.456C350.266 165.965 349.892 165.315 349.796 164.504H351.508C351.594 164.867 351.796 165.181 352.116 165.448C352.436 165.704 352.858 165.832 353.38 165.832C353.892 165.832 354.266 165.725 354.5 165.512C354.735 165.299 354.852 165.053 354.852 164.776C354.852 164.371 354.687 164.099 354.356 163.96C354.036 163.811 353.588 163.677 353.012 163.56C352.564 163.464 352.116 163.336 351.668 163.176C351.231 163.016 350.863 162.792 350.564 162.504C350.276 162.205 350.132 161.805 350.132 161.304C350.132 160.611 350.399 160.035 350.932 159.576C351.466 159.107 352.212 158.872 353.172 158.872C354.058 158.872 354.772 159.085 355.316 159.512C355.871 159.939 356.196 160.541 356.292 161.32H354.66C354.607 160.979 354.447 160.712 354.18 160.52C353.924 160.328 353.578 160.232 353.14 160.232C352.714 160.232 352.383 160.323 352.148 160.504C351.914 160.675 351.796 160.899 351.796 161.176C351.796 161.453 351.956 161.672 352.276 161.832C352.607 161.992 353.039 162.136 353.572 162.264C354.106 162.381 354.596 162.52 355.044 162.68C355.503 162.829 355.871 163.053 356.148 163.352C356.426 163.651 356.564 164.088 356.564 164.664C356.575 165.389 356.292 165.992 355.716 166.472C355.151 166.952 354.378 167.192 353.396 167.192ZM361.584 167.192C360.581 167.192 359.754 166.947 359.104 166.456C358.453 165.965 358.08 165.315 357.984 164.504H359.696C359.781 164.867 359.984 165.181 360.304 165.448C360.624 165.704 361.045 165.832 361.568 165.832C362.08 165.832 362.453 165.725 362.688 165.512C362.922 165.299 363.04 165.053 363.04 164.776C363.04 164.371 362.874 164.099 362.544 163.96C362.224 163.811 361.776 163.677 361.2 163.56C360.752 163.464 360.304 163.336 359.856 163.176C359.418 163.016 359.05 162.792 358.752 162.504C358.464 162.205 358.32 161.805 358.32 161.304C358.32 160.611 358.586 160.035 359.12 159.576C359.653 159.107 360.4 158.872 361.36 158.872C362.245 158.872 362.96 159.085 363.504 159.512C364.058 159.939 364.384 160.541 364.48 161.32H362.848C362.794 160.979 362.634 160.712 362.368 160.52C362.112 160.328 361.765 160.232 361.328 160.232C360.901 160.232 360.57 160.323 360.336 160.504C360.101 160.675 359.984 160.899 359.984 161.176C359.984 161.453 360.144 161.672 360.464 161.832C360.794 161.992 361.226 162.136 361.76 162.264C362.293 162.381 362.784 162.52 363.232 162.68C363.69 162.829 364.058 163.053 364.336 163.352C364.613 163.651 364.752 164.088 364.752 164.664C364.762 165.389 364.48 165.992 363.904 166.472C363.338 166.952 362.565 167.192 361.584 167.192ZM372.987 167.016L369.963 155.8H371.787L374.011 165.08L376.571 155.8H378.443L380.923 165.08L383.147 155.8H384.971L381.899 167H379.915L377.467 158.216L374.939 167L372.987 167.016ZM388.307 167.192C387.635 167.192 387.08 167.08 386.643 166.856C386.206 166.632 385.88 166.339 385.667 165.976C385.454 165.603 385.347 165.197 385.347 164.76C385.347 163.992 385.646 163.384 386.243 162.936C386.84 162.488 387.694 162.264 388.803 162.264H390.883V162.12C390.883 161.501 390.712 161.037 390.371 160.728C390.04 160.419 389.608 160.264 389.075 160.264C388.606 160.264 388.195 160.381 387.843 160.616C387.502 160.84 387.294 161.176 387.219 161.624H385.523C385.576 161.048 385.768 160.557 386.099 160.152C386.44 159.736 386.867 159.421 387.379 159.208C387.902 158.984 388.472 158.872 389.091 158.872C390.2 158.872 391.059 159.165 391.667 159.752C392.275 160.328 392.579 161.117 392.579 162.12V167H391.107L390.963 165.64C390.739 166.077 390.414 166.445 389.987 166.744C389.56 167.043 389 167.192 388.307 167.192ZM388.643 165.816C389.102 165.816 389.486 165.709 389.795 165.496C390.115 165.272 390.36 164.979 390.531 164.616C390.712 164.253 390.824 163.853 390.867 163.416H388.979C388.307 163.416 387.827 163.533 387.539 163.768C387.262 164.003 387.123 164.296 387.123 164.648C387.123 165.011 387.256 165.299 387.523 165.512C387.8 165.715 388.174 165.816 388.643 165.816ZM397.728 167C396.949 167 396.331 166.813 395.872 166.44C395.413 166.056 395.184 165.379 395.184 164.408V160.488H393.824V159.064H395.184L395.392 157.048H396.88V159.064H399.12V160.488H396.88V164.408C396.88 164.845 396.971 165.149 397.152 165.32C397.344 165.48 397.669 165.56 398.128 165.56H399.04V167H397.728ZM404.378 167.192C403.599 167.192 402.906 167.021 402.298 166.68C401.7 166.328 401.231 165.843 400.89 165.224C400.548 164.605 400.378 163.885 400.378 163.064C400.378 162.232 400.543 161.501 400.874 160.872C401.215 160.243 401.684 159.752 402.282 159.4C402.89 159.048 403.594 158.872 404.394 158.872C405.172 158.872 405.85 159.048 406.426 159.4C407.002 159.741 407.45 160.2 407.77 160.776C408.09 161.352 408.25 161.987 408.25 162.68C408.25 162.787 408.244 162.904 408.234 163.032C408.234 163.149 408.228 163.283 408.218 163.432H402.042C402.095 164.2 402.346 164.787 402.794 165.192C403.252 165.587 403.78 165.784 404.378 165.784C404.858 165.784 405.258 165.677 405.578 165.464C405.908 165.24 406.154 164.941 406.314 164.568H408.01C407.796 165.315 407.37 165.939 406.73 166.44C406.1 166.941 405.316 167.192 404.378 167.192ZM404.378 160.264C403.812 160.264 403.311 160.435 402.874 160.776C402.436 161.107 402.17 161.608 402.074 162.28H406.554C406.522 161.661 406.303 161.171 405.898 160.808C405.492 160.445 404.986 160.264 404.378 160.264ZM410.01 167V159.064H411.53L411.674 160.568C411.951 160.045 412.335 159.635 412.826 159.336C413.327 159.027 413.93 158.872 414.634 158.872V160.648H414.17C413.7 160.648 413.279 160.728 412.906 160.888C412.543 161.037 412.25 161.299 412.026 161.672C411.812 162.035 411.706 162.541 411.706 163.192V167H410.01ZM416.488 167V160.488H415.352V159.064H416.488V157.912C416.488 157.048 416.701 156.429 417.128 156.056C417.565 155.672 418.178 155.48 418.968 155.48H419.8V156.92H419.224C418.85 156.92 418.584 157 418.424 157.16C418.264 157.309 418.184 157.565 418.184 157.928V159.064H420.008V160.488H418.184V167H416.488ZM423.994 167.192C423.322 167.192 422.768 167.08 422.33 166.856C421.893 166.632 421.568 166.339 421.354 165.976C421.141 165.603 421.034 165.197 421.034 164.76C421.034 163.992 421.333 163.384 421.93 162.936C422.528 162.488 423.381 162.264 424.49 162.264H426.57V162.12C426.57 161.501 426.4 161.037 426.058 160.728C425.728 160.419 425.296 160.264 424.762 160.264C424.293 160.264 423.882 160.381 423.53 160.616C423.189 160.84 422.981 161.176 422.906 161.624H421.21C421.264 161.048 421.456 160.557 421.786 160.152C422.128 159.736 422.554 159.421 423.066 159.208C423.589 158.984 424.16 158.872 424.778 158.872C425.888 158.872 426.746 159.165 427.354 159.752C427.962 160.328 428.266 161.117 428.266 162.12V167H426.794L426.65 165.64C426.426 166.077 426.101 166.445 425.674 166.744C425.248 167.043 424.688 167.192 423.994 167.192ZM424.33 165.816C424.789 165.816 425.173 165.709 425.482 165.496C425.802 165.272 426.048 164.979 426.218 164.616C426.4 164.253 426.512 163.853 426.554 163.416H424.666C423.994 163.416 423.514 163.533 423.226 163.768C422.949 164.003 422.81 164.296 422.81 164.648C422.81 165.011 422.944 165.299 423.21 165.512C423.488 165.715 423.861 165.816 424.33 165.816ZM430.244 167V155.48H431.94V167H430.244ZM434.088 167V155.48H435.784V167H434.088Z" fill="white"/>
<circle cx="12" cy="96" r="10.5" stroke="white" stroke-width="3"/>
<circle cx="12" cy="96" r="6" fill="white"/>
<circle cx="184" cy="81" r="6" fill="white"/>
<circle cx="293" cy="92" r="6" fill="white"/>
<circle cx="425" cy="96" r="10.5" stroke="white" stroke-width="3"/>
<circle cx="425" cy="96" r="6" fill="white"/>
</svg>
