<svg width="60" height="60" viewBox="0 0 60 60" fill="none" xmlns="http://www.w3.org/2000/svg">
<path fill-rule="evenodd" clip-rule="evenodd" d="M30.0599 3.88684C21.0804 3.88684 13.8018 11.1655 13.8018 20.145C13.8105 25.8228 16.7757 31.0429 21.5494 33.9731C22.3148 34.4434 23.1189 35.4689 23.2953 36.3493L23.7367 38.5592C23.9218 39.4834 24.741 40.155 25.6827 40.155H34.4371C35.3788 40.155 36.198 39.4834 36.383 38.5592L36.8245 36.3493C37.0008 35.4689 37.805 34.4434 38.5704 33.9744C43.344 31.0429 46.3093 25.8228 46.318 20.145C46.318 11.1655 39.0394 3.88684 30.0599 3.88684Z" fill="#FDF0EA"/>
<path fill-rule="evenodd" clip-rule="evenodd" d="M23.647 47.9464L36.4634 48.0114L35.3716 54.5622C35.194 55.6265 34.2648 56.4131 33.1867 56.4131H26.9336C25.8556 56.4131 24.9264 55.6265 24.7488 54.5622L23.647 47.9464Z" fill="white"/>
<path fill-rule="evenodd" clip-rule="evenodd" d="M23.1818 45.1575H36.9387C37.2701 45.1575 37.589 45.2888 37.8228 45.5239C38.058 45.7578 38.1893 46.0767 38.1893 46.4081V47.6587C38.1893 48.3453 37.6252 48.9093 36.9387 48.9093H23.1818C22.8504 48.9093 22.5315 48.778 22.2976 48.5429C22.0625 48.309 21.9312 47.9901 21.9312 47.6587V46.4081C21.9312 45.7215 22.4952 45.1575 23.1818 45.1575Z" fill="#FDF0EA"/>
<path fill-rule="evenodd" clip-rule="evenodd" d="M30.0599 3.88684C26.9521 3.88684 24.4321 11.1655 24.4321 20.145C24.4346 25.8228 25.4614 31.0429 27.1147 33.9731C27.3786 34.4434 27.6575 35.4689 27.7188 36.3493L27.8713 38.5592C27.9351 39.4834 28.219 40.155 28.5442 40.155H31.5757C31.9009 40.155 32.1848 39.4834 32.2485 38.5592L32.4011 36.3493C32.4624 35.4689 32.7413 34.4434 33.0052 33.9744C34.6585 31.0429 35.6853 25.8228 35.6878 20.145C35.6878 11.1655 33.1677 3.88684 30.0599 3.88684Z" fill="white"/>
<path fill-rule="evenodd" clip-rule="evenodd" d="M11.4731 38.6092C10.7927 38.0127 9.9148 37.6537 8.95557 37.6537C6.79699 37.6537 5.04736 39.4734 5.04736 41.7183C5.04736 43.9632 6.79699 45.7828 8.95557 45.7828H14.4271C16.1542 45.7828 17.5536 44.3271 17.5536 42.5312C17.5536 40.7353 16.1542 39.2796 14.4271 39.2796C13.7592 39.2796 13.1389 39.4972 12.6312 39.8686L11.4731 38.6092Z" fill="#FDF0EA"/>
<path fill-rule="evenodd" clip-rule="evenodd" d="M51.8247 30.1312C52.3012 29.7135 52.9165 29.4622 53.5881 29.4622C55.0989 29.4622 56.3232 30.7366 56.3232 32.3073C56.3232 33.8781 55.0989 35.1525 53.5881 35.1525H49.7574C48.5493 35.1525 47.5688 34.1332 47.5688 32.8764C47.5688 31.6195 48.5493 30.6002 49.7574 30.6002C50.2252 30.6002 50.6591 30.7528 51.0143 31.0129L51.8247 30.1312Z" fill="white"/>
<path fill-rule="evenodd" clip-rule="evenodd" d="M22.7414 50.1212L23.5155 54.7685C23.7931 56.4319 25.2464 57.6637 26.9335 57.6637H33.1866C34.8737 57.6637 36.3269 56.4319 36.6045 54.7685L37.3787 50.12C38.5443 49.9099 39.4397 48.8806 39.4397 47.6587V46.4081C39.4397 45.7453 39.1758 45.1087 38.7068 44.6397C38.2379 44.1707 37.6013 43.9069 36.9385 43.9069H36.3131V40.8028C36.966 40.3376 37.4437 39.6335 37.6088 38.8043L38.0515 36.5945C38.1678 36.0129 38.7194 35.3501 39.2246 35.0399C44.3659 31.8834 47.56 26.2618 47.5688 20.1475C47.5688 20.1462 47.5688 20.1462 47.5688 20.145C47.5688 10.4751 39.7299 2.63623 30.06 2.63623C20.3902 2.63623 12.5513 10.4751 12.5513 20.145V20.1462C12.5525 20.714 12.58 21.2756 12.6351 21.8333C12.7026 22.5199 13.3142 23.0227 14.002 22.9551C14.6886 22.8876 15.1913 22.2761 15.1238 21.5882C15.0775 21.1117 15.0538 20.6302 15.0525 20.1437C15.0525 13.2553 19.6936 7.45239 26.0192 5.68776C24.3434 8.69926 23.1816 14.0419 23.1816 20.145V20.1462C23.1853 26.0792 24.2984 31.5257 26.0243 34.5884C26.2306 34.9524 26.4232 35.7528 26.4707 36.4356L26.6233 38.6455C26.6296 38.7343 26.6383 38.8206 26.6471 38.9044H25.6828C25.3339 38.9044 25.0313 38.6567 24.9637 38.3141L24.5223 36.1042C24.2859 34.9249 23.2291 33.5379 22.2036 32.9076C20.1338 31.637 18.4317 29.8986 17.2086 27.8701C16.8522 27.2785 16.0818 27.0885 15.4915 27.4449C14.8999 27.8013 14.7099 28.5704 15.0663 29.162C16.4932 31.5282 18.4792 33.5567 20.8954 35.0399C21.4007 35.3501 21.9522 36.0129 22.0685 36.5945L22.5112 38.8043C22.6763 39.6335 23.1541 40.3376 23.8069 40.8028V43.9069H23.1816C21.8096 43.9069 20.6803 45.0362 20.6803 46.4081V47.6587C20.6803 48.3216 20.9442 48.9581 21.4132 49.4271C21.7771 49.791 22.2411 50.0312 22.7414 50.1212ZM34.8374 50.16H34.3959C33.7056 50.16 33.1453 49.5997 33.1453 48.9094C33.1453 48.219 33.7056 47.6587 34.3959 47.6587H36.9385V46.5082C36.8584 46.4881 36.7446 46.4081 36.9385 46.4081H23.1816V47.5587C23.2616 47.5787 23.3754 47.6587 23.1816 47.6587H30.3777C31.0668 47.6587 31.6283 48.219 31.6283 48.9094C31.6283 49.5997 31.0668 50.16 30.3777 50.16H25.2826L25.983 54.3571C26.0593 54.8198 26.4645 55.1625 26.9335 55.1625H33.1866C33.6556 55.1625 34.0608 54.8198 34.1371 54.3571L34.8374 50.16ZM28.8094 43.9069V41.4056H26.3081V43.9069H28.8094ZM33.8119 43.9069V41.4056H31.3106V43.9069H33.8119ZM30.06 5.13748C30.3864 5.13748 30.6778 5.33508 30.9717 5.61772C31.4395 6.0667 31.8634 6.73202 32.2524 7.55744C33.593 10.3951 34.4372 14.9786 34.4372 20.145C34.4347 25.5677 33.4942 30.5602 31.9159 33.3591C31.592 33.9356 31.2281 35.1837 31.1543 36.263L31.0005 38.4729C30.9917 38.6105 30.963 38.7668 30.9317 38.9044H29.1883C29.1571 38.7668 29.1283 38.6105 29.1196 38.4729L28.9657 36.263C28.8919 35.1837 28.528 33.9356 28.2041 33.3591C26.6258 30.5602 25.6853 25.5677 25.6828 20.145C25.6828 14.9786 26.527 10.3951 27.8677 7.55744C28.2566 6.73202 28.6806 6.0667 29.1483 5.61772C29.4422 5.33508 29.7336 5.13748 30.06 5.13748ZM34.1008 5.68776C35.7766 8.69926 36.9385 14.0419 36.9385 20.145V20.1462C36.936 26.0792 35.8216 31.5257 34.0958 34.5884C33.8894 34.9524 33.6968 35.7528 33.6493 36.4356L33.4967 38.6455C33.4905 38.7343 33.4817 38.8206 33.473 38.9044H34.4372C34.7861 38.9044 35.0888 38.6567 35.1563 38.3141L35.5978 36.1042C35.8342 34.9249 36.8909 33.5379 37.9152 32.9076C42.3224 30.2025 45.0588 25.3851 45.0675 20.1437C45.0675 13.2565 40.4265 7.45239 34.1008 5.68776Z" fill="#EB662B"/>
<path fill-rule="evenodd" clip-rule="evenodd" d="M12.3949 37.7638C12.3637 37.73 12.3324 37.6988 12.2986 37.6688C11.3957 36.8784 10.2288 36.4031 8.9557 36.4031C6.12054 36.4031 3.79688 38.7693 3.79688 41.7183C3.79688 44.6673 6.12054 47.0334 8.9557 47.0334H14.4272C16.8309 47.0334 18.8044 45.0312 18.8044 42.5312C18.8044 40.0312 16.8309 38.029 14.4272 38.029C13.8894 38.029 13.3742 38.129 12.8977 38.3116L12.3949 37.7638ZM10.6028 39.5097L11.7108 40.7153C12.141 41.1843 12.8552 41.2543 13.3692 40.8791C13.6693 40.6603 14.0332 40.5302 14.4272 40.5302C15.4777 40.5302 16.3031 41.4394 16.3031 42.5312C16.3031 43.623 15.4777 44.5322 14.4272 44.5322H8.9557C7.47371 44.5322 6.29813 43.2591 6.29813 41.7183C6.29813 40.1775 7.47371 38.9044 8.9557 38.9044C9.57726 38.9044 10.1488 39.1307 10.599 39.5072L10.6028 39.5097Z" fill="#EB662B"/>
<path fill-rule="evenodd" clip-rule="evenodd" d="M51.0007 29.1908L50.7168 29.4884C50.4129 29.3984 50.0902 29.3496 49.7576 29.3496C47.8716 29.3496 46.3184 30.9154 46.3184 32.8764C46.3184 34.8374 47.8716 36.4031 49.7576 36.4031H53.5882C55.7756 36.4031 57.574 34.5822 57.574 32.3074C57.574 30.0325 55.7756 28.2115 53.5882 28.2115C52.6028 28.2115 51.6986 28.578 51.0007 29.1908ZM52.6965 31.0317C52.9429 30.8329 53.2518 30.7128 53.5882 30.7128C54.4212 30.7128 55.0727 31.4394 55.0727 32.3074C55.0727 33.1753 54.4212 33.9019 53.5882 33.9019H49.7576C49.2261 33.9019 48.8196 33.4292 48.8196 32.8764C48.8196 32.3236 49.2261 31.8509 49.7576 31.8509C49.9514 31.8509 50.1303 31.9146 50.2766 32.0222C50.7906 32.3986 51.5047 32.3274 51.9362 31.8596L52.6928 31.0342L52.6965 31.0317Z" fill="#EB662B"/>
<path d="M14.5949 26.3586C15.2859 26.3586 15.8461 25.7984 15.8461 25.1074C15.8461 24.4164 15.2859 23.8563 14.5949 23.8563C13.9039 23.8563 13.3438 24.4164 13.3438 25.1074C13.3438 25.7984 13.9039 26.3586 14.5949 26.3586Z" fill="#EB662B"/>
</svg>
