<svg width="50" height="50" viewBox="0 0 50 50" fill="none" xmlns="http://www.w3.org/2000/svg">
<path fill-rule="evenodd" clip-rule="evenodd" d="M23.6792 46.01C23.9649 46.4647 24.4648 46.7419 25.0025 46.7419C25.5402 46.7419 26.0402 46.4647 26.3259 46.01C30.5551 39.2669 43.6334 18.4133 46.6352 13.6269C47.0015 13.0423 46.9413 12.2865 46.4862 11.7668C44.765 9.80222 40.6358 5.08713 39.244 3.498C38.9471 3.16053 38.5186 2.96565 38.0686 2.96565C34.2129 2.96565 15.7922 2.96565 11.9364 2.96565C11.4864 2.96565 11.0579 3.16053 10.761 3.498C9.36929 5.08713 5.24009 9.80222 3.51882 11.7668C3.06376 12.2865 3.00357 13.0423 3.36986 13.6269C6.37162 18.4133 19.45 39.2669 23.6792 46.01Z" fill="#FDF0EA"/>
<path fill-rule="evenodd" clip-rule="evenodd" d="M3.19873 12.6562H46.8268C46.7632 12.4478 46.6559 12.2508 46.5058 12.0789C44.7841 10.1144 40.6518 5.39843 39.2595 3.80909C38.9635 3.47038 38.5341 3.27655 38.0839 3.27655C34.2278 3.27655 15.7977 3.27655 11.9416 3.27655C11.4914 3.27655 11.062 3.47038 10.7661 3.80909C9.37369 5.39843 5.24142 10.1144 3.51972 12.0789C3.36965 12.2508 3.2623 12.4478 3.19873 12.6562Z" fill="white"/>
<path fill-rule="evenodd" clip-rule="evenodd" d="M18.7596 12.6562L25.0127 3.27655H11.9416C11.7925 3.27655 11.6456 3.29739 11.5049 3.33908L18.7596 12.6562ZM25.0127 3.27655L31.2658 12.6562L38.5205 3.33908C38.3798 3.29739 38.2328 3.27655 38.0838 3.27655H25.0127Z" fill="#FDF0EA"/>
<path fill-rule="evenodd" clip-rule="evenodd" d="M31.266 12.6562H18.7598L25.0129 3.27655L31.266 12.6562Z" fill="white"/>
<path fill-rule="evenodd" clip-rule="evenodd" d="M25.0129 47.0609L18.7598 12.6562H31.266L25.0129 47.0609Z" fill="white"/>
<path fill-rule="evenodd" clip-rule="evenodd" d="M12.504 40.8265L13.738 42.7198L15.6312 43.9537L13.738 45.1866L12.504 47.0798L11.2711 45.1866L9.37793 43.9537L11.2711 42.7198L12.504 40.8265Z" fill="#FDF0EA"/>
<path fill-rule="evenodd" clip-rule="evenodd" d="M6.25402 28.3265L7.48801 30.2198L9.38122 31.4537L7.48801 32.6866L6.25402 34.5798L5.02114 32.6866L3.12793 31.4537L5.02114 30.2198L6.25402 28.3265Z" fill="#FDF0EA"/>
<path fill-rule="evenodd" clip-rule="evenodd" d="M42.712 33.5344L43.946 35.4276L45.8392 36.6616L43.946 37.8944L42.712 39.7876L41.4791 37.8944L39.5859 36.6616L41.4791 35.4276L42.712 33.5344Z" fill="#FDF0EA"/>
<path d="M19.278 40.1203C19.8536 40.1203 20.3202 39.6537 20.3202 39.0781C20.3202 38.5026 19.8536 38.0359 19.278 38.0359C18.7024 38.0359 18.2358 38.5026 18.2358 39.0781C18.2358 39.6537 18.7024 40.1203 19.278 40.1203Z" fill="#EB662B"/>
<path fill-rule="evenodd" clip-rule="evenodd" d="M4.44899 13.6984H17.8963L23.7607 44.4836L21.9306 41.5665C21.6253 41.0788 20.9812 40.9319 20.4945 41.2372C20.0068 41.5426 19.8598 42.1866 20.1652 42.6733C20.1652 42.6733 22.1266 45.8009 22.805 46.8827C23.2813 47.6425 24.1151 48.1031 25.0124 48.1031C25.9097 48.1031 26.7435 47.6425 27.2197 46.8827L47.5372 14.4936C48.149 13.5192 48.0479 12.2581 47.2892 11.3921C45.5675 9.42754 41.4362 4.71164 40.0439 3.12231C39.5488 2.55848 38.8349 2.23438 38.0835 2.23438H11.9413C11.1899 2.23438 10.476 2.55848 9.98092 3.12231C8.58855 4.71164 4.45732 9.42754 2.73563 11.3921C1.97692 12.2581 1.87582 13.5192 2.48759 14.4936L16.7187 37.18C17.0251 37.6677 17.6681 37.8146 18.1558 37.5093C18.6425 37.2039 18.7905 36.5599 18.4852 36.0732L4.44899 13.6984ZM44.7129 11.6141L38.7213 4.77627L33.3978 11.6141H40.6452C41.2205 11.6141 41.6874 12.081 41.6874 12.6563C41.6874 13.2315 41.2205 13.6984 40.6452 13.6984H32.1284L26.2641 44.4836L45.5758 13.6984H43.7718C43.1965 13.6984 42.7296 13.2315 42.7296 12.6563C42.7296 12.081 43.1965 11.6141 43.7718 11.6141H44.7129ZM30.0065 13.6984H20.0182L25.0124 39.9157L30.0065 13.6984ZM5.31192 11.6141H16.6269L11.3035 4.77627L5.31192 11.6141ZM20.7071 11.6141H29.3177L25.0124 5.15564L20.7071 11.6141ZM36.4358 4.31875H26.9602L31.3312 10.8751L36.4358 4.31875ZM23.0645 4.31875H13.589L18.6936 10.8751L23.0645 4.31875Z" fill="#EB662B"/>
<path fill-rule="evenodd" clip-rule="evenodd" d="M13.3773 40.2573C13.1853 39.9622 12.8574 39.7845 12.5042 39.7845C12.1521 39.7845 11.8241 39.9622 11.6311 40.2573L10.5177 41.9662L8.80881 43.0807C8.51375 43.2726 8.33496 43.6006 8.33496 43.9538C8.33496 44.3059 8.51375 44.6338 8.80881 44.8269L10.5177 45.9402L11.6311 47.6492C11.8241 47.9442 12.1521 48.123 12.5042 48.123C12.8574 48.123 13.1853 47.9442 13.3773 47.6492L14.4917 45.9402L16.2007 44.8269C16.4957 44.6338 16.6734 44.3059 16.6734 43.9538C16.6734 43.6006 16.4957 43.2726 16.2007 43.0807L14.4917 41.9662L13.3773 40.2573ZM12.5042 42.7351L12.8651 43.2891C12.944 43.4097 13.0482 43.5139 13.1689 43.5929L13.7228 43.9538L13.1689 44.3135C13.0482 44.3925 12.944 44.4967 12.8651 44.6185L12.5042 45.1713L12.1444 44.6185C12.0654 44.4967 11.9612 44.3925 11.8395 44.3135L11.2867 43.9538L11.8395 43.5929C11.9612 43.5139 12.0654 43.4097 12.1444 43.2891L12.5042 42.7351Z" fill="#EB662B"/>
<path fill-rule="evenodd" clip-rule="evenodd" d="M7.1273 27.7573C6.93534 27.4622 6.60738 27.2845 6.25418 27.2845C5.90209 27.2845 5.57412 27.4622 5.38107 27.7573L4.26774 29.4662L2.55881 30.5807C2.26375 30.7726 2.08496 31.1006 2.08496 31.4538C2.08496 31.8059 2.26375 32.1338 2.55881 32.3269L4.26774 33.4402L5.38107 35.1492C5.57412 35.4442 5.90209 35.623 6.25418 35.623C6.60738 35.623 6.93534 35.4442 7.1273 35.1492L8.24172 33.4402L9.95065 32.3269C10.2457 32.1338 10.4234 31.8059 10.4234 31.4538C10.4234 31.1006 10.2457 30.7726 9.95065 30.5807L8.24172 29.4662L7.1273 27.7573ZM6.25418 30.2351L6.61506 30.7891C6.69403 30.9097 6.79823 31.0139 6.91889 31.0929L7.47281 31.4538L6.91889 31.8135C6.79823 31.8925 6.69403 31.9967 6.61506 32.1185L6.25418 32.6713L5.89441 32.1185C5.81543 31.9967 5.71123 31.8925 5.58948 31.8135L5.03665 31.4538L5.58948 31.0929C5.71123 31.0139 5.81543 30.9097 5.89441 30.7891L6.25418 30.2351Z" fill="#EB662B"/>
<path fill-rule="evenodd" clip-rule="evenodd" d="M43.5853 32.9651C43.3934 32.67 43.0654 32.4923 42.7122 32.4923C42.3601 32.4923 42.0321 32.67 41.8391 32.9651L40.7257 34.674L39.0168 35.7884C38.7218 35.9804 38.543 36.3084 38.543 36.6616C38.543 37.0137 38.7218 37.3416 39.0168 37.5347L40.7257 38.648L41.8391 40.3569C42.0321 40.652 42.3601 40.8308 42.7122 40.8308C43.0654 40.8308 43.3934 40.652 43.5853 40.3569L44.6997 38.648L46.4087 37.5347C46.7037 37.3416 46.8814 37.0137 46.8814 36.6616C46.8814 36.3084 46.7037 35.9804 46.4087 35.7884L44.6997 34.674L43.5853 32.9651ZM42.7122 35.4429L43.0731 35.9968C43.152 36.1175 43.2562 36.2217 43.3769 36.3007L43.9308 36.6616L43.3769 37.0213C43.2562 37.1003 43.152 37.2045 43.0731 37.3263L42.7122 37.8791L42.3524 37.3263C42.2734 37.2045 42.1692 37.1003 42.0475 37.0213L41.4947 36.6616L42.0475 36.3007C42.1692 36.2217 42.2734 36.1175 42.3524 35.9968L42.7122 35.4429Z" fill="#EB662B"/>
</svg>
