<svg width="60" height="60" viewBox="0 0 60 60" fill="none" xmlns="http://www.w3.org/2000/svg">
<path d="M38.7673 31.7463V55.0716C38.7673 56.0691 37.6451 56.6925 36.7723 56.0691L30.0392 51.2062L23.306 56.0691C22.4332 56.6925 21.311 56.0691 21.311 55.0716V31.7463H38.7673Z" fill="white"/>
<path d="M30.0393 38.7375C39.6801 38.7375 47.4955 30.9221 47.4955 21.2813C47.4955 11.6404 39.6801 3.82501 30.0393 3.82501C20.3984 3.82501 12.583 11.6404 12.583 21.2813C12.583 30.9221 20.3984 38.7375 30.0393 38.7375Z" fill="#FDF0EA"/>
<path d="M31.2862 12.8025L32.5331 16.6678C32.6578 17.1665 33.1565 17.5406 33.7799 17.5406H37.77C39.0168 17.5406 39.5156 19.0369 38.5181 19.785L35.2762 22.1541C34.7775 22.5281 34.6527 23.0269 34.7774 23.5256L36.0243 27.3909C36.3984 28.5131 35.0268 29.5106 34.154 28.7625L30.9121 26.3934C30.4134 26.0194 29.9146 26.0194 29.4159 26.3934L26.174 28.7625C25.1765 29.5106 23.9296 28.5131 24.3037 27.3909L25.5506 23.5256C25.6752 23.0269 25.5506 22.4035 25.0518 22.1541L21.8099 19.785C20.8124 19.0369 21.3112 17.5406 22.5581 17.5406H26.5481C27.0468 17.5406 27.5456 17.1665 27.795 16.6678L29.0418 12.8025C29.1665 11.6803 30.9121 11.6803 31.2862 12.8025Z" fill="white"/>
<path d="M13.2933 27.5104C13.9836 27.5104 14.5432 26.9508 14.5432 26.2605C14.5432 25.5703 13.9836 25.0107 13.2933 25.0107C12.603 25.0107 12.0435 25.5703 12.0435 26.2605C12.0435 26.9508 12.603 27.5104 13.2933 27.5104Z" fill="#EB662B"/>
<path fill-rule="evenodd" clip-rule="evenodd" d="M20.2563 37.3073C17.535 35.5864 15.2876 33.1852 13.7543 30.3413C13.4267 29.7347 13.6543 28.9756 14.2621 28.6479C14.8699 28.3203 15.6291 28.5466 15.9567 29.1544C18.6968 34.2357 24.067 37.6912 30.2401 37.6912C39.1908 37.6912 46.457 30.4251 46.457 21.4756C46.457 17.3823 44.9374 13.6417 42.4312 10.7865C41.9759 10.2688 42.0285 9.47712 42.5462 9.02189C43.0652 8.56666 43.8569 8.61795 44.3121 9.13696C47.2036 12.4324 48.9582 16.7508 48.9582 21.4756C48.9582 28.1365 45.4702 33.9894 40.2238 37.3073V50.25C40.2238 50.9403 39.6635 51.5006 38.9732 51.5006C38.2829 51.5006 37.7226 50.9403 37.7226 50.25V38.6355C35.4314 39.6372 32.9002 40.1925 30.2401 40.1925C27.58 40.1925 25.0487 39.6372 22.7576 38.6355V55.2863C22.7576 55.2788 22.7701 55.2687 22.7764 55.2662L29.5085 50.4051C29.945 50.0887 30.5352 50.0887 30.9717 50.4051C30.9717 50.4051 37.7101 55.2713 37.7038 55.2675C37.7151 55.275 37.7226 55.2988 37.7226 55.2863V54.0019C37.7226 53.3115 38.2829 52.7513 38.9732 52.7513C39.6635 52.7513 40.2238 53.3115 40.2238 54.0019V55.2863C40.2238 57.2798 37.994 58.5479 36.2506 57.3023L36.2456 57.2985L30.2401 52.9614L24.2346 57.2985L24.2296 57.3023C22.4862 58.5479 20.2563 57.2798 20.2563 55.2863V37.3073ZM14.0657 22.6474C14.1145 23.3353 13.5955 23.9344 12.9077 23.9831C12.2186 24.0332 11.6195 23.5142 11.5707 22.8251C11.5382 22.3798 11.522 21.9296 11.522 21.4756C11.522 11.1442 19.9099 2.75751 30.2401 2.75751C34.2271 2.75751 37.9252 4.00691 40.963 6.13547C41.5282 6.53067 41.6658 7.31106 41.2694 7.87634C40.8729 8.44162 40.0925 8.57919 39.5272 8.18399C36.8959 6.34057 33.6931 5.25876 30.2401 5.25876C21.2894 5.25876 14.0232 12.5249 14.0232 21.4756C14.0232 21.8696 14.0382 22.2597 14.0657 22.6474ZM26.7071 16.4819C26.7283 16.4644 26.7984 16.4056 26.8459 16.3456C26.8459 16.3456 28.019 12.7075 28.019 12.7125C28.1791 11.7557 28.8556 11.1642 29.6886 10.9666C30.8129 10.699 32.2286 11.2568 32.6763 12.6012L33.9244 16.4719C33.942 16.4769 33.9657 16.4819 33.9832 16.4819H37.9752C39.2158 16.4819 40.0687 17.2485 40.3789 18.179C40.6891 19.1094 40.4664 20.2337 39.4684 20.9829C39.4684 20.9829 36.2281 23.3503 36.2206 23.3566C36.2056 23.3703 36.1943 23.3853 36.1931 23.4041C36.1931 23.4041 37.4187 27.2047 37.4149 27.1935C37.7914 28.3203 37.3124 29.3921 36.4982 29.9861C35.6565 30.6014 34.4972 30.6965 33.5868 29.9473L30.3689 27.5962L30.3652 27.5924C30.3639 27.5937 30.3614 27.5949 30.3602 27.5962L27.1123 29.9686C25.0888 31.4731 22.5563 29.4671 23.3104 27.2047C23.3104 27.2047 24.5385 23.3991 24.5385 23.3941C24.5398 23.3891 24.5397 23.3841 24.5397 23.3791L21.2619 20.9829L21.2556 20.9791C20.2626 20.2338 20.0412 19.1094 20.3514 18.179C20.6615 17.2485 21.5132 16.4819 22.7539 16.4819H26.7071ZM22.7639 18.9831C22.9489 19.1194 25.9217 21.2905 25.9167 21.288C26.8684 21.8346 27.2111 23.0276 26.9622 24.0244L26.9522 24.0644L25.7178 27.8913C26.2393 27.5099 28.8757 25.5827 28.8757 25.5827C29.3684 25.2162 29.8712 25.0587 30.3652 25.0587C30.8579 25.0587 31.3606 25.2162 31.8546 25.5827L35.0125 27.8901L33.7781 24.0644L33.7681 24.0244C33.5255 23.0527 33.7581 22.0772 34.7361 21.343C34.7361 21.343 37.6888 19.1857 37.9652 18.9831H33.9832C32.7476 18.9831 31.8009 18.189 31.5345 17.211L30.3652 13.5842L29.1558 17.3335L29.1133 17.4186C28.648 18.3478 27.6763 18.9831 26.7471 18.9831H22.7639Z" fill="#EB662B"/>
</svg>
