<svg width="60" height="60" viewBox="0 0 60 60" fill="none" xmlns="http://www.w3.org/2000/svg">
<path fill-rule="evenodd" clip-rule="evenodd" d="M27.8697 12.3348C28.3975 11.6653 29.2051 11.2757 30.0587 11.2757C30.9123 11.2757 31.7198 11.6653 32.2476 12.3348C34.1921 14.7822 36.8839 18.1753 37.9712 19.5424C38.29 19.9427 38.7079 20.2473 39.1861 20.4244C40.826 21.0371 44.8814 22.5495 47.8105 23.6404C48.611 23.9379 49.2308 24.5861 49.4929 25.3972C49.7586 26.2082 49.6347 27.0972 49.1636 27.8092C47.4387 30.4124 45.0444 34.0216 44.0774 35.4774C43.7941 35.9024 43.6347 36.3947 43.6134 36.9047C43.539 38.6509 43.3549 42.979 43.2203 46.103C43.1849 46.953 42.7598 47.7429 42.0691 48.2458C41.3785 48.7452 40.4966 48.9046 39.6748 48.6779C36.6678 47.8385 32.492 46.6768 30.8096 46.2092C30.3172 46.0711 29.8001 46.0711 29.3078 46.2092C27.6254 46.6768 23.4495 47.8385 20.4425 48.6779C19.6208 48.9046 18.7389 48.7452 18.0482 48.2458C17.3575 47.7429 16.9325 46.953 16.897 46.103C16.7625 42.979 16.5783 38.6509 16.5039 36.9047C16.4827 36.3947 16.3232 35.9024 16.0399 35.4774C15.073 34.0216 12.6786 30.4124 10.9537 27.8092C10.4827 27.0972 10.3588 26.2082 10.6244 25.3972C10.8865 24.5861 11.5063 23.9379 12.3068 23.6404C15.2359 22.5495 19.2914 21.0371 20.9313 20.4244C21.4094 20.2473 21.8273 19.9427 22.1461 19.5424C23.2334 18.1753 25.9253 14.7822 27.8697 12.3348Z" fill="#FDF0EA"/>
<path fill-rule="evenodd" clip-rule="evenodd" d="M7.50522 48.9919L8.986 51.2637L11.2578 52.7445L8.986 54.224L7.50522 56.4958L6.02575 54.224L3.75391 52.7445L6.02575 51.2637L7.50522 48.9919Z" fill="white"/>
<path fill-rule="evenodd" clip-rule="evenodd" d="M12.5057 3.99188L13.9865 6.26375L16.2583 7.74453L13.9865 9.22398L12.5057 11.4958L11.0262 9.22398L8.75439 7.74453L11.0262 6.26375L12.5057 3.99188Z" fill="white"/>
<path fill-rule="evenodd" clip-rule="evenodd" d="M52.5052 3.99188L53.986 6.26375L56.2578 7.74453L53.986 9.22398L52.5052 11.4958L51.0258 9.22398L48.7539 7.74453L51.0258 6.26375L52.5052 3.99188Z" fill="white"/>
<path fill-rule="evenodd" clip-rule="evenodd" d="M34.4013 17.056C34.4013 17.056 36.3777 19.5459 36.9939 20.3216C37.4509 20.8989 38.0601 21.3381 38.7507 21.5967C40.3871 22.2094 44.4461 23.7218 47.3752 24.8127C47.8179 24.9757 48.1579 25.3334 48.3067 25.7832C48.4519 26.233 48.3846 26.7218 48.1225 27.1185L43.0364 34.7866C42.629 35.4029 42.3953 36.1149 42.3634 36.8516C42.289 38.5977 42.1049 42.9259 41.9703 46.0463C41.9526 46.5209 41.7187 46.9565 41.3362 47.2328C40.9537 47.5091 40.4649 47.5976 40.0116 47.4736L31.1427 45.005C30.4344 44.8066 29.6835 44.8066 28.9751 45.005C27.2892 45.4725 23.1169 46.6342 20.1063 47.4736C19.6529 47.5976 19.1642 47.5091 18.7816 47.2328C18.3991 46.9565 18.1653 46.5209 18.1476 46.0463L18.1015 44.9766C18.0697 44.2859 17.4889 43.7511 16.7982 43.7795C16.1075 43.8078 15.5727 44.3922 15.601 45.0829C15.601 45.0829 15.6329 45.809 15.647 46.1561C15.7002 47.3886 16.3129 48.5291 17.3117 49.2552C18.3105 49.9813 19.5856 50.2115 20.7757 49.8821L29.6445 47.4134C29.9172 47.3355 30.2006 47.3355 30.4733 47.4134L39.3422 49.8821C40.5323 50.2115 41.8073 49.9813 42.8061 49.2552C43.8049 48.5291 44.4177 47.3886 44.4708 46.1561L44.8639 36.9578C44.8746 36.678 44.9632 36.4053 45.119 36.168L50.2051 28.4998C50.8887 27.4691 51.0658 26.187 50.6833 25.0111C50.3007 23.8352 49.4047 22.9001 48.2465 22.468L39.622 19.2555C39.3599 19.1564 39.1261 18.9863 38.9525 18.7667L36.3599 15.5011C35.9278 14.9592 35.1415 14.8707 34.6031 15.2992C34.0612 15.7278 33.9727 16.5141 34.4013 17.056ZM17.7934 37.7618L17.7545 36.8516C17.7226 36.1149 17.4888 35.4029 17.0815 34.7866C16.1146 33.3309 13.7202 29.7218 11.9953 27.1185C11.7332 26.7218 11.6659 26.233 11.8112 25.7832C11.9599 25.3334 12.2999 24.9757 12.7427 24.8127L21.3671 21.5967C22.0578 21.3381 22.667 20.8989 23.1239 20.3216C24.2113 18.9509 26.9031 15.5578 28.8476 13.1139C29.1415 12.742 29.5879 12.5259 30.0589 12.5259C30.53 12.5259 30.9763 12.742 31.2703 13.1139L31.9184 13.9286C32.347 14.4705 33.1368 14.559 33.6752 14.1304C34.2171 13.7018 34.3056 12.9155 33.8771 12.3736C33.8771 12.3736 33.4378 11.8211 33.2289 11.559C32.4603 10.5921 31.295 10.0254 30.0589 10.0254C28.8228 10.0254 27.6576 10.5921 26.889 11.559L21.1653 18.7667C20.9918 18.9863 20.7579 19.1564 20.4958 19.2555L11.8714 22.468C10.7132 22.9001 9.81712 23.8352 9.4346 25.0111C9.05207 26.187 9.2292 27.4691 9.91278 28.4998L14.9988 36.168C15.1547 36.4053 15.2433 36.678 15.2539 36.9578L15.2928 37.8681C15.3247 38.5588 15.9056 39.0936 16.5963 39.0652C17.2869 39.0334 17.8217 38.4525 17.7934 37.7618Z" fill="#EB662B"/>
<path d="M16.6315 42.525C17.3222 42.525 17.8821 41.9651 17.8821 41.2744C17.8821 40.5837 17.3222 40.0237 16.6315 40.0237C15.9408 40.0237 15.3809 40.5837 15.3809 41.2744C15.3809 41.9651 15.9408 42.525 16.6315 42.525Z" fill="#EB662B"/>
<path fill-rule="evenodd" clip-rule="evenodd" d="M8.55275 48.3088C8.32241 47.9547 7.92885 47.7415 7.50502 47.7415C7.0825 47.7415 6.68894 47.9547 6.45728 48.3088L5.12129 50.3595L3.07057 51.6968C2.7165 51.9271 2.50195 52.3207 2.50195 52.7446C2.50195 53.1671 2.7165 53.5606 3.07057 53.7923L5.12129 55.1283L6.45728 57.179C6.68894 57.5331 7.0825 57.7476 7.50502 57.7476C7.92885 57.7476 8.32241 57.5331 8.55275 57.179L9.89007 55.1283L11.9408 53.7923C12.2949 53.5606 12.5081 53.1671 12.5081 52.7446C12.5081 52.3207 12.2949 51.9271 11.9408 51.6968L9.89007 50.3595L8.55275 48.3088ZM7.50502 51.2822L7.93807 51.9469C8.03284 52.0917 8.15788 52.2167 8.30267 52.3115L8.96737 52.7446L8.30267 53.1762C8.15788 53.271 8.03284 53.3961 7.93807 53.5422L7.50502 54.2056L7.07329 53.5422C6.97852 53.3961 6.85348 53.271 6.70737 53.1762L6.04398 52.7446L6.70737 52.3115C6.85348 52.2167 6.97852 52.0917 7.07329 51.9469L7.50502 51.2822Z" fill="#EB662B"/>
<path fill-rule="evenodd" clip-rule="evenodd" d="M13.5532 3.30876C13.3229 2.95469 12.9293 2.74146 12.5055 2.74146C12.083 2.74146 11.6894 2.95469 11.4578 3.30876L10.1218 5.35949L8.07106 6.69679C7.71699 6.92714 7.50244 7.32072 7.50244 7.74455C7.50244 8.16707 7.71699 8.56062 8.07106 8.79228L10.1218 10.1283L11.4578 12.179C11.6894 12.5331 12.083 12.7476 12.5055 12.7476C12.9293 12.7476 13.3229 12.5331 13.5532 12.179L14.8906 10.1283L16.9413 8.79228C17.2953 8.56062 17.5086 8.16707 17.5086 7.74455C17.5086 7.32072 17.2953 6.92714 16.9413 6.69679L14.8906 5.35949L13.5532 3.30876ZM12.5055 6.28217L12.9386 6.94688C13.0333 7.09167 13.1584 7.21673 13.3032 7.3115L13.9679 7.74455L13.3032 8.17625C13.1584 8.27102 13.0333 8.39608 12.9386 8.54219L12.5055 9.20557L12.0738 8.54219C11.979 8.39608 11.854 8.27102 11.7079 8.17625L11.0445 7.74455L11.7079 7.3115C11.854 7.21673 11.979 7.09167 12.0738 6.94688L12.5055 6.28217Z" fill="#EB662B"/>
<path fill-rule="evenodd" clip-rule="evenodd" d="M53.5528 3.30876C53.3224 2.95469 52.9289 2.74146 52.505 2.74146C52.0825 2.74146 51.6889 2.95469 51.4573 3.30876L50.1213 5.35949L48.0706 6.69679C47.7165 6.92714 47.502 7.32072 47.502 7.74455C47.502 8.16707 47.7165 8.56062 48.0706 8.79228L50.1213 10.1283L51.4573 12.179C51.6889 12.5331 52.0825 12.7476 52.505 12.7476C52.9289 12.7476 53.3224 12.5331 53.5528 12.179L54.8901 10.1283L56.9408 8.79228C57.2949 8.56062 57.5081 8.16707 57.5081 7.74455C57.5081 7.32072 57.2949 6.92714 56.9408 6.69679L54.8901 5.35949L53.5528 3.30876ZM52.505 6.28217L52.9381 6.94688C53.0328 7.09167 53.1579 7.21673 53.3027 7.3115L53.9674 7.74455L53.3027 8.17625C53.1579 8.27102 53.0328 8.39608 52.9381 8.54219L52.505 9.20557L52.0733 8.54219C51.9785 8.39608 51.8535 8.27102 51.7074 8.17625L51.044 7.74455L51.7074 7.3115C51.8535 7.21673 51.9785 7.09167 52.0733 6.94688L52.505 6.28217Z" fill="#EB662B"/>
</svg>
