<svg width="60" height="60" viewBox="0 0 60 60" fill="none" xmlns="http://www.w3.org/2000/svg">
<path fill-rule="evenodd" clip-rule="evenodd" d="M56.6813 6.01954C56.8561 5.53019 56.7338 4.98438 56.3654 4.61736C55.9984 4.249 55.4526 4.12664 54.9633 4.30141C45.8444 7.55749 15.928 18.2426 5.1152 22.1037C4.56535 22.3013 4.20503 22.8296 4.22385 23.4144C4.24267 23.9979 4.63658 24.502 5.19853 24.6634C12.0239 26.6127 25.4421 30.4468 28.6861 31.3731C29.1324 31.5008 29.482 31.8504 29.6097 32.2967C30.536 35.5407 34.3701 48.9589 36.3194 55.7843C36.4808 56.3462 36.9849 56.7401 37.5684 56.7589C38.1532 56.7777 38.6815 56.4175 38.8791 55.8676C42.7402 45.0548 53.4253 15.1384 56.6813 6.01954Z" fill="#FDF0EA"/>
<path fill-rule="evenodd" clip-rule="evenodd" d="M56.1995 4.50586L29.106 31.5994C29.2648 31.7582 29.3848 31.9571 29.4486 32.1797C30.3741 35.4226 34.2072 48.8392 36.1582 55.6626C36.3183 56.2254 36.8223 56.6182 37.4064 56.6369C37.9904 56.657 38.5194 56.2967 38.7158 55.7465C42.5765 44.9361 53.2593 15.0248 56.5147 5.90777C56.6898 5.41878 56.5672 4.87354 56.1995 4.50586Z" fill="white"/>
<path d="M34.3839 51.27C35.0746 51.27 35.6346 50.7101 35.6346 50.0194C35.6346 49.3287 35.0746 48.7688 34.3839 48.7688C33.6932 48.7688 33.1333 49.3287 33.1333 50.0194C33.1333 50.7101 33.6932 51.27 34.3839 51.27Z" fill="#EB662B"/>
<path fill-rule="evenodd" clip-rule="evenodd" d="M52.6527 6.28426L28.8783 30.0574L28.8683 30.0549L5.38527 23.3453C5.3465 23.3341 5.319 23.299 5.31775 23.259C5.3165 23.2177 5.3415 23.1815 5.38027 23.1677L47.0086 8.30026C47.6589 8.06765 47.9979 7.35102 47.7665 6.70195C47.5339 6.05162 46.8172 5.71276 46.1682 5.94412C46.1682 5.94412 12.9116 17.8213 4.53863 20.8116C3.47685 21.1905 2.78149 22.2122 2.81776 23.3391C2.85403 24.4659 3.61441 25.4401 4.6987 25.7502L28.1817 32.4598C28.2129 32.4686 28.2367 32.4924 28.2455 32.5236L32.375 46.9771C32.5651 47.64 33.2579 48.0251 33.9208 47.8362C34.5848 47.6461 34.9701 46.9533 34.78 46.2892L30.6504 31.837L30.6479 31.8257L54.421 8.05264L37.5376 55.325C37.5238 55.3638 37.4876 55.3888 37.4463 55.3875C37.4063 55.3863 37.3712 55.3588 37.36 55.32L36.9235 53.793C36.7347 53.1301 36.0419 52.745 35.3778 52.9351C34.7137 53.1239 34.3298 53.8168 34.5186 54.4809C34.5186 54.4809 34.7662 55.3463 34.9551 56.0066C35.2652 57.0909 36.2394 57.8513 37.3662 57.8876C38.4931 57.9238 39.5148 57.2285 39.8937 56.1667C43.7544 45.3563 54.4373 15.4451 57.6927 6.32929C58.0304 5.38507 57.7928 4.33075 57.0837 3.62164C56.3746 2.91254 55.3202 2.67492 54.376 3.01259C53.2054 3.4303 49.92 4.60465 49.92 4.60465C49.2697 4.83601 48.9308 5.55264 49.1621 6.20296C49.3948 6.85329 50.1114 7.19218 50.7605 6.95957L52.6527 6.28426Z" fill="#EB662B"/>
</svg>
