<svg width="60" height="60" viewBox="0 0 60 60" fill="none" xmlns="http://www.w3.org/2000/svg">
<path d="M29.9702 56.0081C44.4749 56.0081 56.2333 44.2497 56.2333 29.7449C56.2333 15.2402 44.4749 3.48181 29.9702 3.48181C15.4654 3.48181 3.70703 15.2402 3.70703 29.7449C3.70703 44.2497 15.4654 56.0081 29.9702 56.0081Z" fill="white"/>
<path d="M29.9701 30.9956C35.4957 30.9956 39.9751 26.5162 39.9751 20.9906C39.9751 15.465 35.4957 10.9856 29.9701 10.9856C24.4445 10.9856 19.9651 15.465 19.9651 20.9906C19.9651 26.5162 24.4445 30.9956 29.9701 30.9956Z" fill="#FDF0EA"/>
<path fill-rule="evenodd" clip-rule="evenodd" d="M50.385 47.6587C45.9203 51.1655 36.4868 56.4131 30.375 56.4131C24.2632 56.4131 14.8297 51.1655 10.365 47.6587C11.2692 39.5634 21.9508 36.4031 30.375 36.4031C38.7992 36.4031 49.4808 39.5634 50.385 47.6587Z" fill="#FDF0EA"/>
<path d="M4.22008 36.2591C4.91036 36.2591 5.46995 35.6995 5.46995 35.0093C5.46995 34.319 4.91036 33.7594 4.22008 33.7594C3.5298 33.7594 2.97021 34.319 2.97021 35.0093C2.97021 35.6995 3.5298 36.2591 4.22008 36.2591Z" fill="#EB662B"/>
<path fill-rule="evenodd" clip-rule="evenodd" d="M8.66425 47.0434C6.81707 44.6747 5.35006 41.9972 4.35332 39.1007C4.1282 38.4479 4.47587 37.7363 5.1287 37.5112C5.78027 37.2873 6.49312 37.6337 6.71824 38.2865C7.45736 40.4351 8.48167 42.4511 9.7448 44.2895C14.8123 38.683 22.161 35.1525 30.3751 35.1525C38.5892 35.1525 45.9378 38.683 51.0054 44.2895C53.7692 40.2663 55.3876 35.3964 55.3876 30.15C55.3876 25.9391 54.3445 21.9696 52.5036 18.4866C52.1809 17.8763 52.4149 17.1185 53.0252 16.7958C53.6355 16.4744 54.3921 16.707 54.7147 17.3173C56.7407 21.1492 57.8888 25.5164 57.8888 30.15C57.8888 36.5182 55.7215 42.3836 52.0834 47.0472C52.0709 47.0647 52.0572 47.0822 52.0434 47.0985C47.0059 53.5292 39.1695 57.6637 30.3751 57.6637C21.5819 57.6637 13.7481 53.5304 8.70928 47.1022C8.69427 47.0834 8.678 47.0634 8.66425 47.0434ZM49.4571 46.3143C44.8386 41.0117 38.0189 37.6537 30.3751 37.6537C22.7313 37.6537 15.9116 41.0117 11.293 46.3143C15.8828 51.7258 22.7313 55.1625 30.3751 55.1625C38.0189 55.1625 44.8673 51.7258 49.4571 46.3143ZM5.39006 31.3418C5.42257 32.0309 4.88985 32.6175 4.19951 32.65C3.51041 32.6825 2.92389 32.1485 2.89262 31.4594C2.87136 31.0254 2.86133 30.589 2.86133 30.15C2.86133 14.9649 15.19 2.63623 30.3751 2.63623C39.5284 2.63623 47.645 7.11598 52.6475 14.0007C53.0527 14.5597 52.9289 15.3426 52.3711 15.7478C51.8121 16.153 51.0291 16.0292 50.6239 15.4714C46.0754 9.21077 38.698 5.13748 30.3751 5.13748C16.5707 5.13748 5.36258 16.3456 5.36258 30.15C5.36258 30.5489 5.37255 30.9466 5.39006 31.3418ZM30.3751 10.14C36.5869 10.14 41.6307 15.1838 41.6307 21.3956C41.6307 27.6075 36.5869 32.6512 30.3751 32.6512C24.1632 32.6512 19.1195 27.6075 19.1195 21.3956C19.1195 15.1838 24.1632 10.14 30.3751 10.14ZM30.3751 12.6412C25.5439 12.6412 21.6207 16.5644 21.6207 21.3956C21.6207 26.2268 25.5439 30.15 30.3751 30.15C35.2062 30.15 39.1295 26.2268 39.1295 21.3956C39.1295 16.5644 35.2062 12.6412 30.3751 12.6412Z" fill="#EB662B"/>
</svg>
