<svg width="60" height="60" viewBox="0 0 60 60" fill="none" xmlns="http://www.w3.org/2000/svg">
<path fill-rule="evenodd" clip-rule="evenodd" d="M9.2927 54.0755C6.29432 53.5678 4.00684 50.9552 4.00684 47.8125C4.00684 44.3065 6.85333 41.46 10.3593 41.46C13.8653 41.46 16.7118 44.3065 16.7118 47.8125C16.7118 50.9552 14.4243 53.5678 11.426 54.0755L10.3593 56.475L9.2927 54.0755Z" fill="#FDF0EA"/>
<path fill-rule="evenodd" clip-rule="evenodd" d="M49.1008 16.5755C46.1024 16.0678 43.8149 13.4552 43.8149 10.3125C43.8149 6.80646 46.6614 3.95996 50.1674 3.95996C53.6734 3.95996 56.5199 6.80646 56.5199 10.3125C56.5199 13.4552 54.2325 16.0678 51.2341 16.5755L50.1674 18.975L49.1008 16.5755Z" fill="#FDF0EA"/>
<path fill-rule="evenodd" clip-rule="evenodd" d="M8.40678 55.1623L9.21585 56.9831C9.41682 57.4347 9.86497 57.7264 10.3593 57.7264C10.8537 57.7264 11.3018 57.4347 11.5028 56.9831L12.3118 55.1623C15.5632 54.3001 17.9633 51.3346 17.9633 47.8124C17.9633 43.6157 14.556 40.2085 10.3593 40.2085C6.16262 40.2085 2.75537 43.6157 2.75537 47.8124C2.75537 51.334 5.15545 54.2995 8.40678 55.1623ZM10.3593 53.4217C10.1722 53.1156 9.86036 52.9025 9.50173 52.8419C7.09356 52.4342 5.25825 50.3361 5.25825 47.8124C5.25825 44.9971 7.544 42.7114 10.3593 42.7114C13.1746 42.7114 15.4604 44.9971 15.4604 47.8124C15.4604 50.3361 13.6251 52.4342 11.2169 52.8419C10.8583 52.9025 10.5464 53.1156 10.3593 53.4217Z" fill="#EB662B"/>
<path fill-rule="evenodd" clip-rule="evenodd" d="M50.1674 15.9217C49.9803 15.6156 49.6685 15.4025 49.3098 15.3419C46.9017 14.9342 45.0664 12.8361 45.0664 10.3124C45.0664 7.49712 47.3521 5.21137 50.1674 5.21137C50.7605 5.21137 51.3299 5.31244 51.8601 5.49898C52.5115 5.72824 53.2264 5.38578 53.4557 4.73436C53.685 4.08294 53.3425 3.36799 52.6911 3.13815C51.9011 2.86037 51.0516 2.7085 50.1674 2.7085C45.9707 2.7085 42.5635 6.11574 42.5635 10.3124C42.5635 13.8346 44.9641 16.8001 48.2155 17.6629C48.2149 17.6623 49.024 19.4831 49.024 19.4831C49.2249 19.9347 49.6731 20.2264 50.1674 20.2264C50.6618 20.2264 51.1099 19.9347 51.3109 19.4831L52.12 17.6623C55.3713 16.8001 57.7714 13.8346 57.7714 10.3124C57.7714 8.76127 57.3059 7.31867 56.5072 6.11516C56.1255 5.53997 55.3482 5.38232 54.773 5.76462C54.1978 6.14635 54.0401 6.92308 54.4219 7.49885C54.9572 8.30562 55.2685 9.27293 55.2685 10.3124C55.2685 12.8361 53.4332 14.9342 51.025 15.3419C50.6664 15.4025 50.3545 15.6156 50.1674 15.9217Z" fill="#EB662B"/>
<path fill-rule="evenodd" clip-rule="evenodd" d="M19.1643 57.5288H21.6655C22.3559 57.5288 22.9162 56.9685 22.9162 56.2782C22.9162 55.5878 22.3559 55.0275 21.6655 55.0275H19.1643C18.4739 55.0275 17.9137 55.5878 17.9137 56.2782C17.9137 56.9685 18.4739 57.5288 19.1643 57.5288ZM29.1693 57.5288H38.549C45.111 57.5288 50.4299 52.2099 50.4299 45.6479C50.4299 42.4963 49.1781 39.4748 46.9507 37.2462C44.7221 35.0188 41.7006 33.7669 38.549 33.7669C32.5935 33.7669 25.2836 33.7669 19.7896 33.7669C17.9649 33.7669 16.2153 33.0428 14.9259 31.7522C13.6353 30.4628 12.9112 28.7131 12.9112 26.8885C12.9112 25.0638 13.6353 23.3142 14.9259 22.0248C16.2153 20.7342 17.9649 20.01 19.7896 20.01H21.6655C22.3559 20.01 22.9162 19.4498 22.9162 18.7594C22.9162 18.0691 22.3559 17.5088 21.6655 17.5088H19.7896C17.3021 17.5088 14.9159 18.4968 13.1576 20.2564C11.3979 22.0148 10.4099 24.401 10.4099 26.8885C10.4099 29.376 11.3979 31.7622 13.1576 33.5205C14.9159 35.2802 17.3021 36.2682 19.7896 36.2682H38.549C41.0365 36.2682 43.4226 37.2562 45.181 39.0158C46.9406 40.7742 47.9287 43.1604 47.9287 45.6479C47.9287 50.8279 43.7291 55.0275 38.549 55.0275H29.1693C28.4789 55.0275 27.9187 55.5878 27.9187 56.2782C27.9187 56.9685 28.4789 57.5288 29.1693 57.5288ZM25.4174 20.01H41.6755C42.3659 20.01 42.9262 19.4498 42.9262 18.7594C42.9262 18.0691 42.3659 17.5088 41.6755 17.5088H25.4174C24.7271 17.5088 24.1668 18.0691 24.1668 18.7594C24.1668 19.4498 24.7271 20.01 25.4174 20.01Z" fill="#EB662B"/>
<path d="M25.0067 57.5249C25.6974 57.5249 26.2574 56.965 26.2574 56.2743C26.2574 55.5836 25.6974 55.0237 25.0067 55.0237C24.316 55.0237 23.7561 55.5836 23.7561 56.2743C23.7561 56.965 24.316 57.5249 25.0067 57.5249Z" fill="#EB662B"/>
</svg>
