<svg width="40" height="41" viewBox="0 0 40 41" fill="none" xmlns="http://www.w3.org/2000/svg">
<path d="M38.3337 34.6735H34.2187V29.6002C35.2739 29.3312 36.2098 28.7191 36.8793 27.8602C37.5488 27.0013 37.9138 25.9442 37.917 24.8552V21.0719C37.917 19.7679 37.399 18.5173 36.4769 17.5953C35.5549 16.6732 34.3043 16.1552 33.0003 16.1552C31.6963 16.1552 30.4458 16.6732 29.5237 17.5953C28.6017 18.5173 28.0837 19.7679 28.0837 21.0719V24.8485C28.0869 25.9261 28.4446 26.9727 29.1015 27.8269C29.7584 28.681 30.6781 29.2954 31.7187 29.5752V34.6735H25.0837V9.29854C25.0837 5.24188 22.8753 3.00854 18.862 3.00854H8.48533C4.46033 3.00854 2.24366 5.24188 2.24366 9.29854V34.6735H1.66699C1.33547 34.6735 1.01753 34.8052 0.783109 35.0397C0.548688 35.2741 0.416992 35.592 0.416992 35.9235C0.416992 36.2551 0.548688 36.573 0.783109 36.8074C1.01753 37.0418 1.33547 37.1735 1.66699 37.1735H32.872C32.9053 37.1735 32.9353 37.1919 32.9687 37.1919C33.002 37.1919 33.032 37.1752 33.0653 37.1735H38.3337C38.6652 37.1735 38.9831 37.0418 39.2175 36.8074C39.452 36.573 39.5837 36.2551 39.5837 35.9235C39.5837 35.592 39.452 35.2741 39.2175 35.0397C38.9831 34.8052 38.6652 34.6735 38.3337 34.6735ZM22.5837 34.6735H15.0003V29.6735C15.0003 29.342 14.8686 29.0241 14.6342 28.7897C14.3998 28.5552 14.0818 28.4235 13.7503 28.4235C13.4188 28.4235 13.1009 28.5552 12.8664 28.7897C12.632 29.0241 12.5003 29.342 12.5003 29.6735V34.6735H4.74866V9.29854C4.74866 6.64188 5.86866 5.50854 8.49033 5.50854H18.867C21.4753 5.50854 22.5887 6.64188 22.5887 9.29854L22.5837 34.6735ZM33.0003 27.2669C32.3595 27.2664 31.7451 27.0117 31.292 26.5586C30.8389 26.1054 30.5841 25.491 30.5837 24.8502V21.0719C30.5837 20.4309 30.8383 19.8162 31.2915 19.363C31.7447 18.9098 32.3594 18.6552 33.0003 18.6552C33.6413 18.6552 34.256 18.9098 34.7092 19.363C35.1624 19.8162 35.417 20.4309 35.417 21.0719V24.8485C35.417 25.4896 35.1624 26.1045 34.7093 26.558C34.2561 27.0115 33.6414 27.2664 33.0003 27.2669ZM19.167 13.0085C19.167 13.3401 19.0353 13.658 18.8009 13.8924C18.5665 14.1268 18.2485 14.2585 17.917 14.2585H9.66699C9.49482 14.2726 9.3216 14.2509 9.15825 14.1947C8.99491 14.1385 8.84499 14.049 8.71795 13.9319C8.59092 13.8149 8.48953 13.6728 8.42017 13.5145C8.35082 13.3563 8.31502 13.1855 8.31502 13.0127C8.31502 12.84 8.35082 12.6691 8.42017 12.5109C8.48953 12.3527 8.59092 12.2105 8.71795 12.0935C8.84499 11.9764 8.99491 11.887 9.15825 11.8307C9.3216 11.7745 9.49482 11.7528 9.66699 11.7669H17.917C18.2471 11.7669 18.5638 11.8974 18.7979 12.13C19.0321 12.3627 19.1648 12.6785 19.167 13.0085ZM19.167 19.2569C19.167 19.5884 19.0353 19.9063 18.8009 20.1408C18.5665 20.3752 18.2485 20.5069 17.917 20.5069H9.66699C9.33547 20.5069 9.01753 20.3752 8.78311 20.1408C8.54869 19.9063 8.41699 19.5884 8.41699 19.2569C8.41699 18.9254 8.54869 18.6074 8.78311 18.373C9.01753 18.1386 9.33547 18.0069 9.66699 18.0069H17.917C18.2485 18.0069 18.5665 18.1386 18.8009 18.373C19.0353 18.6074 19.167 18.9254 19.167 19.2569Z" fill="#EB662B"/>
</svg>
