<svg width="40" height="41" viewBox="0 0 40 41" fill="none" xmlns="http://www.w3.org/2000/svg">
<path d="M38.3337 35.4452H37.917V31.6952C37.9161 30.9219 37.6085 30.1806 37.0617 29.6338C36.515 29.087 35.7736 28.7794 35.0003 28.7785H34.5837V19.6119H35.0003C35.7736 19.611 36.515 19.3034 37.0617 18.7566C37.6085 18.2098 37.9161 17.4685 37.917 16.6952V11.1569C37.8988 10.5785 37.7168 10.0171 37.3923 9.53803C37.0678 9.05892 36.614 8.68171 36.0837 8.45021L21.0837 2.45021C20.3844 2.1927 19.6163 2.1927 18.917 2.45021L3.91699 8.45021C3.38652 8.68154 2.93262 9.05871 2.60808 9.53786C2.28353 10.017 2.10168 10.5784 2.08366 11.1569V16.6952C2.08454 17.4685 2.39212 18.2098 2.93891 18.7566C3.4857 19.3034 4.22705 19.611 5.00033 19.6119H5.41699V28.7785H5.00033C4.22705 28.7794 3.4857 29.087 2.93891 29.6338C2.39212 30.1806 2.08454 30.9219 2.08366 31.6952V35.4452H1.66699C1.33547 35.4452 1.01753 35.5769 0.783109 35.8113C0.548688 36.0457 0.416992 36.3637 0.416992 36.6952C0.416992 37.0267 0.548688 37.3447 0.783109 37.5791C1.01753 37.8135 1.33547 37.9452 1.66699 37.9452H38.3337C38.6652 37.9452 38.9831 37.8135 39.2175 37.5791C39.452 37.3447 39.5837 37.0267 39.5837 36.6952C39.5837 36.3637 39.452 36.0457 39.2175 35.8113C38.9831 35.5769 38.6652 35.4452 38.3337 35.4452ZM5.00033 17.1119C4.89022 17.1106 4.78499 17.0663 4.70713 16.9884C4.62927 16.9105 4.58496 16.8053 4.58366 16.6952V11.1569C4.59943 11.0778 4.63066 11.0027 4.67557 10.9358C4.72048 10.8688 4.77817 10.8114 4.84533 10.7669L19.8337 4.76687C19.8885 4.7556 19.9444 4.75057 20.0003 4.75187C20.0563 4.75038 20.1122 4.75541 20.167 4.76687L35.167 10.7669C35.3009 10.8568 35.3942 10.9956 35.427 11.1535V16.6952C35.4257 16.8053 35.3814 16.9105 35.3035 16.9884C35.2257 17.0663 35.1204 17.1106 35.0103 17.1119H5.00033ZM32.0837 19.6119V28.7785H27.917V19.6119H32.0837ZM25.417 19.6119V28.7785H21.2503V19.6119H25.417ZM18.7503 19.6119V28.7785H14.5837V19.6119H18.7503ZM12.0837 19.6119V28.7785H7.91699V19.6119H12.0837ZM35.417 35.4452H4.58366V31.6952C4.58366 31.5847 4.62756 31.4787 4.7057 31.4006C4.78384 31.3224 4.88982 31.2785 5.00033 31.2785H35.0003C35.1108 31.2785 35.2168 31.3224 35.295 31.4006C35.3731 31.4787 35.417 31.5847 35.417 31.6952V35.4452ZM20.0003 7.94521C19.2586 7.94521 18.5336 8.16514 17.9169 8.5772C17.3003 8.98925 16.8196 9.57492 16.5358 10.2601C16.252 10.9454 16.1777 11.6994 16.3224 12.4268C16.4671 13.1542 16.8242 13.8224 17.3487 14.3469C17.8731 14.8713 18.5413 15.2285 19.2687 15.3732C19.9962 15.5178 20.7502 15.4436 21.4354 15.1598C22.1206 14.8759 22.7063 14.3953 23.1183 13.7786C23.5304 13.1619 23.7503 12.4369 23.7503 11.6952C23.749 10.7011 23.3535 9.74799 22.6505 9.04502C21.9475 8.34204 20.9945 7.94653 20.0003 7.94521ZM20.0003 12.9452C19.7531 12.9452 19.5114 12.8719 19.3059 12.7345C19.1003 12.5972 18.9401 12.402 18.8455 12.1736C18.7509 11.9452 18.7261 11.6938 18.7743 11.4513C18.8226 11.2089 18.9416 10.9861 19.1164 10.8113C19.2913 10.6365 19.514 10.5175 19.7565 10.4692C19.9989 10.421 20.2503 10.4457 20.4787 10.5404C20.7071 10.635 20.9023 10.7952 21.0397 11.0007C21.177 11.2063 21.2503 11.448 21.2503 11.6952C21.2494 12.0265 21.1175 12.3439 20.8832 12.5781C20.649 12.8123 20.3316 12.9443 20.0003 12.9452Z" fill="#EB662B"/>
</svg>
