<svg width="40" height="41" viewBox="0 0 40 41" fill="none" xmlns="http://www.w3.org/2000/svg">
<g clip-path="url(#clip0_74_2980)">
<path d="M38.8281 36.4068C37.5348 36.4068 36.9513 36.1163 36.2126 35.7484C35.9077 35.5966 35.588 35.4377 35.2188 35.296L39.177 24.8834C39.485 24.0729 39.4339 23.1662 39.0366 22.3956C38.6394 21.6249 37.9304 21.0573 37.0916 20.8381L34.3662 20.126V11.952C34.3662 10.2366 32.9705 8.84096 31.2551 8.84096H25.8761V5.81643C25.8761 3.40861 23.9172 1.44971 21.5094 1.44971H18.4907C16.0829 1.44971 14.124 3.40861 14.124 5.81643V8.84088H8.745C7.02953 8.84088 5.63391 10.2365 5.63391 11.952V20.126L2.90844 20.8381C2.06961 21.0573 1.36063 21.6249 0.963437 22.3956C0.56625 23.1662 0.515 24.0729 0.823125 24.8834L4.78125 35.2962C4.41219 35.4378 4.0925 35.5967 3.78773 35.7485C3.04891 36.1163 2.46539 36.4069 1.17188 36.4069C0.524687 36.4069 0 36.9316 0 37.5788C0 38.226 0.524687 38.7506 1.17188 38.7506C3.01656 38.7506 3.98125 38.2703 4.83234 37.8466C5.57117 37.4788 6.15469 37.1881 7.4482 37.1881C8.74172 37.1881 9.32524 37.4787 10.0641 37.8466C10.9152 38.2703 11.8798 38.7506 13.7245 38.7506C15.5691 38.7506 16.5337 38.2703 17.3849 37.8466C18.1237 37.4788 18.7072 37.1881 20.0005 37.1881C21.2939 37.1881 21.8773 37.4787 22.6161 37.8466C23.4672 38.2703 24.4318 38.7506 26.2764 38.7506C28.121 38.7506 29.0856 38.2703 29.9367 37.8466C30.6755 37.4788 31.259 37.1881 32.5523 37.1881C33.8457 37.1881 34.4291 37.4787 35.1679 37.8466C36.019 38.2703 36.9836 38.7506 38.8282 38.7506C39.4754 38.7506 40.0001 38.226 40.0001 37.5788C40.0001 36.9316 39.4753 36.4068 38.8281 36.4068ZM16.4677 5.81643C16.4677 4.70096 17.3752 3.79346 18.4907 3.79346H21.5094C22.6248 3.79346 23.5323 4.70096 23.5323 5.81643V8.84088H16.4677V5.81643ZM7.97758 11.952C7.97758 11.5289 8.3218 11.1847 8.74492 11.1847H31.255C31.6781 11.1847 32.0223 11.5289 32.0223 11.952V19.5137L20.2962 16.4498C20.102 16.3991 19.8979 16.3991 19.7037 16.4498L7.9775 19.5137L7.97758 11.952ZM28.892 35.7485C28.1532 36.1163 27.5697 36.4068 26.2764 36.4068C24.9831 36.4068 24.3996 36.1163 23.6609 35.7484C22.8098 35.3246 21.8452 34.8443 20.0005 34.8443C18.1559 34.8443 17.1913 35.3246 16.3402 35.7484C15.6014 36.1162 15.0179 36.4068 13.7245 36.4068C12.4311 36.4068 11.8475 36.1163 11.1088 35.7484C10.2577 35.3246 9.29297 34.8443 7.44828 34.8443C7.33523 34.8443 7.22555 34.8462 7.11891 34.8496L3.01383 24.0506C2.91531 23.7914 2.99211 23.5753 3.04664 23.4695C3.10117 23.3638 3.23266 23.1759 3.50086 23.1058L20 18.7948L36.4991 23.1059C36.7673 23.1759 36.8988 23.3638 36.9534 23.4695C37.0079 23.5753 37.0847 23.7914 36.9862 24.0506L32.8812 34.8497C32.7747 34.8463 32.6652 34.8444 32.5523 34.8444C30.7077 34.8443 29.743 35.3247 28.892 35.7485Z" fill="#EB662B"/>
<path d="M30.8342 24.792L20.2963 22.0385C20.1021 21.9878 19.8981 21.9878 19.7038 22.0385L9.16596 24.792C8.53979 24.9555 8.16479 25.5959 8.32838 26.222C8.49197 26.8482 9.13229 27.2231 9.75846 27.0596L20.0001 24.3836L30.2417 27.0596C30.341 27.0856 30.4407 27.098 30.5388 27.098C31.059 27.098 31.5342 26.7489 31.6717 26.222C31.8354 25.5959 31.4604 24.9555 30.8342 24.792Z" fill="#EB662B"/>
</g>
<defs>
<clipPath id="clip0_74_2980">
<rect width="40" height="40" fill="white" transform="translate(0 0.100098)"/>
</clipPath>
</defs>
</svg>
