<svg width="40" height="41" viewBox="0 0 40 41" fill="none" xmlns="http://www.w3.org/2000/svg">
<path d="M34.375 11.3501H33.75V10.1001C33.75 6.65385 30.9463 3.8501 27.5 3.8501H12.5C9.05375 3.8501 6.25 6.65385 6.25 10.1001V11.3501H5.625C3.90125 11.3501 2.5 12.7526 2.5 14.4751V17.6001C2.5 18.2901 3.05875 18.8501 3.75 18.8501C4.44125 18.8501 5 18.2901 5 17.6001V14.4751C5 14.1301 5.28125 13.8501 5.625 13.8501H6.25V26.3501C6.25 28.3838 7.24125 30.1763 8.75 31.3176V33.8501C8.75 35.2288 9.87125 36.3501 11.25 36.3501H13.75C15.1287 36.3501 16.25 35.2288 16.25 33.8501V32.6001H23.75V33.8501C23.75 35.2288 24.8713 36.3501 26.25 36.3501H28.75C30.1287 36.3501 31.25 35.2288 31.25 33.8501V31.3176C32.7588 30.1751 33.75 28.3826 33.75 26.3501V13.8501H34.375C34.7188 13.8501 35 14.1301 35 14.4751V17.6001C35 18.2901 35.5588 18.8501 36.25 18.8501C36.9412 18.8501 37.5 18.2901 37.5 17.6001V14.4751C37.5 12.7526 36.0988 11.3501 34.375 11.3501ZM8.75 11.3501H31.25V20.5563C30.1187 21.0688 28.8813 21.3501 27.6388 21.3501H12.3612C11.12 21.3501 9.88125 21.0688 8.75 20.5563V11.3501ZM12.5 6.3501H27.5C29.1275 6.3501 30.5025 7.39885 31.02 8.8501H8.98C9.4975 7.39885 10.8725 6.3501 12.5 6.3501ZM13.75 33.8501H11.25V32.4738C11.6538 32.5563 12.0725 32.6001 12.5 32.6001H13.75V33.8501ZM28.75 33.8501H26.25V32.6001H27.5C27.9275 32.6001 28.3463 32.5563 28.75 32.4738V33.8501ZM27.5 30.1001H12.5C10.4325 30.1001 8.75 28.4176 8.75 26.3501V23.2426C9.9125 23.6351 11.1362 23.8501 12.3612 23.8501H27.64C28.865 23.8501 30.0887 23.6351 31.2512 23.2426V26.3501C31.2512 28.4176 29.5675 30.1001 27.5 30.1001Z" fill="#EB662B"/>
<path d="M12.5 27.6001C13.1904 27.6001 13.75 27.0405 13.75 26.3501C13.75 25.6597 13.1904 25.1001 12.5 25.1001C11.8096 25.1001 11.25 25.6597 11.25 26.3501C11.25 27.0405 11.8096 27.6001 12.5 27.6001Z" fill="#EB662B"/>
<path d="M27.5 27.6001C28.1904 27.6001 28.75 27.0405 28.75 26.3501C28.75 25.6597 28.1904 25.1001 27.5 25.1001C26.8096 25.1001 26.25 25.6597 26.25 26.3501C26.25 27.0405 26.8096 27.6001 27.5 27.6001Z" fill="#EB662B"/>
</svg>
