<svg width="40" height="41" viewBox="0 0 40 41" fill="none" xmlns="http://www.w3.org/2000/svg">
<g clip-path="url(#clip0_74_3002)">
<path d="M38.8281 37.6783H37.1305L33.9388 31.2949C33.7403 30.8979 33.3345 30.6471 32.8906 30.6471H25.2841L19.8119 14.3154L32.0367 10.2288C32.7366 9.9948 33.05 9.17746 32.6821 8.53504C29.5294 3.02894 23.0448 0.152147 15.7352 2.12324L15.3527 0.978709C15.1475 0.364959 14.4837 0.0334751 13.8697 0.238788C13.2559 0.444022 12.9246 1.10793 13.1298 1.72176L13.5124 2.86629C6.49539 5.68371 3.03492 11.8768 3.82836 18.1806C3.92109 18.9171 4.66445 19.3787 5.36266 19.1457L17.5891 15.0586L22.8123 30.6471H11.3936L1.93477 23.8368C1.40945 23.4586 0.677109 23.5778 0.298984 24.103C-0.0792188 24.6282 0.0400781 25.3606 0.565234 25.7388L9.63859 32.2716L7.89641 37.6784H1.17188C0.524687 37.6784 0 38.2031 0 38.8503C0 39.4975 0.524687 40.0221 1.17188 40.0221H38.8281C39.4753 40.0221 40 39.4975 40 38.8503C40 38.2031 39.4753 37.6783 38.8281 37.6783ZM15.3553 4.68465C15.3555 4.68457 15.3556 4.68457 15.3558 4.68449C15.3636 4.68559 16.7474 4.0398 19.2116 6.43418C20.485 7.67144 21.6102 9.3191 22.3487 10.9961L13.5643 13.9327C12.6348 9.96973 13.4205 5.33223 15.3553 4.68465ZM29.8552 8.48684L24.5795 10.2504C23.5683 7.87519 21.8255 5.41941 19.8177 3.85465C23.7927 3.71715 27.4656 5.27105 29.8552 8.48684ZM11.292 6.70434C10.6238 9.17996 10.7191 12.1903 11.3352 14.6779L6.05781 16.4421C6.03383 12.5327 7.94828 9.04387 11.292 6.70434ZM32.1663 32.9908L34.5101 37.6783H27.6401L26.0695 32.9908H32.1663ZM11.8692 32.9908H23.5977L25.1683 37.6783H10.3588L11.8692 32.9908Z" fill="#EB662B"/>
</g>
<defs>
<clipPath id="clip0_74_3002">
<rect width="40" height="40" fill="white" transform="translate(0 0.100098)"/>
</clipPath>
</defs>
</svg>
