<svg width="40" height="41" viewBox="0 0 40 41" fill="none" xmlns="http://www.w3.org/2000/svg">
<g clip-path="url(#clip0_74_3012)">
<path d="M31.9141 7.52232H29.9609V2.83373C29.9609 1.95896 29.5377 1.13068 28.8289 0.618105C28.1201 0.105527 27.2009 -0.037051 26.3701 0.237011L7.22938 6.54998C6.10617 6.92053 5.35156 7.96412 5.35156 9.14678V30.9855V37.3657C5.35156 38.8734 6.5782 40.1001 8.08594 40.1001H31.9141C33.4218 40.1001 34.6484 38.8734 34.6484 37.3657V10.2567C34.6484 8.74904 33.4218 7.52232 31.9141 7.52232ZM32.3047 37.3657C32.3047 37.5811 32.1295 37.7563 31.9141 37.7563H8.08594C7.87055 37.7563 7.69531 37.5811 7.69531 37.3657V29.8137V10.2567C7.69531 10.0413 7.87055 9.86607 8.08594 9.86607H31.9141C32.1295 9.86607 32.3047 10.0413 32.3047 10.2567V37.3657ZM27.1042 2.46279C27.2692 2.40842 27.3951 2.47357 27.4555 2.51725C27.5159 2.56092 27.6173 2.66006 27.6173 2.83373V7.5224H11.7639L27.1042 2.46279Z" fill="#EB662B"/>
<path d="M12.1875 23.4189H13.608H27.8125C28.4597 23.4189 28.9844 22.8942 28.9844 22.247C28.9844 21.5998 28.4597 21.0751 27.8125 21.0751H27.473C26.9679 17.8409 24.4061 15.2791 21.1719 14.774V14.1868C21.1719 13.5396 20.6472 13.0149 20 13.0149C19.3528 13.0149 18.8281 13.5396 18.8281 14.1868V14.774C15.5939 15.2791 13.0321 17.8409 12.527 21.0751H12.1875C11.5403 21.0751 11.0156 21.5998 11.0156 22.247C11.0156 22.8942 11.5403 23.4189 12.1875 23.4189ZM20 17.0268C22.4756 17.0268 24.5542 18.7592 25.0876 21.0751H14.9124C15.4458 18.7592 17.5245 17.0268 20 17.0268Z" fill="#EB662B"/>
<path d="M12.6416 26.585C11.9944 26.585 11.4697 27.1096 11.4697 27.7568C11.4697 28.404 11.9944 28.9287 12.6416 28.9287H18.2666C18.9138 28.9287 19.4385 28.404 19.4385 27.7568C19.4385 27.1096 18.9138 26.585 18.2666 26.585H12.6416Z" fill="#EB662B"/>
<path d="M27.5195 31.2725H12.4805C11.8333 31.2725 11.3086 31.7971 11.3086 32.4443C11.3086 33.0915 11.8333 33.6162 12.4805 33.6162H27.5195C28.1667 33.6162 28.6914 33.0915 28.6914 32.4443C28.6914 31.7971 28.1667 31.2725 27.5195 31.2725Z" fill="#EB662B"/>
</g>
<defs>
<clipPath id="clip0_74_3012">
<rect width="40" height="40" fill="white" transform="translate(0 0.100098)"/>
</clipPath>
</defs>
</svg>
