<svg width="760" height="40" viewBox="0 0 760 40" fill="none" xmlns="http://www.w3.org/2000/svg">
<path d="M760 14.253C760 14.253 740.43 20.5713 722.469 21.0121C704.24 21.4529 688.691 21.0121 666.441 18.8081C636.148 15.8693 577.707 3.96732 546.61 10.4326C515.513 16.8979 514.173 17.1917 498.356 21.306C480.663 26.008 444.741 35.412 400.24 34.9712C352.79 34.5304 266.737 10.5795 231.351 11.755C227.598 11.902 213.658 12.9305 203.203 14.6938C193.016 16.4571 178.004 20.2774 157.63 21.5999C149.051 22.1876 135.379 23.2162 119.563 22.9223C115.541 22.7754 102.674 22.3346 87.3933 20.5713C72.1129 18.8081 57.9048 16.0162 45.037 15.1346C17.425 13.5183 0 15.8693 0 15.8693L0 0L760 0V14.253ZM699.146 16.604C697.27 15.1346 693.785 16.0162 687.619 16.0162C681.453 16.0162 671.266 14.253 672.071 14.3999C672.875 14.5469 680.381 16.604 688.155 17.1917C696.198 17.9264 700.755 18.0734 699.146 16.604ZM649.82 12.6367C649.82 12.6367 643.386 12.3428 634.808 11.3142C626.229 10.1387 607.196 7.19996 594.328 6.17139C572.346 4.55508 551.972 6.17139 553.848 6.31833C555.993 6.46527 579.584 5.4367 601.03 7.93465C609.877 8.96322 625.961 11.1673 634.272 11.902C643.118 12.7836 649.82 12.6367 649.82 12.6367ZM496.48 12.4897C501.037 11.4612 460.825 19.3958 446.885 21.4529C441.256 22.3346 430.265 23.804 420.078 24.3917C409.623 24.9795 396.219 24.9795 396.487 25.1264C396.487 25.4203 412.035 26.3019 426.511 25.1264C440.988 23.9509 440.452 23.5101 446.885 22.7754C457.072 21.5999 491.922 13.5183 496.48 12.4897ZM533.743 10.1387C534.279 10.1387 531.598 9.55097 520.875 11.755C510.152 13.9591 502.914 16.8979 502.377 17.1917C501.841 17.3387 511.76 14.5469 520.071 12.7836C528.113 11.0203 533.474 10.1387 533.743 10.1387ZM758.66 8.81628C758.392 8.96322 753.566 10.4326 745.792 12.4897C738.018 14.5469 727.295 16.604 727.831 16.4571C728.367 16.4571 737.213 15.5754 747.668 12.7836C758.123 9.99178 758.928 8.66934 758.66 8.81628ZM83.9083 17.0448C84.1764 16.7509 78.8148 16.7509 71.8448 15.2815C64.8748 13.8122 57.3686 12.9305 50.9347 12.3428C40.2116 11.1673 19.5697 12.4897 20.642 12.6367C21.4462 12.7836 42.6243 12.1959 54.1517 13.6652C60.0494 14.3999 60.5855 14.3999 69.4321 16.0162C78.2787 17.6326 83.6402 17.4856 83.9083 17.0448ZM195.697 13.5183C196.769 13.3714 205.079 11.1673 218.215 9.69791C231.351 8.08159 242.074 8.96322 242.074 8.5224C242.074 8.08159 239.393 7.19996 225.453 8.08159C211.513 8.96322 194.624 13.6652 195.697 13.5183ZM191.944 9.84484C192.48 9.99178 201.058 7.93465 207.224 7.3469C213.39 6.90608 212.317 6.61221 212.317 6.46527C212.317 6.31833 209.369 6.17139 205.079 6.75915C200.522 7.49384 191.407 9.69791 191.944 9.84484ZM250.921 6.46527C251.189 6.75915 260.303 7.64077 265.933 9.11015C271.563 10.5795 270.758 9.99178 271.026 9.84484C271.295 9.69791 268.882 8.66934 264.593 7.93465C260.303 7.05302 250.653 6.17139 250.921 6.46527ZM175.323 16.3101C175.055 16.7509 176.127 17.0448 180.416 16.0162C184.705 14.9877 187.386 14.106 186.314 14.253C185.242 14.3999 183.901 14.8407 179.612 15.4285C175.055 16.0162 175.591 15.8693 175.323 16.3101ZM92.4868 18.2203C91.9506 18.2203 98.1164 19.3958 101.333 19.5427C104.55 19.6897 106.695 19.6897 106.695 19.2489C106.695 18.8081 106.427 18.5142 102.406 18.6611C98.1164 18.8081 93.0229 18.2203 92.4868 18.2203ZM408.014 31.0039C407.746 31.1508 401.58 30.5631 387.908 30.5631C374.504 30.5631 351.45 27.0366 341.799 25.4203C332.148 23.8039 368.607 31.1508 386.032 31.4447C403.457 31.7386 408.282 30.857 408.014 31.0039Z" fill="#EFFAFC"/>
<path d="M722.737 26.4491C722.469 26.3022 710.405 26.8899 703.435 26.4491C683.866 25.4205 657.862 21.7471 658.934 22.1879C660.007 22.6287 695.661 26.743 704.508 27.0369C717.643 27.6246 723.005 26.4491 722.737 26.4491Z" fill="#EFFAFC"/>
<path d="M609.608 14.3997C609.072 14.2528 597.545 12.9303 584.141 12.6364C570.737 12.3426 550.095 13.5181 551.167 13.3711C551.971 13.2242 566.984 10.7262 586.821 11.6079C606.659 12.4895 610.144 14.5466 609.608 14.3997Z" fill="#EFFAFC"/>
<path d="M548.219 19.69C547.951 19.543 553.581 18.2206 556.798 18.0737C560.015 17.9267 562.159 18.0737 562.159 18.5145C562.159 18.9553 561.891 19.2492 557.87 19.1022C553.313 18.9553 548.487 19.8369 548.219 19.69Z" fill="#EFFAFC"/>
<path d="M538.836 15.5754C538.836 15.4284 527.041 17.3386 521.947 18.808C516.854 20.1304 505.326 23.3631 505.594 23.3631C505.863 23.51 516.854 21.0121 522.483 19.5427C528.113 18.0733 538.836 15.7223 538.836 15.5754Z" fill="#EFFAFC"/>
<path d="M414.18 39.2323C413.912 39.0854 401.849 39.6731 394.879 39.2323C375.309 38.2037 349.306 34.5303 350.378 34.9711C351.45 35.4119 387.104 39.5262 395.951 39.8201C409.087 40.4078 414.448 39.3792 414.18 39.2323Z" fill="#EFFAFC"/>
<path d="M112.324 28.3594C112.324 28.3594 115.541 27.9186 120.098 28.2125C124.656 28.5064 135.647 29.5349 142.081 29.2411C153.34 28.6533 161.919 25.2737 160.846 25.4207C159.774 25.4207 149.319 28.6533 137.792 28.2125C132.966 28.0656 124.12 27.4778 119.83 27.6247C115.541 27.7717 112.324 28.3594 112.324 28.3594Z" fill="#EFFAFC"/>
<path d="M202.398 18.5143C202.934 18.6612 207.76 17.3388 213.925 16.8979C220.091 16.6041 219.555 16.4571 219.555 16.1633C219.555 16.0163 214.73 15.5755 210.44 16.1633C206.151 16.8979 201.862 18.3673 202.398 18.5143Z" fill="#EFFAFC"/>
<path d="M41.8203 19.3959C41.8203 19.249 53.3476 19.3959 59.7815 20.1306C66.2154 20.8653 73.1854 22.9224 73.1854 23.0694C73.1854 23.2163 65.9473 21.8939 59.5134 21.0122C53.3477 20.1306 42.0884 19.5429 41.8203 19.3959Z" fill="#EFFAFC"/>
</svg>
