<svg width="40" height="760" viewBox="0 0 40 760" fill="none" xmlns="http://www.w3.org/2000/svg">
<path d="M14.253 1.69965e-07C14.253 1.69965e-07 20.5713 19.5696 21.0121 37.5308C21.453 55.7601 21.0121 71.3086 18.8081 93.559C15.8693 123.852 3.96733 182.293 10.4326 213.39C16.8979 244.487 17.1917 245.827 21.306 261.644C26.008 279.337 35.4121 315.259 34.9712 359.76C34.5304 407.21 10.5795 493.263 11.755 528.649C11.902 532.402 12.9305 546.342 14.6938 556.797C16.4571 566.984 20.2774 581.996 21.5999 602.37C22.1876 610.949 23.2162 624.621 22.9223 640.437C22.7754 644.459 22.3346 657.326 20.5713 672.607C18.8081 687.887 16.0162 702.095 15.1346 714.963C13.5183 742.575 15.8693 760 15.8693 760L0 760L9.06291e-06 0L14.253 1.69965e-07ZM16.604 60.8536C15.1346 62.7302 16.0162 66.2151 16.0162 72.3809C16.0162 78.5467 14.253 88.7336 14.3999 87.9294C14.5469 87.1252 16.604 79.619 17.1918 71.8447C17.9264 63.8024 18.0734 59.2452 16.604 60.8536ZM12.6367 110.18C12.6367 110.18 12.3428 116.614 11.3142 125.192C10.1387 133.771 7.19997 152.804 6.1714 165.672C4.55508 187.654 6.1714 208.028 6.31834 206.152C6.46528 204.007 5.43671 180.416 7.93466 158.97C8.96322 150.123 11.1673 134.039 11.902 125.728C12.7836 116.882 12.6367 110.18 12.6367 110.18ZM12.4897 263.52C11.4612 258.963 19.3958 299.175 21.4529 313.115C22.3346 318.744 23.804 329.735 24.3917 339.922C24.9795 350.377 24.9795 363.781 25.1264 363.513C25.4203 363.513 26.3019 347.965 25.1264 333.488C23.9509 319.012 23.5101 319.548 22.7754 313.115C21.5999 302.928 13.5183 268.078 12.4897 263.52ZM10.1387 226.257C10.1387 225.721 9.55097 228.402 11.755 239.125C13.9591 249.848 16.8979 257.086 17.1917 257.623C17.3387 258.159 14.5469 248.24 12.7836 239.929C11.0204 231.887 10.1387 226.526 10.1387 226.257ZM8.81629 1.34033C8.96322 1.60846 10.4326 6.43378 12.4897 14.2081C14.5469 21.9823 16.604 32.7054 16.4571 32.1693C16.4571 31.6331 15.5754 22.7866 12.7836 12.3315C9.99179 1.87653 8.66935 1.07227 8.81629 1.34033ZM17.0448 676.092C16.7509 675.824 16.7509 681.185 15.2815 688.155C13.8122 695.125 12.9305 702.631 12.3428 709.065C11.1673 719.788 12.4897 740.43 12.6367 739.358C12.7836 738.554 12.1959 717.376 13.6652 705.848C14.3999 699.951 14.3999 699.414 16.0162 690.568C17.6326 681.721 17.4856 676.36 17.0448 676.092ZM13.5183 564.303C13.3714 563.231 11.1673 554.921 9.69791 541.785C8.08159 528.649 8.96322 517.926 8.52241 517.926C8.08159 517.926 7.19996 520.607 8.08159 534.547C8.96322 548.487 13.6652 565.376 13.5183 564.303ZM9.84485 568.056C9.99178 567.52 7.93465 558.942 7.3469 552.776C6.90609 546.61 6.61221 547.683 6.46527 547.683C6.31834 547.683 6.1714 550.631 6.75915 554.921C7.49384 559.478 9.69791 568.593 9.84485 568.056ZM6.46527 509.079C6.75915 508.811 7.64078 499.697 9.11016 494.067C10.5795 488.437 9.99178 489.242 9.84485 488.974C9.69791 488.705 8.66934 491.118 7.93465 495.407C7.05303 499.697 6.1714 509.347 6.46527 509.079ZM16.3101 584.677C16.7509 584.945 17.0448 583.873 16.0162 579.584C14.9877 575.295 14.106 572.614 14.253 573.686C14.3999 574.758 14.8407 576.099 15.4285 580.388C16.0162 584.945 15.8693 584.409 16.3101 584.677ZM18.2203 667.513C18.2203 668.049 19.3958 661.884 19.5428 658.667C19.6897 655.45 19.6897 653.305 19.2489 653.305C18.8081 653.305 18.5142 653.573 18.6611 657.594C18.8081 661.884 18.2203 666.977 18.2203 667.513ZM31.0039 351.986C31.1509 352.254 30.5631 358.42 30.5631 372.092C30.5631 385.496 27.0366 408.55 25.4203 418.201C23.804 427.852 31.1509 391.393 31.4447 373.968C31.7386 356.543 30.857 351.718 31.0039 351.986Z" fill="#EFFAFC"/>
<path d="M26.4491 37.2629C26.3022 37.531 26.8899 49.5945 26.4491 56.5645C25.4205 76.1342 21.7471 102.138 22.1879 101.065C22.6287 99.993 26.743 64.3388 27.0369 55.4922C27.6246 42.3564 26.4491 36.9948 26.4491 37.2629Z" fill="#EFFAFC"/>
<path d="M14.3997 150.392C14.2528 150.928 12.9303 162.455 12.6364 175.859C12.3426 189.263 13.5181 209.905 13.3711 208.832C13.2242 208.028 10.7262 193.016 11.6079 173.178C12.4895 153.34 14.5466 149.855 14.3997 150.392Z" fill="#EFFAFC"/>
<path d="M19.69 211.781C19.543 212.049 18.2206 206.42 18.0737 203.203C17.9267 199.986 18.0737 197.841 18.5145 197.841C18.9553 197.841 19.2492 198.109 19.1022 202.13C18.9553 206.688 19.8369 211.513 19.69 211.781Z" fill="#EFFAFC"/>
<path d="M15.5754 221.164C15.4284 221.164 17.3386 232.96 18.808 238.053C20.1304 243.147 23.3631 254.674 23.3631 254.406C23.51 254.138 21.0121 243.147 19.5427 237.517C18.0733 231.887 15.7223 221.164 15.5754 221.164Z" fill="#EFFAFC"/>
<path d="M39.2323 345.82C39.0854 346.088 39.6731 358.152 39.2323 365.122C38.2037 384.691 34.5303 410.695 34.9711 409.623C35.4119 408.55 39.5262 372.896 39.8201 364.049C40.4078 350.914 39.3792 345.552 39.2323 345.82Z" fill="#EFFAFC"/>
<path d="M28.3594 647.676C28.3594 647.676 27.9186 644.459 28.2125 639.901C28.5064 635.344 29.5349 624.353 29.2411 617.919C28.6533 606.66 25.2737 598.081 25.4207 599.154C25.4207 600.226 28.6533 610.681 28.2125 622.208C28.0656 627.034 27.4778 635.88 27.6247 640.169C27.7717 644.459 28.3594 647.676 28.3594 647.676Z" fill="#EFFAFC"/>
<path d="M18.5143 557.602C18.6612 557.065 17.3388 552.24 16.8979 546.074C16.6041 539.908 16.4571 540.445 16.1633 540.445C16.0163 540.445 15.5755 545.27 16.1633 549.559C16.8979 553.849 18.3673 558.138 18.5143 557.602Z" fill="#EFFAFC"/>
<path d="M19.3959 718.18C19.249 718.18 19.3959 706.653 20.1306 700.219C20.8653 693.785 22.9224 686.815 23.0694 686.815C23.2163 686.815 21.8939 694.053 21.0122 700.487C20.1306 706.653 19.5429 717.912 19.3959 718.18Z" fill="#EFFAFC"/>
</svg>
