<svg width="60" height="61" viewBox="0 0 60 61" fill="none" xmlns="http://www.w3.org/2000/svg">
<path fill-rule="evenodd" clip-rule="evenodd" d="M26.5992 49.1902C16.109 47.4143 8.10742 38.2735 8.10742 27.2792C8.10742 15.0143 18.0649 5.05688 30.3298 5.05688C42.5947 5.05688 52.5521 15.0143 52.5521 27.2792C52.5521 38.2735 44.5506 47.4143 34.0604 49.1902L30.3298 57.5831L26.5992 49.1902ZM30.3298 19.1989C34.7895 19.1989 38.4113 22.8195 38.4113 27.2792C38.4113 31.7389 34.7895 35.3608 30.3298 35.3608C25.8701 35.3608 22.2483 31.7389 22.2483 27.2792C22.2483 22.8195 25.8701 19.1989 30.3298 19.1989Z" fill="#FDF0EA"/>
<path fill-rule="evenodd" clip-rule="evenodd" d="M35.8828 23.1516C36.6898 24.2732 37.1661 25.6498 37.1661 27.1367C37.1661 30.908 34.1033 33.9708 30.3321 33.9708C26.5608 33.9708 23.498 30.908 23.498 27.1367C23.498 23.3655 26.5608 20.3027 30.3321 20.3027C31.439 20.3027 32.4849 20.5666 33.4095 21.0348C34.0254 21.3464 34.7795 21.0995 35.0912 20.4828C35.4028 19.8669 35.1559 19.1135 34.5392 18.8019C33.275 18.1617 31.8454 17.8008 30.3321 17.8008C25.179 17.8008 20.9961 21.9837 20.9961 27.1367C20.9961 32.2898 25.179 36.4727 30.3321 36.4727C35.4851 36.4727 39.668 32.2898 39.668 27.1367C39.668 25.1045 39.0176 23.2229 37.9136 21.6897C37.5101 21.1288 36.7273 21.0017 36.1672 21.4052C35.6064 21.8087 35.4793 22.5908 35.8828 23.1516Z" fill="#EB662B"/>
<path fill-rule="evenodd" clip-rule="evenodd" d="M12.3678 38.1513C10.3 34.9021 9.10248 31.0471 9.10248 26.9155C9.10248 15.3465 18.4966 5.95233 30.0656 5.95233C41.6346 5.95233 51.0288 15.3465 51.0288 26.9155C51.0288 37.287 43.4824 45.9097 33.5854 47.5838C33.1735 47.6544 32.8221 47.9251 32.6525 48.3087L30.0656 54.1286L27.4788 48.3087C27.3092 47.9251 26.9578 47.6544 26.5458 47.5838C23.1997 47.0183 20.1243 45.6573 17.5173 43.7046C16.966 43.2906 16.1804 43.4037 15.7665 43.955C15.3545 44.5083 15.4656 45.2918 16.0189 45.7058C18.7632 47.7615 21.974 49.2316 25.4635 49.9262C25.4615 49.9262 28.9227 57.713 28.9227 57.713C29.1246 58.1653 29.5709 58.4561 30.0656 58.4561C30.5604 58.4561 31.0067 58.1653 31.2086 57.713L34.6698 49.9262C45.4169 47.7857 53.5287 38.2906 53.5287 26.9155C53.5287 13.9652 43.0159 3.45239 30.0656 3.45239C17.1154 3.45239 6.60254 13.9652 6.60254 26.9155C6.60254 31.5419 7.94537 35.8573 10.2596 39.4942C10.6311 40.0758 11.4046 40.2474 11.9862 39.8779C12.5677 39.5063 12.7394 38.7329 12.3678 38.1513Z" fill="#EB662B"/>
<path d="M13.7589 43.2469C14.4496 43.2469 15.0096 42.6869 15.0096 41.9962C15.0096 41.3055 14.4496 40.7456 13.7589 40.7456C13.0682 40.7456 12.5083 41.3055 12.5083 41.9962C12.5083 42.6869 13.0682 43.2469 13.7589 43.2469Z" fill="#EB662B"/>
</svg>
