<svg width="60" height="61" viewBox="0 0 60 61" fill="none" xmlns="http://www.w3.org/2000/svg">
<path fill-rule="evenodd" clip-rule="evenodd" d="M9.2927 54.9754C6.29432 54.4677 4.00684 51.8551 4.00684 48.7124C4.00684 45.2064 6.85333 42.3599 10.3593 42.3599C13.8653 42.3599 16.7118 45.2064 16.7118 48.7124C16.7118 51.8551 14.4243 54.4677 11.426 54.9754L10.3593 57.3749L9.2927 54.9754Z" fill="#FDF0EA"/>
<path fill-rule="evenodd" clip-rule="evenodd" d="M49.1008 17.4754C46.1024 16.9677 43.8149 14.3551 43.8149 11.2124C43.8149 7.70636 46.6614 4.85986 50.1674 4.85986C53.6734 4.85986 56.5199 7.70636 56.5199 11.2124C56.5199 14.3551 54.2325 16.9677 51.2341 17.4754L50.1674 19.8749L49.1008 17.4754Z" fill="#FDF0EA"/>
<path fill-rule="evenodd" clip-rule="evenodd" d="M8.40678 56.0622L9.21585 57.883C9.41682 58.3346 9.86497 58.6263 10.3593 58.6263C10.8537 58.6263 11.3018 58.3346 11.5028 57.883L12.3118 56.0622C15.5632 55.2 17.9633 52.2345 17.9633 48.7123C17.9633 44.5156 14.556 41.1084 10.3593 41.1084C6.16262 41.1084 2.75537 44.5156 2.75537 48.7123C2.75537 52.2339 5.15545 55.1994 8.40678 56.0622ZM10.3593 54.3216C10.1722 54.0155 9.86036 53.8024 9.50173 53.7418C7.09356 53.3341 5.25825 51.236 5.25825 48.7123C5.25825 45.897 7.544 43.6113 10.3593 43.6113C13.1746 43.6113 15.4604 45.897 15.4604 48.7123C15.4604 51.236 13.6251 53.3341 11.2169 53.7418C10.8583 53.8024 10.5464 54.0155 10.3593 54.3216Z" fill="#EB662B"/>
<path fill-rule="evenodd" clip-rule="evenodd" d="M50.1674 16.8216C49.9803 16.5155 49.6685 16.3024 49.3098 16.2418C46.9017 15.8341 45.0664 13.736 45.0664 11.2123C45.0664 8.39702 47.3521 6.11127 50.1674 6.11127C50.7605 6.11127 51.3299 6.21235 51.8601 6.39888C52.5115 6.62815 53.2264 6.28569 53.4557 5.63427C53.685 4.98285 53.3425 4.2679 52.6911 4.03805C51.9011 3.76027 51.0516 3.6084 50.1674 3.6084C45.9707 3.6084 42.5635 7.01564 42.5635 11.2123C42.5635 14.7345 44.9641 17.7 48.2155 18.5628C48.2149 18.5622 49.024 20.383 49.024 20.383C49.2249 20.8346 49.6731 21.1263 50.1674 21.1263C50.6618 21.1263 51.1099 20.8346 51.3109 20.383L52.12 18.5622C55.3713 17.7 57.7714 14.7345 57.7714 11.2123C57.7714 9.66117 57.3059 8.21857 56.5072 7.01506C56.1255 6.43987 55.3482 6.28222 54.773 6.66452C54.1978 7.04625 54.0401 7.82298 54.4219 8.39875C54.9572 9.20552 55.2685 10.1728 55.2685 11.2123C55.2685 13.736 53.4332 15.8341 51.025 16.2418C50.6664 16.3024 50.3545 16.5155 50.1674 16.8216Z" fill="#EB662B"/>
<path fill-rule="evenodd" clip-rule="evenodd" d="M19.1645 58.4287H21.6658C22.3561 58.4287 22.9164 57.8684 22.9164 57.1781C22.9164 56.4877 22.3561 55.9274 21.6658 55.9274H19.1645C18.4742 55.9274 17.9139 56.4877 17.9139 57.1781C17.9139 57.8684 18.4742 58.4287 19.1645 58.4287ZM29.1695 58.4287H38.5492C45.1112 58.4287 50.4302 53.1098 50.4302 46.5478C50.4302 43.3962 49.1783 40.3747 46.9509 38.1461C44.7223 35.9187 41.7008 34.6668 38.5492 34.6668C32.5937 34.6668 25.2838 34.6668 19.7898 34.6668C17.9652 34.6668 16.2156 33.9427 14.9262 32.6521C13.6355 31.3627 12.9114 29.613 12.9114 27.7884C12.9114 25.9637 13.6355 24.2141 14.9262 22.9247C16.2156 21.6341 17.9652 20.9099 19.7898 20.9099H21.6658C22.3561 20.9099 22.9164 20.3497 22.9164 19.6593C22.9164 18.969 22.3561 18.4087 21.6658 18.4087H19.7898C17.3024 18.4087 14.9162 19.3967 13.1578 21.1563C11.3982 22.9147 10.4102 25.3009 10.4102 27.7884C10.4102 30.2759 11.3982 32.6621 13.1578 34.4204C14.9162 36.1801 17.3024 37.1681 19.7898 37.1681H38.5492C41.0367 37.1681 43.4229 38.1561 45.1813 39.9157C46.9409 41.6741 47.9289 44.0603 47.9289 46.5478C47.9289 51.7278 43.7293 55.9274 38.5492 55.9274H29.1695C28.4792 55.9274 27.9189 56.4877 27.9189 57.1781C27.9189 57.8684 28.4792 58.4287 29.1695 58.4287ZM25.4177 20.9099H41.6758C42.3661 20.9099 42.9264 20.3497 42.9264 19.6593C42.9264 18.969 42.3661 18.4087 41.6758 18.4087H25.4177C24.7273 18.4087 24.167 18.969 24.167 19.6593C24.167 20.3497 24.7273 20.9099 25.4177 20.9099Z" fill="#EB662B"/>
<path d="M25.007 58.4248C25.6977 58.4248 26.2576 57.8649 26.2576 57.1742C26.2576 56.4835 25.6977 55.9236 25.007 55.9236C24.3163 55.9236 23.7563 56.4835 23.7563 57.1742C23.7563 57.8649 24.3163 58.4248 25.007 58.4248Z" fill="#EB662B"/>
</svg>
