<svg width="60" height="61" viewBox="0 0 60 61" fill="none" xmlns="http://www.w3.org/2000/svg">
<path d="M29.9702 56.9081C44.4749 56.9081 56.2333 45.1497 56.2333 30.645C56.2333 16.1402 44.4749 4.38184 29.9702 4.38184C15.4654 4.38184 3.70703 16.1402 3.70703 30.645C3.70703 45.1497 15.4654 56.9081 29.9702 56.9081Z" fill="white"/>
<path d="M29.9703 31.8955C35.4959 31.8955 39.9753 27.4161 39.9753 21.8905C39.9753 16.3649 35.4959 11.8855 29.9703 11.8855C24.4447 11.8855 19.9653 16.3649 19.9653 21.8905C19.9653 27.4161 24.4447 31.8955 29.9703 31.8955Z" fill="#FDF0EA"/>
<path fill-rule="evenodd" clip-rule="evenodd" d="M50.3852 48.5586C45.9205 52.0654 36.487 57.313 30.3752 57.313C24.2634 57.313 14.83 52.0654 10.3652 48.5586C11.2694 40.4633 21.951 37.303 30.3752 37.303C38.7994 37.303 49.481 40.4633 50.3852 48.5586Z" fill="#FDF0EA"/>
<path d="M4.22008 37.1589C4.91036 37.1589 5.46995 36.5993 5.46995 35.909C5.46995 35.2188 4.91036 34.6592 4.22008 34.6592C3.5298 34.6592 2.97021 35.2188 2.97021 35.909C2.97021 36.5993 3.5298 37.1589 4.22008 37.1589Z" fill="#EB662B"/>
<path fill-rule="evenodd" clip-rule="evenodd" d="M8.66425 47.9433C6.81707 45.5746 5.35006 42.8971 4.35332 40.0006C4.1282 39.3478 4.47587 38.6362 5.1287 38.4111C5.78027 38.1872 6.49312 38.5336 6.71824 39.1864C7.45736 41.335 8.48167 43.351 9.7448 45.1894C14.8123 39.5829 22.161 36.0524 30.3751 36.0524C38.5892 36.0524 45.9378 39.5829 51.0054 45.1894C53.7692 41.1662 55.3876 36.2963 55.3876 31.0499C55.3876 26.839 54.3445 22.8695 52.5036 19.3865C52.1809 18.7762 52.4149 18.0184 53.0252 17.6957C53.6355 17.3743 54.3921 17.6069 54.7147 18.2172C56.7407 22.0491 57.8888 26.4163 57.8888 31.0499C57.8888 37.4181 55.7215 43.2835 52.0834 47.9471C52.0709 47.9646 52.0572 47.9821 52.0434 47.9984C47.0059 54.4291 39.1695 58.5636 30.3751 58.5636C21.5819 58.5636 13.7481 54.4303 8.70928 48.0021C8.69427 47.9833 8.678 47.9633 8.66425 47.9433ZM49.4571 47.2142C44.8386 41.9116 38.0189 38.5536 30.3751 38.5536C22.7313 38.5536 15.9116 41.9116 11.293 47.2142C15.8828 52.6257 22.7313 56.0624 30.3751 56.0624C38.0189 56.0624 44.8673 52.6257 49.4571 47.2142ZM5.39006 32.2417C5.42257 32.9308 4.88985 33.5174 4.19951 33.5499C3.51041 33.5824 2.92389 33.0484 2.89262 32.3593C2.87136 31.9253 2.86133 31.4889 2.86133 31.0499C2.86133 15.8648 15.19 3.53613 30.3751 3.53613C39.5284 3.53613 47.645 8.01588 52.6475 14.9006C53.0527 15.4596 52.9289 16.2425 52.3711 16.6477C51.8121 17.0529 51.0291 16.9291 50.6239 16.3713C46.0754 10.1107 38.698 6.03738 30.3751 6.03738C16.5707 6.03738 5.36258 17.2455 5.36258 31.0499C5.36258 31.4488 5.37255 31.8465 5.39006 32.2417ZM30.3751 11.0399C36.5869 11.0399 41.6307 16.0837 41.6307 22.2955C41.6307 28.5074 36.5869 33.5511 30.3751 33.5511C24.1632 33.5511 19.1195 28.5074 19.1195 22.2955C19.1195 16.0837 24.1632 11.0399 30.3751 11.0399ZM30.3751 13.5411C25.5439 13.5411 21.6207 17.4643 21.6207 22.2955C21.6207 27.1267 25.5439 31.0499 30.3751 31.0499C35.2062 31.0499 39.1295 27.1267 39.1295 22.2955C39.1295 17.4643 35.2062 13.5411 30.3751 13.5411Z" fill="#EB662B"/>
</svg>
