<svg width="60" height="61" viewBox="0 0 60 61" fill="none" xmlns="http://www.w3.org/2000/svg">
<path fill-rule="evenodd" clip-rule="evenodd" d="M40.9055 30.252L40.439 35.1306C40.4303 35.1994 40.4253 35.2695 40.4253 35.3382C40.4253 36.1462 41.0894 36.8102 41.896 36.8102H45.2902C46.0981 36.8102 46.7622 36.1462 46.7622 35.3382C46.7622 35.2695 46.7572 35.1994 46.7472 35.1306L46.0594 30.3232C45.1839 30.5934 41.781 30.5221 40.9055 30.252Z" fill="#FDF0EA"/>
<path fill-rule="evenodd" clip-rule="evenodd" d="M43.5928 9.6543C42.2147 9.66055 40.8527 9.97696 39.5871 10.5848L35.6201 27.9697C37.5436 30.6836 40.4838 32.2756 43.5928 32.2856C49.1794 32.2856 53.7767 27.1768 53.7767 20.97C53.7767 14.7631 49.1794 9.6543 43.5928 9.6543Z" fill="white"/>
<path fill-rule="evenodd" clip-rule="evenodd" d="M27.206 28.0784L26.5294 32.8107C26.5182 32.8858 26.5132 32.9633 26.5132 33.0396C26.5132 33.9313 27.2473 34.6667 28.139 34.6667H31.8909C32.7826 34.6667 33.5167 33.9313 33.5167 33.0396C33.5167 32.9633 33.5117 32.8858 33.5004 32.8107L32.8589 28.321C31.8909 28.6199 28.174 28.3773 27.206 28.0784Z" fill="white"/>
<path fill-rule="evenodd" clip-rule="evenodd" d="M13.8491 31.1699L13.2826 35.1307C13.2726 35.1995 13.2676 35.2695 13.2676 35.3383C13.2676 36.1462 13.9317 36.8103 14.7396 36.8103H18.1338C18.9404 36.8103 19.6045 36.1462 19.6045 35.3383C19.6045 35.2695 19.5995 35.1995 19.5907 35.1307L19.0517 31.3663C18.1763 31.6364 17.1095 30.9111 16.2003 30.9148C15.2923 30.9111 14.7246 31.4401 13.8491 31.1699Z" fill="#FDF0EA"/>
<path fill-rule="evenodd" clip-rule="evenodd" d="M16.4368 9.6543C10.8502 9.6543 6.25293 14.7619 6.25293 20.9687C6.25293 27.1756 10.8502 32.2856 16.4368 32.2856C19.5508 32.2844 22.4986 30.6973 24.4283 27.981L20.4563 10.5773C19.1869 9.96945 17.8187 9.65555 16.4368 9.6543Z" fill="white"/>
<path fill-rule="evenodd" clip-rule="evenodd" d="M41.2705 17.1581C41.2705 24.019 36.1892 29.6644 30.0149 29.6644C23.8406 29.6644 18.7593 24.019 18.7593 17.1581C18.7593 10.2972 23.8406 4.65186 30.0149 4.65186C36.1892 4.65186 41.2705 10.2972 41.2705 17.1581Z" fill="#FDF0EA"/>
<path d="M30.0149 3.40112C25.8579 3.40112 22.211 5.62473 19.9437 9.01393C18.8143 8.61373 17.63 8.40487 16.4369 8.40362C10.0612 8.40362 5.00244 14.1115 5.00244 20.9687C5.00244 22.8271 5.37013 24.5967 6.03296 26.1913C6.29809 26.8278 7.0297 27.1292 7.66752 26.8653C8.30409 26.6002 8.60674 25.8686 8.34161 25.2308C7.80509 23.9401 7.50369 22.4969 7.50369 20.9687C7.50369 15.3283 11.5632 10.9049 16.4369 10.9049C17.2098 10.9061 17.9764 11.0299 18.723 11.2538C17.9439 13.0497 17.5087 15.0532 17.5087 17.158C17.5087 21.669 19.5059 25.7185 22.6087 28.2373C20.9442 30.0357 18.7381 31.0349 16.4369 31.0349C15.0312 31.0349 13.7105 30.6723 12.5237 30.0182C11.9184 29.6843 11.1568 29.9044 10.8229 30.5097C10.4889 31.115 10.7103 31.8766 11.3168 32.2093C11.6558 32.3956 12.0059 32.5632 12.3649 32.7133L12.0447 34.9544C11.8146 36.5714 13.1052 38.0609 14.7386 38.0622H15.3451C16.8233 42.4231 16.0767 44.5479 15.2463 47.1042C14.3996 49.7155 13.4667 52.8183 15.2663 57.6182C15.5089 58.2635 16.2293 58.59 16.8759 58.3486C17.5224 58.106 17.8514 57.3856 17.6087 56.7378C16.0142 52.4844 16.7758 50.4972 17.6263 47.8746C18.4129 45.4471 19.2646 42.5044 17.9702 38.0622H18.134C19.7673 38.0609 21.058 36.5714 20.8278 34.9544L20.5052 32.7058C22.0985 32.0379 23.538 30.9837 24.7198 29.6205C25.0262 29.7781 25.3401 29.9194 25.6603 30.0507L25.2913 32.632V32.6345C25.0475 34.3441 26.4119 35.9161 28.139 35.9174H28.9056C30.5902 40.8261 29.7473 43.2385 28.8256 46.0837C27.8889 48.9689 26.8671 52.3431 28.8444 57.6182C29.087 58.2598 29.8123 58.5887 30.4552 58.3486C31.0967 58.106 31.4256 57.3806 31.1855 56.7378C29.4109 52.0092 30.2651 49.7543 31.2043 46.8553C32.0847 44.1415 33.0327 40.8961 31.5345 35.9174H31.8909C33.618 35.9161 34.9824 34.3441 34.7386 32.6345V32.632L34.3671 30.0432C34.691 29.9106 35.0062 29.7605 35.3151 29.6005C36.4919 30.9674 37.9376 32.0104 39.5259 32.6833L39.202 34.9544C38.9719 36.5714 40.2626 38.0609 41.8959 38.0622H42.5037C43.5567 41.17 43.4479 43.1335 43.0339 44.9356C42.6087 46.7903 41.7446 48.5337 41.4532 50.8911C41.3694 51.5714 41.8596 52.2005 42.5412 52.2856C43.2215 52.3693 43.8506 51.8791 43.9356 51.1988C44.167 49.3241 44.9687 47.6895 45.4714 45.4947C45.9229 43.5274 46.0342 41.1537 45.1275 38.0622H45.2913C46.9246 38.0609 48.2153 36.5714 47.9852 34.9544L47.6625 32.7033C51.9909 30.8861 55.0287 26.2776 55.0274 20.9687C55.0274 14.1115 49.9687 8.40362 43.593 8.40362C43.5917 8.40362 43.5905 8.40362 43.5892 8.40362C42.3936 8.40863 41.208 8.62123 40.0787 9.02643C37.8113 5.63599 34.1733 3.40112 30.0149 3.40112ZM30.0149 5.90237C35.4802 5.90237 40.0199 10.8599 40.0199 17.158C40.0199 23.4561 35.4802 28.4136 30.0149 28.4136C24.5497 28.4136 20.0099 23.4561 20.0099 17.158C20.0099 10.8599 24.5497 5.90237 30.0149 5.90237ZM43.593 10.9049C48.4667 10.9049 52.5262 15.3283 52.5262 20.9687C52.5274 26.6077 48.4704 31.0312 43.598 31.0349C41.2943 31.0274 39.087 30.0194 37.4261 28.211C40.5227 25.6948 42.5212 21.6628 42.5212 17.158C42.5212 15.0519 42.0747 13.0534 41.2956 11.2563C42.0435 11.0274 42.8163 10.9086 43.593 10.9049ZM28.0877 30.7485C28.7155 30.8561 29.3584 30.9149 30.0149 30.9149C30.6715 30.9149 31.3143 30.8573 31.9422 30.751L32.2623 32.9859C32.2973 33.2348 32.1423 33.4161 31.8909 33.4161H28.139C27.8889 33.4161 27.7338 33.236 27.7676 32.9884V32.9859L28.0877 30.7485ZM41.9547 33.3849C42.4924 33.4724 43.0364 33.5337 43.5892 33.5362H43.593C44.1533 33.5362 44.6985 33.4762 45.235 33.3911L45.5089 35.3071C45.5302 35.4621 45.4464 35.5609 45.2888 35.5609H41.8959C41.7396 35.5609 41.657 35.4634 41.6783 35.3096V35.3071L41.9547 33.3849ZM18.0777 33.3986L18.3516 35.3071C18.3741 35.4621 18.2916 35.5609 18.134 35.5609H14.7411C14.5847 35.5609 14.5009 35.4634 14.5209 35.3096V35.3071L14.7948 33.4011C15.3314 33.4862 15.8791 33.5362 16.4369 33.5362C16.9909 33.5362 17.5375 33.4849 18.0777 33.3986ZM43.0027 53.4674C42.8726 53.4524 42.7401 53.4586 42.6112 53.4849C42.0322 53.6037 41.6132 54.119 41.6132 54.7093C41.6132 54.7943 41.622 54.8793 41.6395 54.9631C41.8096 55.7886 42.0647 56.669 42.4211 57.6182C42.6037 58.1047 43.0715 58.4286 43.5917 58.4286C43.743 58.4286 43.8919 58.4011 44.0332 58.3486C44.6748 58.106 45.0037 57.3806 44.7636 56.7378C44.4484 55.8974 44.2308 55.1432 44.0895 54.4566C43.9794 53.9276 43.5392 53.5274 43.0027 53.4674Z" fill="#EB662B"/>
<path fill-rule="evenodd" clip-rule="evenodd" d="M10.2402 28.7019C10.2402 29.3919 9.68023 29.9519 8.99023 29.9519C8.30023 29.9519 7.74023 29.3919 7.74023 28.7019C7.74023 28.0119 8.30023 27.4519 8.99023 27.4519C9.68023 27.4519 10.2402 28.0119 10.2402 28.7019Z" fill="#EB662B"/>
</svg>
