<svg width="390" height="35" viewBox="0 0 390 35" fill="none" xmlns="http://www.w3.org/2000/svg">
<path fill-rule="evenodd" clip-rule="evenodd" d="M390 0H0V15.8694C0 15.8694 13.7566 13.5183 35.5555 15.1345C41.557 15.6555 47.9279 16.843 54.6244 18.0913C59.2631 18.9561 64.058 19.8499 68.9948 20.5713C80.7904 22.2954 90.7649 22.7551 94.1698 22.9121L94.3915 22.9224C106.169 23.1997 116.44 22.3003 123.251 21.7041L124.444 21.5999C136.736 20.5891 146.556 18.1199 154.093 16.2246C156.419 15.6399 158.527 15.1096 160.423 14.6938C168.677 12.9304 179.682 11.9019 182.646 11.7551C196.346 11.1787 219.666 16.645 244.294 22.418C269.886 28.4167 296.889 34.7466 315.979 34.9712C348.435 35.3784 375.111 27.3835 390 22.4558V13.0549C382.624 15.189 359.975 21.7273 352.804 22.7754C351.124 23.0183 350.046 23.2292 348.942 23.4451C346.708 23.8821 344.368 24.3398 336.72 25.1265C325.291 26.302 313.016 25.4202 313.016 25.1265C312.935 25.0703 314.432 25.0356 316.773 24.9812C320.555 24.8936 326.542 24.7546 331.64 24.3916C339.683 23.804 348.36 22.3345 352.804 21.4529C359.998 20.1082 376.053 16.2522 385.307 14.03C387.201 13.5752 388.81 13.1887 390 12.9062V0ZM64.6853 16.7346C65.7449 16.8618 66.3251 16.9314 66.2434 17.0449C66.0317 17.4856 61.799 17.6326 54.8148 16.0164C48.6083 14.5798 47.583 14.4199 44.1641 13.8867C43.7357 13.8198 43.2698 13.7471 42.7513 13.6653C35.8276 12.5474 24.4941 12.6201 19.1886 12.6543C17.5204 12.665 16.4481 12.6719 16.2963 12.6367C15.4497 12.4897 31.746 11.1672 40.2117 12.3428C45.291 12.9304 51.2169 13.8123 56.7196 15.2815C60.0988 16.1838 62.9991 16.5322 64.6853 16.7346ZM155.68 13.2043C155.066 13.3767 154.667 13.4888 154.497 13.5183C153.651 13.6653 166.984 8.96313 177.989 8.08154C188.995 7.19995 191.111 8.08154 191.111 8.52246C191.111 8.67261 190.129 8.66919 188.424 8.66333C185.123 8.65234 179.113 8.63208 172.275 9.698C163.984 10.8726 158.128 12.5171 155.68 13.2043ZM154.448 9.22607C152.835 9.6228 151.7 9.9021 151.534 9.84473C151.111 9.698 158.307 7.4939 161.905 6.75903C165.291 6.17139 167.619 6.31836 167.619 6.46533C167.619 6.48242 167.63 6.50146 167.643 6.52246C167.738 6.68213 167.903 6.95703 163.598 7.34692C160.633 7.70483 156.961 8.60791 154.448 9.22607ZM200.852 7.05933C199.276 6.77563 198.176 6.57764 198.095 6.46533C197.884 6.17139 205.503 7.05298 208.889 7.93457C212.275 8.66943 214.18 9.698 213.968 9.84473C213.937 9.86646 213.924 9.89771 213.911 9.93066C213.833 10.1206 213.735 10.3623 209.947 9.11011C207.2 8.20215 203.403 7.51855 200.852 7.05933ZM142.434 16.0164C139.048 17.0449 138.201 16.751 138.413 16.3101C138.461 16.21 138.476 16.1401 138.513 16.0852C138.64 15.8982 139.019 15.8826 141.799 15.4285C144.057 15.0366 145.28 14.71 146.095 14.4924C146.502 14.3835 146.808 14.302 147.09 14.2529C147.937 14.106 145.82 14.9878 142.434 16.0164ZM80 19.5427C77.4603 19.3958 72.5927 18.2202 73.0159 18.2202C73.1133 18.2202 73.4009 18.2512 73.8274 18.2974C75.2552 18.4519 78.2391 18.7744 80.8466 18.6611C84.0211 18.5142 84.2328 18.8081 84.2328 19.2488C84.2328 19.6897 82.5397 19.6897 80 19.5427ZM321.687 31.0244C321.379 31.0156 320.907 30.989 320.261 30.9524C317.943 30.821 313.393 30.563 306.243 30.563C295.661 30.563 277.46 27.0366 269.841 25.4202C262.222 23.804 291.005 31.1509 304.762 31.4448C315.645 31.6772 320.302 31.1738 321.669 31.0264C321.675 31.0256 321.681 31.0251 321.687 31.0244Z" fill="#FEF7F4"/>
</svg>
