<svg width="600" height="40" viewBox="0 0 600 40" fill="none" xmlns="http://www.w3.org/2000/svg">
<path d="M600 14.253C600 14.253 584.55 20.5713 570.37 21.0121C555.979 21.4529 543.704 21.0121 526.138 18.8081C502.222 15.8693 456.085 3.96732 431.534 10.4326C406.984 16.8979 405.926 17.1917 393.439 21.306C379.471 26.008 351.111 35.412 315.979 34.9712C278.519 34.5304 210.582 10.5795 182.646 11.755C179.683 11.902 168.677 12.9305 160.423 14.6938C152.381 16.4571 140.529 20.2774 124.444 21.5999C117.672 22.1876 106.878 23.2162 94.3915 22.9223C91.2169 22.7754 81.0582 22.3346 68.9947 20.5713C56.9312 18.8081 45.7143 16.0162 35.5556 15.1346C13.7566 13.5183 0 15.8693 0 15.8693L0 0L600 0V14.253ZM551.958 16.604C550.476 15.1346 547.725 16.0162 542.857 16.0162C537.989 16.0162 529.947 14.253 530.582 14.3999C531.217 14.5469 537.143 16.604 543.28 17.1917C549.63 17.9264 553.227 18.0734 551.958 16.604ZM513.016 12.6367C513.016 12.6367 507.937 12.3428 501.164 11.3142C494.392 10.1387 479.365 7.19996 469.206 6.17139C451.852 4.55508 435.767 6.17139 437.249 6.31833C438.942 6.46527 457.566 5.4367 474.497 7.93465C481.481 8.96322 494.18 11.1673 500.741 11.902C507.725 12.7836 513.016 12.6367 513.016 12.6367ZM391.958 12.4897C395.556 11.4612 363.81 19.3958 352.804 21.4529C348.36 22.3346 339.683 23.804 331.64 24.3917C323.386 24.9795 312.804 24.9795 313.016 25.1264C313.016 25.4203 325.291 26.3019 336.72 25.1264C348.148 23.9509 347.725 23.5101 352.804 22.7754C360.847 21.5999 388.36 13.5183 391.958 12.4897ZM421.376 10.1387C421.799 10.1387 419.683 9.55097 411.217 11.755C402.751 13.9591 397.037 16.8979 396.614 17.1917C396.19 17.3387 404.021 14.5469 410.582 12.7836C416.931 11.0203 421.164 10.1387 421.376 10.1387ZM598.942 8.81628C598.73 8.96322 594.921 10.4326 588.783 12.4897C582.646 14.5469 574.18 16.604 574.603 16.4571C575.026 16.4571 582.011 15.5754 590.265 12.7836C598.519 9.99178 599.153 8.66934 598.942 8.81628ZM66.2434 17.0448C66.455 16.7509 62.2222 16.7509 56.7196 15.2815C51.2169 13.8122 45.291 12.9305 40.2116 12.3428C31.746 11.1673 15.4497 12.4897 16.2963 12.6367C16.9312 12.7836 33.6508 12.1959 42.7513 13.6652C47.4074 14.3999 47.8307 14.3999 54.8148 16.0162C61.7989 17.6326 66.0317 17.4856 66.2434 17.0448ZM154.497 13.5183C155.344 13.3714 161.905 11.1673 172.275 9.69791C182.646 8.08159 191.111 8.96322 191.111 8.5224C191.111 8.08159 188.995 7.19996 177.989 8.08159C166.984 8.96322 153.651 13.6652 154.497 13.5183ZM151.534 9.84484C151.958 9.99178 158.73 7.93465 163.598 7.3469C168.466 6.90608 167.619 6.61221 167.619 6.46527C167.619 6.31833 165.291 6.17139 161.905 6.75915C158.307 7.49384 151.111 9.69791 151.534 9.84484ZM198.095 6.46527C198.307 6.75915 205.503 7.64077 209.947 9.11015C214.392 10.5795 213.757 9.99178 213.968 9.84484C214.18 9.69791 212.275 8.66934 208.889 7.93465C205.503 7.05302 197.884 6.17139 198.095 6.46527ZM138.413 16.3101C138.201 16.7509 139.048 17.0448 142.434 16.0162C145.82 14.9877 147.937 14.106 147.09 14.253C146.243 14.3999 145.185 14.8407 141.799 15.4285C138.201 16.0162 138.624 15.8693 138.413 16.3101ZM73.0159 18.2203C72.5926 18.2203 77.4603 19.3958 80 19.5427C82.5397 19.6897 84.2328 19.6897 84.2328 19.2489C84.2328 18.8081 84.0212 18.5142 80.8466 18.6611C77.4603 18.8081 73.4392 18.2203 73.0159 18.2203ZM322.116 31.0039C321.905 31.1508 317.037 30.5631 306.243 30.5631C295.661 30.5631 277.46 27.0366 269.841 25.4203C262.222 23.8039 291.005 31.1508 304.762 31.4447C318.519 31.7386 322.328 30.857 322.116 31.0039Z" fill="#FAF9FD"/>
<path d="M570.581 26.4491C570.37 26.3022 560.846 26.8899 555.343 26.4491C539.893 25.4205 519.364 21.7471 520.211 22.1879C521.057 22.6287 549.206 26.743 556.19 27.0369C566.56 27.6246 570.793 26.4491 570.581 26.4491Z" fill="#FAF9FD"/>
<path d="M481.27 14.3999C480.847 14.253 471.746 12.9306 461.164 12.6367C450.582 12.3428 434.286 13.5183 435.132 13.3714C435.767 13.2244 447.619 10.7265 463.28 11.6081C478.942 12.4897 481.693 14.5469 481.27 14.3999Z" fill="#FAF9FD"/>
<path d="M432.804 19.69C432.593 19.543 437.037 18.2206 439.577 18.0737C442.116 17.9267 443.809 18.0737 443.809 18.5145C443.809 18.9553 443.598 19.2492 440.423 19.1022C436.825 18.9553 433.016 19.8369 432.804 19.69Z" fill="#FAF9FD"/>
<path d="M425.396 15.5754C425.396 15.4284 416.084 17.3386 412.063 18.808C408.042 20.1304 398.941 23.3631 399.153 23.3631C399.365 23.51 408.042 21.0121 412.486 19.5427C416.931 18.0733 425.396 15.7223 425.396 15.5754Z" fill="#FAF9FD"/>
<path d="M326.984 39.2323C326.772 39.0854 317.248 39.6731 311.746 39.2323C296.296 38.2037 275.767 34.5303 276.613 34.9711C277.46 35.4119 305.608 39.5262 312.592 39.8201C322.962 40.4078 327.195 39.3792 326.984 39.2323Z" fill="#FAF9FD"/>
<path d="M88.6777 28.3584C88.6777 28.3584 91.2174 27.9176 94.8153 28.2115C98.4132 28.5054 107.09 29.534 112.17 29.2401C121.059 28.6523 127.831 25.2728 126.985 25.4197C126.138 25.4197 117.884 28.6523 108.784 28.2115C104.974 28.0646 97.9899 27.4768 94.6037 27.6238C91.2174 27.7707 88.6777 28.3584 88.6777 28.3584Z" fill="#FAF9FD"/>
<path d="M159.788 18.5143C160.211 18.6612 164.021 17.3388 168.888 16.8979C173.756 16.6041 173.333 16.4571 173.333 16.1633C173.333 16.0163 169.523 15.5755 166.137 16.1633C162.751 16.8979 159.365 18.3673 159.788 18.5143Z" fill="#FAF9FD"/>
<path d="M33.0156 19.3959C33.0156 19.249 42.1162 19.3959 47.1955 20.1306C52.2749 20.8653 57.7775 22.9224 57.7775 23.0694C57.7775 23.2163 52.0632 21.8939 46.9839 21.0122C42.1162 20.1306 33.2273 19.5429 33.0156 19.3959Z" fill="#FAF9FD"/>
</svg>
