<svg width="40" height="600" viewBox="0 0 40 600" fill="none" xmlns="http://www.w3.org/2000/svg">
<path d="M14.253 -9.12836e-06C14.253 -9.12836e-06 20.5713 15.4497 21.0121 29.6296C21.453 44.0212 21.0121 56.2963 18.8081 73.8624C15.8693 97.7778 3.96733 143.915 10.4326 168.466C16.8979 193.016 17.1917 194.074 21.306 206.561C26.008 220.529 35.4121 248.889 34.9712 284.021C34.5304 321.481 10.5795 389.418 11.755 417.354C11.902 420.317 12.9305 431.323 14.6938 439.577C16.4571 447.619 20.2774 459.471 21.5999 475.556C22.1876 482.328 23.2162 493.122 22.9223 505.608C22.7754 508.783 22.3346 518.942 20.5713 531.005C18.8081 543.069 16.0162 554.286 15.1346 564.444C13.5183 586.243 15.8693 600 15.8693 600L0 600L7.15493e-06 -9.29832e-06L14.253 -9.12836e-06ZM16.604 48.0423C15.1346 49.5238 16.0162 52.2751 16.0162 57.1428C16.0162 62.0106 14.253 70.0529 14.3999 69.418C14.5469 68.7831 16.604 62.8571 17.1917 56.7195C17.9264 50.3703 18.0734 46.7725 16.604 48.0423ZM12.6367 86.9841C12.6367 86.9841 12.3428 92.0635 11.3142 98.836C10.1387 105.608 7.19997 120.635 6.1714 130.794C4.55508 148.148 6.1714 164.233 6.31834 162.751C6.46528 161.058 5.43671 142.434 7.93466 125.503C8.96322 118.519 11.1673 105.82 11.902 99.2592C12.7836 92.2751 12.6367 86.9841 12.6367 86.9841ZM12.4897 208.042C11.4612 204.444 19.3958 236.19 21.4529 247.196C22.3346 251.64 23.804 260.317 24.3917 268.36C24.9795 276.614 24.9795 287.196 25.1264 286.984C25.4203 286.984 26.3019 274.709 25.1264 263.28C23.9509 251.852 23.5101 252.275 22.7754 247.196C21.5999 239.153 13.5183 211.64 12.4897 208.042ZM10.1387 178.624C10.1387 178.201 9.55097 180.317 11.755 188.783C13.9591 197.249 16.8979 202.963 17.1917 203.386C17.3387 203.81 14.5469 195.979 12.7836 189.418C11.0204 183.069 10.1387 178.836 10.1387 178.624ZM8.81629 1.05819C8.96322 1.26983 10.4326 5.07933 12.4897 11.2169C14.5469 17.3545 16.604 25.8201 16.4571 25.3968C16.4571 24.9735 15.5754 17.9894 12.7836 9.73545C9.99179 1.48149 8.66935 0.846552 8.81629 1.05819ZM17.0448 533.757C16.7509 533.545 16.7509 537.778 15.2815 543.28C13.8122 548.783 12.9305 554.709 12.3428 559.788C11.1673 568.254 12.4897 584.55 12.6367 583.704C12.7836 583.069 12.1959 566.349 13.6652 557.249C14.3999 552.593 14.3999 552.169 16.0162 545.185C17.6326 538.201 17.4856 533.968 17.0448 533.757ZM13.5183 445.503C13.3714 444.656 11.1673 438.095 9.69791 427.725C8.08159 417.354 8.96322 408.889 8.5224 408.889C8.08159 408.889 7.19996 411.005 8.08159 422.011C8.96322 433.016 13.6652 446.349 13.5183 445.503ZM9.84485 448.466C9.99178 448.042 7.93465 441.27 7.3469 436.402C6.90609 431.534 6.61221 432.381 6.46527 432.381C6.31833 432.381 6.1714 434.709 6.75915 438.095C7.49384 441.693 9.69791 448.889 9.84485 448.466ZM6.46527 401.905C6.75915 401.693 7.64078 394.497 9.11016 390.053C10.5795 385.608 9.99178 386.243 9.84485 386.032C9.69791 385.82 8.66934 387.725 7.93465 391.111C7.05302 394.497 6.1714 402.116 6.46527 401.905ZM16.3101 461.587C16.7509 461.799 17.0448 460.952 16.0162 457.566C14.9877 454.18 14.106 452.063 14.253 452.91C14.3999 453.757 14.8407 454.815 15.4285 458.201C16.0162 461.799 15.8693 461.376 16.3101 461.587ZM18.2203 526.984C18.2203 527.407 19.3958 522.54 19.5428 520C19.6897 517.46 19.6897 515.767 19.2489 515.767C18.8081 515.767 18.5142 515.979 18.6611 519.153C18.8081 522.54 18.2203 526.561 18.2203 526.984ZM31.0039 277.884C31.1509 278.095 30.5631 282.963 30.5631 293.757C30.5631 304.339 27.0366 322.54 25.4203 330.159C23.804 337.778 31.1509 308.995 31.4447 295.238C31.7386 281.481 30.857 277.672 31.0039 277.884Z" fill="#FAF9FD"/>
<path d="M26.4491 29.4182C26.3022 29.6299 26.8899 39.1537 26.4491 44.6564C25.4205 60.1061 21.7471 80.6352 22.1879 79.7886C22.6287 78.942 26.743 50.7939 27.0369 43.8098C27.6246 33.4394 26.4491 29.2066 26.4491 29.4182Z" fill="#FAF9FD"/>
<path d="M14.3997 118.73C14.2528 119.153 12.9303 128.254 12.6364 138.836C12.3426 149.418 13.5181 165.714 13.3711 164.868C13.2242 164.233 10.7262 152.381 11.6079 136.72C12.4895 121.058 14.5466 118.307 14.3997 118.73Z" fill="#FAF9FD"/>
<path d="M19.69 167.196C19.543 167.407 18.2206 162.963 18.0737 160.423C17.9267 157.884 18.0737 156.191 18.5145 156.191C18.9553 156.191 19.2492 156.402 19.1022 159.577C18.9553 163.175 19.8369 166.984 19.69 167.196Z" fill="#FAF9FD"/>
<path d="M15.5754 174.603C15.4284 174.603 17.3386 183.915 18.808 187.937C20.1304 191.958 23.3631 201.058 23.3631 200.847C23.51 200.635 21.0121 191.958 19.5427 187.513C18.0733 183.069 15.7223 174.603 15.5754 174.603Z" fill="#FAF9FD"/>
<path d="M39.2323 273.016C39.0854 273.228 39.6731 282.751 39.2323 288.254C38.2037 303.704 34.5303 324.233 34.9711 323.386C35.4119 322.54 39.5262 294.392 39.8201 287.407C40.4078 277.037 39.3792 272.804 39.2323 273.016Z" fill="#FAF9FD"/>
<path d="M28.3584 511.323C28.3584 511.323 27.9176 508.783 28.2115 505.185C28.5054 501.587 29.534 492.91 29.2401 487.831C28.6523 478.942 25.2728 472.169 25.4197 473.016C25.4197 473.862 28.6523 482.116 28.2115 491.217C28.0646 495.026 27.4768 502.011 27.6238 505.397C27.7707 508.783 28.3584 511.323 28.3584 511.323Z" fill="#FAF9FD"/>
<path d="M18.5143 440.212C18.6612 439.789 17.3388 435.979 16.8979 431.111C16.6041 426.244 16.4571 426.667 16.1633 426.667C16.0163 426.667 15.5755 430.476 16.1633 433.863C16.8979 437.249 18.3673 440.635 18.5143 440.212Z" fill="#FAF9FD"/>
<path d="M19.3959 566.984C19.249 566.984 19.3959 557.884 20.1306 552.804C20.8653 547.725 22.9224 542.222 23.0694 542.222C23.2163 542.222 21.8939 547.937 21.0122 553.016C20.1306 557.884 19.5429 566.773 19.3959 566.984Z" fill="#FAF9FD"/>
</svg>
