<svg width="84" height="26" viewBox="0 0 84 26" fill="none" xmlns="http://www.w3.org/2000/svg">
<g clip-path="url(#clip0_66_1003)">
<path fill-rule="evenodd" clip-rule="evenodd" d="M51.8002 19.9856C46.9672 23.5586 39.9382 25.4626 33.8752 25.4626C25.7879 25.5028 17.9761 22.5263 11.9662 17.1146C11.5272 16.7046 11.9072 16.1476 12.4662 16.4706C18.2861 19.8199 24.8022 21.7768 31.5045 22.1883C38.2067 22.5998 44.9132 21.4547 51.0992 18.8426C51.9172 18.5216 52.5912 19.4036 51.8002 19.9856Z" fill="#05073C"/>
<path fill-rule="evenodd" clip-rule="evenodd" d="M53.8211 17.6717C53.2061 16.8807 49.7211 17.2907 48.1681 17.4957C47.6991 17.5547 47.6111 17.1447 48.0511 16.8517C50.8341 14.8897 55.3731 15.4747 55.9011 16.1197C56.4291 16.7647 55.7551 21.3337 53.1481 23.5007C52.7381 23.8227 52.3571 23.6467 52.5331 23.2077C53.1181 21.7437 54.4361 18.4917 53.8211 17.6717Z" fill="#05073C"/>
<path fill-rule="evenodd" clip-rule="evenodd" d="M48.2561 3.0855V1.18551C48.2528 1.12304 48.2627 1.06059 48.285 1.00219C48.3074 0.943784 48.3419 0.890746 48.3861 0.846516C48.4303 0.802287 48.4834 0.767839 48.5418 0.745442C48.6002 0.723045 48.6626 0.713198 48.7251 0.716512H57.2161C57.3444 0.713261 57.4687 0.760632 57.5623 0.848409C57.6559 0.936185 57.7111 1.0573 57.7161 1.18551V2.7965C57.7161 3.0605 57.4821 3.41151 57.0721 3.99651L52.6791 10.2645C54.3532 10.1743 56.0215 10.5268 57.5161 11.2865C57.6458 11.3607 57.7543 11.467 57.8312 11.5952C57.908 11.7234 57.9507 11.8691 57.9551 12.0185V14.0395C57.9551 14.3325 57.6621 14.6545 57.3401 14.4785C55.9542 13.7612 54.4156 13.3892 52.855 13.3943C51.2945 13.3993 49.7583 13.7812 48.3771 14.5075C48.3072 14.5325 48.2323 14.5403 48.1587 14.53C48.0852 14.5198 48.0152 14.4919 47.9548 14.4488C47.8944 14.4057 47.8453 14.3486 47.8117 14.2823C47.7782 14.2161 47.7611 14.1427 47.7621 14.0685V12.1325C47.7333 11.6798 47.8458 11.2294 48.0841 10.8435L53.1841 3.5505H48.7611C48.6328 3.55375 48.5084 3.50638 48.4149 3.4186C48.3213 3.33082 48.266 3.20971 48.2611 3.0815L48.2561 3.0855ZM17.2971 14.8855H14.7161C14.6006 14.8739 14.4921 14.8247 14.4073 14.7454C14.3226 14.666 14.2663 14.561 14.2471 14.4465V1.21151C14.2521 1.0833 14.3073 0.962186 14.4009 0.874409C14.4945 0.786633 14.6188 0.739262 14.7471 0.742513H17.1471C17.2659 0.744129 17.3798 0.790008 17.4666 0.871205C17.5533 0.952402 17.6067 1.06307 17.6161 1.18151V2.9095H17.6751C17.9031 2.19519 18.3524 1.57186 18.9579 1.12957C19.5634 0.687272 20.2938 0.448903 21.0436 0.448903C21.7934 0.448903 22.5239 0.687272 23.1294 1.12957C23.7348 1.57186 24.184 2.19519 24.4121 2.9095C24.6691 2.17307 25.1539 1.53762 25.7964 1.0953C26.4388 0.652976 27.2054 0.426789 27.9851 0.449513C28.5639 0.437836 29.137 0.564697 29.6568 0.819539C30.1766 1.07438 30.6279 1.44981 30.9731 1.91451C31.7931 3.02751 31.6171 4.63851 31.6171 6.07351V14.4505C31.6121 14.5787 31.5569 14.6998 31.4633 14.7876C31.3697 14.8754 31.2454 14.9228 31.1171 14.9195H28.5691C28.4471 14.9122 28.332 14.8604 28.2456 14.774C28.1592 14.6876 28.1075 14.5725 28.1001 14.4505V7.4215C28.1394 6.59115 28.1196 5.75907 28.0411 4.93151C27.9874 4.57923 27.7975 4.26211 27.5122 4.04851C27.227 3.83491 26.8693 3.74191 26.5161 3.78951C26.1799 3.79921 25.8539 3.90697 25.5781 4.09957C25.3024 4.29216 25.0889 4.56118 24.9641 4.87349C24.7519 5.70511 24.6729 6.56514 24.7301 7.4215V14.4505C24.7252 14.5787 24.6699 14.6998 24.5763 14.7876C24.4827 14.8754 24.3584 14.9228 24.2301 14.9195H21.6531C21.5311 14.9122 21.416 14.8604 21.3296 14.774C21.2432 14.6876 21.1915 14.5725 21.1841 14.4505V7.4215C21.1841 5.9565 21.4181 3.76052 19.6021 3.76052C17.7571 3.76052 17.8151 5.8695 17.8151 7.4215V14.4505C17.7967 14.5757 17.7328 14.6898 17.6355 14.7708C17.5383 14.8518 17.4146 14.8941 17.2881 14.8895L17.2971 14.8855ZM65.0391 0.445515C68.8761 0.445515 70.9561 3.72551 70.9561 7.91451C70.9561 11.9565 68.6711 15.1785 65.0391 15.1785C61.2901 15.1785 59.2391 11.8985 59.2391 7.79751C59.2101 3.66751 61.2891 0.445515 65.0391 0.445515ZM65.0391 3.16951C63.1391 3.16951 63.0181 5.7765 63.0181 7.3875C63.0181 8.9985 62.9891 12.4545 65.0101 12.4545C67.0021 12.4545 67.1191 9.6715 67.1191 7.9735C67.1551 6.78986 67.0269 5.60696 66.7381 4.45852C66.6581 4.07496 66.4417 3.73339 66.1291 3.49712C65.8166 3.26085 65.4289 3.1459 65.0381 3.17351L65.0391 3.16951ZM75.9051 14.8855H73.3281C73.2061 14.8782 73.091 14.8264 73.0046 14.7399C72.9182 14.6535 72.8665 14.5385 72.8591 14.4165V1.15252C72.8753 1.03126 72.9349 0.919963 73.0268 0.839253C73.1187 0.758543 73.2368 0.713864 73.3591 0.71349H75.7591C75.8681 0.717134 75.973 0.756365 76.0577 0.825154C76.1423 0.893943 76.2022 0.988526 76.2281 1.0945V3.1155H76.2871C77.0191 1.2995 78.0151 0.45049 79.8021 0.45049C80.3967 0.423476 80.988 0.552522 81.5172 0.824788C82.0465 1.09705 82.4953 1.50306 82.8191 2.00249C83.4931 3.05749 83.4931 4.8435 83.4931 6.1325V14.4805C83.4754 14.5986 83.4144 14.706 83.3221 14.7818C83.2297 14.8575 83.1124 14.8963 82.9931 14.8905H80.4161C80.3048 14.88 80.1996 14.8347 80.1155 14.7612C80.0313 14.6876 79.9724 14.5894 79.9471 14.4805V7.2755C79.9471 5.8115 80.1231 3.7025 78.3361 3.7025C78.0125 3.7176 77.7 3.82483 77.4353 4.01156C77.1707 4.19828 76.9648 4.45673 76.8421 4.75649C76.5288 5.5577 76.389 6.41629 76.4321 7.2755V14.4225C76.4159 14.5512 76.3535 14.6697 76.2566 14.7559C76.1597 14.8422 76.0348 14.8903 75.9051 14.8915V14.8855ZM41.4901 8.55849C41.5858 9.50169 41.4237 10.4532 41.0211 11.3115C40.8577 11.6507 40.6051 11.939 40.2903 12.1455C39.9754 12.352 39.6103 12.4689 39.2341 12.4835C38.2341 12.4835 37.6521 11.7215 37.6521 10.6085C37.6521 8.40851 39.6141 8.00152 41.4891 8.00152L41.4901 8.55849ZM44.0971 14.8585C44.0136 14.9314 43.9094 14.9763 43.7991 14.9869C43.6888 14.9975 43.5779 14.9732 43.4821 14.9175C42.8855 14.4347 42.3796 13.8496 41.9881 13.1895C41.4774 13.8139 40.8267 14.309 40.0888 14.6348C39.3509 14.9606 38.5466 15.1078 37.7411 15.0645C37.2126 15.0955 36.6836 15.0118 36.1905 14.819C35.6975 14.6262 35.252 14.3289 34.8846 13.9476C34.5173 13.5663 34.2369 13.1101 34.0626 12.6102C33.8884 12.1102 33.8244 11.5785 33.8751 11.0515C33.8447 10.1507 34.0928 9.26245 34.5854 8.50768C35.078 7.75291 35.7913 7.16832 36.6281 6.83352C38.2002 6.31209 39.8358 6.00661 41.4901 5.9255V5.60351C41.5777 4.96027 41.4652 4.30567 41.1681 3.7285C40.9997 3.51016 40.7817 3.3351 40.5321 3.21788C40.2826 3.10067 40.0086 3.04466 39.7331 3.05449C39.2564 3.01289 38.781 3.14807 38.3974 3.43425C38.0139 3.72044 37.749 4.13765 37.6531 4.6065C37.5941 4.8405 37.4531 5.07549 37.2141 5.07549L34.7241 4.81151C34.664 4.80306 34.6062 4.78255 34.5541 4.75121C34.5021 4.71987 34.457 4.67835 34.4214 4.62914C34.3858 4.57993 34.3605 4.52402 34.3471 4.4648C34.3336 4.40558 34.3323 4.34426 34.3431 4.2845C34.9291 1.2385 37.6531 0.330495 40.1131 0.330495C41.5268 0.270042 42.9139 0.72848 44.0131 1.6195C45.2721 2.7915 45.1551 4.37249 45.1551 6.07149V10.0845C45.1715 10.9762 45.5157 11.8306 46.1221 12.4845C46.2981 12.7185 46.3271 13.0115 46.1221 13.1585C45.5611 13.6005 44.6221 14.4205 44.0971 14.8585ZM7.6611 8.55849C7.75684 9.50169 7.59473 10.4532 7.19209 11.3115C7.02874 11.6507 6.77609 11.939 6.46126 12.1455C6.14643 12.352 5.78132 12.4689 5.40511 12.4835C4.40511 12.4835 3.82311 11.7215 3.82311 10.6085C3.82311 8.40851 5.7851 8.00152 7.6601 8.00152L7.6611 8.55849ZM10.2391 14.8585C10.1556 14.9314 10.0514 14.9763 9.94109 14.9869C9.83077 14.9975 9.71991 14.9732 9.6241 14.9175C9.02753 14.4347 8.52164 13.8496 8.1301 13.1895C7.6194 13.8139 6.9687 14.309 6.23079 14.6348C5.49288 14.9606 4.68856 15.1078 3.8831 15.0645C3.35458 15.0955 2.82561 15.0118 2.33254 14.819C1.83946 14.6262 1.39396 14.3289 1.02664 13.9476C0.659329 13.5663 0.378903 13.1101 0.204637 12.6102C0.0303719 12.1102 -0.0335986 11.5785 0.0171068 11.0515C-0.0132572 10.1507 0.23475 9.26245 0.727373 8.50768C1.22 7.75291 1.93328 7.16832 2.7701 6.83352C4.34217 6.31209 5.97779 6.00661 7.6321 5.9255V5.60351C7.71965 4.96027 7.60725 4.30567 7.31011 3.7285C7.14173 3.51016 6.9237 3.3351 6.67414 3.21788C6.42457 3.10067 6.15064 3.04466 5.87509 3.05449C5.39836 3.01289 4.92298 3.14807 4.53943 3.43425C4.15588 3.72044 3.89097 4.13765 3.79511 4.6065C3.73611 4.8405 3.5901 5.07549 3.3561 5.07549L0.866106 4.81151C0.805969 4.80306 0.748155 4.78255 0.696138 4.75121C0.644122 4.71987 0.598966 4.67835 0.563387 4.62914C0.527807 4.57993 0.502529 4.52402 0.489076 4.4648C0.475624 4.40558 0.474269 4.34426 0.485094 4.2845C1.07109 1.2385 3.7951 0.330495 6.2551 0.330495C7.66881 0.270042 9.05587 0.72848 10.1551 1.6195C11.4141 2.7915 11.2971 4.37249 11.2971 6.07149V10.0845C11.3136 10.9761 11.6578 11.8305 12.2641 12.4845C12.4401 12.7185 12.4691 13.0115 12.2641 13.1585C11.7071 13.5975 10.7701 14.4175 10.2431 14.8585H10.2391Z" fill="#05073C"/>
</g>
<defs>
<clipPath id="clip0_66_1003">
<rect width="83.493" height="25.138" fill="white" transform="translate(0 0.325684)"/>
</clipPath>
</defs>
</svg>
