<svg width="83" height="20" viewBox="0 0 83 20" fill="none" xmlns="http://www.w3.org/2000/svg">
<g clip-path="url(#clip0_66_1008)">
<path d="M19.338 18.6577H14.771L13.371 15.2887H5.764L4.491 18.6577H0L6.861 1.64068H11.777L19.338 18.6577ZM9.382 5.70668L6.882 12.3187H12.122L9.382 5.70668ZM35.925 1.64068H39.618V18.6577H35.376V8.02568L30.785 13.3647H30.136L25.545 8.02568V18.6577H21.3V1.64068H25L30.46 7.95368L35.925 1.64068ZM50.367 1.64068C56.58 1.64068 59.773 5.50768 59.773 10.1737C59.773 15.0637 56.679 18.6577 49.893 18.6577H42.856V1.64068H50.367ZM47.1 15.5387H49.869C54.136 15.5387 55.408 12.6387 55.408 10.1477C55.408 7.22768 53.836 4.75868 49.819 4.75868H47.1V15.5387ZM68.212 5.67568L62.863 0.325684H82.336V19.7997L76.987 14.4507V5.67568H68.212ZM68.206 6.74768L62.7 12.2547V19.9637H70.408L75.915 14.4567H68.206V6.74768Z" fill="#05073C"/>
</g>
<defs>
<clipPath id="clip0_66_1008">
<rect width="82.336" height="19.638" fill="white" transform="translate(0 0.325684)"/>
</clipPath>
</defs>
</svg>
