<svg width="74" height="43" viewBox="0 0 74 43" fill="none" xmlns="http://www.w3.org/2000/svg">
<path d="M23.8999 37.7668H20.8909V25.8428H23.8999V37.7668Z" fill="#05073C"/>
<path d="M48.1619 29.2598C47.3851 28.8383 46.5148 28.6187 45.6309 28.6216C45.2016 28.598 44.772 28.6634 44.369 28.8135C43.966 28.9635 43.5983 29.195 43.2889 29.4936C42.9795 29.7923 42.7352 30.1518 42.5713 30.5493C42.4073 30.9468 42.3271 31.3738 42.3359 31.8037C42.3268 32.2337 42.4068 32.6609 42.5706 33.0586C42.7344 33.4563 42.9786 33.8159 43.2879 34.1147C43.5973 34.4136 43.9652 34.6453 44.3684 34.7954C44.7716 34.9455 45.2014 35.0107 45.6309 34.9868C46.514 34.9888 47.3837 34.771 48.1619 34.3535V37.5537C47.273 37.8261 46.3496 37.9688 45.4199 37.9775C44.5905 38.0159 43.7619 37.8838 42.9855 37.5893C42.2091 37.2949 41.5013 36.8444 40.9059 36.2656C40.3104 35.687 39.8397 34.9927 39.5231 34.2251C39.2065 33.4575 39.0505 32.633 39.0649 31.8027C39.0514 30.9729 39.2079 30.1489 39.5249 29.3818C39.8418 28.6148 40.3125 27.921 40.9079 27.3428C41.5034 26.7647 42.2109 26.3148 42.9869 26.0205C43.7629 25.7262 44.5909 25.5939 45.4199 25.6318C46.3505 25.6343 47.2751 25.7787 48.1619 26.0605V29.2598ZM16.7549 29.2598C15.9795 28.8375 15.1098 28.6181 14.2269 28.6226C13.7972 28.5982 13.3671 28.6633 12.9635 28.813C12.56 28.9627 12.1918 29.1939 11.8819 29.4927C11.5719 29.7913 11.327 30.1509 11.1627 30.5488C10.9983 30.9467 10.918 31.3743 10.9269 31.8047C10.918 32.2351 10.9982 32.663 11.1623 33.061C11.3265 33.4591 11.5712 33.8186 11.8809 34.1177C12.1909 34.4165 12.5593 34.6481 12.963 34.7978C13.3668 34.9476 13.797 35.0123 14.2269 34.9878C15.1091 34.9908 15.9782 34.7729 16.7549 34.3545V37.5547C15.8654 37.8286 14.9406 37.9712 14.0099 37.9785C13.1807 38.0169 12.3525 37.8848 11.5764 37.5903C10.8003 37.2959 10.0929 36.8454 9.49795 36.2666C8.90299 35.6877 8.43299 34.9932 8.11703 34.2256C7.80107 33.458 7.64584 32.6337 7.66091 31.8037C7.64716 30.9743 7.8034 30.151 8.12002 29.3843C8.43664 28.6176 8.90695 27.9237 9.50192 27.3457C10.0969 26.7677 10.8038 26.3179 11.5793 26.0234C12.3548 25.729 13.1823 25.5963 14.0109 25.6338C14.942 25.6349 15.8675 25.7787 16.7549 26.0605V29.2598ZM57.6279 28.6675C57.216 28.6636 56.8076 28.7423 56.4266 28.8989C56.0456 29.0556 55.6999 29.2871 55.4099 29.5796C55.12 29.872 54.8915 30.2194 54.7381 30.6016C54.5847 30.9837 54.5095 31.393 54.5169 31.8047C54.5092 32.2167 54.5841 32.6258 54.7373 33.0083C54.8905 33.3908 55.1189 33.739 55.4089 34.0317C55.699 34.3245 56.0448 34.5561 56.4259 34.7129C56.8071 34.8697 57.2158 34.9487 57.6279 34.9448C58.04 34.9486 58.4487 34.8697 58.8299 34.7129C59.211 34.5561 59.5568 34.3245 59.847 34.0317C60.1372 33.7391 60.3658 33.3913 60.5193 33.0088C60.6729 32.6263 60.7482 32.2168 60.7409 31.8047C60.7472 31.3925 60.6708 30.9832 60.5163 30.6011C60.3617 30.2189 60.132 29.8715 59.8409 29.5796C59.5508 29.2872 59.2051 29.056 58.8242 28.8994C58.4432 28.7428 58.0348 28.6637 57.623 28.6675H57.6279ZM63.9229 31.8037C63.9305 32.6273 63.7718 33.4442 63.4563 34.2051C63.1409 34.9659 62.6751 35.6553 62.0869 36.2319C61.4987 36.8086 60.8002 37.2607 60.0332 37.561C59.2661 37.8614 58.4464 38.0034 57.623 37.9795C56.7996 38.0036 55.9798 37.8617 55.2128 37.5615C54.4458 37.2613 53.7472 36.8094 53.1589 36.2329C52.5706 35.6562 52.1047 34.9666 51.7892 34.2056C51.4737 33.4445 51.3151 32.6275 51.3229 31.8037C51.3158 30.9803 51.475 30.1638 51.7908 29.4033C52.1066 28.6428 52.5726 27.9541 53.1609 27.3779C53.7491 26.8017 54.4476 26.3498 55.2144 26.0498C55.9813 25.7498 56.8008 25.6077 57.6239 25.6318C58.4469 25.6081 59.2662 25.7506 60.0329 26.0508C60.7995 26.3509 61.4978 26.8027 62.0859 27.3789C62.6739 27.9551 63.1398 28.6435 63.4556 29.4038C63.7714 30.1641 63.9307 30.9805 63.9239 31.8037H63.9229ZM35.3059 28.5537C34.5386 28.3423 33.7493 28.2207 32.9539 28.1909C31.7479 28.1909 31.0929 28.5905 31.0929 29.1675C31.0929 29.8945 31.9769 30.1477 32.4719 30.3037L33.3019 30.5679C34.0902 30.7345 34.7994 31.1618 35.3152 31.7808C35.831 32.3998 36.1232 33.1741 36.1449 33.9795C36.1449 36.9795 33.5109 37.9795 31.2079 37.9795C30.1179 37.9694 29.0311 37.8606 27.9609 37.6538V34.9077C28.885 35.1764 29.8398 35.3255 30.8019 35.3516C32.3019 35.3516 32.9869 34.9138 32.9869 34.2388C32.9869 33.6388 32.3869 33.2858 31.6449 33.0518C31.4639 32.9908 31.1889 32.9057 31.0029 32.8437C29.3269 32.3137 27.9299 31.3285 27.9299 29.3555C27.9299 27.1255 29.5999 25.6279 32.3729 25.6279C33.3619 25.6413 34.3461 25.7684 35.3059 26.0068V28.5518V28.5537Z" fill="#05073C"/>
<path d="M4.46893 13.0288C4.46787 12.6335 4.30991 12.2546 4.02979 11.9756C3.74966 11.6966 3.37027 11.5405 2.97491 11.541C2.57981 11.5407 2.20075 11.6969 1.92072 11.9756C1.64068 12.2543 1.48254 12.6327 1.48096 13.0278V16.1587C1.49186 16.5482 1.65384 16.9183 1.93268 17.1904C2.21152 17.4626 2.5853 17.6153 2.97491 17.6167C3.36499 17.6168 3.73963 17.4643 4.0188 17.1919C4.29797 16.9195 4.45953 16.5487 4.46893 16.1587V13.0288ZM12.674 8.9209C12.674 8.52467 12.5165 8.14444 12.2363 7.86426C11.9561 7.58408 11.5762 7.42676 11.1799 7.42676C10.7837 7.42676 10.4037 7.58408 10.1235 7.86426C9.84336 8.14444 9.68591 8.52467 9.68591 8.9209V16.1587C9.68591 16.5549 9.84336 16.9352 10.1235 17.2153C10.4037 17.4955 10.7837 17.6528 11.1799 17.6528C11.5762 17.6528 11.9561 17.4955 12.2363 17.2153C12.5165 16.9352 12.674 16.5549 12.674 16.1587V8.91992V8.9209ZM20.8799 3.29883C20.8789 2.90355 20.7211 2.52473 20.4412 2.24561C20.1613 1.96648 19.7822 1.81006 19.3869 1.81006C18.9913 1.80979 18.6117 1.96623 18.3316 2.24561C18.0515 2.52498 17.8937 2.90418 17.8929 3.29981V19.1328C17.9026 19.5226 18.0642 19.8933 18.3434 20.1655C18.6225 20.4378 18.997 20.59 19.3869 20.5898C19.7768 20.59 20.1513 20.4378 20.4305 20.1655C20.7096 19.8933 20.8713 19.5226 20.8809 19.1328L20.8799 3.29883ZM29.085 8.9209C29.085 8.52467 28.9275 8.14444 28.6473 7.86426C28.3672 7.58408 27.9872 7.42676 27.5909 7.42676C27.1947 7.42676 26.8147 7.58408 26.5345 7.86426C26.2543 8.14444 26.0969 8.52467 26.0969 8.9209V16.1587C26.0969 16.5549 26.2543 16.9352 26.5345 17.2153C26.8147 17.4955 27.1947 17.6528 27.5909 17.6528C27.9872 17.6528 28.3672 17.4955 28.6473 17.2153C28.9275 16.9352 29.085 16.5549 29.085 16.1587V8.91992V8.9209ZM37.2849 13.0288C37.2852 12.6346 37.1289 12.2566 36.8505 11.9775C36.572 11.6985 36.1941 11.5415 35.7999 11.541C35.4047 11.5402 35.0253 11.6963 34.7451 11.9751C34.465 12.2539 34.307 12.6326 34.3059 13.0278V16.1587C34.3059 16.5536 34.4628 16.9327 34.7421 17.2119C35.0213 17.4912 35.4 17.6479 35.7949 17.6479C36.189 17.6466 36.5664 17.4891 36.8446 17.21C37.1228 16.9309 37.2789 16.5527 37.2789 16.1587L37.2849 13.0288ZM45.494 8.9209C45.4843 8.53235 45.3232 8.16305 45.045 7.8916C44.7668 7.62015 44.3936 7.46792 44.0049 7.46777C43.6163 7.46792 43.243 7.62015 42.9648 7.8916C42.6867 8.16305 42.5256 8.53235 42.5159 8.9209V16.1587C42.5159 16.5536 42.6728 16.9327 42.952 17.2119C43.2313 17.4912 43.61 17.6479 44.0049 17.6479C44.3999 17.6479 44.7786 17.4912 45.0578 17.2119C45.337 16.9327 45.494 16.5536 45.494 16.1587V8.91992V8.9209ZM53.705 3.29883C53.7047 2.90409 53.5476 2.52561 53.2684 2.24658C52.9892 1.96756 52.6107 1.81104 52.2159 1.81104C51.8212 1.81104 51.4426 1.96756 51.1634 2.24658C50.8842 2.52561 50.7272 2.90409 50.7269 3.29883V19.1328C50.7151 19.4016 50.7763 19.6685 50.9039 19.9053C51.0316 20.1421 51.2209 20.3402 51.4519 20.478C51.683 20.6157 51.947 20.688 52.2159 20.688C52.4849 20.688 52.7488 20.6157 52.9799 20.478C53.2111 20.3401 53.4005 20.1418 53.5282 19.9048C53.6559 19.6678 53.717 19.4008 53.705 19.1318V3.29883ZM61.9139 8.9209C61.9132 8.7237 61.8737 8.52857 61.7975 8.34668C61.7213 8.16479 61.61 7.99967 61.4699 7.86084C61.3296 7.72248 61.1635 7.61319 60.9809 7.53906C60.7983 7.46494 60.603 7.42731 60.4059 7.42871C60.0109 7.42898 59.6322 7.58632 59.353 7.86572C59.0738 8.14512 58.9169 8.52395 58.9169 8.91895V16.1577C58.9164 16.3537 58.9546 16.5478 59.0292 16.729C59.1039 16.9102 59.2135 17.0751 59.3519 17.2139C59.6313 17.4938 60.0104 17.6513 60.4059 17.6519C60.6033 17.6536 60.799 17.6163 60.9818 17.542C61.1645 17.4677 61.3308 17.3577 61.4709 17.2188C61.6112 17.08 61.7226 16.915 61.7986 16.7329C61.8747 16.5508 61.9139 16.3551 61.9139 16.1577V8.91895V8.9209ZM70.1079 13.0288C70.1079 12.6334 69.9508 12.2542 69.6712 11.9746C69.3916 11.695 69.0124 11.5376 68.6169 11.5376C68.2215 11.5376 67.8422 11.695 67.5626 11.9746C67.283 12.2542 67.1259 12.6334 67.1259 13.0288V16.1587C67.1255 16.3548 67.1638 16.5492 67.2385 16.7305C67.3133 16.9118 67.423 17.0765 67.5615 17.2153C67.7 17.3542 67.8645 17.4643 68.0456 17.5396C68.2267 17.6148 68.4208 17.6537 68.6169 17.6538C68.8129 17.6535 69.0068 17.6148 69.1877 17.5396C69.3687 17.4643 69.533 17.3541 69.6713 17.2153C69.8097 17.0766 69.9194 16.9121 69.9941 16.731C70.0689 16.5498 70.1072 16.3556 70.1069 16.1597V13.0298L70.1079 13.0288Z" fill="#05073C"/>
<path d="M68.3838 36.1968V36.3838H67.8518V37.7671H67.6328V36.3848H67.0989V36.1968H68.3838ZM68.4949 36.1968H68.8368L69.3068 37.4849H69.3148L69.7698 36.1978H70.1058V37.7671H69.8818V36.48H69.8738L69.3978 37.7671H69.1908L68.7258 36.48H68.7158V37.7671H68.4968L68.4949 36.1968Z" fill="#05073C"/>
</svg>
