<svg width="122" height="25" viewBox="0 0 122 25" fill="none" xmlns="http://www.w3.org/2000/svg">
<g clip-path="url(#clip0_66_1018)">
<path fill-rule="evenodd" clip-rule="evenodd" d="M3.70089 2.56061C4.60915 1.77144 5.66465 1.16986 6.80651 0.790552C7.94838 0.411245 9.15404 0.261716 10.354 0.350586C11.5539 0.439457 12.7244 0.764967 13.7979 1.30835C14.8714 1.85174 15.8268 2.60225 16.6089 3.51661C18.2907 5.21735 19.273 7.48731 19.3615 9.87753C19.45 12.2677 18.6383 14.6041 17.0869 16.4246L9.91589 23.5956C8.48189 22.6396 6.09189 20.7276 7.04789 18.8146C8.95989 16.4246 11.3479 14.5146 13.2629 12.1216C14.6969 10.2096 13.7409 6.38461 10.8729 5.90661C10.2293 5.68165 9.53875 5.6257 8.86735 5.74411C8.19595 5.86253 7.56619 6.15134 7.0384 6.58289C6.51061 7.01443 6.10245 7.57427 5.85303 8.20876C5.6036 8.84326 5.52126 9.53117 5.61389 10.2066C5.61389 12.5966 7.52589 14.0306 8.95989 15.4656C7.52589 16.8996 5.61389 17.8556 5.61389 19.7656C4.17989 17.8536 1.78989 16.4196 0.832887 14.0286C-0.0411384 12.0718 -0.233568 9.87841 0.286386 7.79931C0.80634 5.72022 2.00863 3.87561 3.70089 2.56061Z" fill="#05073C"/>
<path fill-rule="evenodd" clip-rule="evenodd" d="M34.2968 2.5608C34.7748 1.1268 36.2088 1.6048 37.1648 1.6048V19.2878H34.2968V17.8578C33.1458 18.7858 31.7118 19.2919 30.2333 19.2919C28.7548 19.2919 27.3208 18.7858 26.1698 17.8578C24.8458 16.649 24.0528 14.9662 23.9633 13.1757C23.8738 11.3851 24.495 9.63165 25.6918 8.2968C26.768 7.12549 28.2318 6.38338 29.8127 6.20764C31.3936 6.03191 32.9846 6.43443 34.2918 7.3408L34.2968 2.5608ZM29.9968 8.7758C27.6068 9.2538 25.6968 12.5998 27.6068 14.9908C27.9639 15.5117 28.4518 15.9296 29.0214 16.2023C29.5911 16.4751 30.2225 16.5932 30.8522 16.5447C31.4819 16.4963 32.0878 16.2831 32.6091 15.9264C33.1303 15.5697 33.5485 15.0822 33.8218 14.5128C35.2528 12.1218 32.8618 8.7748 29.9938 8.7748L29.9968 8.7758Z" fill="#05073C"/>
<path fill-rule="evenodd" clip-rule="evenodd" d="M39.5549 6.38451H42.4229V7.34051C43.3789 5.90651 45.2909 5.90651 47.2039 6.38451C46.7259 7.34051 46.2479 7.81851 46.2479 8.77451C44.3359 8.29651 42.4239 9.25251 42.4239 10.6865V17.8575C41.9449 19.2965 40.5109 19.2965 39.5549 19.2965V6.38451Z" fill="#05073C"/>
<path fill-rule="evenodd" clip-rule="evenodd" d="M51.5058 6.38577C56.2868 4.47377 61.0668 9.25377 60.1058 14.0348C59.1448 18.8158 52.4568 21.2058 49.1058 17.8588C45.2818 14.5128 46.7158 7.34177 51.4958 6.38577H51.5058ZM52.9398 8.77577C52.137 8.98993 51.405 9.41204 50.8175 9.99951C50.23 10.587 49.8079 11.319 49.5938 12.1218C49.4957 12.6672 49.5227 13.2278 49.6729 13.7612C49.8231 14.2946 50.0925 14.787 50.4608 15.2011C50.829 15.6152 51.2866 15.9403 51.7988 16.1517C52.3111 16.3632 52.8646 16.4555 53.4178 16.4218C55.3298 16.4218 57.2418 14.9878 57.2418 13.0758C57.2418 10.6878 54.8528 8.29777 52.9418 8.77577H52.9398Z" fill="#05073C"/>
<path fill-rule="evenodd" clip-rule="evenodd" d="M62.0239 6.38447H64.8919V7.34047C66.1991 6.4341 67.7901 6.03158 69.371 6.20731C70.9519 6.38305 72.4158 7.12516 73.4919 8.29647C74.0829 8.91074 74.5416 9.63969 74.8398 10.4383C75.1379 11.2368 75.2691 12.0881 75.2252 12.9393C75.1813 13.7906 74.9633 14.6238 74.5847 15.3875C74.2061 16.1512 73.6749 16.8292 73.0239 17.3795C71.1119 19.7695 67.2869 19.7695 64.8969 18.3355V22.6355C64.4189 24.0695 62.9849 24.0695 62.0289 24.0695V6.38447H62.0239ZM68.2389 8.77447C65.3709 9.25247 63.9389 12.5985 65.3709 14.5115C66.8049 16.9015 70.6299 16.9015 71.5859 14.5115C73.4969 12.1205 71.1069 8.77447 68.2389 8.77447Z" fill="#05073C"/>
<path fill-rule="evenodd" clip-rule="evenodd" d="M80.1898 6.86351C81.3997 6.18503 82.795 5.9118 84.1715 6.08383C85.5479 6.25587 86.8331 6.86412 87.8388 7.81951C87.3608 8.29751 86.8828 9.25351 85.9268 9.73151C85.4812 9.3705 84.9577 9.11802 84.3978 8.994C83.8379 8.86997 83.2568 8.87781 82.7004 9.01688C82.1441 9.15595 81.6276 9.42244 81.1919 9.79533C80.7562 10.1682 80.4131 10.6373 80.1898 11.1655C79.982 11.7316 79.9076 12.3379 79.9722 12.9374C80.0369 13.537 80.2389 14.1135 80.5626 14.6222C80.8863 15.131 81.3229 15.5583 81.8386 15.8708C82.3542 16.1834 82.935 16.3729 83.5358 16.4245C84.4918 16.4245 85.4478 15.9465 86.4038 15.9465C87.2577 16.3225 87.9398 17.0046 88.3158 17.8585C84.9698 20.7265 79.2328 19.7705 77.7988 15.4685C75.8868 12.5995 77.3208 8.77351 80.1898 6.86351Z" fill="#05073C"/>
<path fill-rule="evenodd" clip-rule="evenodd" d="M88.3169 14.9897C86.8849 10.6877 90.2289 5.90674 94.5319 5.90674C96.253 5.98186 97.8982 6.63678 99.2 7.76509C100.502 8.89339 101.384 10.4288 101.703 12.1217V19.2927C100.269 19.2927 99.3129 19.2927 98.3569 18.3367C95.0109 20.7267 89.7569 18.8147 88.3179 14.9907L88.3169 14.9897ZM94.5319 8.77474C93.8735 8.8986 93.2544 9.17815 92.726 9.59005C92.1977 10.0019 91.7756 10.5342 91.4949 11.1425C91.2142 11.7508 91.0831 12.4174 91.1125 13.0866C91.1419 13.7559 91.331 14.4084 91.6639 14.9897C93.5759 17.3797 97.4009 16.9017 98.3569 14.5117C98.6017 13.8814 98.6912 13.2013 98.6178 12.529C98.5444 11.8568 98.3102 11.2121 97.935 10.6494C97.5599 10.0867 97.0548 9.62265 96.4625 9.29635C95.8701 8.97006 95.208 8.79115 94.5319 8.77474Z" fill="#05073C"/>
<path fill-rule="evenodd" clip-rule="evenodd" d="M103.615 6.38578H106.483V7.34178C107.917 5.42978 111.264 5.90778 113.176 7.81978C115.566 4.95178 120.347 5.90778 121.303 9.25378C121.781 12.1218 121.303 15.4688 121.303 18.3368C121.303 19.2928 119.869 19.2928 118.435 19.2928C118.435 16.4248 118.913 13.5558 118.435 10.6928C118.341 10.1909 118.075 9.73751 117.683 9.41124C117.29 9.08497 116.796 8.90636 116.285 8.90636C115.774 8.90636 115.28 9.08497 114.887 9.41124C114.495 9.73751 114.229 10.1909 114.135 10.6928V19.2928H111.267C111.346 16.2573 111.186 13.2202 110.789 10.2098C110.311 8.29778 106.965 8.77578 106.965 10.6878C106.568 13.5363 106.408 16.4128 106.487 19.2878H103.615V6.38578Z" fill="#05073C"/>
</g>
<defs>
<clipPath id="clip0_66_1018">
<rect width="121.516" height="23.743" fill="white" transform="translate(0 0.325684)"/>
</clipPath>
</defs>
</svg>
