<svg width="82" height="26" viewBox="0 0 82 26" fill="none" xmlns="http://www.w3.org/2000/svg">
<g clip-path="url(#clip0_66_1032)">
<path d="M0 17.8957V0.689684H3.022V17.8957H0ZM10.759 5.41368C9.9039 5.39442 9.05358 5.54645 8.25813 5.86084C7.46268 6.17522 6.73819 6.6456 6.12731 7.24427C5.51643 7.84294 5.03152 8.55779 4.70114 9.34673C4.37077 10.1357 4.2016 10.9827 4.2036 11.8381C4.2056 12.6934 4.37873 13.5397 4.7128 14.327C5.04687 15.1144 5.53512 15.827 6.14879 16.4228C6.76246 17.0186 7.48915 17.4856 8.28607 17.7962C9.08298 18.1069 9.93399 18.255 10.789 18.2317C11.6373 18.2401 12.4789 18.08 13.265 17.7608C14.051 17.4415 14.7658 16.9693 15.368 16.3717C15.9701 15.7741 16.4477 15.0629 16.7729 14.2793C17.0982 13.4957 17.2646 12.6554 17.2626 11.807C17.2606 10.9586 17.0903 10.1191 16.7614 9.33701C16.4325 8.55497 15.9516 7.84599 15.3466 7.2512C14.7417 6.6564 14.0246 6.18761 13.2371 5.87201C12.4496 5.55642 11.6073 5.40029 10.759 5.41268V5.41368ZM10.724 8.32568C11.5246 8.32315 12.3013 8.59816 12.9219 9.10388C13.5425 9.6096 13.9687 10.3148 14.1278 11.0994C14.287 11.884 14.1693 12.6995 13.7949 13.4071C13.4204 14.1146 12.8122 14.6706 12.074 14.9802C11.3357 15.2899 10.5129 15.3341 9.74574 15.1053C8.97855 14.8766 8.31434 14.389 7.86619 13.7256C7.41805 13.0622 7.21366 12.264 7.28784 11.4669C7.36201 10.6698 7.71015 9.923 8.273 9.35368C8.92249 8.70125 9.80341 8.33177 10.724 8.32568ZM24.888 5.41368C24.0329 5.39442 23.1826 5.54645 22.3871 5.86084C21.5917 6.17522 20.8672 6.6456 20.2563 7.24427C19.6454 7.84294 19.1605 8.55779 18.8301 9.34673C18.4998 10.1357 18.3306 10.9827 18.3326 11.8381C18.3346 12.6934 18.5077 13.5397 18.8418 14.327C19.1759 15.1144 19.6641 15.827 20.2778 16.4228C20.8915 17.0186 21.6182 17.4856 22.4151 17.7962C23.212 18.1069 24.063 18.255 24.918 18.2317C25.772 18.2525 26.6213 18.1007 27.4152 17.7854C28.2091 17.4701 28.9311 16.9977 29.5381 16.3967C30.145 15.7956 30.6244 15.0782 30.9474 14.2874C31.2704 13.4966 31.4305 12.6488 31.418 11.7947C31.5028 10.6163 31.1523 9.44785 30.433 8.51068L31.271 8.22368V5.77068H26.984C26.3085 5.5366 25.5989 5.41597 24.884 5.41368H24.888ZM24.853 8.32568C25.6535 8.32362 26.43 8.59901 27.0502 9.10499C27.6705 9.61097 28.0963 10.3163 28.2551 11.1009C28.4139 11.8854 28.2959 12.7008 27.9213 13.4082C27.5466 14.1156 26.9383 14.6712 26.2 14.9806C25.4618 15.29 24.6391 15.334 23.872 15.1051C23.1049 14.8762 22.4409 14.3886 21.9929 13.7252C21.5449 13.0618 21.3406 12.2637 21.4149 11.4667C21.4891 10.6696 21.8372 9.92294 22.4 9.35368C23.05 8.70076 23.9317 8.33124 24.853 8.32568ZM28.353 18.7337C28.353 19.6588 27.9855 20.5459 27.3314 21.2001C26.6773 21.8542 25.7901 22.2217 24.865 22.2217C23.9399 22.2217 23.0527 21.8542 22.3986 21.2001C21.7445 20.5459 21.377 19.6588 21.377 18.7337H18.31C18.2957 19.5958 18.4575 20.4517 18.7857 21.249C19.1138 22.0463 19.6014 22.7682 20.2184 23.3704C20.8354 23.9726 21.5689 24.4425 22.3739 24.7512C23.1789 25.0599 24.0385 25.2009 24.9 25.1657C25.7534 25.1875 26.6025 25.0366 27.3962 24.7222C28.1899 24.4078 28.9119 23.9363 29.519 23.336C30.126 22.7357 30.6055 22.019 30.9287 21.2288C31.252 20.4386 31.4123 19.5913 31.4 18.7377L28.353 18.7337ZM32.635 17.8927V5.77068H35.658V17.8957L32.635 17.8927ZM38.592 17.8927V8.48668H36.971V5.77068H38.592V2.04768H41.614V5.77068H43.279V8.48668H41.614V17.8957L38.592 17.8927ZM36.141 2.32568C36.141 2.72125 36.0237 3.10793 35.8039 3.43682C35.5842 3.76572 35.2718 4.02207 34.9064 4.17344C34.5409 4.32482 34.1388 4.36442 33.7508 4.28725C33.3629 4.21008 33.0065 4.0196 32.7268 3.7399C32.4471 3.46019 32.2566 3.10383 32.1794 2.71586C32.1023 2.3279 32.1419 1.92577 32.2932 1.56032C32.4446 1.19486 32.701 0.882507 33.0299 0.662744C33.3588 0.442982 33.7454 0.325684 34.141 0.325684C34.6714 0.325684 35.1801 0.536397 35.5552 0.91147C35.9303 1.28654 36.141 1.79525 36.141 2.32568ZM50.074 5.40568C49.2196 5.38835 48.3707 5.54567 47.5792 5.86799C46.7877 6.19032 46.0704 6.67086 45.4712 7.28017C44.872 7.88949 44.4035 8.61474 44.0945 9.41148C43.7855 10.2082 43.6424 11.0597 43.674 11.9137C43.639 12.7659 43.7834 13.616 44.0979 14.4089C44.4124 15.2017 44.89 15.9197 45.4997 16.5162C46.1094 17.1127 46.8376 17.5744 47.6371 17.8715C48.4367 18.1686 49.2897 18.2944 50.141 18.2407C51.1682 18.2732 52.1904 18.0846 53.1384 17.6878C54.0865 17.291 54.9382 16.6952 55.636 15.9407L53.616 13.9177C52.7097 14.8669 51.4877 15.4523 50.18 15.5637C49.4216 15.5935 48.6765 15.3584 48.0725 14.8988C47.4685 14.4391 47.0434 13.7836 46.87 13.0447H56.288V12.2127C56.288 8.89168 54.366 5.40668 50.079 5.40668L50.074 5.40568ZM49.974 8.06668C50.7164 8.02399 51.4483 8.25859 52.0276 8.72496C52.6068 9.19133 52.9922 9.85623 53.109 10.5907H46.779C46.9276 9.85942 47.3307 9.20453 47.9166 8.7424C48.5025 8.28028 49.2332 8.04085 49.979 8.06668H49.974ZM63.843 18.2417C62.9999 18.2425 62.1649 18.0773 61.3857 17.7555C60.6064 17.4336 59.8982 16.9615 59.3015 16.3659C58.0963 15.1631 57.4182 13.5309 57.4165 11.8282C57.4148 10.1255 58.0895 8.49186 59.2923 7.28665C60.495 6.08145 62.1273 5.40341 63.83 5.40168C64.8199 5.39428 65.799 5.60807 66.6957 6.02744C67.5924 6.44682 68.3841 7.06119 69.013 7.82568L66.9 9.92568C66.5225 9.46333 66.0531 9.08436 65.5215 8.81274C64.99 8.54112 64.4079 8.38276 63.812 8.34768C63.3531 8.33626 62.8965 8.4179 62.47 8.58768C62.0434 8.75746 61.6557 9.01186 61.3301 9.33556C61.0046 9.65925 60.7479 10.0455 60.5757 10.4711C60.4035 10.8966 60.3192 11.3527 60.328 11.8117C60.3164 12.2717 60.3976 12.7294 60.5667 13.1574C60.7358 13.5855 60.9894 13.975 61.3123 14.303C61.6351 14.6309 62.0208 14.8904 62.4461 15.0662C62.8714 15.2419 63.3278 15.3301 63.788 15.3257C64.3883 15.2945 64.9755 15.1378 65.5115 14.8656C66.0475 14.5935 66.5205 14.2119 66.9 13.7457L69.03 15.8457C68.3993 16.6077 67.606 17.2188 66.7082 17.6341C65.8104 18.0494 64.8311 18.2584 63.842 18.2457L63.843 18.2417ZM70.131 17.9047V0.645684H73.153V6.98668C73.6076 6.46404 74.174 6.05031 74.8101 5.77613C75.4462 5.50194 76.1359 5.37431 76.828 5.40268C79.993 5.40268 81.828 7.75568 81.828 10.7647V17.9047H78.8V11.2257C78.8454 10.8569 78.8097 10.4827 78.6955 10.1292C78.5812 9.77563 78.3911 9.45132 78.1384 9.17893C77.8857 8.90653 77.5766 8.69262 77.2326 8.55215C76.8886 8.41168 76.5181 8.34804 76.147 8.36568C75.7434 8.33359 75.3377 8.38975 74.958 8.53027C74.5783 8.67078 74.2337 8.89228 73.9482 9.17937C73.6628 9.46646 73.4432 9.81226 73.3049 10.1927C73.1665 10.5732 73.1126 10.9793 73.147 11.3827V17.9097H70.131V17.9047Z" fill="#05073C"/>
</g>
<defs>
<clipPath id="clip0_66_1032">
<rect width="81.828" height="24.845" fill="white" transform="translate(0 0.325684)"/>
</clipPath>
</defs>
</svg>
