<svg width="99" height="30" viewBox="0 0 99 30" fill="none" xmlns="http://www.w3.org/2000/svg">
<g clip-path="url(#clip0_66_1034)">
<path d="M14.756 0.325684C11.8376 0.325881 8.98474 1.19147 6.55826 2.813C4.13178 4.43453 2.24062 6.73918 1.12393 9.4355C0.00723636 12.1318 -0.284839 15.0987 0.284638 17.961C0.854114 20.8234 2.25957 23.4525 4.32327 25.5161C6.38697 27.5797 9.01624 28.9849 11.8786 29.5542C14.741 30.1235 17.7078 29.8312 20.4041 28.7144C23.1003 27.5975 25.4049 25.7062 27.0262 23.2796C28.6476 20.853 29.513 18.0001 29.513 15.0817C29.513 13.1438 29.1313 11.2249 28.3897 9.43458C27.648 7.64423 26.561 6.0175 25.1907 4.64726C23.8204 3.27703 22.1936 2.19013 20.4032 1.44863C18.6128 0.707131 16.6939 0.325552 14.756 0.325684ZM21.523 21.6077C21.4596 21.7105 21.3767 21.7998 21.2788 21.8705C21.181 21.9412 21.0701 21.9919 20.9526 22.0198C20.8352 22.0477 20.7134 22.0521 20.5942 22.0329C20.475 22.0136 20.3607 21.9711 20.258 21.9077C16.793 19.7917 12.432 19.3077 7.29498 20.4857C7.05708 20.5399 6.80738 20.4974 6.60081 20.3676C6.39424 20.2377 6.24772 20.0311 6.19348 19.7932C6.13925 19.5553 6.18174 19.3056 6.3116 19.099C6.44147 18.8924 6.64808 18.7459 6.88598 18.6917C12.507 17.4077 17.329 17.9607 21.218 20.3377C21.3218 20.4007 21.412 20.4837 21.4836 20.5817C21.5552 20.6798 21.6066 20.7911 21.635 20.9092C21.6633 21.0272 21.668 21.1497 21.6488 21.2696C21.6296 21.3895 21.5868 21.5044 21.523 21.6077ZM23.329 17.5897C23.1695 17.8497 22.9133 18.0359 22.6166 18.1071C22.32 18.1784 22.0072 18.1289 21.747 17.9697C17.268 15.4726 11.9816 14.8537 7.04698 16.2487C6.75525 16.3379 6.44 16.3076 6.17061 16.1644C5.90121 16.0213 5.69973 15.7769 5.61048 15.4852C5.52124 15.1934 5.55154 14.8782 5.69472 14.6088C5.83791 14.3394 6.08224 14.1379 6.37398 14.0487C9.12784 13.2559 12.0123 13.0209 14.8581 13.3574C17.704 13.694 20.454 14.5954 22.947 16.0087C23.0758 16.0876 23.1877 16.1912 23.2765 16.3135C23.3653 16.4357 23.429 16.5742 23.4642 16.7212C23.4994 16.8681 23.5053 17.0205 23.4816 17.1697C23.4579 17.3189 23.405 17.4619 23.326 17.5907L23.329 17.5897ZM23.484 13.4057C18.728 10.5807 10.884 10.3207 6.34098 11.6997C6.16648 11.7562 5.98246 11.7773 5.7997 11.7618C5.61693 11.7464 5.43908 11.6946 5.27655 11.6096C5.11401 11.5246 4.97005 11.4081 4.85308 11.2668C4.7361 11.1255 4.64847 10.9624 4.59529 10.7868C4.54212 10.6113 4.52447 10.4269 4.54339 10.2445C4.5623 10.062 4.61739 9.88517 4.70544 9.72427C4.79349 9.56337 4.91273 9.42163 5.0562 9.30735C5.19966 9.19307 5.36447 9.10853 5.54098 9.05868C10.753 7.47668 19.418 7.78168 24.894 11.0327C25.0499 11.1251 25.186 11.2474 25.2946 11.3924C25.4033 11.5375 25.4823 11.7026 25.5271 11.8782C25.572 12.0537 25.5818 12.2365 25.556 12.4158C25.5303 12.5952 25.4694 12.7678 25.377 12.9237C25.2845 13.0796 25.1623 13.2157 25.0172 13.3243C24.8722 13.433 24.7071 13.512 24.5315 13.5568C24.3559 13.6017 24.1732 13.6115 23.9938 13.5857C23.8144 13.56 23.6419 13.4991 23.486 13.4067L23.484 13.4057ZM40.147 13.9487C37.599 13.3407 37.147 12.9147 37.147 12.0187C37.147 11.1717 37.947 10.6027 39.129 10.6027C40.4037 10.6482 41.6277 11.1133 42.611 11.9257C42.6289 11.9389 42.6492 11.9484 42.6708 11.9537C42.6923 11.9589 42.7148 11.9599 42.7367 11.9564C42.7587 11.953 42.7797 11.9452 42.7986 11.9336C42.8176 11.922 42.834 11.9067 42.847 11.8887L44.091 10.1347C44.1156 10.0999 44.126 10.057 44.1201 10.0148C44.1141 9.97262 44.0923 9.93429 44.059 9.90768C42.6804 8.78006 40.9467 8.17771 39.166 8.20768C36.415 8.20768 34.493 9.85868 34.493 12.2207C34.493 14.7537 36.151 15.6507 39.016 16.3427C41.453 16.9047 41.865 17.3747 41.865 18.2157C41.865 19.1477 41.033 19.7277 39.694 19.7277C38.1752 19.716 36.7203 19.1151 35.636 18.0517C35.6021 18.0228 35.5584 18.0082 35.514 18.0107C35.4919 18.0121 35.4703 18.018 35.4506 18.028C35.4308 18.038 35.4133 18.0518 35.399 18.0687L33.999 19.7287C33.9709 19.762 33.9569 19.8049 33.9599 19.8484C33.9629 19.8919 33.9826 19.9325 34.015 19.9617C35.5533 21.3554 37.5572 22.1234 39.633 22.1147C42.597 22.1147 44.512 20.4957 44.512 17.9877C44.517 15.8717 43.25 14.6997 40.147 13.9457H40.142L40.147 13.9487ZM51.223 11.4357C50.6053 11.4276 49.9941 11.5627 49.4373 11.8304C48.8806 12.0981 48.3934 12.4912 48.014 12.9787V11.8107C48.0141 11.7888 48.0099 11.7671 48.0016 11.7469C47.9934 11.7266 47.9811 11.7082 47.9657 11.6927C47.9503 11.6771 47.9319 11.6648 47.9117 11.6564C47.8915 11.648 47.8699 11.6437 47.848 11.6437H45.567C45.5451 11.6437 45.5234 11.648 45.5032 11.6564C45.483 11.6648 45.4647 11.6771 45.4492 11.6927C45.4338 11.7082 45.4216 11.7266 45.4133 11.7469C45.405 11.7671 45.4008 11.7888 45.401 11.8107V24.7797C45.401 24.8238 45.4184 24.8661 45.4495 24.8974C45.4806 24.9287 45.5229 24.9464 45.567 24.9467H47.847C47.8911 24.9464 47.9333 24.9287 47.9644 24.8974C47.9955 24.8661 48.013 24.8238 48.013 24.7797V20.6867C48.4064 21.1519 48.8985 21.5237 49.4536 21.7748C50.0087 22.026 50.6128 22.1503 51.222 22.1387C53.61 22.1387 56.027 20.3007 56.027 16.7877C56.027 13.2747 53.613 11.4347 51.227 11.4347L51.223 11.4357ZM53.375 16.7877C53.4149 17.1664 53.3758 17.5494 53.26 17.9122C53.1442 18.275 52.9544 18.6099 52.7024 18.8955C52.4505 19.1811 52.1419 19.4112 51.7964 19.5714C51.4508 19.7315 51.0758 19.8181 50.695 19.8257C50.3133 19.8135 49.938 19.7243 49.5916 19.5634C49.2453 19.4026 48.9349 19.1734 48.6793 18.8897C48.4237 18.606 48.2281 18.2735 48.1041 17.9123C47.9801 17.5511 47.9304 17.1686 47.958 16.7877C47.9303 16.4067 47.9799 16.0241 48.1038 15.6627C48.2277 15.3014 48.4233 14.9688 48.6789 14.685C48.9346 14.4012 49.2449 14.1719 49.5914 14.011C49.9378 13.8501 50.3132 13.7609 50.695 13.7487C51.0742 13.7607 51.447 13.8502 51.7904 14.0117C52.1337 14.1733 52.4404 14.4034 52.6915 14.6879C52.9425 14.9724 53.1327 15.3053 53.2503 15.6661C53.3678 16.0268 53.4102 16.4079 53.375 16.7857V16.7877ZM62.222 11.4357C61.1653 11.4556 60.1381 11.7872 59.2694 12.389C58.4006 12.9907 57.7289 13.8358 57.3388 14.8179C56.9487 15.8001 56.8574 16.8757 57.0765 17.9095C57.2956 18.9434 57.8153 19.8895 58.5702 20.629C59.3252 21.3685 60.2819 21.8685 61.3201 22.0661C62.3583 22.2638 63.4317 22.1502 64.4056 21.7399C65.3795 21.3295 66.2104 20.6405 66.794 19.7594C67.3777 18.8784 67.688 17.8445 67.686 16.7877C67.6824 16.0764 67.5378 15.3729 67.2605 14.7179C66.9832 14.0629 66.5788 13.4693 66.0707 12.9716C65.5626 12.4739 64.9608 12.0819 64.3001 11.8182C63.6395 11.5546 62.9332 11.4246 62.222 11.4357ZM62.222 19.8437C61.8303 19.8401 61.4434 19.7571 61.0846 19.5999C60.7258 19.4426 60.4026 19.2143 60.1345 18.9287C59.8664 18.6431 59.6589 18.3062 59.5246 17.9382C59.3903 17.5702 59.3319 17.1788 59.353 16.7877C59.3276 16.4004 59.3821 16.0121 59.513 15.6467C59.6439 15.2814 59.8485 14.9468 60.114 14.6638C60.3795 14.3807 60.7003 14.1552 61.0566 14.0013C61.4128 13.8473 61.7969 13.7681 62.185 13.7687C62.5778 13.7714 62.966 13.8537 63.3262 14.0104C63.6863 14.1672 64.0111 14.3953 64.2807 14.681C64.5504 14.9666 64.7594 15.3039 64.8952 15.6725C65.0311 16.0411 65.0908 16.4334 65.071 16.8257C65.0954 17.2141 65.0397 17.6034 64.9074 17.9694C64.775 18.3354 64.5689 18.6702 64.3017 18.9532C64.0346 19.2362 63.7121 19.4613 63.3544 19.6145C62.9966 19.7677 62.6112 19.8457 62.222 19.8437ZM74.252 11.6437H71.741V9.07668C71.7411 9.0548 71.7369 9.03311 71.7286 9.01285C71.7204 8.99259 71.7081 8.97418 71.6927 8.95866C71.6773 8.94314 71.6589 8.93082 71.6387 8.92241C71.6185 8.91401 71.5969 8.90968 71.575 8.90968H69.294C69.2498 8.90995 69.2075 8.92762 69.1762 8.95889C69.1449 8.99015 69.1272 9.03247 69.127 9.07668V11.6437H68.027C68.0051 11.6437 67.9834 11.648 67.9632 11.6564C67.943 11.6648 67.9247 11.6771 67.9092 11.6927C67.8938 11.7082 67.8816 11.7266 67.8733 11.7469C67.8651 11.7671 67.8609 11.7888 67.861 11.8107V13.7717C67.861 13.8158 67.8784 13.8581 67.9095 13.8894C67.9407 13.9207 67.9829 13.9384 68.027 13.9387H69.127V19.0127C69.127 21.0617 70.147 22.1017 72.161 22.1017C72.9079 22.1196 73.6457 21.9358 74.297 21.5697C74.3228 21.5556 74.3444 21.5348 74.3594 21.5094C74.3743 21.4841 74.3821 21.4551 74.382 21.4257V19.5567C74.3819 19.5284 74.3746 19.5006 74.3608 19.4759C74.347 19.4512 74.3271 19.4305 74.303 19.4157C74.279 19.4004 74.2514 19.3917 74.2229 19.3905C74.1945 19.3892 74.1662 19.3955 74.141 19.4087C73.7273 19.6227 73.2678 19.7332 72.802 19.7307C72.071 19.7307 71.743 19.3977 71.743 18.6537V13.9397H74.254C74.2759 13.9397 74.2975 13.9354 74.3177 13.927C74.3379 13.9185 74.3563 13.9062 74.3717 13.8907C74.3871 13.8752 74.3994 13.8568 74.4076 13.8365C74.4159 13.8163 74.4201 13.7946 74.42 13.7727V11.8127C74.4207 11.7908 74.4169 11.7691 74.4089 11.7487C74.401 11.7283 74.389 11.7098 74.3736 11.6942C74.3583 11.6786 74.34 11.6662 74.3198 11.6579C74.2996 11.6496 74.2779 11.6454 74.256 11.6457L74.252 11.6437ZM82.999 11.6537V11.3387C82.999 10.4117 83.355 9.99768 84.151 9.99768C84.59 10.0029 85.0249 10.083 85.437 10.2347C85.4621 10.2431 85.4889 10.2455 85.515 10.2415C85.5412 10.2375 85.5661 10.2273 85.5875 10.2117C85.609 10.1961 85.6264 10.1757 85.6383 10.152C85.6502 10.1283 85.6562 10.1022 85.656 10.0757V8.14868C85.6564 8.11281 85.6451 8.07779 85.6238 8.04892C85.6025 8.02005 85.5724 7.9989 85.538 7.98868C84.9224 7.80073 84.2815 7.70898 83.638 7.71668C81.532 7.71668 80.417 8.90368 80.417 11.1467V11.6297H79.317C79.2728 11.6299 79.2305 11.6476 79.1992 11.6789C79.1679 11.7101 79.1502 11.7525 79.15 11.7967V13.7677C79.1502 13.8119 79.1679 13.8542 79.1992 13.8855C79.2305 13.9167 79.2728 13.9344 79.317 13.9347H80.417V21.7597C80.417 21.804 80.4346 21.8465 80.4659 21.8778C80.4972 21.9091 80.5397 21.9267 80.584 21.9267H82.864C82.8859 21.9268 82.9077 21.9226 82.9281 21.9142C82.9484 21.9059 82.9668 21.8936 82.9824 21.8781C82.9979 21.8625 83.0102 21.8441 83.0185 21.8237C83.0269 21.8034 83.0311 21.7817 83.031 21.7597V13.9397H85.161L88.424 21.7637C88.054 22.5847 87.689 22.7487 87.192 22.7487C86.7491 22.7377 86.3163 22.6145 85.934 22.3907C85.8931 22.3702 85.8459 22.3659 85.802 22.3787C85.78 22.3859 85.7597 22.3976 85.7425 22.4131C85.7252 22.4286 85.7114 22.4475 85.702 22.4687L84.928 24.1687C84.9101 24.2072 84.9077 24.2511 84.921 24.2914C84.9344 24.3317 84.9626 24.3655 85 24.3857C85.7418 24.8063 86.5823 25.0217 87.435 25.0097C89.12 25.0097 90.052 24.2237 90.871 22.1097L94.837 11.8817C94.8468 11.8566 94.8505 11.8294 94.8475 11.8026C94.8446 11.7757 94.8352 11.75 94.8202 11.7276C94.8052 11.7052 94.7849 11.6868 94.7612 11.6739C94.7375 11.661 94.711 11.6541 94.684 11.6537H92.308C92.2731 11.6534 92.239 11.6641 92.2105 11.6841C92.182 11.7042 92.1605 11.7327 92.149 11.7657L89.716 18.7147L87.047 11.7617C87.035 11.7302 87.0138 11.7032 86.9861 11.6841C86.9585 11.665 86.9256 11.6547 86.892 11.6547H82.992L82.999 11.6537ZM77.928 11.6437H75.647C75.6028 11.6439 75.5605 11.6616 75.5292 11.6929C75.4979 11.7241 75.4802 11.7665 75.48 11.8107V21.7627C75.48 21.7846 75.4843 21.8063 75.4927 21.8266C75.5011 21.8469 75.5134 21.8653 75.5289 21.8808C75.5444 21.8963 75.5628 21.9086 75.5831 21.917C75.6033 21.9254 75.6251 21.9297 75.647 21.9297H77.929C77.9509 21.9297 77.9726 21.9254 77.9929 21.917C78.0132 21.9086 78.0316 21.8963 78.0471 21.8808C78.0626 21.8653 78.0749 21.8469 78.0833 21.8266C78.0917 21.8063 78.096 21.7846 78.096 21.7627V11.8117C78.096 11.7674 78.0784 11.7249 78.0471 11.6936C78.0158 11.6623 77.9733 11.6447 77.929 11.6447L77.928 11.6437ZM76.8 7.11168C76.4764 7.11149 76.1601 7.20724 75.8909 7.38684C75.6218 7.56645 75.4119 7.82183 75.2879 8.12069C75.1639 8.41955 75.1313 8.74848 75.1942 9.06587C75.2572 9.38326 75.4128 9.67486 75.6415 9.9038C75.8701 10.1327 76.1615 10.2887 76.4788 10.3521C76.7962 10.4154 77.1251 10.3832 77.4241 10.2595C77.7232 10.1359 77.9788 9.92636 78.1587 9.65743C78.3386 9.3885 78.4348 9.07225 78.435 8.74868C78.4351 8.53384 78.3929 8.32108 78.3108 8.12254C78.2287 7.924 78.1083 7.74357 77.9565 7.59156C77.8047 7.43955 77.6244 7.31894 77.426 7.2366C77.2275 7.15426 77.0148 7.11181 76.8 7.11168ZM96.786 14.8487C96.4679 14.8479 96.1573 14.7529 95.8931 14.5758C95.629 14.3986 95.4233 14.1472 95.3019 13.8532C95.1805 13.5592 95.1489 13.2359 95.2111 12.924C95.2732 12.6121 95.4264 12.3256 95.6512 12.1006C95.876 11.8756 96.1624 11.7223 96.4743 11.6599C96.7862 11.5976 97.1095 11.629 97.4036 11.7502C97.6976 11.8714 97.9492 12.077 98.1265 12.341C98.3038 12.605 98.399 12.9156 98.4 13.2337C98.402 13.4462 98.3616 13.6571 98.2812 13.8538C98.2008 14.0506 98.082 14.2294 97.9318 14.3798C97.7815 14.5301 97.6028 14.649 97.4061 14.7295C97.2093 14.81 96.9985 14.8506 96.786 14.8487ZM96.795 11.7887C96.5074 11.7859 96.2255 11.8687 95.9851 12.0266C95.7447 12.1844 95.5567 12.4102 95.4449 12.6752C95.3332 12.9402 95.3028 13.2324 95.3575 13.5147C95.4123 13.7971 95.5498 14.0567 95.7525 14.2607C95.9552 14.4647 96.214 14.6038 96.496 14.6603C96.778 14.7169 97.0704 14.6883 97.3361 14.5782C97.6018 14.4681 97.8287 14.2815 97.9881 14.0421C98.1474 13.8027 98.232 13.5213 98.231 13.2337C98.2322 13.0443 98.1959 12.8566 98.1243 12.6814C98.0526 12.5061 97.947 12.3468 97.8136 12.2125C97.6801 12.0782 97.5214 11.9716 97.3466 11.8988C97.1718 11.8261 96.9843 11.7887 96.795 11.7887ZM97.151 13.3987L97.606 14.0347H97.222L96.813 13.4517H96.462V14.0347H96.141V12.3487H96.892C97.285 12.3487 97.542 12.5487 97.542 12.8867C97.5477 13.0041 97.5118 13.1199 97.4407 13.2135C97.3696 13.3071 97.2677 13.3727 97.153 13.3987H97.151ZM96.88 12.6387H96.462V13.1717H96.88C97.088 13.1717 97.213 13.0717 97.213 12.9047C97.213 12.7377 97.087 12.6337 96.879 12.6337L96.88 12.6387Z" fill="#05073C"/>
</g>
<defs>
<clipPath id="clip0_66_1034">
<rect width="98.4" height="29.512" fill="white" transform="translate(0 0.325684)"/>
</clipPath>
</defs>
</svg>
