<svg width="167" height="32" viewBox="0 0 167 32" fill="none" xmlns="http://www.w3.org/2000/svg">
<path d="M55.4644 27.0478L50.0044 12.1678H54.0244L57.8044 23.4178L61.5844 12.1678H65.6044L60.1144 27.0478H55.4644Z" fill="#EB662B"/>
<path d="M70.0964 9.85775C69.3964 9.85775 68.8164 9.64775 68.3564 9.22775C67.9164 8.80775 67.6964 8.27775 67.6964 7.63775C67.6964 6.99775 67.9164 6.47775 68.3564 6.07775C68.8164 5.65775 69.3964 5.44775 70.0964 5.44775C70.7964 5.44775 71.3664 5.65775 71.8064 6.07775C72.2664 6.47775 72.4964 6.99775 72.4964 7.63775C72.4964 8.27775 72.2664 8.80775 71.8064 9.22775C71.3664 9.64775 70.7964 9.85775 70.0964 9.85775ZM68.1764 27.0478V12.1678H72.0164V27.0478H68.1764Z" fill="#EB662B"/>
<path d="M81.1545 27.4078C79.8745 27.4078 78.8245 27.2078 78.0045 26.8078C77.1845 26.3878 76.5745 25.8378 76.1745 25.1578C75.7745 24.4778 75.5745 23.7278 75.5745 22.9078C75.5745 21.5278 76.1145 20.4078 77.1945 19.5478C78.2745 18.6878 79.8945 18.2578 82.0545 18.2578H85.8345V17.8978C85.8345 16.8778 85.5445 16.1278 84.9645 15.6478C84.3845 15.1678 83.6645 14.9278 82.8045 14.9278C82.0245 14.9278 81.3445 15.1178 80.7645 15.4978C80.1845 15.8578 79.8245 16.3978 79.6845 17.1178H75.9345C76.0345 16.0378 76.3945 15.0978 77.0145 14.2978C77.6545 13.4978 78.4745 12.8878 79.4745 12.4678C80.4745 12.0278 81.5945 11.8078 82.8345 11.8078C84.9545 11.8078 86.6245 12.3378 87.8445 13.3978C89.0645 14.4578 89.6745 15.9578 89.6745 17.8978V27.0478H86.4045L86.0445 24.6478C85.6045 25.4478 84.9845 26.1078 84.1845 26.6278C83.4045 27.1478 82.3945 27.4078 81.1545 27.4078ZM82.0245 24.4078C83.1245 24.4078 83.9745 24.0478 84.5745 23.3278C85.1945 22.6078 85.5845 21.7178 85.7445 20.6578H82.4745C81.4545 20.6578 80.7245 20.8478 80.2845 21.2278C79.8445 21.5878 79.6245 22.0378 79.6245 22.5778C79.6245 23.1578 79.8445 23.6078 80.2845 23.9278C80.7245 24.2478 81.3045 24.4078 82.0245 24.4078Z" fill="#EB662B"/>
<path d="M99.7639 27.0478C98.2038 27.0478 96.9538 26.6678 96.0139 25.9078C95.0739 25.1478 94.6039 23.7978 94.6039 21.8578V15.3778H92.0538V12.1678H94.6039L95.0538 8.17775H98.4439V12.1678H102.464V15.3778H98.4439V21.8878C98.4439 22.6078 98.5938 23.1078 98.8938 23.3878C99.2138 23.6478 99.7538 23.7778 100.514 23.7778H102.374V27.0478H99.7639Z" fill="#EB662B"/>
<path d="M112.52 27.4078C111.08 27.4078 109.78 27.0778 108.62 26.4178C107.48 25.7578 106.57 24.8478 105.89 23.6878C105.23 22.5078 104.9 21.1478 104.9 19.6078C104.9 18.0678 105.24 16.7178 105.92 15.5578C106.6 14.3778 107.51 13.4578 108.65 12.7978C109.81 12.1378 111.11 11.8078 112.55 11.8078C113.97 11.8078 115.25 12.1378 116.39 12.7978C117.55 13.4578 118.46 14.3778 119.12 15.5578C119.8 16.7178 120.14 18.0678 120.14 19.6078C120.14 21.1478 119.8 22.5078 119.12 23.6878C118.46 24.8478 117.55 25.7578 116.39 26.4178C115.23 27.0778 113.94 27.4078 112.52 27.4078ZM112.52 24.0778C113.52 24.0778 114.39 23.7078 115.13 22.9678C115.87 22.2078 116.24 21.0878 116.24 19.6078C116.24 18.1278 115.87 17.0178 115.13 16.2778C114.39 15.5178 113.53 15.1378 112.55 15.1378C111.53 15.1378 110.65 15.5178 109.91 16.2778C109.19 17.0178 108.83 18.1278 108.83 19.6078C108.83 21.0878 109.19 22.2078 109.91 22.9678C110.65 23.7078 111.52 24.0778 112.52 24.0778Z" fill="#EB662B"/>
<path d="M129.153 27.4078C127.293 27.4078 125.853 26.8278 124.833 25.6678C123.833 24.5078 123.333 22.8078 123.333 20.5678V12.1678H127.143V20.2078C127.143 21.4878 127.403 22.4678 127.923 23.1478C128.443 23.8278 129.263 24.1678 130.383 24.1678C131.443 24.1678 132.313 23.7878 132.993 23.0278C133.693 22.2678 134.043 21.2078 134.043 19.8478V12.1678H137.883V27.0478H134.493L134.193 24.5278C133.733 25.4078 133.063 26.1078 132.183 26.6278C131.323 27.1478 130.313 27.4078 129.153 27.4078Z" fill="#EB662B"/>
<path d="M141.825 27.0478V12.1678H145.245L145.605 14.9578C146.145 13.9978 146.875 13.2378 147.795 12.6778C148.735 12.0978 149.835 11.8078 151.095 11.8078V15.8578H150.015C149.175 15.8578 148.425 15.9878 147.765 16.2478C147.105 16.5078 146.585 16.9578 146.205 17.5978C145.845 18.2378 145.665 19.1278 145.665 20.2678V27.0478H141.825Z" fill="#EB662B"/>
<path d="M159.87 27.4078C158.55 27.4078 157.39 27.1978 156.39 26.7778C155.39 26.3378 154.59 25.7378 153.99 24.9778C153.39 24.2178 153.03 23.3378 152.91 22.3378H156.78C156.9 22.9178 157.22 23.4178 157.74 23.8378C158.28 24.2378 158.97 24.4378 159.81 24.4378C160.65 24.4378 161.26 24.2678 161.64 23.9278C162.04 23.5878 162.24 23.1978 162.24 22.7578C162.24 22.1178 161.96 21.6878 161.4 21.4678C160.84 21.2278 160.06 20.9978 159.06 20.7778C158.42 20.6378 157.77 20.4678 157.11 20.2678C156.45 20.0678 155.84 19.8178 155.28 19.5178C154.74 19.1978 154.3 18.7978 153.96 18.3178C153.62 17.8178 153.45 17.2078 153.45 16.4878C153.45 15.1678 153.97 14.0578 155.01 13.1578C156.07 12.2578 157.55 11.8078 159.45 11.8078C161.21 11.8078 162.61 12.2178 163.65 13.0378C164.71 13.8578 165.34 14.9878 165.54 16.4278H161.91C161.69 15.3278 160.86 14.7778 159.42 14.7778C158.7 14.7778 158.14 14.9178 157.74 15.1978C157.36 15.4778 157.17 15.8278 157.17 16.2478C157.17 16.6878 157.46 17.0378 158.04 17.2978C158.62 17.5578 159.39 17.7978 160.35 18.0178C161.39 18.2578 162.34 18.5278 163.2 18.8278C164.08 19.1078 164.78 19.5378 165.3 20.1178C165.82 20.6778 166.08 21.4878 166.08 22.5478C166.1 23.4678 165.86 24.2978 165.36 25.0378C164.86 25.7778 164.14 26.3578 163.2 26.7778C162.26 27.1978 161.15 27.4078 159.87 27.4078Z" fill="#EB662B"/>
<path d="M39.9246 6.90198C38.6506 6.97877 37.3919 7.21981 36.1796 7.61911C34.9471 7.96503 33.7473 8.41829 32.594 8.97369C31.4296 9.4727 30.3322 10.1151 29.327 10.886C28.3008 11.5949 27.3408 12.3949 26.4585 13.2765C25.5696 14.2024 24.7443 15.1873 23.9884 16.2247C23.2751 17.2675 22.6361 18.3591 22.076 19.4916C21.5552 20.6595 21.1029 21.8568 20.7215 23.0773C20.4058 24.3097 20.1663 25.5604 20.0043 26.8223C19.9199 25.5492 19.6791 24.2914 19.2872 23.0773C18.9413 21.8448 18.488 20.645 17.9326 19.4916C17.4336 18.3273 16.7912 17.2298 16.0203 16.2247C15.2919 15.1884 14.4932 14.2033 13.6298 13.2765C12.703 12.4131 11.7179 11.6144 10.6816 10.886C9.67647 10.1151 8.579 9.4727 7.41468 8.97369C6.27257 8.39246 5.07016 7.93822 3.82902 7.61911C2.61677 7.21981 1.35801 6.97877 0.0840036 6.90198C0.0840036 7.61911 0.0043223 8.33624 0.0043223 9.05337C-0.0264515 10.5245 0.107179 11.9944 0.402729 13.4358C0.551182 14.1622 0.737357 14.8803 0.960498 15.5872C1.12782 16.3006 1.36813 16.9948 1.67763 17.659C1.93625 18.3372 2.22878 19.0021 2.55412 19.651L3.66966 21.5633L5.02424 23.3163L6.45851 24.9099L8.05213 26.4239L9.80512 27.6988C10.4426 28.1769 11.08 28.4956 11.7175 28.894L13.7095 29.8502L15.7015 30.5673L17.8529 31.1251L20.0043 31.4438L22.1557 31.1251L24.3071 30.5673L26.3788 29.8502L28.3709 28.894L30.2035 27.6988L31.9565 26.4239C32.5257 25.9608 33.0584 25.4546 33.5501 24.9099C34.0948 24.4182 34.6009 23.8855 35.0641 23.3163L36.339 21.5633C36.7374 20.9259 37.1358 20.2884 37.4545 19.651L38.4107 17.659L39.1278 15.5872C39.3251 14.8791 39.4847 14.1609 39.6059 13.4358C39.7511 12.725 39.8575 12.0068 39.9246 11.2844C40.0321 10.5459 40.0588 9.79775 40.0043 9.05337C40.0175 8.33532 39.9909 7.61709 39.9246 6.90198Z" fill="url(#paint0_linear_4_38)"/>
<path d="M25.0244 5.54736C25.0405 5.8946 25.0138 6.24252 24.9447 6.58321C24.875 6.93869 24.7681 7.28588 24.626 7.61907L24.1479 8.49556L23.5104 9.29237L22.7136 9.92982L21.7574 10.4079L20.8013 10.7266H18.7295L17.6937 10.4079L16.8172 9.92982L16.0204 9.29237L15.3033 8.49556L14.8252 7.61907L14.5064 6.58321C14.5064 6.26449 14.4268 5.94576 14.4268 5.54736C14.4268 5.14895 14.5064 4.90991 14.5064 4.59118C14.5064 4.27246 14.7455 3.87405 14.8252 3.55532L15.3033 2.67883L16.0204 1.88202C16.249 1.62708 16.5183 1.41169 16.8172 1.24457L17.6937 0.766479L18.7295 0.447754H20.8013L21.7574 0.766479L22.7136 1.24457L23.5104 1.88202L24.1479 2.67883L24.626 3.55532C24.7789 3.88448 24.8861 4.23299 24.9447 4.59118C25.0105 4.90542 25.0372 5.22657 25.0244 5.54736Z" fill="#EB662B"/>
<defs>
<linearGradient id="paint0_linear_4_38" x1="6.50516" y1="10.5831" x2="23.3076" y2="35.6689" gradientUnits="userSpaceOnUse">
<stop stop-color="#EB662B"/>
<stop offset="1" stop-color="#F28555"/>
</linearGradient>
</defs>
</svg>
