<svg width="167" height="32" viewBox="0 0 167 32" fill="none" xmlns="http://www.w3.org/2000/svg">
<path d="M55.4639 27.0478L50.0039 12.1678H54.0239L57.8039 23.4178L61.5839 12.1678H65.6039L60.1139 27.0478H55.4639Z" fill="#4A43C4"/>
<path d="M70.0959 9.85775C69.3959 9.85775 68.8159 9.64775 68.3559 9.22775C67.9159 8.80775 67.6959 8.27775 67.6959 7.63775C67.6959 6.99775 67.9159 6.47775 68.3559 6.07775C68.8159 5.65775 69.3959 5.44775 70.0959 5.44775C70.7959 5.44775 71.3659 5.65775 71.8059 6.07775C72.2659 6.47775 72.4959 6.99775 72.4959 7.63775C72.4959 8.27775 72.2659 8.80775 71.8059 9.22775C71.3659 9.64775 70.7959 9.85775 70.0959 9.85775ZM68.1759 27.0478V12.1678H72.0159V27.0478H68.1759Z" fill="#4A43C4"/>
<path d="M81.154 27.4078C79.874 27.4078 78.824 27.2078 78.004 26.8078C77.184 26.3878 76.574 25.8378 76.174 25.1578C75.774 24.4778 75.574 23.7278 75.574 22.9078C75.574 21.5278 76.114 20.4078 77.194 19.5478C78.274 18.6878 79.894 18.2578 82.054 18.2578H85.834V17.8978C85.834 16.8778 85.544 16.1278 84.964 15.6478C84.384 15.1678 83.664 14.9278 82.804 14.9278C82.024 14.9278 81.344 15.1178 80.764 15.4978C80.184 15.8578 79.824 16.3978 79.684 17.1178H75.934C76.034 16.0378 76.394 15.0978 77.014 14.2978C77.654 13.4978 78.474 12.8878 79.474 12.4678C80.474 12.0278 81.594 11.8078 82.834 11.8078C84.954 11.8078 86.624 12.3378 87.844 13.3978C89.064 14.4578 89.674 15.9578 89.674 17.8978V27.0478H86.404L86.044 24.6478C85.604 25.4478 84.984 26.1078 84.184 26.6278C83.404 27.1478 82.394 27.4078 81.154 27.4078ZM82.024 24.4078C83.124 24.4078 83.974 24.0478 84.574 23.3278C85.194 22.6078 85.584 21.7178 85.744 20.6578H82.474C81.454 20.6578 80.724 20.8478 80.284 21.2278C79.844 21.5878 79.624 22.0378 79.624 22.5778C79.624 23.1578 79.844 23.6078 80.284 23.9278C80.724 24.2478 81.304 24.4078 82.024 24.4078Z" fill="#4A43C4"/>
<path d="M99.7634 27.0478C98.2034 27.0478 96.9534 26.6678 96.0134 25.9078C95.0734 25.1478 94.6034 23.7978 94.6034 21.8578V15.3778H92.0534V12.1678H94.6034L95.0534 8.17775H98.4434V12.1678H102.463V15.3778H98.4434V21.8878C98.4434 22.6078 98.5934 23.1078 98.8934 23.3878C99.2134 23.6478 99.7534 23.7778 100.513 23.7778H102.373V27.0478H99.7634Z" fill="#4A43C4"/>
<path d="M112.519 27.4078C111.079 27.4078 109.779 27.0778 108.619 26.4178C107.479 25.7578 106.569 24.8478 105.889 23.6878C105.229 22.5078 104.899 21.1478 104.899 19.6078C104.899 18.0678 105.239 16.7178 105.919 15.5578C106.599 14.3778 107.509 13.4578 108.649 12.7978C109.809 12.1378 111.109 11.8078 112.549 11.8078C113.969 11.8078 115.249 12.1378 116.389 12.7978C117.549 13.4578 118.459 14.3778 119.119 15.5578C119.799 16.7178 120.139 18.0678 120.139 19.6078C120.139 21.1478 119.799 22.5078 119.119 23.6878C118.459 24.8478 117.549 25.7578 116.389 26.4178C115.229 27.0778 113.939 27.4078 112.519 27.4078ZM112.519 24.0778C113.519 24.0778 114.389 23.7078 115.129 22.9678C115.869 22.2078 116.239 21.0878 116.239 19.6078C116.239 18.1278 115.869 17.0178 115.129 16.2778C114.389 15.5178 113.529 15.1378 112.549 15.1378C111.529 15.1378 110.649 15.5178 109.909 16.2778C109.189 17.0178 108.829 18.1278 108.829 19.6078C108.829 21.0878 109.189 22.2078 109.909 22.9678C110.649 23.7078 111.519 24.0778 112.519 24.0778Z" fill="#4A43C4"/>
<path d="M129.153 27.4078C127.293 27.4078 125.853 26.8278 124.833 25.6678C123.833 24.5078 123.333 22.8078 123.333 20.5678V12.1678H127.143V20.2078C127.143 21.4878 127.403 22.4678 127.923 23.1478C128.443 23.8278 129.263 24.1678 130.383 24.1678C131.443 24.1678 132.313 23.7878 132.993 23.0278C133.693 22.2678 134.043 21.2078 134.043 19.8478V12.1678H137.883V27.0478H134.493L134.193 24.5278C133.733 25.4078 133.063 26.1078 132.183 26.6278C131.323 27.1478 130.313 27.4078 129.153 27.4078Z" fill="#4A43C4"/>
<path d="M141.825 27.0478V12.1678H145.245L145.605 14.9578C146.145 13.9978 146.875 13.2378 147.795 12.6778C148.735 12.0978 149.835 11.8078 151.095 11.8078V15.8578H150.015C149.175 15.8578 148.425 15.9878 147.765 16.2478C147.105 16.5078 146.585 16.9578 146.205 17.5978C145.845 18.2378 145.665 19.1278 145.665 20.2678V27.0478H141.825Z" fill="#4A43C4"/>
<path d="M159.869 27.4078C158.549 27.4078 157.389 27.1978 156.389 26.7778C155.389 26.3378 154.589 25.7378 153.989 24.9778C153.389 24.2178 153.029 23.3378 152.909 22.3378H156.779C156.899 22.9178 157.219 23.4178 157.739 23.8378C158.279 24.2378 158.969 24.4378 159.809 24.4378C160.649 24.4378 161.259 24.2678 161.639 23.9278C162.039 23.5878 162.239 23.1978 162.239 22.7578C162.239 22.1178 161.959 21.6878 161.399 21.4678C160.839 21.2278 160.059 20.9978 159.059 20.7778C158.419 20.6378 157.769 20.4678 157.109 20.2678C156.449 20.0678 155.839 19.8178 155.279 19.5178C154.739 19.1978 154.299 18.7978 153.959 18.3178C153.619 17.8178 153.449 17.2078 153.449 16.4878C153.449 15.1678 153.969 14.0578 155.009 13.1578C156.069 12.2578 157.549 11.8078 159.449 11.8078C161.209 11.8078 162.609 12.2178 163.649 13.0378C164.709 13.8578 165.339 14.9878 165.539 16.4278H161.909C161.689 15.3278 160.859 14.7778 159.419 14.7778C158.699 14.7778 158.139 14.9178 157.739 15.1978C157.359 15.4778 157.169 15.8278 157.169 16.2478C157.169 16.6878 157.459 17.0378 158.039 17.2978C158.619 17.5578 159.389 17.7978 160.349 18.0178C161.389 18.2578 162.339 18.5278 163.199 18.8278C164.079 19.1078 164.779 19.5378 165.299 20.1178C165.819 20.6778 166.079 21.4878 166.079 22.5478C166.099 23.4678 165.859 24.2978 165.359 25.0378C164.859 25.7778 164.139 26.3578 163.199 26.7778C162.259 27.1978 161.149 27.4078 159.869 27.4078Z" fill="#4A43C4"/>
<path d="M39.9246 6.90198C38.6506 6.97877 37.3919 7.21981 36.1796 7.61911C34.9471 7.96503 33.7473 8.41829 32.594 8.97369C31.4296 9.4727 30.3322 10.1151 29.327 10.886C28.3008 11.5949 27.3408 12.3949 26.4585 13.2765C25.5696 14.2024 24.7443 15.1873 23.9884 16.2247C23.2751 17.2675 22.6361 18.3591 22.076 19.4916C21.5552 20.6595 21.1029 21.8568 20.7215 23.0773C20.4058 24.3097 20.1663 25.5604 20.0043 26.8223C19.9199 25.5492 19.6791 24.2914 19.2872 23.0773C18.9413 21.8448 18.488 20.645 17.9326 19.4916C17.4336 18.3273 16.7912 17.2298 16.0203 16.2247C15.2919 15.1884 14.4932 14.2033 13.6298 13.2765C12.703 12.4131 11.7179 11.6144 10.6816 10.886C9.67647 10.1151 8.579 9.4727 7.41468 8.97369C6.27257 8.39246 5.07016 7.93822 3.82902 7.61911C2.61677 7.21981 1.35801 6.97877 0.0840036 6.90198C0.0840036 7.61911 0.0043223 8.33624 0.0043223 9.05337C-0.0264515 10.5245 0.107179 11.9944 0.402729 13.4358C0.551182 14.1622 0.737357 14.8803 0.960498 15.5872C1.12782 16.3006 1.36813 16.9948 1.67763 17.659C1.93625 18.3372 2.22878 19.0021 2.55412 19.651L3.66966 21.5633L5.02424 23.3163L6.45851 24.9099L8.05213 26.4239L9.80512 27.6988C10.4426 28.1769 11.08 28.4956 11.7175 28.894L13.7095 29.8502L15.7015 30.5673L17.8529 31.1251L20.0043 31.4438L22.1557 31.1251L24.3071 30.5673L26.3788 29.8502L28.3709 28.894L30.2035 27.6988L31.9565 26.4239C32.5257 25.9608 33.0584 25.4546 33.5501 24.9099C34.0948 24.4182 34.6009 23.8855 35.0641 23.3163L36.339 21.5633C36.7374 20.9259 37.1358 20.2884 37.4545 19.651L38.4107 17.659L39.1278 15.5872C39.3251 14.8791 39.4847 14.1609 39.6059 13.4358C39.7511 12.725 39.8575 12.0068 39.9246 11.2844C40.0321 10.5459 40.0588 9.79775 40.0043 9.05337C40.0175 8.33532 39.9909 7.61709 39.9246 6.90198Z" fill="#4A43C4"/>
<path d="M25.0244 5.54736C25.0405 5.8946 25.0138 6.24252 24.9447 6.58321C24.875 6.93869 24.7681 7.28588 24.626 7.61907L24.1479 8.49556L23.5104 9.29237L22.7136 9.92982L21.7574 10.4079L20.8013 10.7266H18.7295L17.6937 10.4079L16.8172 9.92982L16.0204 9.29237L15.3033 8.49556L14.8252 7.61907L14.5064 6.58321C14.5064 6.26449 14.4268 5.94576 14.4268 5.54736C14.4268 5.14895 14.5064 4.90991 14.5064 4.59118C14.5064 4.27246 14.7455 3.87405 14.8252 3.55532L15.3033 2.67883L16.0204 1.88202C16.249 1.62708 16.5183 1.41169 16.8172 1.24457L17.6937 0.766479L18.7295 0.447754H20.8013L21.7574 0.766479L22.7136 1.24457L23.5104 1.88202L24.1479 2.67883L24.626 3.55532C24.7789 3.88448 24.8861 4.23299 24.9447 4.59118C25.0105 4.90542 25.0372 5.22657 25.0244 5.54736Z" fill="#4A43C4"/>
</svg>
