<svg width="1800" height="627" viewBox="0 0 1800 627" fill="none" xmlns="http://www.w3.org/2000/svg">
<rect opacity="0.05" width="1800" height="627" rx="12" fill="#EB662B"/>
<mask id="mask0_22_683" style="mask-type:alpha" maskUnits="userSpaceOnUse" x="0" y="0" width="1800" height="627">
<rect width="1800" height="627" rx="12" fill="#F5F5F5"/>
</mask>
<g mask="url(#mask0_22_683)">
<path d="M0 13.253C0 13.253 46.3491 19.5713 88.8889 20.0121C132.063 20.4529 168.889 20.0121 221.587 17.8081C293.333 14.8693 431.746 2.96732 505.397 9.4326C579.048 15.8979 582.222 16.1917 619.683 20.306C661.587 25.008 746.667 34.412 852.063 33.9712C964.444 33.5304 1168.25 9.57953 1252.06 10.755C1260.95 10.902 1293.97 11.9305 1318.73 13.6938C1342.86 15.4571 1378.41 19.2774 1426.67 20.5999C1446.98 21.1876 1479.37 22.2162 1516.83 21.9223C1526.35 21.7754 1556.83 21.3346 1593.02 19.5713C1629.21 17.8081 1662.86 15.0162 1693.33 14.1346C1758.73 12.5183 1800 14.8693 1800 14.8693V-1H0V13.253ZM144.127 15.604C148.572 14.1346 156.825 15.0162 171.429 15.0162C186.032 15.0162 210.159 13.253 208.254 13.3999C206.349 13.5469 188.571 15.604 170.159 16.1917C151.111 16.9264 140.318 17.0734 144.127 15.604ZM260.952 11.6367C260.952 11.6367 276.19 11.3428 296.508 10.3142C316.825 9.13872 361.905 6.19996 392.381 5.17139C444.444 3.55508 492.698 5.17139 488.254 5.31833C483.175 5.46527 427.302 4.4367 376.508 6.93465C355.556 7.96322 317.46 10.1673 297.778 10.902C276.825 11.7836 260.952 11.6367 260.952 11.6367ZM624.127 11.4897C613.333 10.4612 708.571 18.3958 741.587 20.4529C754.921 21.3346 780.952 22.804 805.079 23.3917C829.841 23.9795 861.587 23.9795 860.952 24.1264C860.952 24.4203 824.127 25.3019 789.841 24.1264C755.556 22.9509 756.825 22.5101 741.587 21.7754C717.46 20.5999 634.921 12.5183 624.127 11.4897ZM535.873 9.13872C534.603 9.13872 540.952 8.55097 566.349 10.755C591.746 12.9591 608.889 15.8979 610.159 16.1917C611.429 16.3387 587.937 13.5469 568.254 11.7836C549.206 10.0203 536.508 9.13872 535.873 9.13872ZM3.17456 7.81628C3.80945 7.96322 15.238 9.4326 33.6506 11.4897C52.0634 13.5469 77.4603 15.604 76.1904 15.4571C74.9207 15.4571 53.9683 14.5754 29.2064 11.7836C4.44446 8.99178 2.53967 7.66934 3.17456 7.81628ZM1601.27 16.0448C1600.63 15.7509 1613.33 15.7509 1629.84 14.2815C1646.35 12.8122 1664.13 11.9305 1679.37 11.3428C1704.76 10.1673 1753.65 11.4897 1751.11 11.6367C1749.21 11.7836 1699.05 11.1959 1671.75 12.6652C1657.78 13.3999 1656.51 13.3999 1635.56 15.0162C1614.6 16.6326 1601.9 16.4856 1601.27 16.0448ZM1336.51 12.5183C1333.97 12.3714 1314.29 10.1673 1283.17 8.69791C1252.06 7.08159 1226.67 7.96322 1226.67 7.5224C1226.67 7.08159 1233.02 6.19996 1266.03 7.08159C1299.05 7.96322 1339.05 12.6652 1336.51 12.5183ZM1345.4 8.84484C1344.13 8.99178 1323.81 6.93465 1309.21 6.3469C1294.6 5.90608 1297.14 5.61221 1297.14 5.46527C1297.14 5.31833 1304.13 5.17139 1314.29 5.75915C1325.08 6.49384 1346.67 8.69791 1345.4 8.84484ZM1205.71 5.46527C1205.08 5.75915 1183.49 6.64077 1170.16 8.11015C1156.83 9.57953 1158.73 8.99178 1158.1 8.84484C1157.46 8.69791 1163.17 7.66934 1173.33 6.93465C1183.49 6.05302 1206.35 5.17139 1205.71 5.46527ZM1384.76 15.3101C1385.4 15.7509 1382.86 16.0448 1372.7 15.0162C1362.54 13.9877 1356.19 13.106 1358.73 13.253C1361.27 13.3999 1364.44 13.8407 1374.6 14.4285C1385.4 15.0162 1384.13 14.8693 1384.76 15.3101ZM1580.95 17.2203C1582.22 17.2203 1567.62 18.3958 1560 18.5427C1552.38 18.6897 1547.3 18.6897 1547.3 18.2489C1547.3 17.8081 1547.94 17.5142 1557.46 17.6611C1567.62 17.8081 1579.68 17.2203 1580.95 17.2203ZM833.651 30.0039C834.286 30.1509 848.889 29.5631 881.27 29.5631C913.016 29.5631 967.619 26.0366 990.476 24.4203C1013.33 22.8039 926.984 30.1508 885.714 30.4447C844.444 30.7386 833.016 29.857 833.651 30.0039Z" fill="white"/>
<path d="M88.2538 25.4491C88.8888 25.3022 117.46 25.8899 133.968 25.4491C180.317 24.4205 241.905 20.7471 239.365 21.1879C236.825 21.6287 152.381 25.743 131.429 26.0369C100.317 26.6246 87.6189 25.4491 88.2538 25.4491Z" fill="white"/>
<path d="M356.19 13.3997C357.46 13.2528 384.762 11.9303 416.508 11.6364C448.254 11.3426 497.143 12.5181 494.603 12.3711C492.698 12.2242 457.143 9.72625 410.159 10.6079C363.175 11.4895 354.921 13.5466 356.19 13.3997Z" fill="white"/>
<path d="M501.587 18.6895C502.222 18.5425 488.889 17.2201 481.27 17.0732C473.651 16.9262 468.571 17.0732 468.571 17.514C468.571 17.9548 469.206 18.2487 478.73 18.1017C489.524 17.9548 500.952 18.8364 501.587 18.6895Z" fill="white"/>
<path d="M523.81 14.5754C523.81 14.4284 551.746 16.3386 563.81 17.808C575.873 19.1304 603.175 22.3631 602.54 22.3631C601.905 22.51 575.873 20.0121 562.54 18.5427C549.206 17.0733 523.81 14.7223 523.81 14.5754Z" fill="white"/>
<path d="M819.048 38.2323C819.682 38.0854 848.254 38.6731 864.762 38.2323C911.111 37.2037 972.698 33.5303 970.159 33.9711C967.619 34.4119 883.175 38.5262 862.222 38.8201C831.111 39.4078 818.413 38.3792 819.048 38.2323Z" fill="white"/>
<path d="M1533.97 27.3589C1533.97 27.3589 1526.35 26.9181 1515.56 27.212C1504.76 27.5059 1478.73 28.5344 1463.49 28.2406C1436.83 27.6528 1416.51 24.2732 1419.05 24.4202C1421.59 24.4202 1446.35 27.6528 1473.65 27.212C1485.08 27.0651 1506.03 26.4773 1516.19 26.6242C1526.35 26.7712 1533.97 27.3589 1533.97 27.3589Z" fill="white"/>
<path d="M1320.64 17.5143C1319.37 17.6612 1307.94 16.3388 1293.33 15.8979C1278.73 15.6041 1280 15.4571 1280 15.1633C1280 15.0163 1291.43 14.5755 1301.59 15.1633C1311.75 15.8979 1321.9 17.3673 1320.64 17.5143Z" fill="white"/>
<path d="M1700.95 18.3959C1700.95 18.249 1673.65 18.3959 1658.41 19.1306C1643.17 19.8653 1626.67 21.9224 1626.67 22.0694C1626.67 22.2163 1643.81 20.8939 1659.05 20.0122C1673.65 19.1306 1700.32 18.5429 1700.95 18.3959Z" fill="white"/>
</g>
</svg>
