<svg width="40" height="40" viewBox="0 0 40 40" fill="none" xmlns="http://www.w3.org/2000/svg">
<path d="M38.3337 34.5733H34.2187V29.5C35.2739 29.231 36.2098 28.6189 36.8793 27.76C37.5488 26.901 37.9138 25.844 37.917 24.755V20.9717C37.917 19.6677 37.399 18.4171 36.4769 17.4951C35.5549 16.573 34.3043 16.055 33.0003 16.055C31.6963 16.055 30.4458 16.573 29.5237 17.4951C28.6017 18.4171 28.0837 19.6677 28.0837 20.9717V24.7483C28.0869 25.8259 28.4446 26.8724 29.1015 27.7266C29.7584 28.5808 30.6781 29.1952 31.7187 29.475V34.5733H25.0837V9.19833C25.0837 5.14166 22.8753 2.90833 18.862 2.90833H8.48533C4.46033 2.90833 2.24366 5.14166 2.24366 9.19833V34.5733H1.66699C1.33547 34.5733 1.01753 34.705 0.783109 34.9394C0.548688 35.1739 0.416992 35.4918 0.416992 35.8233C0.416992 36.1548 0.548688 36.4728 0.783109 36.7072C1.01753 36.9416 1.33547 37.0733 1.66699 37.0733H32.872C32.9053 37.0733 32.9353 37.0917 32.9687 37.0917C33.002 37.0917 33.032 37.075 33.0653 37.0733H38.3337C38.6652 37.0733 38.9831 36.9416 39.2175 36.7072C39.452 36.4728 39.5837 36.1548 39.5837 35.8233C39.5837 35.4918 39.452 35.1739 39.2175 34.9394C38.9831 34.705 38.6652 34.5733 38.3337 34.5733ZM22.5837 34.5733H15.0003V29.5733C15.0003 29.2418 14.8686 28.9239 14.6342 28.6894C14.3998 28.455 14.0818 28.3233 13.7503 28.3233C13.4188 28.3233 13.1009 28.455 12.8664 28.6894C12.632 28.9239 12.5003 29.2418 12.5003 29.5733V34.5733H4.74866V9.19833C4.74866 6.54166 5.86866 5.40832 8.49033 5.40832H18.867C21.4753 5.40832 22.5887 6.54166 22.5887 9.19833L22.5837 34.5733ZM33.0003 27.1667C32.3595 27.1662 31.7451 26.9115 31.292 26.4583C30.8389 26.0052 30.5841 25.3908 30.5837 24.75V20.9717C30.5837 20.3307 30.8383 19.716 31.2915 19.2628C31.7447 18.8096 32.3594 18.555 33.0003 18.555C33.6413 18.555 34.256 18.8096 34.7092 19.2628C35.1624 19.716 35.417 20.3307 35.417 20.9717V24.7483C35.417 25.3894 35.1624 26.0043 34.7093 26.4578C34.2561 26.9112 33.6414 27.1662 33.0003 27.1667ZM19.167 12.9083C19.167 13.2398 19.0353 13.5578 18.8009 13.7922C18.5665 14.0266 18.2485 14.1583 17.917 14.1583H9.66699C9.49482 14.1724 9.3216 14.1507 9.15825 14.0945C8.99491 14.0382 8.84499 13.9488 8.71795 13.8317C8.59092 13.7147 8.48953 13.5725 8.42017 13.4143C8.35082 13.2561 8.31502 13.0852 8.31502 12.9125C8.31502 12.7397 8.35082 12.5689 8.42017 12.4107C8.48953 12.2524 8.59092 12.1103 8.71795 11.9933C8.84499 11.8762 8.99491 11.7867 9.15825 11.7305C9.3216 11.6743 9.49482 11.6526 9.66699 11.6667H17.917C18.2471 11.6667 18.5638 11.7972 18.7979 12.0298C19.0321 12.2624 19.1648 12.5783 19.167 12.9083ZM19.167 19.1567C19.167 19.4882 19.0353 19.8061 18.8009 20.0405C18.5665 20.275 18.2485 20.4067 17.917 20.4067H9.66699C9.33547 20.4067 9.01753 20.275 8.78311 20.0405C8.54869 19.8061 8.41699 19.4882 8.41699 19.1567C8.41699 18.8251 8.54869 18.5072 8.78311 18.2728C9.01753 18.0384 9.33547 17.9067 9.66699 17.9067H17.917C18.2485 17.9067 18.5665 18.0384 18.8009 18.2728C19.0353 18.5072 19.167 18.8251 19.167 19.1567Z" fill="#4A43C4"/>
</svg>
