<svg width="40" height="40" viewBox="0 0 40 40" fill="none" xmlns="http://www.w3.org/2000/svg">
<path d="M38.3337 35.345H37.917V31.595C37.9161 30.8217 37.6085 30.0804 37.0617 29.5336C36.515 28.9868 35.7736 28.6792 35.0003 28.6783H34.5837V19.5117H35.0003C35.7736 19.5108 36.515 19.2032 37.0617 18.6564C37.6085 18.1096 37.9161 17.3683 37.917 16.595V11.0567C37.8988 10.4783 37.7168 9.91692 37.3923 9.43781C37.0678 8.9587 36.614 8.58149 36.0837 8.34999L21.0837 2.34999C20.3844 2.09248 19.6163 2.09248 18.917 2.34999L3.91699 8.34999C3.38652 8.58132 2.93262 8.95849 2.60808 9.43764C2.28353 9.91678 2.10168 10.4782 2.08366 11.0567V16.595C2.08454 17.3683 2.39212 18.1096 2.93891 18.6564C3.4857 19.2032 4.22705 19.5108 5.00033 19.5117H5.41699V28.6783H5.00033C4.22705 28.6792 3.4857 28.9868 2.93891 29.5336C2.39212 30.0804 2.08454 30.8217 2.08366 31.595V35.345H1.66699C1.33547 35.345 1.01753 35.4767 0.783109 35.7111C0.548688 35.9455 0.416992 36.2635 0.416992 36.595C0.416992 36.9265 0.548688 37.2444 0.783109 37.4789C1.01753 37.7133 1.33547 37.845 1.66699 37.845H38.3337C38.6652 37.845 38.9831 37.7133 39.2175 37.4789C39.452 37.2444 39.5837 36.9265 39.5837 36.595C39.5837 36.2635 39.452 35.9455 39.2175 35.7111C38.9831 35.4767 38.6652 35.345 38.3337 35.345ZM5.00033 17.0117C4.89022 17.0104 4.78499 16.966 4.70713 16.8882C4.62927 16.8103 4.58496 16.7051 4.58366 16.595V11.0567C4.59943 10.9776 4.63066 10.9025 4.67557 10.8355C4.72048 10.7686 4.77817 10.7112 4.84533 10.6667L19.8337 4.66665C19.8885 4.65538 19.9444 4.65035 20.0003 4.65165C20.0563 4.65016 20.1122 4.65519 20.167 4.66665L35.167 10.6667C35.3009 10.7566 35.3942 10.8954 35.427 11.0533V16.595C35.4257 16.7051 35.3814 16.8103 35.3035 16.8882C35.2257 16.966 35.1204 17.0104 35.0103 17.0117H5.00033ZM32.0837 19.5117V28.6783H27.917V19.5117H32.0837ZM25.417 19.5117V28.6783H21.2503V19.5117H25.417ZM18.7503 19.5117V28.6783H14.5837V19.5117H18.7503ZM12.0837 19.5117V28.6783H7.91699V19.5117H12.0837ZM35.417 35.345H4.58366V31.595C4.58366 31.4845 4.62756 31.3785 4.7057 31.3004C4.78384 31.2222 4.88982 31.1783 5.00033 31.1783H35.0003C35.1108 31.1783 35.2168 31.2222 35.295 31.3004C35.3731 31.3785 35.417 31.4845 35.417 31.595V35.345ZM20.0003 7.84499C19.2586 7.84499 18.5336 8.06492 17.9169 8.47698C17.3003 8.88903 16.8196 9.4747 16.5358 10.1599C16.252 10.8451 16.1777 11.5991 16.3224 12.3266C16.4671 13.054 16.8242 13.7222 17.3487 14.2466C17.8731 14.7711 18.5413 15.1282 19.2687 15.2729C19.9962 15.4176 20.7502 15.3434 21.4354 15.0595C22.1206 14.7757 22.7063 14.2951 23.1183 13.6784C23.5304 13.0617 23.7503 12.3367 23.7503 11.595C23.749 10.6008 23.3535 9.64777 22.6505 8.9448C21.9475 8.24182 20.9945 7.84631 20.0003 7.84499ZM20.0003 12.845C19.7531 12.845 19.5114 12.7717 19.3059 12.6343C19.1003 12.497 18.9401 12.3017 18.8455 12.0733C18.7509 11.8449 18.7261 11.5936 18.7743 11.3511C18.8226 11.1086 18.9416 10.8859 19.1164 10.7111C19.2913 10.5363 19.514 10.4172 19.7565 10.369C19.9989 10.3208 20.2503 10.3455 20.4787 10.4401C20.7071 10.5347 20.9023 10.695 21.0397 10.9005C21.177 11.1061 21.2503 11.3478 21.2503 11.595C21.2494 11.9262 21.1175 12.2437 20.8832 12.4779C20.649 12.7121 20.3316 12.8441 20.0003 12.845Z" fill="#4A43C4"/>
</svg>
