<svg width="40" height="40" viewBox="0 0 40 40" fill="none" xmlns="http://www.w3.org/2000/svg">
<g clip-path="url(#clip0_73_2175)">
<path d="M38.8281 36.3066C37.5348 36.3066 36.9513 36.016 36.2126 35.6482C35.9077 35.4964 35.588 35.3375 35.2188 35.1958L39.177 24.7832C39.485 23.9727 39.4339 23.066 39.0366 22.2953C38.6394 21.5247 37.9304 20.9571 37.0916 20.7379L34.3662 20.0258V11.8518C34.3662 10.1364 32.9705 8.74074 31.2551 8.74074H25.8761V5.71621C25.8761 3.30839 23.9172 1.34949 21.5094 1.34949H18.4907C16.0829 1.34949 14.124 3.30839 14.124 5.71621V8.74066H8.745C7.02953 8.74066 5.63391 10.1363 5.63391 11.8518V20.0258L2.90844 20.7379C2.06961 20.9571 1.36063 21.5247 0.963437 22.2953C0.56625 23.066 0.515 23.9727 0.823125 24.7832L4.78125 35.196C4.41219 35.3376 4.0925 35.4964 3.78773 35.6482C3.04891 36.016 2.46539 36.3067 1.17188 36.3067C0.524687 36.3067 0 36.8314 0 37.4785C0 38.1257 0.524687 38.6504 1.17188 38.6504C3.01656 38.6504 3.98125 38.1701 4.83234 37.7464C5.57117 37.3785 6.15469 37.0879 7.4482 37.0879C8.74172 37.0879 9.32524 37.3785 10.0641 37.7464C10.9152 38.1701 11.8798 38.6504 13.7245 38.6504C15.5691 38.6504 16.5337 38.1701 17.3849 37.7464C18.1237 37.3785 18.7072 37.0879 20.0005 37.0879C21.2939 37.0879 21.8773 37.3785 22.6161 37.7464C23.4672 38.1701 24.4318 38.6504 26.2764 38.6504C28.121 38.6504 29.0856 38.1701 29.9367 37.7464C30.6755 37.3785 31.259 37.0879 32.5523 37.0879C33.8457 37.0879 34.4291 37.3785 35.1679 37.7464C36.019 38.1701 36.9836 38.6504 38.8282 38.6504C39.4754 38.6504 40.0001 38.1257 40.0001 37.4785C40.0001 36.8314 39.4753 36.3066 38.8281 36.3066ZM16.4677 5.71621C16.4677 4.60074 17.3752 3.69324 18.4907 3.69324H21.5094C22.6248 3.69324 23.5323 4.60074 23.5323 5.71621V8.74066H16.4677V5.71621ZM7.97758 11.8518C7.97758 11.4287 8.3218 11.0845 8.74492 11.0845H31.255C31.6781 11.0845 32.0223 11.4287 32.0223 11.8518V19.4135L20.2962 16.3496C20.102 16.2989 19.8979 16.2989 19.7037 16.3496L7.9775 19.4135L7.97758 11.8518ZM28.892 35.6482C28.1532 36.016 27.5697 36.3066 26.2764 36.3066C24.9831 36.3066 24.3996 36.016 23.6609 35.6482C22.8098 35.2244 21.8452 34.7441 20.0005 34.7441C18.1559 34.7441 17.1913 35.2244 16.3402 35.6482C15.6014 36.016 15.0179 36.3066 13.7245 36.3066C12.4311 36.3066 11.8475 36.016 11.1088 35.6482C10.2577 35.2244 9.29297 34.7441 7.44828 34.7441C7.33523 34.7441 7.22555 34.746 7.11891 34.7494L3.01383 23.9503C2.91531 23.6912 2.99211 23.4751 3.04664 23.3693C3.10117 23.2635 3.23266 23.0757 3.50086 23.0056L20 18.6946L36.4991 23.0057C36.7673 23.0757 36.8988 23.2635 36.9534 23.3693C37.0079 23.4751 37.0847 23.6912 36.9862 23.9504L32.8812 34.7495C32.7747 34.746 32.6652 34.7442 32.5523 34.7442C30.7077 34.7441 29.743 35.2245 28.892 35.6482Z" fill="#4A43C4"/>
<path d="M30.8342 24.6917L20.2963 21.9383C20.1021 21.8876 19.8981 21.8876 19.7038 21.9383L9.16596 24.6917C8.53979 24.8553 8.16479 25.4956 8.32838 26.1218C8.49197 26.748 9.13229 27.1229 9.75846 26.9594L20.0001 24.2834L30.2417 26.9594C30.341 26.9854 30.4407 26.9977 30.5388 26.9977C31.059 26.9977 31.5342 26.6487 31.6717 26.1218C31.8354 25.4956 31.4604 24.8553 30.8342 24.6917Z" fill="#4A43C4"/>
</g>
<defs>
<clipPath id="clip0_73_2175">
<rect width="40" height="40" fill="white"/>
</clipPath>
</defs>
</svg>
