<svg width="40" height="40" viewBox="0 0 40 40" fill="none" xmlns="http://www.w3.org/2000/svg">
<g clip-path="url(#clip0_73_2183)">
<path d="M38.8281 37.5782H37.1305L33.9388 31.1948C33.7403 30.7978 33.3345 30.547 32.8906 30.547H25.2841L19.8119 14.2153L32.0367 10.1287C32.7366 9.89471 33.05 9.07736 32.6821 8.43494C29.5294 2.92885 23.0448 0.0520492 15.7352 2.02314L15.3527 0.878612C15.1475 0.264862 14.4837 -0.0666226 13.8697 0.13869C13.2559 0.343924 12.9246 1.00783 13.1298 1.62166L13.5124 2.76619C6.49539 5.58361 3.03492 11.7767 3.82836 18.0805C3.92109 18.817 4.66445 19.2786 5.36266 19.0456L17.5891 14.9585L22.8123 30.547H11.3936L1.93477 23.7367C1.40945 23.3585 0.677109 23.4777 0.298984 24.0029C-0.0792188 24.5281 0.0400781 25.2605 0.565234 25.6387L9.63859 32.1715L7.89641 37.5783H1.17188C0.524687 37.5783 0 38.103 0 38.7502C0 39.3974 0.524687 39.9221 1.17188 39.9221H38.8281C39.4753 39.9221 40 39.3974 40 38.7502C40 38.103 39.4753 37.5782 38.8281 37.5782ZM15.3553 4.58455C15.3555 4.58447 15.3556 4.58447 15.3558 4.58439C15.3636 4.58549 16.7474 3.93971 19.2116 6.33408C20.485 7.57135 21.6102 9.219 22.3487 10.896L13.5643 13.8326C12.6348 9.86963 13.4205 5.23213 15.3553 4.58455ZM29.8552 8.38674L24.5795 10.1503C23.5683 7.7751 21.8255 5.31932 19.8177 3.75455C23.7927 3.61705 27.4656 5.17096 29.8552 8.38674ZM11.292 6.60424C10.6238 9.07986 10.7191 12.0902 11.3352 14.5778L6.05781 16.342C6.03383 12.4326 7.94828 8.94377 11.292 6.60424ZM32.1663 32.8907L34.5101 37.5782H27.6401L26.0695 32.8907H32.1663ZM11.8692 32.8907H23.5977L25.1683 37.5782H10.3588L11.8692 32.8907Z" fill="#4A43C4"/>
</g>
<defs>
<clipPath id="clip0_73_2183">
<rect width="40" height="40" fill="white"/>
</clipPath>
</defs>
</svg>
