<svg width="40" height="40" viewBox="0 0 40 40" fill="none" xmlns="http://www.w3.org/2000/svg">
<g clip-path="url(#clip0_73_2197)">
<path d="M31.9141 7.42223H29.9609V2.73363C29.9609 1.85887 29.5377 1.03059 28.8289 0.518008C28.1201 0.00542946 27.2009 -0.137149 26.3701 0.136914L7.22938 6.44988C6.10617 6.82043 5.35156 7.86402 5.35156 9.04668V30.8854V37.2656C5.35156 38.7733 6.5782 40 8.08594 40H31.9141C33.4218 40 34.6484 38.7733 34.6484 37.2656V10.1566C34.6484 8.64895 33.4218 7.42223 31.9141 7.42223ZM32.3047 37.2656C32.3047 37.481 32.1295 37.6562 31.9141 37.6562H8.08594C7.87055 37.6562 7.69531 37.481 7.69531 37.2656V29.7136V10.1566C7.69531 9.94121 7.87055 9.76598 8.08594 9.76598H31.9141C32.1295 9.76598 32.3047 9.94121 32.3047 10.1566V37.2656ZM27.1042 2.36269C27.2692 2.30832 27.3951 2.37348 27.4555 2.41715C27.5159 2.46082 27.6173 2.55996 27.6173 2.73363V7.4223H11.7639L27.1042 2.36269Z" fill="#4A43C4"/>
<path d="M12.1875 23.3188H13.608H27.8125C28.4597 23.3188 28.9844 22.7941 28.9844 22.1469C28.9844 21.4997 28.4597 20.975 27.8125 20.975H27.473C26.9679 17.7408 24.4061 15.179 21.1719 14.6739V14.0867C21.1719 13.4395 20.6472 12.9148 20 12.9148C19.3528 12.9148 18.8281 13.4395 18.8281 14.0867V14.6739C15.5939 15.179 13.0321 17.7408 12.527 20.975H12.1875C11.5403 20.975 11.0156 21.4997 11.0156 22.1469C11.0156 22.7941 11.5403 23.3188 12.1875 23.3188ZM20 16.9267C22.4756 16.9267 24.5542 18.6591 25.0876 20.975H14.9124C15.4458 18.6591 17.5245 16.9267 20 16.9267Z" fill="#4A43C4"/>
<path d="M12.6416 26.4847C11.9944 26.4847 11.4697 27.0094 11.4697 27.6566C11.4697 28.3038 11.9944 28.8285 12.6416 28.8285H18.2666C18.9138 28.8285 19.4385 28.3038 19.4385 27.6566C19.4385 27.0094 18.9138 26.4847 18.2666 26.4847H12.6416Z" fill="#4A43C4"/>
<path d="M27.5195 31.1722H12.4805C11.8333 31.1722 11.3086 31.6969 11.3086 32.3441C11.3086 32.9913 11.8333 33.516 12.4805 33.516H27.5195C28.1667 33.516 28.6914 32.9913 28.6914 32.3441C28.6914 31.6969 28.1667 31.1722 27.5195 31.1722Z" fill="#4A43C4"/>
</g>
<defs>
<clipPath id="clip0_73_2197">
<rect width="40" height="40" fill="white"/>
</clipPath>
</defs>
</svg>
