<svg width="629" height="481" viewBox="0 0 629 481" fill="none" xmlns="http://www.w3.org/2000/svg">
<g clip-path="url(#clip0_143_20360)">
<path d="M578.913 175.247H554.912V263.571H578.913V175.247Z" fill="#F76652"/>
<path d="M575.34 183.85H558.456V240.083H575.34V183.85Z" fill="#FAFDFF"/>
<path d="M570.064 254.129C571.808 252.386 571.808 249.558 570.064 247.815C568.32 246.071 565.492 246.071 563.747 247.815C562.003 249.558 562.003 252.386 563.747 254.129C565.492 255.873 568.32 255.873 570.064 254.129Z" fill="#2E3D63"/>
<path d="M601.889 174.076L578.07 177.027L588.937 264.679L612.756 261.728L601.889 174.076Z" fill="#F76652"/>
<path d="M599.391 183.028L582.635 185.104L589.554 240.909L606.309 238.833L599.391 183.028Z" fill="#FAFDFF"/>
<path d="M602.786 253.462C604.293 251.511 603.933 248.706 601.98 247.199C600.027 245.692 597.222 246.053 595.715 248.005C594.207 249.957 594.568 252.761 596.521 254.268C598.473 255.775 601.278 255.414 602.786 253.462Z" fill="#2E3D63"/>
<path d="M264.011 275.657C259.396 252.913 241.38 163.906 235.693 136.072C234.71 131.19 230.392 127.677 225.419 127.677L139.391 127.588L169.377 285.153C170.866 292.893 175.273 299.799 181.705 304.353C186.767 307.955 192.812 309.92 199.036 310.009L264.011 310.813V275.657Z" fill="#475577"/>
<path d="M340.719 315.368H197.576C188.643 315.368 179.978 312.212 173.099 306.497C166.25 300.781 161.634 292.863 160.086 284.17L133.971 134.048C133.435 130.982 135.489 128.064 138.557 127.558C141.624 127.022 144.542 129.076 145.048 132.143L171.163 282.265C172.235 288.308 175.481 293.875 180.305 297.894C185.159 301.942 191.293 304.145 197.576 304.145H340.749C343.846 304.145 346.377 306.675 346.377 309.771C346.347 312.867 343.846 315.368 340.719 315.368Z" fill="#727B91"/>
<path d="M384.552 481C484.412 481 565.364 477.361 565.364 472.873C565.364 468.385 484.412 464.746 384.552 464.746C284.692 464.746 203.74 468.385 203.74 472.873C203.74 477.361 284.692 481 384.552 481Z" fill="#E1E7F7"/>
<path d="M383.57 429.299L362.243 434.222L368.595 461.72L389.921 456.797L383.57 429.299Z" fill="#FFCBBB"/>
<path d="M362.189 434.234L364.572 444.504L384.434 433.132L383.54 429.322L362.189 434.234Z" fill="#F6AF9B"/>
<path d="M401.943 452.809C401.347 452.809 400.811 452.69 400.335 452.392L400.156 452.273L400.216 452.065C401.198 448.403 403.938 445.159 406.052 443.105C406.946 442.212 409.268 440.306 411.383 441.348C412.991 442.152 413.378 444.385 412.723 445.933C412.067 447.54 410.638 448.612 409.328 449.475L408.941 449.713C407.065 450.934 404.206 452.809 401.943 452.809ZM400.871 451.976C402.926 452.928 406.618 450.517 408.643 449.207L409.03 448.969C410.251 448.165 411.591 447.153 412.216 445.695C412.752 444.385 412.455 442.539 411.144 441.884C409.387 440.991 407.333 442.747 406.529 443.521C404.444 445.486 401.854 448.552 400.871 451.976Z" fill="#350453"/>
<path d="M400.216 453.286L400.097 453.077C398.161 449.832 397.774 445.605 397.744 442.628C397.744 441.378 397.982 438.371 400.216 437.597C401.913 437.002 403.759 438.282 404.444 439.83C405.129 441.438 404.921 443.194 404.593 444.742L404.504 445.188C403.968 447.927 403.074 452.541 400.424 453.226L400.216 453.286ZM401.109 438.074C400.871 438.074 400.662 438.104 400.424 438.193C398.578 438.818 398.37 441.527 398.37 442.658C398.37 445.486 398.757 449.475 400.514 452.601C402.628 451.797 403.491 447.481 403.938 445.099L404.027 444.653C404.325 443.224 404.534 441.557 403.908 440.098C403.432 439.026 402.3 438.074 401.109 438.074Z" fill="#350453"/>
<path d="M426.272 458.525L401.586 452.452C397.923 451.559 394.528 449.564 391.789 446.707L387.59 442.36C387.59 442.36 382.706 446.528 384.046 454.655C384.821 459.418 371.421 460.4 367.877 458.852C367.877 458.852 367.847 458.852 367.788 458.882C366.656 459.418 366.061 460.698 366.358 461.918L368.83 472.576C369.068 473.558 370.021 474.153 371.004 473.945L426.391 461.174C427.612 460.817 427.552 458.852 426.272 458.525Z" fill="#2E3D63"/>
<path d="M371.957 470.254C371.808 470.254 371.689 470.164 371.659 470.015C371.629 469.867 371.719 469.688 371.897 469.658L419.81 458.584C419.959 458.554 420.137 458.644 420.167 458.822C420.197 458.971 420.108 459.15 419.929 459.18L372.016 470.254C371.987 470.254 371.957 470.254 371.957 470.254Z" fill="white"/>
<path d="M398.25 462.037C398.22 462.037 398.22 462.037 398.191 462.037C394.081 461.323 390.359 458.376 388.721 454.566C387.5 451.738 387.411 448.374 388.453 445.367C388.513 445.218 388.692 445.129 388.84 445.188C388.989 445.248 389.079 445.427 389.019 445.575C388.036 448.433 388.126 451.648 389.287 454.327C390.836 457.989 394.379 460.757 398.28 461.442C398.429 461.472 398.548 461.621 398.518 461.799C398.518 461.948 398.399 462.037 398.25 462.037Z" fill="white"/>
<path d="M285.719 433.311H263.832V461.531H285.719V433.311Z" fill="#FFCBBB"/>
<path d="M263.832 433.311V443.849L285.749 437.24V433.311H263.832Z" fill="#F6AF9B"/>
<path d="M299.566 460.46C298.524 460.46 297.571 460.222 296.915 459.596L296.767 459.448L296.886 459.239C298.672 455.905 302.067 453.345 304.598 451.827C305.67 451.172 308.35 449.803 310.167 451.321C311.536 452.482 311.417 454.714 310.435 456.084C309.422 457.513 307.784 458.227 306.325 458.763L305.908 458.912C304.271 459.507 301.68 460.46 299.566 460.46ZM297.511 459.329C299.298 460.728 303.437 459.209 305.7 458.376L306.117 458.227C307.487 457.721 309.035 457.036 309.928 455.756C310.762 454.595 310.881 452.72 309.75 451.797C308.231 450.547 305.849 451.767 304.866 452.363C302.484 453.792 299.268 456.203 297.511 459.329Z" fill="#350453"/>
<path d="M296.618 460.43L296.558 460.222C295.397 456.62 295.963 452.422 296.618 449.505C296.886 448.284 297.809 445.397 300.132 445.159C301.918 444.95 303.437 446.617 303.735 448.284C304.033 449.981 303.437 451.678 302.782 453.107L302.603 453.524C301.531 455.905 299.536 460.37 296.826 460.43H296.618ZM300.429 445.754C300.37 445.754 300.281 445.754 300.221 445.754C298.256 445.962 297.481 448.523 297.213 449.624C296.588 452.392 296.052 456.352 297.065 459.775C299.298 459.477 301.114 455.429 302.097 453.256L302.276 452.839C302.871 451.499 303.467 449.922 303.169 448.374C302.931 447.094 301.769 445.754 300.429 445.754Z" fill="#350453"/>
<path d="M320.828 471.415L298.137 459.924C294.772 458.227 291.913 455.518 289.858 452.125L286.762 446.945C286.762 446.945 281.074 449.922 280.538 458.138C280.21 462.931 266.929 460.906 263.862 458.584C263.862 458.584 263.832 458.584 263.773 458.584C262.552 458.852 261.688 459.954 261.688 461.234V472.159C261.688 473.171 262.492 473.975 263.505 473.975H320.351C321.602 473.945 321.989 472.01 320.828 471.415Z" fill="#2E3D63"/>
<path d="M314.485 470.611H265.292C265.113 470.611 264.994 470.462 264.994 470.313C264.994 470.135 265.143 470.016 265.292 470.016H314.485C314.664 470.016 314.783 470.164 314.783 470.313C314.783 470.492 314.634 470.611 314.485 470.611Z" fill="white"/>
<path d="M292.777 468.527C292.747 468.527 292.688 468.527 292.658 468.497C288.816 466.89 285.868 463.169 285.124 459.09C284.588 456.054 285.243 452.75 286.94 450.071C287.03 449.922 287.208 449.892 287.357 449.981C287.506 450.071 287.536 450.249 287.447 450.398C285.839 452.958 285.213 456.114 285.72 459.001C286.434 462.901 289.233 466.413 292.896 467.961C293.045 468.021 293.134 468.2 293.045 468.348C293.015 468.468 292.896 468.527 292.777 468.527Z" fill="white"/>
<path d="M359.36 249.907C353.464 255.89 343.548 255.057 335.657 252.02C335.478 251.961 335.27 251.872 335.091 251.812C322.168 246.632 311.18 236.838 304.509 224.663C304.36 224.395 304.212 224.127 304.063 223.859C298.822 213.917 288.727 165.096 312.43 170.484C321.691 172.598 331.429 185.101 337.474 191.828C345.275 200.521 352.124 210.106 357.812 220.317C360.403 224.961 362.785 229.843 363.499 235.112C364.214 240.381 363.083 246.096 359.36 249.907Z" fill="#FFCBBB"/>
<path d="M335.657 252.02C335.478 251.961 335.269 251.872 335.091 251.812C322.167 246.632 311.179 236.838 304.509 224.663C305.253 224.425 305.998 224.187 306.653 223.919C311.268 222.014 315.914 220.079 320.529 218.174C320.708 230.855 326.396 243.328 335.657 252.02Z" fill="#F6AF9B"/>
<path d="M290.99 169.115H247.871L251.474 158.22C252.308 155.66 254.72 153.933 257.4 153.933H281.49C284.2 153.933 286.582 155.66 287.416 158.22L290.99 169.115Z" fill="#B9B5B2"/>
<path d="M314.336 271.102C297.928 287.505 221.518 271.102 221.518 271.102L228.992 208.737L221.369 169.859C221.369 164.412 225.806 159.976 231.255 159.976H304.301C309.75 159.976 314.187 164.412 314.187 169.859C314.157 169.829 332.203 253.181 314.336 271.102Z" fill="#B9B5B2"/>
<path d="M388.751 429.798L360.67 437.449C357.305 438.371 353.881 436.228 353.196 432.805L328.004 305.693H294.146C271.485 305.098 261.867 292.684 261.867 279.854L258.264 267.232C257.847 266.815 322.465 264.285 349.354 265.297C360.462 265.714 369.812 273.722 371.956 284.617L393.098 422.832C393.664 425.928 391.788 428.965 388.751 429.798Z" fill="#FCA32D"/>
<path d="M255.495 305.782H328.332L255.495 291.345V305.782Z" fill="#EF8E18"/>
<path d="M295.516 282.384V429.5C295.516 432.805 292.836 435.514 289.501 435.514H260.05C256.715 435.514 254.035 432.835 254.035 429.5L252.963 407.591L248.02 305.693H227.384C224.912 305.634 222.619 305.425 220.446 305.098C202.728 302.389 195.104 291.315 195.104 279.854L204.127 263.035C203.681 262.588 252.755 264.404 279.168 265.416C288.31 265.744 295.516 273.245 295.516 282.384Z" fill="#FFB548"/>
<path d="M282.979 378.15C282.801 378.15 282.682 378.001 282.682 377.852L285.004 289.231C285.004 281.729 279.912 275.299 272.617 273.543C272.468 273.513 272.349 273.335 272.408 273.186C272.438 273.037 272.617 272.918 272.766 272.977C280.329 274.793 285.63 281.462 285.63 289.261L283.307 377.882C283.277 378.001 283.158 378.15 282.979 378.15Z" fill="#FCA32D"/>
<path d="M281.699 427.417C281.52 427.417 281.401 427.268 281.401 427.119L282.295 393.451C282.295 393.272 282.444 393.153 282.592 393.153C282.771 393.153 282.89 393.302 282.89 393.451L281.997 427.119C281.997 427.268 281.848 427.417 281.699 427.417Z" fill="#FCA32D"/>
<path d="M359.687 296.286C359.538 296.286 359.419 296.197 359.389 296.048L358.883 293.428C358.168 289.737 356.531 286.254 354.178 283.367C350.069 278.276 343.935 275.18 337.413 274.853L323.805 274.168C323.626 274.168 323.507 274.019 323.507 273.841C323.507 273.662 323.626 273.543 323.834 273.543L337.443 274.228C344.143 274.555 350.426 277.74 354.655 282.98C357.067 285.957 358.734 289.529 359.479 293.309L359.985 295.959C360.015 296.108 359.925 296.286 359.747 296.316C359.717 296.286 359.717 296.286 359.687 296.286Z" fill="#EF8E18"/>
<path d="M373.266 365.587C373.117 365.587 372.998 365.498 372.968 365.349L361.385 306.348C361.355 306.199 361.444 306.021 361.623 305.991C361.772 305.961 361.95 306.05 361.98 306.229L373.564 365.23C373.594 365.379 373.504 365.558 373.326 365.587C373.326 365.587 373.296 365.587 373.266 365.587Z" fill="#EF8E18"/>
<path d="M382.11 410.568C381.961 410.568 381.842 410.478 381.812 410.329L374.249 371.809C374.219 371.66 374.308 371.482 374.487 371.452C374.666 371.422 374.815 371.511 374.844 371.69L382.408 410.21C382.438 410.359 382.348 410.538 382.17 410.568C382.14 410.568 382.14 410.568 382.11 410.568Z" fill="#EF8E18"/>
<path d="M238.491 203.766C237.479 225.258 234.025 246.662 228.248 267.381C226.818 272.561 225.181 277.8 222.441 282.414C219.701 287.058 215.681 291.106 210.619 292.982C202.996 295.81 193.973 293.041 188.167 287.296C182.36 281.581 179.501 273.364 178.906 265.238C178.31 257.111 179.769 248.984 181.586 241.036C182.807 235.797 184.147 230.557 185.755 225.407C187.571 219.573 189.626 213.857 192.097 208.261C193.259 205.641 194.48 203.081 195.79 200.551C198.827 194.686 202.341 189.09 206.361 183.85C211.751 176.855 221.22 163.132 230.6 171.913C238.968 179.802 238.998 193.198 238.491 203.766Z" fill="#FFCBBB"/>
<path d="M233.4 227.967L185.755 225.467C187.571 219.632 189.626 213.917 192.098 208.32L233.4 227.967Z" fill="#F6AF9B"/>
<path d="M261.927 130.952L253.887 129.374L250.701 103.505C250.194 99.3674 253.053 95.557 257.162 94.9021L282.682 90.794L282.295 100.588L261.927 130.952Z" fill="#2E3D63"/>
<path d="M296.588 110.471C296.588 118.092 293.342 124.284 289.352 124.284C285.362 124.284 282.116 118.092 282.116 110.471C282.116 102.85 285.362 99.665 289.352 99.665C293.342 99.665 296.588 102.85 296.588 110.471Z" fill="#2E3D63"/>
<path d="M281.848 110.769V139.138V156.672L272.29 162.685L257.937 156.672V139.138V110.769H269.877H281.848Z" fill="#FFCBBB"/>
<path d="M281.849 140.537V154.915C277.68 150.718 271.069 144.229 267.287 140.537H281.849Z" fill="#F6AF9B"/>
<path d="M290.871 99.8437L294.683 132.917C295.725 142.115 286.851 149.289 278.096 146.283C271.426 143.99 265.351 140.716 264.607 136.429C263.118 127.915 264.16 109.578 264.518 104.368C264.577 103.535 265.173 102.85 266.007 102.672L288.697 98.2362C289.74 98.0278 290.752 98.772 290.871 99.8437Z" fill="#FFCBBB"/>
<path d="M296.529 104.934C290.425 107.941 272.469 104.904 269.342 98.5934C266.245 92.2825 277.144 84.1259 285.273 82.0719C291.884 80.4048 298.852 81.7444 301.979 88.0256C305.105 94.3067 302.664 101.927 296.529 104.934Z" fill="#2E3D63"/>
<path d="M278.186 95.1105C278.186 99.0994 275.148 103.624 269.788 103.624C264.428 103.624 258.771 99.0994 258.771 95.1105C258.771 91.1215 263.118 87.8767 268.478 87.8767C273.838 87.8767 278.186 91.1215 278.186 95.1105Z" fill="#2E3D63"/>
<path d="M294.116 106.482H270.83C266.78 106.482 263.802 110.263 264.726 114.192L265.649 118.032C265.649 118.032 267.406 124.879 256.626 125.474L257.787 101.987H293.104L294.116 106.482Z" fill="#2E3D63"/>
<path d="M253.858 113.894C253.768 113.894 253.679 113.865 253.619 113.775C253.53 113.656 253.56 113.448 253.679 113.359L261.332 107.643C261.451 107.554 261.659 107.584 261.749 107.703C261.838 107.822 261.808 108.03 261.689 108.119L254.036 113.835C253.977 113.894 253.917 113.894 253.858 113.894Z" fill="#727B91"/>
<path d="M254.78 117.973C254.691 117.973 254.602 117.943 254.542 117.854C254.453 117.735 254.483 117.526 254.602 117.437L262.255 111.721C262.374 111.632 262.582 111.662 262.672 111.781C262.761 111.9 262.731 112.108 262.612 112.198L254.959 117.913C254.9 117.943 254.84 117.973 254.78 117.973Z" fill="#727B91"/>
<path d="M257.639 133.095C260.83 133.095 263.416 130.51 263.416 127.32C263.416 124.131 260.83 121.545 257.639 121.545C254.449 121.545 251.862 124.131 251.862 127.32C251.862 130.51 254.449 133.095 257.639 133.095Z" fill="#FFCBBB"/>
<path d="M260.944 127.707C260.796 127.707 260.676 127.588 260.647 127.469C260.408 126.07 259.247 124.849 257.877 124.552C256.508 124.254 254.929 124.879 254.155 126.04C254.066 126.189 253.887 126.219 253.738 126.129C253.589 126.04 253.56 125.861 253.649 125.713C254.572 124.313 256.388 123.599 257.996 123.956C259.634 124.313 260.944 125.713 261.212 127.38C261.242 127.558 261.123 127.707 260.974 127.737C261.004 127.707 260.974 127.707 260.944 127.707Z" fill="#350453"/>
<path d="M255.138 129.076C255.019 129.076 254.9 128.987 254.84 128.868C254.244 127.112 255.078 125.028 256.686 124.105C256.835 124.016 257.014 124.075 257.103 124.224C257.192 124.373 257.133 124.552 256.984 124.641C255.644 125.415 254.929 127.231 255.406 128.689C255.465 128.838 255.376 129.017 255.227 129.076C255.197 129.047 255.168 129.076 255.138 129.076Z" fill="#350453"/>
<path d="M278.215 120.205C278.791 120.205 279.257 119.739 279.257 119.163C279.257 118.588 278.791 118.122 278.215 118.122C277.639 118.122 277.173 118.588 277.173 119.163C277.173 119.739 277.639 120.205 278.215 120.205Z" fill="#350453"/>
<path d="M288.727 120.205C289.302 120.205 289.769 119.739 289.769 119.163C289.769 118.588 289.302 118.122 288.727 118.122C288.151 118.122 287.685 118.588 287.685 119.163C287.685 119.739 288.151 120.205 288.727 120.205Z" fill="#350453"/>
<path d="M275.823 113.591C278.291 112.893 280.122 111.724 279.911 110.981C279.701 110.237 277.529 110.2 275.061 110.899C272.592 111.597 270.761 112.766 270.972 113.51C271.182 114.253 273.354 114.29 275.823 113.591Z" fill="#2E3D63"/>
<path d="M292.752 112.781C292.963 112.037 291.132 110.868 288.664 110.17C286.195 109.472 284.023 109.508 283.813 110.252C283.602 110.995 285.433 112.164 287.901 112.863C290.37 113.561 292.542 113.524 292.752 112.781Z" fill="#2E3D63"/>
<path d="M283.933 128.481C283.784 128.481 283.665 128.392 283.635 128.243C283.605 128.094 283.695 127.915 283.873 127.886L286.404 127.32C286.702 127.112 286.821 126.725 286.732 126.367L283.188 113.686C283.159 113.537 283.248 113.359 283.397 113.329C283.575 113.269 283.724 113.388 283.754 113.537L287.268 126.219C287.447 126.844 287.179 127.499 286.643 127.856L286.553 127.886L283.963 128.481C283.963 128.481 283.963 128.481 283.933 128.481Z" fill="#350453"/>
<path d="M285.272 133.184C284.766 133.036 284.23 132.976 283.724 132.976C281.967 133.006 280.27 133.929 279.257 135.358C279.168 135.506 279.198 135.685 279.347 135.774C279.496 135.864 279.674 135.834 279.764 135.685C280.657 134.405 282.176 133.571 283.724 133.571C285.272 133.542 286.821 134.316 287.744 135.596C287.833 135.745 288.042 135.774 288.161 135.655C288.31 135.566 288.34 135.358 288.22 135.238C287.506 134.226 286.434 133.512 285.272 133.184Z" fill="#350453"/>
<path d="M272.558 94.0983C272.439 94.0983 272.29 94.0686 272.171 94.0388C271.069 93.7411 270.652 92.4015 270.89 91.2406C271.099 90.2582 271.635 89.3949 272.23 88.6805C272.111 88.5912 271.992 88.5316 271.873 88.4721C270.771 87.8767 269.372 87.6683 267.674 87.8172C264.786 88.1149 262.046 89.3949 259.932 91.3894C259.813 91.5085 259.634 91.5085 259.515 91.3894C259.396 91.2703 259.396 91.0917 259.515 90.9726C261.719 88.8591 264.607 87.5493 267.615 87.2218C269.431 87.0432 270.95 87.2813 272.171 87.9363C272.349 88.0256 272.498 88.1149 272.647 88.2339C272.796 88.0553 272.945 87.9065 273.094 87.7576C277.352 83.471 283.248 80.9407 289.353 80.7918C289.531 80.7918 289.65 80.9109 289.65 81.0895C289.65 81.2681 289.531 81.3872 289.353 81.3872C283.427 81.536 277.65 84.0068 273.511 88.1744C273.392 88.2935 273.243 88.4423 273.124 88.5912C274.077 89.4545 274.642 90.6452 274.553 91.8359C274.523 92.4908 274.285 93.0564 273.898 93.4732C273.541 93.8602 273.064 94.0983 272.558 94.0983ZM272.707 89.0675C272.171 89.7224 271.665 90.4963 271.486 91.3596C271.307 92.2229 271.575 93.2648 272.32 93.4434C272.707 93.5327 273.153 93.3839 273.451 93.0564C273.719 92.7588 273.898 92.3122 273.928 91.8062C274.017 90.8238 273.541 89.8117 272.707 89.0675Z" fill="#FEF4DE"/>
<path d="M240.308 162.03C237.895 160.839 235.245 160.125 232.714 159.976C225.21 159.5 217.855 163.012 212.257 168.073C206.688 173.134 202.638 179.623 198.916 186.172C193.735 195.341 189.089 204.808 185.01 214.512L240.308 229.932V162.03Z" fill="#B9B5B2"/>
<path d="M239.802 190.608C239.653 190.608 239.534 190.519 239.504 190.37C237.658 180.159 230.273 171.11 220.625 167.269C220.476 167.21 220.387 167.031 220.446 166.882C220.506 166.734 220.685 166.644 220.833 166.704C230.66 170.603 238.224 179.861 240.07 190.251C240.1 190.429 239.981 190.578 239.832 190.608C239.832 190.608 239.832 190.608 239.802 190.608Z" fill="white"/>
<path d="M265.202 176.468C265.113 176.468 265.054 176.438 264.994 176.379L252.219 163.489C252.1 163.37 252.1 163.191 252.219 163.072C252.338 162.953 252.517 162.953 252.636 163.072L265.113 175.664L270.324 165.602C270.414 165.454 270.592 165.394 270.741 165.483C270.89 165.573 270.95 165.751 270.86 165.9L265.47 176.319C265.441 176.408 265.351 176.468 265.262 176.468C265.232 176.468 265.232 176.468 265.202 176.468Z" fill="white"/>
<path d="M279.496 174.979C279.406 174.979 279.317 174.92 279.257 174.86L272.766 165.93C272.676 165.781 272.706 165.602 272.825 165.513C272.944 165.424 273.153 165.454 273.242 165.573L279.496 174.146L288.042 163.102C288.131 162.983 288.34 162.953 288.459 163.042C288.578 163.132 288.608 163.34 288.518 163.459L279.704 174.831C279.674 174.92 279.585 174.979 279.496 174.979Z" fill="white"/>
<path d="M234.471 216.626C234.442 216.626 234.412 216.626 234.382 216.626L190.549 202.337C190.4 202.277 190.311 202.128 190.37 201.95C190.43 201.801 190.579 201.712 190.757 201.771L234.59 216.06C234.739 216.12 234.829 216.268 234.769 216.447C234.71 216.566 234.59 216.626 234.471 216.626Z" fill="white"/>
<path d="M273.004 260.028C272.825 260.028 272.706 259.879 272.706 259.731V176.17C272.706 175.992 272.855 175.872 273.004 175.872C273.183 175.872 273.302 176.021 273.302 176.17V259.731C273.302 259.879 273.183 260.028 273.004 260.028Z" fill="white"/>
<path d="M267.346 229.575L267.435 236.303L270.085 237.255L274.463 232.165L267.346 229.575Z" fill="#FADDBF"/>
<path d="M274.463 232.165L285.748 201.206L290.037 189.358L286.493 188.078L282.92 186.768L278.632 198.616L267.346 229.575L274.463 232.165Z" fill="#FFB548"/>
<path d="M272.14 231.331L283.425 200.342L287.743 188.524L287.892 188.584L288.041 188.643L283.753 200.461L272.467 231.45L272.14 231.331Z" fill="#FBF2D5"/>
<path d="M269.341 230.319L280.597 199.33L284.915 187.482L285.064 187.542L285.242 187.601L280.924 199.449L269.639 230.408L269.341 230.319Z" fill="#FBF2D5"/>
<path d="M267.464 240.292L270.085 237.255L267.435 236.303L267.464 240.292Z" fill="#0F3843"/>
<path d="M287.714 181.558L289.739 182.302C291.079 182.779 291.764 184.267 291.287 185.607L290.245 188.435L283.366 185.934L284.408 183.106C284.885 181.767 286.374 181.082 287.714 181.558Z" fill="#F76652"/>
<path d="M282.518 186.889L290.297 189.719L291.275 187.033L283.495 184.203L282.518 186.889Z" fill="#2E3D63"/>
<path d="M295.992 221.091C295.665 223.234 293.282 224.187 290.989 224.485C292.121 225.229 292.895 226.181 292.895 227.461C292.865 231.867 288.28 232.522 286.017 232.105C286.761 232.552 287.327 233.177 287.595 234.01C288.041 235.469 287.237 237.077 286.046 237.999C284.825 238.922 283.307 239.309 281.788 239.547C281.222 239.637 280.686 239.726 280.121 239.786C280.299 241.095 279.674 242.465 278.721 243.388C277.53 244.489 275.952 245.025 274.373 245.412C270.621 246.305 265.857 246.573 261.718 245.62C261.241 246.573 260.735 247.525 260.229 248.478C258.531 251.604 256.655 254.64 254.631 257.557C245.876 270.239 234.262 280.985 220.803 288.517C215.502 291.493 209.487 294.054 203.502 292.952C196.832 291.732 191.591 285.927 189.804 279.378C188.375 274.019 188.524 266.22 191.531 261.338C194.122 257.141 198.172 253.062 201.388 249.311C209.189 240.202 218.093 232.016 227.83 224.991C233.369 221.002 239.206 217.37 245.251 214.155C248.645 212.339 255.405 210.077 261.599 209.243C272.229 207.844 283.337 210.404 292.478 216C294.325 217.221 296.32 218.948 295.992 221.091Z" fill="#FFCBBB"/>
<path d="M260.229 248.508C258.531 251.633 256.655 254.67 254.63 257.587C245.191 247.406 238.074 234.903 234.232 221.656L244.059 218.799C247.186 229.634 252.814 239.905 260.229 248.508Z" fill="#2E3D63"/>
<path d="M192.156 260.743C192.097 260.743 192.037 260.713 191.977 260.683C191.829 260.594 191.799 260.415 191.888 260.266C193.764 257.468 196.206 254.729 198.558 252.11C199.482 251.098 200.345 250.115 201.149 249.163C208.981 240.024 217.884 231.837 227.651 224.782C232.178 221.508 236.912 218.471 241.736 215.762C241.885 215.673 242.064 215.733 242.153 215.881C242.243 216.03 242.183 216.209 242.034 216.298C237.21 219.007 232.505 222.044 227.979 225.288C218.242 232.314 209.368 240.47 201.566 249.579C200.732 250.562 199.869 251.514 198.946 252.556C196.593 255.176 194.181 257.885 192.335 260.653C192.335 260.713 192.245 260.743 192.156 260.743Z" fill="#350453"/>
<path d="M286.106 224.425C281.014 224.425 275.952 223.472 271.217 221.627C271.068 221.567 270.979 221.389 271.038 221.24C271.098 221.091 271.276 221.002 271.425 221.061C277.292 223.353 283.694 224.246 289.947 223.621C290.096 223.621 290.245 223.74 290.275 223.889C290.304 224.068 290.156 224.187 290.007 224.217C288.726 224.365 287.416 224.425 286.106 224.425Z" fill="#350453"/>
<path d="M274.641 240.381C271.187 240.381 267.733 239.905 264.457 238.982C264.308 238.922 264.219 238.773 264.249 238.625C264.308 238.476 264.457 238.386 264.606 238.416C269.371 239.756 274.552 240.113 279.495 239.458C279.644 239.428 279.823 239.547 279.823 239.726C279.853 239.905 279.733 240.053 279.555 240.053C277.947 240.262 276.309 240.381 274.641 240.381Z" fill="#350453"/>
<path d="M279.942 233.028C276.13 233.028 272.348 232.343 268.745 231.034C268.596 230.974 268.507 230.795 268.567 230.647C268.626 230.498 268.805 230.408 268.954 230.468C274.284 232.433 280.061 232.939 285.629 231.927C285.778 231.897 285.957 232.016 285.987 232.165C286.016 232.314 285.897 232.492 285.748 232.522C283.813 232.849 281.877 233.028 279.942 233.028Z" fill="#350453"/>
<path d="M241.38 236.124C247.448 236.124 252.368 231.206 252.368 225.139C252.368 219.073 247.448 214.155 241.38 214.155C235.311 214.155 230.392 219.073 230.392 225.139C230.392 231.206 235.311 236.124 241.38 236.124Z" fill="#2E3D63"/>
<path d="M241.38 232.403C245.393 232.403 248.646 229.151 248.646 225.139C248.646 221.128 245.393 217.876 241.38 217.876C237.367 217.876 234.114 221.128 234.114 225.139C234.114 229.151 237.367 232.403 241.38 232.403Z" fill="white"/>
<path d="M241.38 225.913C241.807 225.913 242.154 225.567 242.154 225.139C242.154 224.712 241.807 224.365 241.38 224.365C240.952 224.365 240.605 224.712 240.605 225.139C240.605 225.567 240.952 225.913 241.38 225.913Z" fill="#2E2E2E"/>
<path d="M241.298 219.807L241.084 225.012L241.679 225.037L241.893 219.831L241.298 219.807Z" fill="#350453"/>
<path d="M244.447 227.938L241.201 225.556L241.559 225.08L244.804 227.432L244.447 227.938Z" fill="#350453"/>
<path d="M310.911 230.349L355.161 201.682C355.161 201.682 331.1 158.875 303.139 159.917C275.148 160.988 310.911 230.349 310.911 230.349Z" fill="#B9B5B2"/>
<path d="M421.477 195.043C423.651 194.359 425.884 193.615 427.433 191.977C428.981 190.34 429.488 187.452 427.88 185.845C426.51 184.505 424.187 184.595 422.579 185.637C420.971 186.678 419.988 188.435 419.244 190.191C418.797 191.233 418.44 192.454 418.857 193.495C419.274 194.567 420.822 195.192 421.596 194.359L421.477 195.043Z" fill="#FFCBBB"/>
<path d="M420.882 203.141C423.055 202.456 425.289 201.712 426.837 200.074C428.386 198.437 428.892 195.549 427.284 193.942C425.914 192.602 423.591 192.692 421.983 193.734C420.375 194.776 419.393 196.532 418.648 198.288C418.202 199.33 417.844 200.551 418.261 201.593C418.678 202.664 420.226 203.289 421.001 202.456L420.882 203.141Z" fill="#FFCBBB"/>
<path d="M419.094 210.97C421.268 210.285 423.502 209.541 425.05 207.903C426.599 206.236 427.105 203.379 425.497 201.771C424.127 200.432 421.804 200.521 420.196 201.563C418.588 202.605 417.606 204.361 416.861 206.117C416.414 207.159 416.057 208.38 416.474 209.422C416.891 210.493 418.439 211.118 419.214 210.285L419.094 210.97Z" fill="#FFCBBB"/>
<path d="M340.422 217.638L389.139 202.009C389.139 202.009 409.358 192.841 415.075 195.55C423.115 199.39 416.117 216.834 403.104 229.277C387.828 243.894 358.765 251.485 358.765 251.485C347.807 256.664 334.764 250.919 331.28 239.339C328.927 231.421 329.821 222.937 340.422 217.638Z" fill="#FFCBBB"/>
<path d="M394.29 187.839C395.213 187.065 396.166 186.321 397.327 186.024C398.489 185.726 399.858 185.964 400.573 186.917C401.347 187.959 401.109 189.417 400.782 190.667C398.697 198.497 394.409 205.73 388.543 211.297C387.203 212.547 385.773 213.768 384.076 214.423C381.813 215.316 378.895 215.137 377.317 213.053C375.947 211.297 376.9 209.511 377.853 207.784C380.503 202.962 383.749 198.467 387.441 194.418C389.555 192.067 391.848 189.864 394.29 187.839Z" fill="#FFCBBB"/>
<path d="M395.481 212.964C394.825 217.578 392.235 221.924 388.364 224.514C384.492 227.104 379.341 227.819 374.993 226.152C373.981 225.765 381.931 211.297 382.765 210.047C384.433 207.546 386.249 205.194 388.244 202.962C390.388 200.551 392.175 198.645 393.932 202.456C395.421 205.701 395.987 209.451 395.481 212.964Z" fill="#FFCBBB"/>
<path d="M321.364 252.229H321.334C321.155 252.199 321.066 252.05 321.066 251.901C323.776 232.552 321.483 212.458 315.885 193.734C315.825 193.585 315.914 193.406 316.093 193.347C316.242 193.287 316.421 193.376 316.48 193.555C322.108 212.339 324.401 232.552 321.661 251.961C321.632 252.11 321.513 252.229 321.364 252.229Z" fill="white"/>
<path d="M318.356 202.307C318.296 202.307 318.207 202.277 318.148 202.247C318.028 202.128 317.999 201.95 318.118 201.831C320.172 199.419 321.244 196.204 321.125 193.049C321.125 192.87 321.244 192.751 321.423 192.721C321.572 192.721 321.721 192.841 321.751 193.019C321.9 196.323 320.738 199.687 318.594 202.218C318.535 202.247 318.445 202.307 318.356 202.307Z" fill="white"/>
<path d="M394.736 191.114C393.903 191.114 393.069 190.816 392.443 190.28C392.324 190.161 392.295 189.983 392.414 189.864C392.533 189.745 392.711 189.715 392.831 189.834C393.664 190.548 394.945 190.727 395.957 190.251C396.97 189.774 397.625 188.673 397.595 187.572C397.595 187.393 397.714 187.274 397.893 187.274C398.071 187.274 398.191 187.393 398.191 187.572C398.22 188.911 397.416 190.251 396.196 190.816C395.749 190.995 395.243 191.114 394.736 191.114Z" fill="#350453"/>
<path d="M392.563 221.24C392.503 221.24 392.444 221.21 392.384 221.18C392.235 221.091 392.205 220.883 392.324 220.763C395.868 215.881 396.523 209.422 394.022 204.331C393.962 204.212 393.992 204.093 394.052 204.004C395.153 202.724 396.166 201.295 397 199.806C397.089 199.658 397.268 199.598 397.416 199.687C397.565 199.777 397.625 199.955 397.536 200.104C396.702 201.563 395.749 202.962 394.647 204.242C397.148 209.511 396.434 216.09 392.801 221.091C392.741 221.18 392.652 221.24 392.563 221.24Z" fill="#350453"/>
<path d="M341.523 219.424C341.404 219.424 341.314 219.364 341.255 219.245C341.166 219.096 341.225 218.918 341.374 218.828C353.464 212.696 366.06 208.142 378.835 205.284C379.013 205.254 379.162 205.343 379.192 205.522C379.222 205.671 379.132 205.849 378.954 205.879C366.239 208.707 353.672 213.262 341.612 219.364C341.612 219.424 341.582 219.424 341.523 219.424Z" fill="#350453"/>
<path d="M176.285 190.429H100.828V255.771H176.285V190.429Z" fill="white"/>
<path d="M121.851 234.517L107.438 225.288H136.323L121.851 234.517Z" fill="#E1E7F7"/>
<path d="M125.514 228.474L136.324 225.288L107.35 224.633L125.514 228.474Z" fill="white"/>
<path d="M175.302 225.675H101.84C101.542 225.675 101.334 225.437 101.334 225.169C101.334 224.901 101.572 224.663 101.84 224.663H175.302C175.6 224.663 175.809 224.901 175.809 225.169C175.809 225.437 175.6 225.675 175.302 225.675Z" fill="#E1E7F7"/>
<path d="M175.302 248.24H101.84C101.542 248.24 101.334 248.002 101.334 247.734C101.334 247.466 101.572 247.228 101.84 247.228H175.302C175.6 247.228 175.809 247.466 175.809 247.734C175.809 248.002 175.6 248.24 175.302 248.24Z" fill="#E1E7F7"/>
<path d="M175.302 231.034H101.84C101.542 231.034 101.334 230.795 101.334 230.528C101.334 230.26 101.572 230.021 101.84 230.021H175.302C175.6 230.021 175.809 230.26 175.809 230.528C175.809 230.795 175.6 231.034 175.302 231.034Z" fill="#E1E7F7"/>
<path d="M175.302 196.591H101.84C101.542 196.591 101.334 196.353 101.334 196.085C101.334 195.817 101.572 195.579 101.84 195.579H175.302C175.6 195.579 175.809 195.817 175.809 196.085C175.809 196.353 175.6 196.591 175.302 196.591Z" fill="#E1E7F7"/>
<path d="M175.302 202.367H101.84C101.542 202.367 101.334 202.128 101.334 201.86C101.334 201.563 101.572 201.354 101.84 201.354H175.302C175.6 201.354 175.809 201.593 175.809 201.86C175.839 202.158 175.6 202.367 175.302 202.367Z" fill="#E1E7F7"/>
<path d="M175.302 208.529H101.84C101.542 208.529 101.334 208.29 101.334 208.023C101.334 207.755 101.572 207.516 101.84 207.516H175.302C175.6 207.516 175.809 207.755 175.809 208.023C175.809 208.29 175.6 208.529 175.302 208.529Z" fill="#E1E7F7"/>
<path d="M154.875 191.144H101.84C101.542 191.144 101.334 190.906 101.334 190.638C101.334 190.34 101.572 190.132 101.84 190.132H154.875C162.23 190.132 168.99 187.482 172.92 183.017C173.099 182.809 173.426 182.779 173.665 182.957C173.873 183.136 173.903 183.463 173.724 183.702C169.555 188.345 162.528 191.144 154.875 191.144Z" fill="white"/>
<path d="M175.302 213.976H101.84C101.542 213.976 101.334 213.738 101.334 213.47C101.334 213.202 101.572 212.964 101.84 212.964H175.302C175.6 212.964 175.809 213.202 175.809 213.47C175.809 213.738 175.6 213.976 175.302 213.976Z" fill="#E1E7F7"/>
<path d="M175.302 220.257H101.84C101.542 220.257 101.334 220.019 101.334 219.751C101.334 219.483 101.572 219.245 101.84 219.245H175.302C175.6 219.245 175.809 219.483 175.809 219.751C175.809 220.019 175.6 220.257 175.302 220.257Z" fill="#E1E7F7"/>
<path d="M175.302 237.047H101.84C101.542 237.047 101.334 236.809 101.334 236.541C101.334 236.243 101.572 236.035 101.84 236.035H175.302C175.6 236.035 175.809 236.273 175.809 236.541C175.839 236.809 175.6 237.047 175.302 237.047Z" fill="#E1E7F7"/>
<path d="M175.302 242.524H101.84C101.542 242.524 101.334 242.286 101.334 242.018C101.334 241.75 101.572 241.512 101.84 241.512H175.302C175.6 241.512 175.809 241.75 175.809 242.018C175.809 242.286 175.6 242.524 175.302 242.524Z" fill="#E1E7F7"/>
<path d="M157.466 223.383L131.589 212.726H166.31L157.466 223.383Z" fill="#E1E7F7"/>
<path d="M159.312 218.501L130.755 212.428H165.476L159.312 218.501Z" fill="white"/>
<path d="M104.878 194.954L115.568 207.903L143.262 194.984L104.878 194.954Z" fill="#E1E7F7"/>
<path d="M104.432 194.954L109.881 203.349L142.339 194.954H104.432Z" fill="white"/>
<path d="M155.769 251.574V255.027H122.239V251.574C122.239 249.044 120.184 246.99 117.653 246.99H95.498V264.583H182.509V246.99H160.354C157.823 246.96 155.769 249.044 155.769 251.574Z" fill="#F76652"/>
<path fill-rule="evenodd" clip-rule="evenodd" d="M328.005 262.737C328.005 258.629 323.359 255.295 317.642 255.295H300.668C294.951 255.295 290.306 258.629 290.306 262.737C290.306 263.213 290.842 263.6 291.497 263.6H326.813C327.469 263.6 328.005 263.213 328.005 262.737Z" fill="white"/>
<path d="M169.257 475.612C168.811 475.612 168.394 475.314 168.275 474.838L117.563 268.244L66.8511 474.838C66.732 475.374 66.1662 475.701 65.6302 475.582C65.0942 475.463 64.7666 474.897 64.8857 474.362L116.58 263.809C116.699 263.362 117.086 263.035 117.563 263.035C118.039 263.035 118.427 263.362 118.546 263.809L170.24 474.362C170.359 474.897 170.032 475.433 169.496 475.582C169.406 475.612 169.347 475.612 169.257 475.612Z" fill="#E1E7F7"/>
<path d="M595.112 475.612C594.665 475.612 594.248 475.314 594.129 474.838L543.417 268.244L492.706 474.838C492.586 475.374 492.021 475.701 491.485 475.582C490.949 475.463 490.621 474.897 490.74 474.362L542.435 263.809C542.554 263.362 542.941 263.035 543.417 263.035C543.894 263.035 544.281 263.362 544.4 263.809L596.095 474.362C596.214 474.897 595.886 475.433 595.35 475.582C595.291 475.612 595.201 475.612 595.112 475.612Z" fill="#E1E7F7"/>
<path d="M629 263.213H48.8652V271.251H629V263.213Z" fill="#E1E7F7"/>
<path d="M400.871 233.385H560.273C561.166 233.385 561.911 232.641 562.06 231.659L574.983 130.595C575.132 129.374 574.298 128.302 573.197 128.302H413.765C412.872 128.302 412.127 129.047 411.979 130.029L399.055 231.093C398.936 232.284 399.799 233.385 400.871 233.385Z" fill="#727B91"/>
<path d="M473.32 181.737L476.655 233.385H498.304L473.32 181.737Z" fill="#475577"/>
<path d="M473.291 181.737H503.962L528.887 265.148H498.245L473.291 181.737Z" fill="#727B91"/>
<path d="M463.435 265.416H553.513C553.513 262.082 550.803 259.373 547.468 259.373H469.479C466.144 259.343 463.435 262.052 463.435 265.416Z" fill="#727B91"/>
<path d="M537.403 156.999C538.407 156.999 539.22 156.186 539.22 155.183C539.22 154.18 538.407 153.367 537.403 153.367C536.4 153.367 535.587 154.18 535.587 155.183C535.587 156.186 536.4 156.999 537.403 156.999Z" fill="#475577"/>
<path d="M531.924 156.999C532.927 156.999 533.74 156.186 533.74 155.183C533.74 154.18 532.927 153.367 531.924 153.367C530.921 153.367 530.107 154.18 530.107 155.183C530.107 156.186 530.921 156.999 531.924 156.999Z" fill="#475577"/>
<path d="M526.444 156.999C527.448 156.999 528.261 156.186 528.261 155.183C528.261 154.18 527.448 153.367 526.444 153.367C525.441 153.367 524.628 154.18 524.628 155.183C524.628 156.186 525.441 156.999 526.444 156.999Z" fill="#475577"/>
<path d="M520.966 156.999C521.969 156.999 522.782 156.186 522.782 155.183C522.782 154.18 521.969 153.367 520.966 153.367C519.963 153.367 519.149 154.18 519.149 155.183C519.149 156.186 519.963 156.999 520.966 156.999Z" fill="#475577"/>
<path d="M515.486 156.999C516.49 156.999 517.303 156.186 517.303 155.183C517.303 154.18 516.49 153.367 515.486 153.367C514.483 153.367 513.67 154.18 513.67 155.183C513.67 156.186 514.483 156.999 515.486 156.999Z" fill="#475577"/>
<path d="M509.978 156.999C510.981 156.999 511.794 156.186 511.794 155.183C511.794 154.18 510.981 153.367 509.978 153.367C508.974 153.367 508.161 154.18 508.161 155.183C508.161 156.186 508.974 156.999 509.978 156.999Z" fill="#475577"/>
<path d="M504.498 156.999C505.501 156.999 506.315 156.186 506.315 155.183C506.315 154.18 505.501 153.367 504.498 153.367C503.495 153.367 502.682 154.18 502.682 155.183C502.682 156.186 503.495 156.999 504.498 156.999Z" fill="#475577"/>
<path d="M499.02 156.999C500.023 156.999 500.836 156.186 500.836 155.183C500.836 154.18 500.023 153.367 499.02 153.367C498.016 153.367 497.203 154.18 497.203 155.183C497.203 156.186 498.016 156.999 499.02 156.999Z" fill="#475577"/>
<path d="M493.54 156.999C494.543 156.999 495.357 156.186 495.357 155.183C495.357 154.18 494.543 153.367 493.54 153.367C492.537 153.367 491.724 154.18 491.724 155.183C491.724 156.186 492.537 156.999 493.54 156.999Z" fill="#475577"/>
<path d="M488.061 156.999C489.064 156.999 489.877 156.186 489.877 155.183C489.877 154.18 489.064 153.367 488.061 153.367C487.057 153.367 486.244 154.18 486.244 155.183C486.244 156.186 487.057 156.999 488.061 156.999Z" fill="#475577"/>
<path d="M482.582 156.999C483.585 156.999 484.399 156.186 484.399 155.183C484.399 154.18 483.585 153.367 482.582 153.367C481.579 153.367 480.766 154.18 480.766 155.183C480.766 156.186 481.579 156.999 482.582 156.999Z" fill="#475577"/>
<path d="M477.103 156.999C478.106 156.999 478.919 156.186 478.919 155.183C478.919 154.18 478.106 153.367 477.103 153.367C476.099 153.367 475.286 154.18 475.286 155.183C475.286 156.186 476.099 156.999 477.103 156.999Z" fill="#475577"/>
<path d="M471.594 156.999C472.597 156.999 473.41 156.186 473.41 155.183C473.41 154.18 472.597 153.367 471.594 153.367C470.591 153.367 469.777 154.18 469.777 155.183C469.777 156.186 470.591 156.999 471.594 156.999Z" fill="#475577"/>
<path d="M466.114 156.999C467.118 156.999 467.931 156.186 467.931 155.183C467.931 154.18 467.118 153.367 466.114 153.367C465.111 153.367 464.298 154.18 464.298 155.183C464.298 156.186 465.111 156.999 466.114 156.999Z" fill="#475577"/>
<path d="M460.636 156.999C461.639 156.999 462.452 156.186 462.452 155.183C462.452 154.18 461.639 153.367 460.636 153.367C459.633 153.367 458.819 154.18 458.819 155.183C458.819 156.186 459.633 156.999 460.636 156.999Z" fill="#475577"/>
<path d="M455.156 156.999C456.159 156.999 456.973 156.186 456.973 155.183C456.973 154.18 456.159 153.367 455.156 153.367C454.153 153.367 453.34 154.18 453.34 155.183C453.34 156.186 454.153 156.999 455.156 156.999Z" fill="#475577"/>
<path d="M537.403 167.031C538.407 167.031 539.22 166.218 539.22 165.215C539.22 164.212 538.407 163.399 537.403 163.399C536.4 163.399 535.587 164.212 535.587 165.215C535.587 166.218 536.4 167.031 537.403 167.031Z" fill="#475577"/>
<path d="M531.924 167.031C532.927 167.031 533.74 166.218 533.74 165.215C533.74 164.212 532.927 163.399 531.924 163.399C530.921 163.399 530.107 164.212 530.107 165.215C530.107 166.218 530.921 167.031 531.924 167.031Z" fill="#475577"/>
<path d="M526.444 167.031C527.448 167.031 528.261 166.218 528.261 165.215C528.261 164.212 527.448 163.399 526.444 163.399C525.441 163.399 524.628 164.212 524.628 165.215C524.628 166.218 525.441 167.031 526.444 167.031Z" fill="#475577"/>
<path d="M520.966 167.031C521.969 167.031 522.782 166.218 522.782 165.215C522.782 164.212 521.969 163.399 520.966 163.399C519.963 163.399 519.149 164.212 519.149 165.215C519.149 166.218 519.963 167.031 520.966 167.031Z" fill="#475577"/>
<path d="M515.486 167.031C516.49 167.031 517.303 166.218 517.303 165.215C517.303 164.212 516.49 163.399 515.486 163.399C514.483 163.399 513.67 164.212 513.67 165.215C513.67 166.218 514.483 167.031 515.486 167.031Z" fill="#475577"/>
<path d="M509.978 167.031C510.981 167.031 511.794 166.218 511.794 165.215C511.794 164.212 510.981 163.399 509.978 163.399C508.974 163.399 508.161 164.212 508.161 165.215C508.161 166.218 508.974 167.031 509.978 167.031Z" fill="#475577"/>
<path d="M504.498 167.031C505.501 167.031 506.315 166.218 506.315 165.215C506.315 164.212 505.501 163.399 504.498 163.399C503.495 163.399 502.682 164.212 502.682 165.215C502.682 166.218 503.495 167.031 504.498 167.031Z" fill="#475577"/>
<path d="M499.02 167.031C500.023 167.031 500.836 166.218 500.836 165.215C500.836 164.212 500.023 163.399 499.02 163.399C498.016 163.399 497.203 164.212 497.203 165.215C497.203 166.218 498.016 167.031 499.02 167.031Z" fill="#475577"/>
<path d="M493.54 167.031C494.543 167.031 495.357 166.218 495.357 165.215C495.357 164.212 494.543 163.399 493.54 163.399C492.537 163.399 491.724 164.212 491.724 165.215C491.724 166.218 492.537 167.031 493.54 167.031Z" fill="#475577"/>
<path d="M488.061 167.031C489.064 167.031 489.877 166.218 489.877 165.215C489.877 164.212 489.064 163.399 488.061 163.399C487.057 163.399 486.244 164.212 486.244 165.215C486.244 166.218 487.057 167.031 488.061 167.031Z" fill="#475577"/>
<path d="M482.582 167.031C483.585 167.031 484.399 166.218 484.399 165.215C484.399 164.212 483.585 163.399 482.582 163.399C481.579 163.399 480.766 164.212 480.766 165.215C480.766 166.218 481.579 167.031 482.582 167.031Z" fill="#475577"/>
<path d="M477.103 167.031C478.106 167.031 478.919 166.218 478.919 165.215C478.919 164.212 478.106 163.399 477.103 163.399C476.099 163.399 475.286 164.212 475.286 165.215C475.286 166.218 476.099 167.031 477.103 167.031Z" fill="#475577"/>
<path d="M471.594 167.031C472.597 167.031 473.41 166.218 473.41 165.215C473.41 164.212 472.597 163.399 471.594 163.399C470.591 163.399 469.777 164.212 469.777 165.215C469.777 166.218 470.591 167.031 471.594 167.031Z" fill="#475577"/>
<path d="M466.114 167.031C467.118 167.031 467.931 166.218 467.931 165.215C467.931 164.212 467.118 163.399 466.114 163.399C465.111 163.399 464.298 164.212 464.298 165.215C464.298 166.218 465.111 167.031 466.114 167.031Z" fill="#475577"/>
<path d="M460.636 167.031C461.639 167.031 462.452 166.218 462.452 165.215C462.452 164.212 461.639 163.399 460.636 163.399C459.633 163.399 458.819 164.212 458.819 165.215C458.819 166.218 459.633 167.031 460.636 167.031Z" fill="#475577"/>
<path d="M455.156 167.031C456.159 167.031 456.973 166.218 456.973 165.215C456.973 164.212 456.159 163.399 455.156 163.399C454.153 163.399 453.34 164.212 453.34 165.215C453.34 166.218 454.153 167.031 455.156 167.031Z" fill="#475577"/>
<path d="M540.232 162.03C541.236 162.03 542.049 161.217 542.049 160.214C542.049 159.211 541.236 158.398 540.232 158.398C539.229 158.398 538.416 159.211 538.416 160.214C538.416 161.217 539.229 162.03 540.232 162.03Z" fill="#475577"/>
<path d="M534.753 162.03C535.756 162.03 536.569 161.217 536.569 160.214C536.569 159.211 535.756 158.398 534.753 158.398C533.75 158.398 532.937 159.211 532.937 160.214C532.937 161.217 533.75 162.03 534.753 162.03Z" fill="#475577"/>
<path d="M529.273 162.03C530.277 162.03 531.09 161.217 531.09 160.214C531.09 159.211 530.277 158.398 529.273 158.398C528.27 158.398 527.457 159.211 527.457 160.214C527.457 161.217 528.27 162.03 529.273 162.03Z" fill="#475577"/>
<path d="M523.765 162.03C524.768 162.03 525.581 161.217 525.581 160.214C525.581 159.211 524.768 158.398 523.765 158.398C522.761 158.398 521.948 159.211 521.948 160.214C521.948 161.217 522.761 162.03 523.765 162.03Z" fill="#475577"/>
<path d="M518.286 162.03C519.289 162.03 520.103 161.217 520.103 160.214C520.103 159.211 519.289 158.398 518.286 158.398C517.283 158.398 516.47 159.211 516.47 160.214C516.47 161.217 517.283 162.03 518.286 162.03Z" fill="#475577"/>
<path d="M512.807 162.03C513.81 162.03 514.623 161.217 514.623 160.214C514.623 159.211 513.81 158.398 512.807 158.398C511.803 158.398 510.99 159.211 510.99 160.214C510.99 161.217 511.803 162.03 512.807 162.03Z" fill="#475577"/>
<path d="M507.327 162.03C508.33 162.03 509.144 161.217 509.144 160.214C509.144 159.211 508.33 158.398 507.327 158.398C506.324 158.398 505.511 159.211 505.511 160.214C505.511 161.217 506.324 162.03 507.327 162.03Z" fill="#475577"/>
<path d="M501.849 162.03C502.852 162.03 503.665 161.217 503.665 160.214C503.665 159.211 502.852 158.398 501.849 158.398C500.846 158.398 500.032 159.211 500.032 160.214C500.032 161.217 500.846 162.03 501.849 162.03Z" fill="#475577"/>
<path d="M496.369 162.03C497.372 162.03 498.186 161.217 498.186 160.214C498.186 159.211 497.372 158.398 496.369 158.398C495.366 158.398 494.553 159.211 494.553 160.214C494.553 161.217 495.366 162.03 496.369 162.03Z" fill="#475577"/>
<path d="M490.89 162.03C491.893 162.03 492.706 161.217 492.706 160.214C492.706 159.211 491.893 158.398 490.89 158.398C489.886 158.398 489.073 159.211 489.073 160.214C489.073 161.217 489.886 162.03 490.89 162.03Z" fill="#475577"/>
<path d="M485.381 162.03C486.384 162.03 487.197 161.217 487.197 160.214C487.197 159.211 486.384 158.398 485.381 158.398C484.378 158.398 483.564 159.211 483.564 160.214C483.564 161.217 484.378 162.03 485.381 162.03Z" fill="#475577"/>
<path d="M479.902 162.03C480.906 162.03 481.719 161.217 481.719 160.214C481.719 159.211 480.906 158.398 479.902 158.398C478.899 158.398 478.086 159.211 478.086 160.214C478.086 161.217 478.899 162.03 479.902 162.03Z" fill="#475577"/>
<path d="M474.423 162.03C475.426 162.03 476.239 161.217 476.239 160.214C476.239 159.211 475.426 158.398 474.423 158.398C473.42 158.398 472.606 159.211 472.606 160.214C472.606 161.217 473.42 162.03 474.423 162.03Z" fill="#475577"/>
<path d="M468.943 162.03C469.947 162.03 470.76 161.217 470.76 160.214C470.76 159.211 469.947 158.398 468.943 158.398C467.94 158.398 467.127 159.211 467.127 160.214C467.127 161.217 467.94 162.03 468.943 162.03Z" fill="#475577"/>
<path d="M463.465 162.03C464.468 162.03 465.281 161.217 465.281 160.214C465.281 159.211 464.468 158.398 463.465 158.398C462.462 158.398 461.648 159.211 461.648 160.214C461.648 161.217 462.462 162.03 463.465 162.03Z" fill="#475577"/>
<path d="M457.985 162.03C458.989 162.03 459.802 161.217 459.802 160.214C459.802 159.211 458.989 158.398 457.985 158.398C456.982 158.398 456.169 159.211 456.169 160.214C456.169 161.217 456.982 162.03 457.985 162.03Z" fill="#475577"/>
<path d="M471.623 384.669C469.39 385.8 467.127 386.902 465.162 388.42C463.613 389.64 462.273 391.159 460.754 392.379C460.457 389.075 460.576 385.77 461.112 382.496C459.265 386.187 458.074 390.176 457.598 394.284C455.662 395.118 453.548 395.654 451.613 396.547C450.809 396.934 450.064 397.35 449.32 397.856C448.992 394.85 448.277 391.903 447.235 389.105C447.116 393.153 446.521 397.202 445.449 401.101C440.952 405.567 437.23 406.519 431.483 413.693C431.423 408.841 431.661 403.959 432.138 399.137C432.495 395.177 433.031 391.188 434.252 387.408C436.426 385.205 439.106 383.508 442.024 382.526C440.208 382.168 438.302 382.109 436.456 382.317C436.456 382.288 436.485 382.258 436.485 382.228C438.808 378.06 442.798 375.024 447.384 373.714C450.153 372.94 453.369 372.136 455.633 371.958C453.697 370.827 451.553 370.053 449.349 369.695C449.558 369.576 449.737 369.487 449.945 369.368C456.526 365.885 464.03 364.426 471.474 364.456C473.529 364.456 475.584 364.575 477.579 365.022C479.634 365.498 481.569 366.272 483.445 367.195C484.577 367.76 487.495 369.993 487.495 369.993C487.495 369.993 481.956 379.4 471.623 384.669Z" fill="#A2CDB7"/>
<path d="M496.458 413.961C496.19 413.961 495.981 413.753 495.951 413.485C495.564 402.441 494.105 391.367 491.634 380.561C490.83 377.108 489.758 373.208 486.988 370.827C484.725 368.892 481.42 367.999 477.132 368.147C469.657 368.415 461.796 371.482 455.007 376.78C449.319 381.216 444.168 387.229 439.314 395.148C439.165 395.386 438.867 395.445 438.629 395.326C438.391 395.177 438.331 394.88 438.45 394.641C443.364 386.634 448.575 380.531 454.381 376.006C461.349 370.588 469.389 367.433 477.102 367.165C481.658 367.016 485.202 367.999 487.643 370.082C490.651 372.642 491.782 376.721 492.616 380.353C495.118 391.188 496.577 402.322 496.964 413.455C496.964 413.693 496.755 413.931 496.458 413.961Z" fill="#91B8A4"/>
<path d="M488.24 344.035C488.24 344.035 467.961 338.766 463.107 334.569C465.757 332.961 468.646 331.8 471.653 331.086C466.293 327.216 459.712 325.072 453.102 324.983C452.298 324.15 451.464 323.316 450.66 322.483C448.724 320.488 446.729 318.494 444.466 316.946C448.01 315.904 451.643 315.189 455.335 314.832C451.672 313.344 447.563 313.611 443.602 313.611C440.327 313.611 436.873 313.373 434.014 311.885C434.014 311.885 434.014 311.885 433.984 311.885C431.9 310.337 430.351 308.194 428.594 306.259C426.629 304.115 424.098 302.121 421.18 302.032C430.351 299.382 440.178 299.174 449.499 301.228C453.429 303.192 456.943 306.05 459.653 309.533C458.64 307.598 457.836 305.574 457.211 303.49C460.338 304.651 463.375 306.08 466.264 307.777C467.782 309.831 468.884 312.212 469.956 314.564C470.909 316.648 471.862 318.702 472.815 320.786C472.666 317.243 471.862 313.76 470.462 310.516C470.671 310.664 470.879 310.813 471.088 310.962C473.202 312.51 479.098 317.72 485.589 331.502C488.24 337.188 488.24 344.035 488.24 344.035Z" fill="#A2CDB7"/>
<path d="M502.95 409.198C502.861 409.198 502.742 409.169 502.653 409.109C502.295 408.841 502.266 408.335 502.176 405.894C501.968 399.226 501.372 381.514 491.724 353.323C484.071 330.937 467.455 319.238 449.678 308.313C449.439 308.164 449.38 307.866 449.499 307.628C449.648 307.39 449.946 307.33 450.184 307.449C468.14 318.494 484.875 330.282 492.647 352.995C502.325 381.305 502.921 399.137 503.159 405.864C503.189 407.055 503.218 408.097 503.308 408.395C503.457 408.573 503.457 408.811 503.308 408.99C503.248 409.109 503.099 409.198 502.95 409.198Z" fill="#91B8A4"/>
<path d="M587.4 345.762C583.202 342.16 577.782 339.986 572.243 339.748C575.966 340.79 579.39 342.844 582.13 345.583C582.457 345.91 582.844 346.506 583.321 347.161C577.484 349.155 571.469 351.269 566.109 353.263C556.58 346.744 551.22 347.518 549.731 347.042C554.228 349.096 558.069 351.864 561.404 355.287C560.213 355.764 559.052 356.24 557.95 356.687C553.037 358.711 547.468 357.907 543.21 354.752C541.9 353.769 540.619 353.263 539.339 353.948C528.291 359.961 531.15 353.948 523.914 356.3C523.02 349.125 533.353 340.76 538.386 337.397C559.409 323.495 588.979 323.971 609.525 338.528C609.376 338.558 599.311 341.743 587.4 345.762Z" fill="#A2CDB7"/>
<path d="M517.273 414.199C517.035 414.199 516.827 414.021 516.767 413.783C514.772 399.553 514.653 387.05 516.41 376.661C518.077 366.927 521.412 358.741 526.385 352.281C534.634 341.564 547.23 335.313 564.918 333.169C565.186 333.14 565.454 333.318 565.484 333.616C565.514 333.884 565.335 334.152 565.037 334.181C547.647 336.295 535.259 342.398 527.189 352.906C522.336 359.247 519.03 367.284 517.392 376.84C515.636 387.14 515.755 399.523 517.75 413.663C517.78 413.931 517.601 414.199 517.333 414.229C517.303 414.199 517.303 414.199 517.273 414.199Z" fill="#91B8A4"/>
<path d="M518.227 321.411C520.579 314.356 524.659 308.015 529.185 302.121C546.277 279.794 570.606 263.094 597.585 255.116C590.796 261.904 578.17 278.633 577.544 279.02C576.77 279.467 563.281 280.985 557.712 282.801C562.804 282.861 568.283 282.384 573.792 283.099C570.427 290.839 559.231 300.484 559.231 300.484C559.231 300.484 550.387 301.912 546.069 303.222C549.047 303.52 551.906 304.026 555.687 304.502C554.318 306.586 549.106 313.373 548.154 313.701C540.649 316.261 532.609 319.387 527.22 324.626C533.056 322.185 538.744 322.096 543.508 321.322C542.913 321.411 533.86 334.122 528.053 338.617C525.612 340.493 519.209 343.499 519.209 343.499C519.209 343.499 514.355 333.021 518.227 321.411Z" fill="#A2CDB7"/>
<path d="M505.898 412.86C505.868 412.86 505.839 412.86 505.809 412.86C505.541 412.8 505.362 412.532 505.422 412.264C507.595 401.935 509.68 391.813 511.437 381.633C512.032 378.179 512.628 374.637 513.194 371.243C516.678 350.048 520.311 328.139 531.269 309.503C535.378 302.508 540.649 295.691 547.855 288.04C548.034 287.832 548.362 287.832 548.57 288.011C548.778 288.189 548.778 288.517 548.6 288.725C541.453 296.316 536.212 303.103 532.162 310.01C521.293 328.496 517.72 350.316 514.236 371.422C513.67 374.845 513.075 378.388 512.479 381.841C510.692 392.022 508.608 402.173 506.464 412.503C506.345 412.711 506.136 412.86 505.898 412.86Z" fill="#91B8A4"/>
<path d="M511.496 302.299C515.933 298.697 523.348 296.018 523.527 296.048C523.08 304.205 522.097 312.331 520.579 320.369C519.507 326.174 517.928 331.949 514.415 336.92C510.752 342.16 507.417 337.843 504.498 334.271C496.577 324.596 493.183 312.689 494.017 300.573C494.017 300.454 494.046 300.305 494.046 300.186C497.798 303.401 501.282 306.973 504.35 310.843C503.754 308.342 503.873 303.341 495.386 289.41C496.369 283.664 497.739 277.889 499.228 272.233C502.712 273.454 506.464 278.038 506.702 279.348C505.719 275.18 504.737 271.013 503.814 266.845C503.337 264.732 503.01 262.469 502.563 260.237C504.409 254.938 515.993 234.397 522.693 229.962C519.298 241.661 521.323 253.896 522.663 265.893C521.561 267.054 515.367 268.066 513.819 276.014C514.295 273.573 522.187 270.149 523.139 270.626C523.259 271.816 523.348 273.007 523.407 274.228C523.765 280.241 523.824 286.284 523.616 292.297C522.961 292.446 522.335 292.684 521.74 292.952C517.452 294.768 513.73 298.132 511.496 302.299Z" fill="#A2CDB7"/>
<path d="M513.432 417.117C513.164 417.117 512.956 416.938 512.926 416.67C509.174 378.596 507.744 339.867 508.608 301.615C508.995 284.2 509.888 265.744 515.904 248.537C515.993 248.27 516.291 248.15 516.529 248.24C516.797 248.329 516.916 248.627 516.827 248.865C510.871 265.952 510.008 284.289 509.591 301.645C508.727 339.867 510.156 378.537 513.908 416.551C513.938 416.819 513.73 417.057 513.462 417.087C513.462 417.117 513.432 417.117 513.432 417.117Z" fill="#91B8A4"/>
<path d="M535.199 408.662L534.127 419.2L534.008 420.421L528.559 473.588H483.564L478.145 420.421L478.026 419.2L476.924 408.662H535.199Z" fill="white"/>
<path d="M534.127 419.2L534.008 420.421H478.144L478.025 419.2H534.127Z" fill="#E1E7F7"/>
<path d="M33.3214 234.487C33.0534 234.487 32.8152 234.397 32.6067 234.189C32.2196 233.802 32.2196 233.177 32.6067 232.76L53.9575 211.416C54.3446 211.029 54.97 211.029 55.3869 211.416C55.774 211.803 55.774 212.428 55.3869 212.845L34.0361 234.189C33.8276 234.368 33.5894 234.487 33.3214 234.487Z" fill="#E1E7F7"/>
<path d="M54.6722 234.487C54.4042 234.487 54.166 234.397 53.9575 234.189L32.6067 212.845C32.2196 212.458 32.2196 211.833 32.6067 211.416C32.9939 211.029 33.6192 211.029 34.0361 211.416L55.3869 232.76C55.774 233.147 55.774 233.772 55.3869 234.189C55.1784 234.368 54.9402 234.487 54.6722 234.487Z" fill="#E1E7F7"/>
<path d="M543.924 94.3663C543.656 94.3663 543.418 94.277 543.209 94.0686C542.822 93.6816 542.822 93.0564 543.209 92.6397L561.255 74.5999C561.642 74.2129 562.267 74.2129 562.684 74.5999C563.071 74.9869 563.071 75.6121 562.684 76.0288L544.639 94.0686C544.46 94.277 544.192 94.3663 543.924 94.3663Z" fill="#E1E7F7"/>
<path d="M561.969 94.3663C561.701 94.3663 561.463 94.277 561.255 94.0686L543.209 76.0288C542.822 75.6418 542.822 75.0167 543.209 74.5999C543.596 74.2129 544.222 74.2129 544.639 74.5999L562.684 92.6397C563.071 93.0267 563.071 93.6518 562.684 94.0686C562.476 94.277 562.237 94.3663 561.969 94.3663Z" fill="#E1E7F7"/>
<path d="M109.107 29.5006C108.839 29.5006 108.6 29.4113 108.392 29.2029C108.005 28.816 108.005 28.1908 108.392 27.7741L120.124 16.075C120.512 15.688 121.137 15.688 121.554 16.075C121.941 16.462 121.941 17.0871 121.554 17.5039L109.821 29.2327C109.643 29.4113 109.375 29.5006 109.107 29.5006Z" fill="#E1E7F7"/>
<path d="M120.839 29.5006C120.571 29.5006 120.333 29.4113 120.124 29.2029L108.392 17.4741C108.005 17.0871 108.005 16.462 108.392 16.0452C108.779 15.6583 109.404 15.6583 109.821 16.0452L121.554 27.7741C121.941 28.161 121.941 28.7862 121.554 29.2029C121.345 29.4113 121.107 29.5006 120.839 29.5006Z" fill="#E1E7F7"/>
<path d="M230.957 71.2361H200.375C189.179 71.2361 180.037 62.1269 180.037 50.9042V20.3319C180.037 9.13894 189.149 0 200.375 0H230.987C242.184 0 251.326 9.10917 251.326 20.3319V50.9042C251.296 62.0972 242.184 71.2361 230.957 71.2361ZM200.375 1.99449C190.281 1.99449 182.062 10.2106 182.062 20.3021V50.9042C182.062 60.9957 190.281 69.2119 200.375 69.2119H230.987C241.082 69.2119 249.301 60.9957 249.301 50.9042V20.3319C249.301 10.2404 241.082 2.02426 230.987 2.02426H200.375V1.99449Z" fill="#E1E7F7"/>
<path d="M215.681 59.1203C202.728 59.1203 192.187 48.5823 192.187 35.6329C192.187 22.6836 202.728 12.1456 215.681 12.1456C228.635 12.1456 239.176 22.6836 239.176 35.6329C239.176 48.5823 228.635 59.1203 215.681 59.1203ZM215.681 14.1103C203.83 14.1103 194.182 23.7553 194.182 35.6032C194.182 47.451 203.83 57.0961 215.681 57.0961C227.533 57.0961 237.181 47.451 237.181 35.6032C237.181 23.7553 227.533 14.1103 215.681 14.1103Z" fill="#E1E7F7"/>
<path d="M199.81 52.988C199.542 52.988 199.303 52.8987 199.095 52.6903C198.708 52.3033 198.708 51.6782 199.095 51.2614L231.106 19.29C231.493 18.903 232.119 18.903 232.536 19.29C232.923 19.677 232.923 20.3021 232.536 20.7189L200.524 52.6903C200.346 52.8689 200.078 52.988 199.81 52.988Z" fill="#E1E7F7"/>
<path d="M162.141 169.294H1.42944C0.863662 169.294 0.416992 168.847 0.416992 168.282V71.2659C0.416992 63.1391 7.0277 56.5305 15.1571 56.5305H148.354C156.483 56.5305 163.094 63.1391 163.094 71.2659V168.282C163.154 168.847 162.707 169.294 162.141 169.294ZM2.44189 167.299H161.129V71.2659C161.129 64.2405 155.411 58.525 148.384 58.525H15.1869C8.15926 58.525 2.44189 64.2405 2.44189 71.2659V167.299Z" fill="#E1E7F7"/>
<path d="M162.588 81.5956H1.01245C0.44667 81.5956 0 81.149 0 80.5834C0 80.0178 0.44667 79.5713 1.01245 79.5713H162.588C163.153 79.5713 163.6 80.0178 163.6 80.5834C163.6 81.149 163.124 81.5956 162.588 81.5956Z" fill="#E1E7F7"/>
<path d="M17.837 75.493C14.621 75.493 12.0303 72.8734 12.0303 69.6882C12.0303 66.4732 14.6507 63.8833 17.837 63.8833C21.053 63.8833 23.6437 66.5029 23.6437 69.6882C23.6735 72.8734 21.053 75.493 17.837 75.493ZM17.837 65.848C15.7227 65.848 14.0254 67.5448 14.0254 69.6584C14.0254 71.772 15.7227 73.4688 17.837 73.4688C19.9512 73.4688 21.6486 71.772 21.6486 69.6584C21.6486 67.5448 19.9512 65.848 17.837 65.848Z" fill="#E1E7F7"/>
<path d="M32.5469 75.493C29.3309 75.493 26.7402 72.8734 26.7402 69.6882C26.7402 66.4732 29.3607 63.8833 32.5469 63.8833C35.763 63.8833 38.3536 66.5029 38.3536 69.6882C38.3536 72.8734 35.763 75.493 32.5469 75.493ZM32.5469 65.848C30.4327 65.848 28.7354 67.5448 28.7354 69.6584C28.7354 71.772 30.4327 73.4688 32.5469 73.4688C34.6612 73.4688 36.3585 71.772 36.3585 69.6584C36.3585 67.5448 34.6612 65.848 32.5469 65.848Z" fill="#E1E7F7"/>
<path d="M47.2579 75.493C44.0419 75.493 41.4512 72.8734 41.4512 69.6882C41.4512 66.4732 44.0716 63.8833 47.2579 63.8833C50.4739 63.8833 53.0646 66.5029 53.0646 69.6882C53.0646 72.8734 50.4441 75.493 47.2579 75.493ZM47.2579 65.848C45.1436 65.848 43.4463 67.5448 43.4463 69.6584C43.4463 71.772 45.1436 73.4688 47.2579 73.4688C49.3721 73.4688 51.0695 71.772 51.0695 69.6584C51.0695 67.5448 49.3423 65.848 47.2579 65.848Z" fill="#E1E7F7"/>
<path fill-rule="evenodd" clip-rule="evenodd" d="M92.5798 104.964L92.4607 104.845C89.3638 101.719 84.2717 101.719 81.1451 104.845L73.9388 112.049C70.8419 115.145 70.8419 120.235 73.9388 123.361L74.0579 123.48C74.3259 123.748 74.5939 123.986 74.8619 124.194L77.5121 121.545C77.2144 121.366 76.9166 121.158 76.6486 120.89L76.5295 120.771C74.8321 119.074 74.8321 116.335 76.5295 114.639L83.7357 107.435C85.4331 105.738 88.1726 105.738 89.87 107.435L89.9891 107.554C91.6864 109.251 91.6864 111.989 89.9891 113.686L86.7135 116.961C87.2793 118.36 87.5473 119.848 87.5175 121.337L92.55 116.306C95.6767 113.15 95.6767 108.06 92.5798 104.964ZM81.9193 115.353C81.6513 115.085 81.3833 114.847 81.1153 114.639L78.465 117.288C78.7628 117.467 79.0606 117.675 79.3286 117.943L79.4477 118.062C81.145 119.759 81.145 122.498 79.4477 124.194L72.2414 131.398C70.5441 133.095 67.8045 133.095 66.1072 131.398L65.9881 131.279C64.2907 129.582 64.2907 126.844 65.9881 125.147L69.2637 121.872C68.6979 120.473 68.4299 118.985 68.4596 117.496L63.4272 122.527C60.3303 125.653 60.3303 130.714 63.4272 133.839L63.5463 133.958C66.6432 137.084 71.7352 137.084 74.8619 133.958L82.0682 126.754C85.1651 123.658 85.1651 118.568 82.0682 115.442L81.9193 115.353Z" fill="#E1E7F7"/>
</g>
<defs>
<clipPath id="clip0_143_20360">
<rect width="629" height="481" fill="white"/>
</clipPath>
</defs>
</svg>
